<svg width="180" height="36" viewBox="0 0 180 36" fill="none" xmlns="http://www.w3.org/2000/svg">
<path d="M158.696 28.3286H169.557L170.768 25.9342H158.696C157.627 25.9342 156.756 26.312 155.962 26.9062C155.133 27.5258 154.365 28.3957 153.545 29.3247C152.685 30.2991 151.748 31.3601 150.58 32.1912C149.389 33.0386 147.98 33.6289 146.217 33.6142C144.765 33.6023 143.367 33.4715 142.014 33.2241C140.656 32.9758 139.347 32.6114 138.079 32.1342C137.496 31.9149 136.918 31.6698 136.345 31.4001C135.815 31.1506 135.284 30.8762 134.753 30.5784H130.375C131.307 31.2617 132.249 31.8819 133.204 32.4379C134.528 33.2077 135.879 33.8555 137.27 34.3788C138.667 34.9043 140.098 35.303 141.576 35.5726C143.06 35.843 144.597 35.986 146.198 35.9996C148.484 36.0182 150.228 35.3482 151.654 34.3848C153.097 33.4093 154.24 32.1142 155.291 30.9242L155.298 30.9162C156.519 29.5332 157.585 28.3286 158.696 28.3286ZM158.696 10.0657H178.789L180 7.67123H158.696C157.585 7.67123 156.519 6.46664 155.298 5.08366L155.291 5.07557C154.24 3.88518 153.097 2.59056 151.654 1.61505C150.228 0.651443 148.484 -0.0185332 146.198 0.000390916C144.597 0.0135157 143.06 0.15682 141.576 0.427252C140.098 0.696768 138.667 1.0957 137.27 1.621C135.879 2.14446 134.528 2.79231 133.204 3.5621C132.249 4.11792 131.307 4.73814 130.375 5.42139H134.753C135.284 5.12379 135.815 4.84924 136.345 4.59972C136.918 4.3302 137.496 4.08495 138.079 3.86564C139.347 3.38842 140.656 3.02398 142.014 2.77583C143.367 2.52844 144.765 2.3975 146.217 2.38559C147.98 2.37094 149.389 2.96125 150.58 3.80857C151.748 4.6397 152.685 5.70068 153.545 6.67512C154.365 7.60423 155.133 8.47398 155.962 9.09374C156.756 9.68802 157.627 10.0657 158.696 10.0657ZM163 22.7741H172.365L173.576 20.3795H163C162.519 20.3795 162.061 20.3074 161.645 20.1773C161.207 20.0404 160.816 19.8372 160.494 19.5846C160.228 19.3761 160.011 19.1333 159.861 18.8703C159.705 18.5969 159.618 18.3022 159.618 18C159.618 17.6977 159.705 17.4027 159.861 17.1296C160.011 16.8665 160.228 16.6237 160.494 16.4152C160.816 16.1627 161.207 15.9594 161.645 15.8226C162.061 15.6925 162.519 15.6203 163 15.6203H175.981L177.192 13.2259H163C162.252 13.2259 161.534 13.3462 160.877 13.5638C160.196 13.7897 159.579 14.1189 159.061 14.5259C158.491 14.9727 158.033 15.5127 157.723 16.1163C157.429 16.6886 157.266 17.3251 157.266 18C157.266 18.6748 157.429 19.3112 157.723 19.8837C158.033 20.4874 158.491 21.0274 159.061 21.4741C159.579 21.881 160.196 22.2103 160.877 22.436C161.534 22.6536 162.252 22.7741 163 22.7741Z" fill="#1B2A55"/>
<path d="M2.72285 23.7406C2.56513 23.7406 2.43049 23.6843 2.32029 23.5721C2.20964 23.4593 2.15477 23.323 2.15477 23.1623V21.3792C2.15477 21.2022 2.20964 21.0573 2.32029 20.9452C2.43049 20.8325 2.56513 20.7767 2.72285 20.7767H3.59873C4.05662 20.7767 4.45093 20.6761 4.78257 20.4754C5.11421 20.2743 5.42157 19.953 5.70613 19.5112C5.9901 19.0692 6.27421 18.5032 6.55818 17.8121L11.08 7.32878C11.1431 7.16823 11.2301 7.05179 11.3403 6.9796C11.4509 6.90757 11.5772 6.87109 11.7195 6.87109H13.921C14.0473 6.87109 14.1615 6.91962 14.2645 7.01592C14.3669 7.11238 14.4182 7.22455 14.4182 7.35305C14.4182 7.43363 14.4104 7.50582 14.3943 7.57007C14.3789 7.63432 14.3551 7.69857 14.3234 7.76282L9.5647 18.8244C9.17038 19.7081 8.79946 20.4591 8.45237 21.0779C8.10514 21.6962 7.72597 22.2022 7.31562 22.5957C6.90541 22.9896 6.42009 23.2788 5.85966 23.4636C5.29937 23.6484 4.62469 23.7406 3.83517 23.7406H2.72285ZM6.39265 19.5232L0.0713625 7.6421C0.0236852 7.5458 0 7.46568 0 7.40143C0 7.2566 0.055321 7.13237 0.165968 7.02752C0.276166 6.92329 0.394762 6.87109 0.521002 6.87109H2.84129C2.98313 6.87109 3.10577 6.90757 3.20817 6.9796C3.31057 7.05179 3.39333 7.16823 3.45645 7.32878L8.12073 16.1975L6.39265 19.5232ZM22.2311 23.7406C22.0728 23.7406 21.9388 23.6884 21.8286 23.5842C21.7178 23.4793 21.6624 23.3387 21.6624 23.1623V7.47361C21.6624 7.29673 21.7178 7.15236 21.8286 7.03973C21.9388 6.92756 22.0728 6.87109 22.2311 6.87109H34.6367C34.81 6.87109 34.9523 6.92756 35.0625 7.03973C35.1732 7.15236 35.2286 7.29673 35.2286 7.47361V23.1623C35.2286 23.323 35.1732 23.4593 35.0625 23.5721C34.9523 23.6843 34.81 23.7406 34.6367 23.7406H32.5056C32.3478 23.7406 32.2138 23.6843 32.1032 23.5721C31.993 23.4593 31.9375 23.323 31.9375 23.1623V9.88354H24.9535V23.1623C24.9535 23.323 24.9022 23.4593 24.7994 23.5721C24.6968 23.6843 24.5588 23.7406 24.3854 23.7406H22.2311ZM43.9406 23.9817C42.1889 23.9817 40.8002 23.4672 39.7743 22.4392C38.7483 21.4112 38.1958 19.9487 38.1166 18.0534C38.1011 17.8927 38.0933 17.6879 38.0933 17.4388C38.0933 17.1896 38.1011 16.9928 38.1166 16.8484C38.1798 15.6272 38.4523 14.5792 38.9335 13.7033C39.4152 12.8275 40.0821 12.1529 40.9343 11.6789C41.7863 11.2049 42.7884 10.9679 43.9406 10.9679C45.2191 10.9679 46.2927 11.2371 47.1608 11.7752C48.029 12.3135 48.6839 13.0608 49.1258 14.0166C49.5676 14.9725 49.7886 16.0769 49.7886 17.3303V17.8364C49.7886 17.997 49.7333 18.1334 49.6231 18.2462C49.5123 18.3583 49.3706 18.4147 49.1967 18.4147H41.3367C41.3367 18.4147 41.3367 18.4389 41.3367 18.4868C41.3367 18.5352 41.3367 18.5752 41.3367 18.6074C41.3523 19.1698 41.4589 19.6881 41.6565 20.1621C41.8536 20.636 42.1454 21.0173 42.5323 21.3064C42.9189 21.5956 43.3803 21.7404 43.9174 21.7404C44.3592 21.7404 44.7301 21.6719 45.0297 21.5355C45.3299 21.3992 45.5745 21.2421 45.7639 21.0657C45.9533 20.8888 46.0873 20.7445 46.1665 20.6318C46.3082 20.4391 46.423 20.3226 46.5095 20.2822C46.5963 20.2421 46.7267 20.2221 46.9001 20.2221H48.9364C49.0943 20.2221 49.2247 20.2706 49.3271 20.3669C49.4295 20.4633 49.473 20.5833 49.4569 20.7281C49.4414 20.9851 49.3111 21.2986 49.0664 21.6682C48.8222 22.0374 48.4709 22.3993 48.013 22.7526C47.5551 23.106 46.9834 23.3993 46.2968 23.6321C45.6098 23.8648 44.8249 23.9817 43.9406 23.9817ZM41.3367 16.3902H46.569V16.3181C46.569 15.6914 46.466 15.1411 46.2611 14.6671C46.0557 14.1931 45.7561 13.8239 45.3613 13.5585C44.9666 13.2935 44.4933 13.1609 43.9406 13.1609C43.3886 13.1609 42.9147 13.2935 42.5205 13.5585C42.1257 13.8239 41.8298 14.1931 41.6326 14.6671C41.435 15.1411 41.3367 15.6914 41.3367 16.3181V16.3902ZM56.0628 23.7406C55.889 23.7406 55.7508 23.6843 55.6484 23.5721C55.546 23.4593 55.4947 23.323 55.4947 23.1623V13.7633H51.6356C51.4618 13.7633 51.3237 13.7076 51.2212 13.5948C51.1188 13.4822 51.0675 13.3378 51.0675 13.1609V11.7874C51.0675 11.6267 51.1188 11.4904 51.2212 11.3776C51.3237 11.2655 51.4618 11.2091 51.6356 11.2091H62.3841C62.5574 11.2091 62.6997 11.2655 62.8105 11.3776C62.9207 11.4904 62.976 11.6267 62.976 11.7874V13.1609C62.976 13.3378 62.9207 13.4822 62.8105 13.5948C62.6997 13.7076 62.5574 13.7633 62.3841 13.7633H58.5488V23.1623C58.5488 23.323 58.4934 23.4593 58.3826 23.5721C58.2724 23.6843 58.1386 23.7406 57.9807 23.7406H56.0628ZM65.4381 26.9262C65.2815 26.9262 65.1464 26.8704 65.0356 26.7578C64.9254 26.6456 64.8701 26.5087 64.8701 26.348V11.7874C64.8701 11.6267 64.9254 11.4898 65.0356 11.3776C65.1459 11.2655 65.2804 11.2091 65.4381 11.2091H67.3085C67.4823 11.2091 67.6205 11.2655 67.7229 11.3776C67.8253 11.4904 67.8766 11.6267 67.8766 11.7874V12.7512C68.2557 12.2372 68.7531 11.8117 69.3682 11.4741C69.9838 11.137 70.7495 10.9679 71.6648 10.9679C72.5014 10.9679 73.2272 11.1049 73.843 11.3776C74.4586 11.651 74.9714 12.0407 75.3816 12.5462C75.7924 13.0524 76.108 13.6511 76.329 14.3422C76.5498 15.0326 76.676 15.7957 76.7077 16.6314C76.7231 16.9042 76.7315 17.1855 76.7315 17.4746C76.7315 17.7642 76.7231 18.0534 76.7077 18.3425C76.6916 19.1457 76.5736 19.8888 76.3528 20.5717C76.1313 21.2543 75.8121 21.8489 75.3935 22.355C74.9755 22.8611 74.4586 23.2588 73.843 23.5478C73.2272 23.837 72.5014 23.9817 71.6648 23.9817C70.8126 23.9817 70.0862 23.8248 69.4867 23.5115C68.8869 23.1982 68.3976 22.7848 68.0189 22.2708V26.348C68.0189 26.5081 67.9676 26.646 67.8652 26.7578C67.7628 26.8704 67.6235 26.9262 67.4508 26.9262H65.4381ZM70.7889 21.4028C71.4677 21.4028 71.9965 21.2543 72.3752 20.9572C72.7539 20.6598 73.0302 20.2706 73.2035 19.7882C73.3773 19.3062 73.4797 18.7759 73.5113 18.1976C73.5274 17.7158 73.5274 17.2339 73.5113 16.7521C73.4797 16.1732 73.3773 15.6435 73.2035 15.1611C73.0302 14.6791 72.7539 14.2895 72.3752 13.9924C71.9965 13.6954 71.4677 13.5469 70.7889 13.5469C70.1417 13.5469 69.617 13.699 69.2145 14.0046C68.812 14.31 68.5202 14.6991 68.3387 15.1731C68.1569 15.6472 68.0503 16.1332 68.0189 16.6314C68.0028 16.9206 67.995 17.2259 67.995 17.5472C67.995 17.8684 68.0028 18.1819 68.0189 18.4868C68.0349 18.9693 68.1451 19.4311 68.3505 19.8729C68.5553 20.3142 68.8555 20.6798 69.2502 20.9694C69.6444 21.2585 70.1577 21.4028 70.7889 21.4028ZM84.8284 23.9817C83.5654 23.9817 82.5044 23.7569 81.6439 23.3067C80.7841 22.8569 80.129 22.2222 79.679 21.4028C79.2293 20.5833 78.9728 19.6275 78.9097 18.5352C78.8936 18.2462 78.8858 17.8927 78.8858 17.4746C78.8858 17.057 78.8936 16.7036 78.9097 16.4145C78.9728 15.3059 79.2371 14.3458 79.7028 13.5348C80.1683 12.7232 80.8312 12.0928 81.6916 11.6426C82.5514 11.1928 83.597 10.9679 84.8284 10.9679C86.0592 10.9679 87.1054 11.1928 87.9652 11.6426C88.8257 12.0928 89.4883 12.7232 89.954 13.5348C90.4197 14.3458 90.684 15.3059 90.7471 16.4145C90.7627 16.7036 90.771 17.057 90.771 17.4746C90.771 17.8927 90.7627 18.2462 90.7471 18.5352C90.684 19.6275 90.4275 20.5833 89.9779 21.4028C89.5278 22.2222 88.8727 22.8569 88.0129 23.3067C87.1525 23.7569 86.0908 23.9817 84.8284 23.9817ZM84.8284 21.5956C85.665 21.5956 86.3122 21.3264 86.7695 20.7883C87.2274 20.25 87.4799 19.459 87.5276 18.4147C87.543 18.1734 87.5508 17.8607 87.5508 17.4746C87.5508 17.0891 87.543 16.7757 87.5276 16.5351C87.4799 15.4907 87.2274 14.6991 86.7695 14.161C86.3122 13.6227 85.665 13.3537 84.8284 13.3537C83.9918 13.3537 83.3446 13.6227 82.8871 14.161C82.4293 14.6991 82.1768 15.4907 82.1292 16.5351C82.1136 16.7757 82.106 17.0891 82.106 17.4746C82.106 17.8607 82.1136 18.1734 82.1292 18.4147C82.1768 19.459 82.4293 20.25 82.8871 20.7883C83.3446 21.3264 83.9918 21.5956 84.8284 21.5956ZM93.9669 23.7406C93.809 23.7406 93.6749 23.6843 93.5643 23.5721C93.4541 23.4593 93.3988 23.323 93.3988 23.1623V11.7874C93.3988 11.6267 93.4541 11.4904 93.5643 11.3776C93.6749 11.2655 93.809 11.2091 93.9669 11.2091H99.2229C100.896 11.2091 102.135 11.5225 102.94 12.1486C103.745 12.7754 104.147 13.6191 104.147 14.6791C104.147 15.3543 104.021 15.8762 103.768 16.2459C103.516 16.615 103.169 16.9363 102.727 17.2096C103.279 17.4666 103.71 17.8564 104.017 18.3783C104.325 18.9007 104.479 19.4747 104.479 20.1015C104.479 21.2585 104.057 22.1539 103.212 22.7884C102.368 23.423 101.125 23.7406 99.483 23.7406H93.9669ZM96.429 21.5719H99.2704C99.9016 21.5719 100.407 21.4512 100.785 21.2101C101.164 20.9694 101.354 20.5918 101.354 20.0772C101.354 19.5475 101.18 19.162 100.833 18.9207C100.486 18.6796 99.9647 18.5595 99.2704 18.5595H96.429V21.5719ZM96.429 16.3181H99.1757C99.8069 16.3181 100.304 16.1854 100.667 15.9205C101.03 15.6556 101.212 15.2658 101.212 14.7518C101.212 14.2373 101.026 13.8802 100.655 13.679C100.285 13.4784 99.791 13.3778 99.1757 13.3778H96.429V16.3181ZM107.746 23.7406C107.604 23.7406 107.478 23.6843 107.367 23.5721C107.257 23.4593 107.201 23.3308 107.201 23.1866V11.7874C107.201 11.6267 107.257 11.4904 107.367 11.3776C107.478 11.2655 107.612 11.2091 107.769 11.2091H109.734C109.908 11.2091 110.046 11.2655 110.149 11.3776C110.252 11.4904 110.303 11.6267 110.303 11.7874V21.3064L109.474 20.704L115.985 11.5946C116.064 11.4819 116.15 11.3897 116.245 11.3177C116.34 11.245 116.466 11.2091 116.624 11.2091H118.423C118.565 11.2091 118.692 11.2612 118.802 11.3656C118.913 11.4703 118.968 11.5946 118.968 11.7395V23.1623C118.968 23.323 118.913 23.4593 118.802 23.5721C118.692 23.6843 118.558 23.7406 118.4 23.7406H116.435C116.261 23.7406 116.123 23.6843 116.02 23.5721C115.917 23.4593 115.866 23.323 115.866 23.1623V14.0768L116.742 14.1973L110.184 23.3551C110.121 23.4515 110.039 23.5399 109.936 23.62C109.833 23.7006 109.703 23.7406 109.545 23.7406H107.746ZM129.74 23.7406C129.582 23.7406 129.448 23.6843 129.337 23.5721C129.227 23.4593 129.172 23.323 129.172 23.1623V19.0656C128.777 19.419 128.292 19.6797 127.716 19.8486C127.139 20.0173 126.489 20.1015 125.763 20.1015C124.326 20.1015 123.217 19.7523 122.436 19.0535C121.655 18.3547 121.264 17.2259 121.264 15.6671V11.7874C121.264 11.6267 121.319 11.4904 121.43 11.3776C121.54 11.2655 121.674 11.2091 121.832 11.2091H123.869C124.026 11.2091 124.16 11.2655 124.271 11.3776C124.381 11.4904 124.437 11.6267 124.437 11.7874V15.4987C124.437 16.1412 124.606 16.603 124.946 16.8842C125.285 17.1655 125.834 17.3061 126.591 17.3061C127.365 17.3061 127.988 17.2018 128.461 16.9928C128.935 16.7841 129.172 16.4145 129.172 15.8842V11.7874C129.172 11.6267 129.227 11.4904 129.337 11.3776C129.448 11.2655 129.582 11.2091 129.74 11.2091H131.871C132.029 11.2091 132.163 11.2655 132.273 11.3776C132.384 11.4904 132.439 11.6267 132.439 11.7874V23.1623C132.439 23.323 132.384 23.4593 132.273 23.5721C132.163 23.6843 132.029 23.7406 131.871 23.7406H129.74ZM139.21 23.9817C138.389 23.9817 137.647 23.8169 136.984 23.4879C136.321 23.1581 135.797 22.7162 135.41 22.1622C135.023 21.6076 134.83 20.9851 134.83 20.2942C134.83 19.1698 135.28 18.2741 136.18 17.6073C137.079 16.9406 138.255 16.4945 139.707 16.2697L142.95 15.7877V15.2816C142.95 14.6071 142.785 14.0845 142.453 13.7154C142.122 13.3457 141.553 13.1609 140.748 13.1609C140.18 13.1609 139.719 13.2778 139.363 13.5106C139.009 13.7433 138.744 14.0525 138.57 14.4385C138.444 14.6471 138.263 14.7518 138.026 14.7518H136.156C135.982 14.7518 135.852 14.7034 135.765 14.6071C135.678 14.5106 135.635 14.3821 135.635 14.2216C135.651 13.9646 135.757 13.6511 135.955 13.2815C136.152 12.9123 136.452 12.5547 136.854 12.2092C137.257 11.8637 137.781 11.5704 138.428 11.3297C139.076 11.0886 139.857 10.9679 140.772 10.9679C141.767 10.9679 142.607 11.0927 143.294 11.3413C143.98 11.5904 144.529 11.9238 144.939 12.342C145.349 12.7595 145.649 13.2493 145.839 13.8118C146.028 14.3742 146.123 14.9683 146.123 15.595V23.1623C146.123 23.323 146.068 23.4593 145.957 23.5721C145.847 23.6843 145.713 23.7406 145.555 23.7406H143.637C143.463 23.7406 143.325 23.6843 143.223 23.5721C143.12 23.4593 143.069 23.323 143.069 23.1623V22.2222C142.864 22.5114 142.587 22.7927 142.24 23.066C141.893 23.3387 141.471 23.5599 140.974 23.7285C140.476 23.897 139.889 23.9817 139.21 23.9817ZM140.015 21.6919C140.567 21.6919 141.068 21.5719 141.518 21.3307C141.968 21.0895 142.323 20.7161 142.584 20.21C142.844 19.7039 142.974 19.0656 142.974 18.2941V17.7879L140.607 18.1734C139.675 18.3182 138.981 18.5511 138.523 18.8723C138.065 19.1941 137.837 19.5875 137.837 20.0536C137.837 20.4069 137.943 20.7081 138.156 20.9572C138.369 21.2064 138.642 21.3906 138.973 21.5113C139.305 21.6319 139.652 21.6919 140.015 21.6919Z" fill="#1B2A55"/>
</svg>
