<svg width="220" height="43" viewBox="0 0 220 43" fill="none" xmlns="http://www.w3.org/2000/svg">
<path d="M193.962 33.6767H207.237L208.716 30.8303H193.962C192.655 30.8303 191.591 31.2794 190.621 31.9858C189.608 32.7224 188.669 33.7565 187.667 34.8609C186.615 36.0193 185.47 37.2806 184.043 38.2686C182.587 39.2759 180.865 39.9776 178.71 39.9602C176.935 39.9461 175.227 39.7906 173.573 39.4965C171.913 39.2013 170.314 38.7681 168.763 38.2007C168.051 37.94 167.344 37.6487 166.644 37.3281C165.996 37.0315 165.347 36.7052 164.698 36.3513H159.348C160.487 37.1635 161.637 37.9009 162.806 38.5618C164.423 39.4769 166.075 40.247 167.775 40.8692C169.482 41.4938 171.231 41.9679 173.038 42.2883C174.851 42.6098 176.73 42.7798 178.687 42.7959C181.481 42.818 183.612 42.0216 185.355 40.8762C187.119 39.7166 188.516 38.177 189.8 36.7624L189.809 36.7528C191.302 35.1087 192.604 33.6767 193.962 33.6767ZM193.962 11.966H218.52L220 9.11947H193.962C192.604 9.11947 191.302 7.68748 189.809 6.0434L189.8 6.03378C188.516 4.61866 187.119 3.07962 185.355 1.91995C183.612 0.774428 181.481 -0.0220321 178.687 0.000464716C176.73 0.0160673 174.851 0.186426 173.038 0.507912C171.231 0.82831 169.482 1.30256 167.775 1.92702C166.075 2.54931 164.423 3.31947 162.806 4.23458C161.637 4.89533 160.487 5.63265 159.348 6.44489H164.698C165.347 6.09111 165.996 5.76473 166.644 5.46809C167.344 5.1477 168.051 4.85614 168.763 4.59544C170.314 4.02812 171.913 3.59487 173.573 3.29988C175.227 3.00578 176.935 2.85012 178.71 2.83597C180.865 2.81855 182.587 3.52031 184.043 4.52758C185.47 5.51563 186.615 6.7769 187.667 7.9353C188.669 9.03982 189.608 10.0738 190.621 10.8105C191.591 11.517 192.655 11.966 193.962 11.966ZM199.223 27.0735H210.668L212.148 24.227H199.223C198.635 24.227 198.075 24.1412 197.566 23.9866C197.031 23.8238 196.553 23.5822 196.159 23.2819C195.834 23.0341 195.57 22.7454 195.386 22.4329C195.195 22.1077 195.089 21.7574 195.089 21.3982C195.089 21.0388 195.195 20.6881 195.386 20.3635C195.57 20.0507 195.834 19.7621 196.159 19.5143C196.553 19.214 197.031 18.9723 197.566 18.8098C198.075 18.655 198.635 18.5692 199.223 18.5692H215.089L216.568 15.7228H199.223C198.308 15.7228 197.431 15.8658 196.628 16.1245C195.796 16.393 195.042 16.7843 194.408 17.2682C193.711 17.7994 193.152 18.4413 192.772 19.1588C192.413 19.8392 192.214 20.5959 192.214 21.3982C192.214 22.2004 192.413 22.957 192.772 23.6375C193.151 24.3552 193.711 24.9971 194.408 25.5282C195.042 26.0118 195.796 26.4034 196.628 26.6717C197.431 26.9304 198.308 27.0735 199.223 27.0735Z" fill="white"/>
<path d="M3.32792 28.2222C3.13515 28.2222 2.97059 28.1553 2.8359 28.0219C2.70067 27.8879 2.63361 27.7258 2.63361 27.5348V25.415C2.63361 25.2046 2.70067 25.0324 2.8359 24.8991C2.97059 24.7652 3.13515 24.6988 3.32792 24.6988H4.39844C4.95807 24.6988 5.44001 24.5792 5.84535 24.3406C6.25069 24.1015 6.62634 23.7196 6.97414 23.1944C7.32121 22.669 7.66846 21.9961 8.01553 21.1746L13.5422 8.71206C13.6194 8.5212 13.7256 8.38278 13.8603 8.29696C13.9956 8.21133 14.1499 8.16797 14.3238 8.16797H17.0145C17.1688 8.16797 17.3085 8.22566 17.4343 8.34014C17.5595 8.4548 17.6222 8.58815 17.6222 8.74091C17.6222 8.83671 17.6126 8.92252 17.593 8.9989C17.5742 9.07528 17.545 9.15166 17.5064 9.22804L11.6902 22.378C11.2082 23.4284 10.7549 24.3212 10.3306 25.0569C9.90625 25.7918 9.44283 26.3935 8.94128 26.8612C8.43992 27.3294 7.84676 27.6732 7.16178 27.8929C6.47699 28.1126 5.65239 28.2222 4.68742 28.2222H3.32792ZM7.81322 23.2087L0.0872206 9.08453C0.0289485 8.97005 0 8.8748 0 8.79842C0 8.62625 0.0676144 8.47857 0.20285 8.35393C0.337535 8.23002 0.482486 8.16797 0.636778 8.16797H3.47268C3.64603 8.16797 3.79593 8.21133 3.92109 8.29696C4.04625 8.38278 4.14739 8.5212 4.22454 8.71206L9.92531 19.2551L7.81322 23.2087ZM27.1713 28.2222C26.9778 28.2222 26.814 28.1602 26.6793 28.0363C26.5439 27.9116 26.4762 27.7445 26.4762 27.5348V8.88424C26.4762 8.67396 26.5439 8.50234 26.6793 8.36845C26.814 8.2351 26.9778 8.16797 27.1713 8.16797H42.3336C42.5454 8.16797 42.7193 8.2351 42.854 8.36845C42.9894 8.50234 43.057 8.67396 43.057 8.88424V27.5348C43.057 27.7258 42.9894 27.8879 42.854 28.0219C42.7193 28.1553 42.5454 28.2222 42.3336 28.2222H39.7289C39.5361 28.2222 39.3723 28.1553 39.2371 28.0219C39.1024 27.8879 39.0346 27.7258 39.0346 27.5348V11.7491H30.4987V27.5348C30.4987 27.7258 30.436 27.8879 30.3103 28.0219C30.1849 28.1553 30.0162 28.2222 29.8043 28.2222H27.1713ZM53.7051 28.5089C51.564 28.5089 49.8668 27.8973 48.6129 26.6752C47.3589 25.4531 46.6836 23.7145 46.5869 21.4614C46.5678 21.2704 46.5583 21.0269 46.5583 20.7308C46.5583 20.4345 46.5678 20.2005 46.5869 20.0289C46.664 18.5771 46.9972 17.3312 47.5852 16.29C48.174 15.2488 48.9891 14.4469 50.0306 13.8834C51.072 13.3199 52.2968 13.0382 53.7051 13.0382C55.2676 13.0382 56.5798 13.3582 57.6408 13.9979C58.702 14.6378 59.5024 15.5262 60.0424 16.6625C60.5825 17.7988 60.8526 19.1117 60.8526 20.6018V21.2034C60.8526 21.3943 60.7849 21.5565 60.6502 21.6905C60.5148 21.8239 60.3417 21.8908 60.1291 21.8908H50.5225C50.5225 21.8908 50.5225 21.9197 50.5225 21.9766C50.5225 22.0342 50.5225 22.0817 50.5225 22.12C50.5415 22.7885 50.6718 23.4047 50.9133 23.9682C51.1543 24.5315 51.5109 24.9849 51.9838 25.3285C52.4562 25.6723 53.0203 25.8445 53.6767 25.8445C54.2167 25.8445 54.67 25.763 55.0362 25.6008C55.403 25.4388 55.7021 25.2521 55.9335 25.0424C56.165 24.8321 56.3288 24.6605 56.4255 24.5266C56.5987 24.2974 56.7391 24.159 56.8448 24.1109C56.9509 24.0632 57.1103 24.0395 57.3221 24.0395H59.811C60.0039 24.0395 60.1634 24.0972 60.2885 24.2116C60.4137 24.3263 60.4668 24.4689 60.4472 24.6411C60.4282 24.9466 60.2689 25.3192 59.9699 25.7586C59.6714 26.1975 59.242 26.6277 58.6824 27.0477C58.1227 27.4679 57.424 27.8166 56.5848 28.0932C55.7451 28.3699 54.7858 28.5089 53.7051 28.5089ZM50.5225 19.4842H56.9175V19.3984C56.9175 18.6535 56.7917 17.9993 56.5412 17.4357C56.2901 16.8722 55.924 16.4334 55.4415 16.1179C54.959 15.8029 54.3805 15.6453 53.7051 15.6453C53.0304 15.6453 52.4511 15.8029 51.9694 16.1179C51.4869 16.4334 51.1252 16.8722 50.8842 17.4357C50.6427 17.9993 50.5225 18.6535 50.5225 19.3984V19.4842ZM68.521 28.2222C68.3086 28.2222 68.1397 28.1553 68.0145 28.0219C67.8894 27.8879 67.8267 27.7258 67.8267 27.5348V16.3613H63.11C62.8976 16.3613 62.7288 16.2951 62.6035 16.161C62.4783 16.0271 62.4156 15.8555 62.4156 15.6453V14.0124C62.4156 13.8214 62.4783 13.6594 62.6035 13.5253C62.7288 13.3919 62.8976 13.325 63.11 13.325H76.247C76.4588 13.325 76.6328 13.3919 76.7682 13.5253C76.9029 13.6594 76.9705 13.8214 76.9705 14.0124V15.6453C76.9705 15.8555 76.9029 16.0271 76.7682 16.161C76.6328 16.2951 76.4588 16.3613 76.247 16.3613H71.5594V27.5348C71.5594 27.7258 71.4918 27.8879 71.3564 28.0219C71.2217 28.1553 71.0581 28.2222 70.8651 28.2222H68.521ZM79.9797 32.0093C79.7882 32.0093 79.6231 31.9429 79.4877 31.809C79.353 31.6757 79.2854 31.5129 79.2854 31.3219V14.0124C79.2854 13.8214 79.353 13.6586 79.4877 13.5253C79.6226 13.3919 79.787 13.325 79.9797 13.325H82.2657C82.4781 13.325 82.647 13.3919 82.7722 13.5253C82.8974 13.6594 82.96 13.8214 82.96 14.0124V15.1581C83.4235 14.5471 84.0313 14.0413 84.7831 13.64C85.5356 13.2392 86.4714 13.0382 87.5901 13.0382C88.6126 13.0382 89.4997 13.2011 90.2523 13.5253C91.0047 13.8502 91.6314 14.3136 92.1328 14.9145C92.6349 15.5163 93.0206 16.228 93.2907 17.0495C93.5606 17.8703 93.7149 18.7774 93.7536 19.7709C93.7724 20.0953 93.7827 20.4296 93.7827 20.7732C93.7827 21.1176 93.7724 21.4614 93.7536 21.805C93.734 22.7599 93.5897 23.6432 93.3198 24.4551C93.0492 25.2666 92.659 25.9735 92.1474 26.5751C91.6365 27.1767 91.0047 27.6495 90.2523 27.9931C89.4997 28.3369 88.6126 28.5089 87.5901 28.5089C86.5485 28.5089 85.6607 28.3224 84.9279 27.9499C84.1949 27.5774 83.5968 27.086 83.1339 26.4749V31.3219C83.1339 31.5122 83.0713 31.6762 82.9461 31.809C82.821 31.9429 82.6507 32.0093 82.4396 32.0093H79.9797ZM86.5196 25.4431C87.3491 25.4431 87.9954 25.2666 88.4583 24.9134C88.9212 24.5598 89.2589 24.0972 89.4708 23.5237C89.6831 22.9507 89.8083 22.3203 89.847 21.6328C89.8666 21.0601 89.8666 20.4871 89.847 19.9144C89.8083 19.2262 89.6831 18.5965 89.4708 18.023C89.2589 17.4501 88.9212 16.9869 88.4583 16.6337C87.9954 16.2806 87.3491 16.1041 86.5196 16.1041C85.7285 16.1041 85.0872 16.285 84.5953 16.6482C84.1033 17.0112 83.7467 17.4738 83.5248 18.0374C83.3027 18.6009 83.1724 19.1787 83.1339 19.7709C83.1143 20.1147 83.1048 20.4777 83.1048 20.8596C83.1048 21.2415 83.1143 21.6142 83.1339 21.9766C83.1535 22.5501 83.2882 23.0991 83.5393 23.6244C83.7896 24.149 84.1564 24.5836 84.6389 24.9279C85.1207 25.2715 85.7481 25.4431 86.5196 25.4431ZM103.679 28.5089C102.135 28.5089 100.838 28.2416 99.7867 27.7064C98.7358 27.1718 97.9352 26.4172 97.3851 25.4431C96.8356 24.4689 96.522 23.3326 96.4449 22.0342C96.4253 21.6905 96.4158 21.2704 96.4158 20.7732C96.4158 20.2769 96.4253 19.8567 96.4449 19.5131C96.522 18.1952 96.8451 17.0538 97.4143 16.0897C97.9832 15.1249 98.7934 14.3754 99.845 13.8402C100.896 13.3056 102.174 13.0382 103.679 13.0382C105.183 13.0382 106.462 13.3056 107.513 13.8402C108.564 14.3754 109.374 15.1249 109.943 16.0897C110.513 17.0538 110.836 18.1952 110.913 19.5131C110.932 19.8567 110.942 20.2769 110.942 20.7732C110.942 21.2704 110.932 21.6905 110.913 22.0342C110.836 23.3326 110.522 24.4689 109.973 25.4431C109.423 26.4172 108.622 27.1718 107.571 27.7064C106.519 28.2416 105.222 28.5089 103.679 28.5089ZM103.679 25.6723C104.701 25.6723 105.492 25.3523 106.051 24.7125C106.611 24.0727 106.92 23.1323 106.978 21.8908C106.997 21.604 107.006 21.2323 107.006 20.7732C107.006 20.315 106.997 19.9425 106.978 19.6564C106.92 18.4149 106.611 17.4738 106.051 16.8341C105.492 16.1942 104.701 15.8744 103.679 15.8744C102.656 15.8744 101.865 16.1942 101.306 16.8341C100.747 17.4738 100.438 18.4149 100.38 19.6564C100.361 19.9425 100.352 20.315 100.352 20.7732C100.352 21.2323 100.361 21.604 100.38 21.8908C100.438 23.1323 100.747 24.0727 101.306 24.7125C101.865 25.3523 102.656 25.6723 103.679 25.6723ZM114.848 28.2222C114.655 28.2222 114.491 28.1553 114.356 28.0219C114.221 27.8879 114.154 27.7258 114.154 27.5348V14.0124C114.154 13.8214 114.221 13.6594 114.356 13.5253C114.491 13.3919 114.655 13.325 114.848 13.325H121.272C123.317 13.325 124.831 13.6975 125.815 14.4419C126.799 15.187 127.291 16.1899 127.291 17.4501C127.291 18.2527 127.136 18.8732 126.828 19.3126C126.519 19.7515 126.095 20.1334 125.555 20.4583C126.23 20.7638 126.756 21.2272 127.132 21.8477C127.508 22.4687 127.696 23.151 127.696 23.8961C127.696 25.2715 127.18 26.3359 126.148 27.0903C125.116 27.8447 123.597 28.2222 121.59 28.2222H114.848ZM117.857 25.6442H121.33C122.102 25.6442 122.719 25.5007 123.182 25.214C123.645 24.9279 123.877 24.4791 123.877 23.8673C123.877 23.2376 123.664 22.7793 123.24 22.4924C122.816 22.2058 122.179 22.063 121.33 22.063H117.857V25.6442ZM117.857 19.3984H121.214C121.986 19.3984 122.594 19.2407 123.037 18.9258C123.481 18.6108 123.703 18.1475 123.703 17.5364C123.703 16.9248 123.476 16.5003 123.023 16.2612C122.57 16.0226 121.966 15.9031 121.214 15.9031H117.857V19.3984ZM131.689 28.2222C131.515 28.2222 131.361 28.1553 131.226 28.0219C131.091 27.8879 131.024 27.7351 131.024 27.5636V14.0124C131.024 13.8214 131.091 13.6594 131.226 13.5253C131.361 13.3919 131.525 13.325 131.718 13.325H134.119C134.332 13.325 134.501 13.3919 134.626 13.5253C134.752 13.6594 134.814 13.8214 134.814 14.0124V25.3285L133.801 24.6124L141.759 13.7833C141.856 13.6492 141.961 13.5396 142.077 13.454C142.193 13.3676 142.348 13.325 142.54 13.325H144.739C144.913 13.325 145.067 13.3869 145.202 13.511C145.337 13.6354 145.405 13.7833 145.405 13.9555V27.5348C145.405 27.7258 145.337 27.8879 145.202 28.0219C145.067 28.1553 144.903 28.2222 144.71 28.2222H142.309C142.096 28.2222 141.928 28.1553 141.802 28.0219C141.676 27.8879 141.614 27.7258 141.614 27.5348V16.734L142.685 16.8773L134.67 27.7639C134.592 27.8786 134.491 27.9837 134.365 28.0789C134.24 28.1747 134.081 28.2222 133.888 28.2222H131.689ZM158.57 28.2222C158.378 28.2222 158.214 28.1553 158.078 28.0219C157.944 27.8879 157.876 27.7258 157.876 27.5348V22.6646C157.393 23.0848 156.8 23.3947 156.097 23.5955C155.392 23.796 154.597 23.8961 153.71 23.8961C151.953 23.8961 150.598 23.481 149.643 22.6503C148.689 21.8195 148.211 20.4777 148.211 18.6246V14.0124C148.211 13.8214 148.279 13.6594 148.414 13.5253C148.549 13.3919 148.713 13.325 148.906 13.325H151.395C151.587 13.325 151.751 13.3919 151.886 13.5253C152.021 13.6594 152.089 13.8214 152.089 14.0124V18.4243C152.089 19.1881 152.296 19.7371 152.711 20.0715C153.126 20.4059 153.796 20.573 154.722 20.573C155.667 20.573 156.429 20.449 157.008 20.2005C157.586 19.9525 157.876 19.5131 157.876 18.8826V14.0124C157.876 13.8214 157.944 13.6594 158.078 13.5253C158.214 13.3919 158.378 13.325 158.57 13.325H161.175C161.368 13.325 161.532 13.3919 161.667 13.5253C161.802 13.6594 161.869 13.8214 161.869 14.0124V27.5348C161.869 27.7258 161.802 27.8879 161.667 28.0219C161.532 28.1553 161.368 28.2222 161.175 28.2222H158.57ZM170.145 28.5089C169.142 28.5089 168.235 28.3129 167.425 27.9218C166.614 27.5297 165.973 27.0045 165.5 26.3459C165.028 25.6866 164.791 24.9466 164.791 24.1253C164.791 22.7885 165.342 21.7237 166.441 20.9311C167.541 20.1384 168.978 19.6081 170.752 19.3409L174.717 18.768V18.1663C174.717 17.3644 174.514 16.7432 174.109 16.3044C173.704 15.865 173.009 15.6453 172.025 15.6453C171.331 15.6453 170.767 15.7842 170.333 16.0609C169.899 16.3376 169.576 16.7051 169.363 17.164C169.209 17.412 168.988 17.5364 168.698 17.5364H166.412C166.2 17.5364 166.041 17.4789 165.935 17.3644C165.828 17.2498 165.775 17.097 165.775 16.9062C165.795 16.6006 165.925 16.228 166.166 15.7886C166.407 15.3497 166.774 14.9246 167.266 14.5139C167.758 14.1031 168.399 13.7544 169.19 13.4683C169.981 13.1817 170.936 13.0382 172.055 13.0382C173.27 13.0382 174.297 13.1866 175.137 13.4821C175.976 13.7782 176.646 14.1746 177.148 14.6717C177.649 15.1681 178.016 15.7503 178.247 16.419C178.478 17.0876 178.594 17.7939 178.594 18.5388V27.5348C178.594 27.7258 178.527 27.8879 178.392 28.0219C178.257 28.1553 178.093 28.2222 177.9 28.2222H175.556C175.343 28.2222 175.175 28.1553 175.049 28.0219C174.924 27.8879 174.862 27.7258 174.862 27.5348V26.4172C174.61 26.761 174.273 27.0954 173.849 27.4203C173.424 27.7445 172.908 28.0074 172.301 28.2079C171.693 28.4082 170.975 28.5089 170.145 28.5089ZM171.129 25.7868C171.804 25.7868 172.416 25.6442 172.966 25.3573C173.516 25.0707 173.95 24.6267 174.268 24.0251C174.586 23.4235 174.746 22.6646 174.746 21.7475V21.1457L171.852 21.604C170.714 21.7762 169.865 22.053 169.306 22.4349C168.746 22.8174 168.467 23.2851 168.467 23.8392C168.467 24.2592 168.597 24.6173 168.857 24.9134C169.117 25.2097 169.45 25.4286 169.855 25.5721C170.261 25.7155 170.685 25.7868 171.129 25.7868Z" fill="white"/>
</svg>
