<svg width="16" height="16" viewBox="0 0 16 16" fill="none" xmlns="http://www.w3.org/2000/svg">
<g clip-path="url(#clip0_876_15440)">
<path d="M14.6665 11.2788V13.2788C14.6672 13.4644 14.6292 13.6482 14.5548 13.8183C14.4804 13.9884 14.3713 14.1412 14.2345 14.2667C14.0977 14.3922 13.9362 14.4878 13.7603 14.5472C13.5844 14.6067 13.398 14.6288 13.2131 14.6121C11.1617 14.3892 9.19113 13.6882 7.45979 12.5654C5.84901 11.5419 4.48335 10.1762 3.45979 8.56543C2.33311 6.82623 1.63195 4.84609 1.41313 2.78543C1.39647 2.60107 1.41838 2.41527 1.47746 2.23985C1.53654 2.06442 1.63151 1.90322 1.7563 1.76651C1.8811 1.6298 2.033 1.52057 2.20232 1.44578C2.37164 1.37099 2.55469 1.33227 2.73979 1.3321H4.73979C5.06333 1.32891 5.37699 1.44348 5.6223 1.65445C5.86761 1.86542 6.02784 2.15839 6.07313 2.47876C6.15754 3.11881 6.31409 3.74725 6.53979 4.3521C6.62949 4.59071 6.6489 4.85004 6.59573 5.09935C6.54256 5.34866 6.41903 5.5775 6.23979 5.75876L5.39313 6.60543C6.34216 8.27446 7.7241 9.65639 9.39313 10.6054L10.2398 9.75876C10.4211 9.57952 10.6499 9.456 10.8992 9.40283C11.1485 9.34965 11.4078 9.36907 11.6465 9.45876C12.2513 9.68446 12.8797 9.84101 13.5198 9.92543C13.8436 9.97112 14.1394 10.1342 14.3508 10.3838C14.5622 10.6333 14.6746 10.9518 14.6665 11.2788Z" stroke="white" stroke-width="2" stroke-linecap="round" stroke-linejoin="round"/>
</g>
<defs>
<clipPath id="clip0_876_15440">
<rect width="16" height="16" fill="white"/>
</clipPath>
</defs>
</svg>
