<svg width="24" height="24" viewBox="0 0 24 24" fill="none" xmlns="http://www.w3.org/2000/svg">
<rect x="1" y="1" width="22" height="22" rx="11" stroke="#1B2A55" stroke-width="2"/>
<g clip-path="url(#clip0_869_13228)">
<path d="M17.8333 14.8694V16.6194C17.834 16.7819 17.8007 16.9427 17.7356 17.0915C17.6705 17.2404 17.5751 17.374 17.4554 17.4838C17.3357 17.5937 17.1943 17.6773 17.0404 17.7293C16.8865 17.7814 16.7235 17.8007 16.5617 17.7861C14.7667 17.591 13.0424 16.9777 11.5275 15.9952C10.1181 15.0996 8.92311 13.9047 8.0275 12.4952C7.04166 10.9734 6.42814 9.24082 6.23667 7.43774C6.22209 7.27643 6.24126 7.11385 6.29296 6.96035C6.34466 6.80686 6.42775 6.66581 6.53695 6.54618C6.64615 6.42656 6.77905 6.33099 6.92721 6.26554C7.07537 6.2001 7.23553 6.16622 7.3975 6.16607H9.1475C9.4306 6.16329 9.70505 6.26353 9.9197 6.44813C10.1343 6.63273 10.2745 6.88908 10.3142 7.16941C10.388 7.72944 10.525 8.27933 10.7225 8.80857C10.801 9.01736 10.818 9.24427 10.7714 9.46242C10.7249 9.68057 10.6168 9.8808 10.46 10.0394L9.71917 10.7802C10.5496 12.2406 11.7588 13.4498 13.2192 14.2802L13.96 13.5394C14.1186 13.3826 14.3188 13.2745 14.537 13.228C14.7551 13.1814 14.982 13.1984 15.1908 13.2769C15.7201 13.4744 16.27 13.6114 16.83 13.6852C17.1134 13.7252 17.3722 13.8679 17.5571 14.0863C17.7421 14.3046 17.8404 14.5833 17.8333 14.8694Z" stroke="#1B2A55" stroke-width="2" stroke-linecap="round" stroke-linejoin="round"/>
</g>
<defs>
<clipPath id="clip0_869_13228">
<rect width="14" height="14" fill="white" transform="translate(5 5)"/>
</clipPath>
</defs>
</svg>
