<svg width="40" height="41" viewBox="0 0 40 41" fill="none" xmlns="http://www.w3.org/2000/svg">
<path d="M20.9825 27.7969C13.466 27.7969 9.17864 22.5416 9 13.7969H12.7651C12.8888 20.2153 15.6646 22.934 17.8632 23.4946V13.7969H21.4085V19.3324C23.5796 19.0942 25.8607 16.5716 26.6302 13.7969H30.1755C29.8855 15.236 29.3075 16.5985 28.4776 17.7994C27.6477 19.0002 26.5837 20.0135 25.3523 20.7759C26.7269 21.4724 27.941 22.4584 28.9145 23.6686C29.888 24.8789 30.5988 26.2859 31 27.7969H27.0974C26.7373 26.4845 26.0054 25.3097 24.9934 24.4197C23.9814 23.5297 22.7343 22.9641 21.4085 22.7939V27.7969H20.9825Z" fill="white"/>
</svg>
