<svg width="40" height="41" viewBox="0 0 40 41" fill="none" xmlns="http://www.w3.org/2000/svg">
<path d="M27.9268 12.8594C25.9512 10.8906 23.3171 9.79688 20.5366 9.79688C14.7561 9.79688 10.0732 14.4635 10.0732 20.224C10.0732 22.0469 10.5854 23.8698 11.4634 25.401L10 30.7969L15.561 29.3385C17.0976 30.1406 18.7805 30.5781 20.5366 30.5781C26.3171 30.5781 31 25.9115 31 20.151C30.9268 17.4531 29.9024 14.8281 27.9268 12.8594ZM25.5854 23.9427C25.3659 24.526 24.3415 25.1094 23.8293 25.1823C23.3902 25.2552 22.8049 25.2552 22.2195 25.1094C21.8537 24.9635 21.3415 24.8177 20.7561 24.526C18.122 23.4323 16.439 20.8073 16.2927 20.5885C16.1463 20.4427 15.1951 19.2031 15.1951 17.8906C15.1951 16.5781 15.8537 15.9948 16.0732 15.7031C16.2927 15.4115 16.5854 15.4115 16.8049 15.4115C16.9512 15.4115 17.1707 15.4115 17.3171 15.4115C17.4634 15.4115 17.6829 15.3385 17.9024 15.849C18.122 16.3594 18.6341 17.6719 18.7073 17.7448C18.7805 17.8906 18.7805 18.0365 18.7073 18.1823C18.6341 18.3281 18.561 18.474 18.4146 18.6198C18.2683 18.7656 18.1219 18.9844 18.0488 19.0573C17.9024 19.2031 17.7561 19.349 17.9024 19.5677C18.0488 19.8594 18.561 20.6615 19.3659 21.3906C20.3902 22.2656 21.1951 22.5573 21.4878 22.7031C21.7805 22.849 21.9268 22.776 22.0732 22.6302C22.2195 22.4844 22.7317 21.901 22.878 21.6094C23.0244 21.3177 23.2439 21.3906 23.4634 21.4635C23.6829 21.5365 25 22.1927 25.2195 22.3385C25.5122 22.4844 25.6585 22.5573 25.7317 22.6302C25.8049 22.849 25.8049 23.3594 25.5854 23.9427Z" fill="white"/>
</svg>
