<svg width="60" height="75" viewBox="0 0 60 75" fill="none" xmlns="http://www.w3.org/2000/svg">
<g opacity="0.4">
<path d="M36.8302 0.0368614C36.7414 0.0647335 36.6378 0.141386 36.586 0.197132C36.4972 0.294687 36.4602 0.28772 36.2383 0.162291C35.9423 0.00201988 35.8757 0.0229244 35.6834 0.385275C35.491 0.747627 35.491 0.754595 35.7944 0.893961C36.0977 1.03333 36.1199 0.942739 35.5132 1.93921C35.3135 2.27368 35.1211 2.56635 35.0841 2.58029C35.0545 2.60119 34.766 2.47576 34.4552 2.30156C33.8115 1.93921 33.5526 1.86952 33.3306 1.98101C33.1235 2.08554 32.354 3.37467 32.354 3.61159C32.354 3.87639 32.4798 3.96698 33.7006 4.62897C34.2998 4.94951 34.7808 5.23521 34.766 5.25611C33.9669 6.4895 32.6352 8.74722 32.576 8.95627C32.4428 9.41618 32.5982 9.94577 32.9607 10.2593C33.0495 10.336 33.6636 10.6983 34.3146 11.0537C34.9657 11.4021 36.9781 12.5031 38.7908 13.4857C40.6035 14.4682 44.2954 16.4751 46.9959 17.9454C50.1403 19.6526 52.0195 20.6351 52.2119 20.67C52.5818 20.7397 53.0257 20.6351 53.3365 20.4191C53.6102 20.224 53.7286 20.0428 54.8902 18.1405C55.3785 17.3461 55.8076 16.6911 55.8446 16.6911C55.889 16.6911 56.3995 16.9628 56.9914 17.2834C58.153 17.9245 58.4119 17.9941 58.6709 17.7154C58.9594 17.4158 59.5069 16.4332 59.5069 16.2242C59.5069 15.9664 59.3885 15.8618 58.6339 15.4438L58.0494 15.1232L58.5007 14.3776C58.7523 13.9665 58.9816 13.6111 59.0038 13.5902C59.026 13.5623 59.1518 13.5972 59.2776 13.6529C59.5957 13.8132 59.6253 13.7992 59.8473 13.4508C60.0396 13.1442 60.0396 13.1303 59.9065 13.0327C59.8251 12.977 59.7067 12.9143 59.6327 12.8864C59.5291 12.8585 59.5143 12.8028 59.5513 12.6146C59.6179 12.2801 59.4921 12.1268 58.8558 11.7784C58.227 11.43 57.9532 11.3952 57.7239 11.6112C57.5685 11.7575 57.5611 11.7575 57.3243 11.6321C57.0358 11.4858 56.9618 11.5276 56.7324 11.9248C56.5919 12.1756 56.5919 12.1826 56.725 12.2592C57.1838 12.5171 57.1838 12.4753 56.6659 13.3115C56.3995 13.7296 56.1554 14.071 56.1184 14.064C56.074 14.0571 55.3341 13.6599 54.4611 13.186C53.5954 12.7122 51.8568 11.7645 50.6064 11.0886C48.9343 10.1757 48.335 9.82034 48.3646 9.74369C48.3868 9.68794 48.6606 9.24197 48.9639 8.74722C49.2672 8.25248 49.5336 7.77863 49.5558 7.68108C49.6224 7.45112 49.4226 7.10271 49.1489 6.97031C48.8455 6.82398 48.8233 6.75429 49.0009 6.48253C49.2376 6.12018 49.1637 5.94597 48.6236 5.64634C47.9947 5.30489 47.8097 5.31883 47.5582 5.72995C47.4768 5.85538 47.388 5.95991 47.3584 5.95991C47.3288 5.95991 47.1734 5.89719 47.0107 5.81357C46.6259 5.62543 46.3226 5.68118 46.0932 5.98081C45.9971 6.10624 45.6937 6.58009 45.4126 7.03999C45.1314 7.4999 44.8947 7.89013 44.8799 7.91103C44.8651 7.92497 44.6801 7.84832 44.4655 7.73682C44.1252 7.56262 38.6946 4.61503 37.4443 3.93213L36.9485 3.66037L37.4369 2.85902L37.9252 2.06463L38.2211 2.204C38.5466 2.36427 38.5318 2.37124 38.7982 1.89739L38.9462 1.63957L38.6798 1.48627C38.4505 1.36084 38.4209 1.31206 38.4579 1.16572C38.5392 0.852152 38.3691 0.629166 37.8068 0.329529C37.1853 0.00201988 37.0299 -0.0467587 36.8302 0.0368614Z" fill="white"/>
<path d="M28.1372 10.009C27.9523 10.0439 27.5306 10.1972 27.205 10.3505C26.2432 10.7964 25.962 11.124 24.3491 13.7649C23.5945 15.0123 22.9138 16.1829 22.8472 16.378C22.6771 16.824 22.6179 17.8065 22.7289 18.2943C22.8472 18.8239 23.1284 19.3674 23.5279 19.8483L23.8682 20.2594L23.6907 20.5451C23.2615 21.2698 23.121 21.4649 23.0248 21.437C22.7584 21.3604 21.4563 21.3534 21.1086 21.4231C20.4205 21.5625 19.7842 21.8969 19.2589 22.3987C18.852 22.7889 18.5634 23.2 17.4166 25.0745C16.0035 27.381 15.7594 27.8688 15.678 28.5726C15.5448 29.6666 16.1145 31.0254 16.9875 31.7013C17.3501 31.9801 17.5202 32.0706 29.284 38.4675C40.3819 44.5021 39.9306 44.2582 40.4115 44.4324C40.922 44.6205 41.9209 44.6833 42.5127 44.5648C43.186 44.4394 43.9481 44.0352 44.4512 43.5614C44.8137 43.2129 45.1541 42.7182 46.2638 40.9064C47.0333 39.6522 47.7066 38.4606 47.8102 38.1888C48.1209 37.3247 48.0321 36.1819 47.5882 35.3527C47.5142 35.2133 47.2997 34.9207 47.1147 34.7047L46.7817 34.3214L47.1221 33.7639C47.307 33.4573 47.4846 33.1925 47.5142 33.1716C47.5512 33.1577 47.8545 33.1786 48.1949 33.2204C49.6598 33.4016 51.1543 32.7535 51.9386 31.5898C52.2863 31.0742 54.3875 27.6597 54.6095 27.2416C55.3345 25.8967 55.0164 24.1616 53.8548 23.0746C53.4701 22.7122 52.9226 22.3917 50.2591 20.9423C47.5808 19.4929 40.1526 15.4582 36.7936 13.6256C30.3568 10.1205 30.3642 10.1205 29.6983 10.0021C29.2322 9.91844 28.6107 9.92541 28.1372 10.009Z" fill="white"/>
<path d="M17.394 33.5337C17.1499 33.7985 16.521 34.8786 16.521 35.0388C16.521 35.1364 16.5802 35.2758 16.6542 35.3524C16.7208 35.4291 18.8442 36.6137 21.3671 37.9795C23.89 39.3522 26.5683 40.8086 27.323 41.2197C28.0776 41.6309 29.8089 42.5716 31.1703 43.3102C32.5316 44.0488 34.4182 45.0732 35.3505 45.5819C36.2901 46.0975 37.1261 46.5156 37.2223 46.5156C37.5331 46.5156 37.6662 46.3832 38.0806 45.6934C38.5245 44.9547 38.5689 44.7945 38.3691 44.5784C38.2951 44.5018 36.2901 43.3799 33.9077 42.0838C31.5254 40.7947 27.7299 38.732 25.4733 37.5056C21.663 35.436 20.0575 34.565 18.5482 33.7427C17.9045 33.3943 17.579 33.3316 17.394 33.5337Z" fill="white"/>
<path d="M18.8076 38.1883C18.6966 38.244 18.5338 38.4043 18.445 38.5506C18.3044 38.7667 16.4326 41.8327 12.171 48.7801C11.8677 49.2748 11.1278 50.4664 10.5359 51.428C9.59628 52.9541 9.4631 53.2119 9.4631 53.4837C9.4557 53.6718 9.5075 53.8669 9.58888 53.9784C9.66287 54.083 10.2104 54.4314 10.8097 54.7589C12.8073 55.8459 20.0135 59.7621 21.693 60.668C24.0532 61.9502 23.9274 61.985 25.2517 59.8179C25.7549 58.9956 26.4577 57.8528 26.8055 57.2814C27.1606 56.703 28.4627 54.5916 29.6909 52.5778C30.9191 50.564 32.2212 48.4456 32.5764 47.8742C32.9315 47.2958 33.2792 46.7314 33.3458 46.606C33.5086 46.2924 33.4938 45.951 33.3014 45.6792C33.1313 45.4562 33.1017 45.4353 24.6969 40.8711C23.1949 40.0558 21.4267 39.0942 20.7682 38.7318C19.503 38.042 19.2367 37.9653 18.8076 38.1883ZM20.5906 39.8955C21.0493 40.1952 24.4601 42.1741 25.6957 42.871C27.4639 43.8605 28.3666 44.3274 30.1348 45.1566C30.9265 45.5259 31.5924 45.8464 31.6072 45.8604C31.6811 45.9301 31.3334 46.0973 31.0301 46.1391C30.2606 46.2506 29.4024 45.9788 25.1038 44.2507C22.5217 43.2124 22.1221 43.0731 21.7004 43.0452C20.82 42.9964 19.6214 43.519 18.778 44.3134C18.2527 44.8151 17.8753 45.3447 16.366 47.7139C14.1908 51.1284 13.4732 52.0482 12.2746 52.9402C11.9416 53.191 11.3424 53.5255 11.3424 53.4628C11.3424 53.4488 11.5643 53.0656 11.8307 52.6057C12.097 52.1527 12.6519 51.1493 13.0588 50.3828C14.1982 48.2435 15.3524 46.376 18.4302 41.6933L19.8804 39.4844L20.1467 39.6307C20.2873 39.7143 20.487 39.8328 20.5906 39.8955Z" fill="white"/>
<path d="M4.28397 54.5784C3.89184 55.1637 0.81402 60.2088 0.54767 60.7244C0.148145 61.4631 0.000172623 62.1111 0.000172623 63.1006C-0.00722599 64.3201 0.222131 65.0657 0.895405 66.0621C1.25054 66.5848 1.96081 67.2816 2.31594 67.4558C2.5305 67.5603 2.5379 67.5673 2.42692 67.7694C2.21976 68.1456 2.27895 68.3895 2.67107 68.738C3.5737 69.5532 6.91788 71.8807 8.01287 72.4521C9.26324 73.1071 13.3251 74.668 13.7764 74.668C14.1167 74.668 14.3313 74.5495 14.5311 74.229C14.6346 74.0687 16.0774 71.7204 17.7347 69.0097L20.7533 64.0831L21.1528 64.2922C21.6041 64.5361 21.7965 64.5152 21.9593 64.2155C22.1516 63.8671 22.0998 63.7487 21.7003 63.5117C21.5006 63.3933 21.3304 63.2609 21.3304 63.2191C21.3304 63.1703 21.434 62.9752 21.5523 62.787C21.6707 62.5919 21.7743 62.348 21.7743 62.2435C21.7743 61.8184 21.6337 61.7139 19.5769 60.599C18.4893 60.0067 16.8764 59.1287 16.0034 58.6548C15.1303 58.181 13.9466 57.5399 13.3769 57.2263C12.8072 56.9197 11.9489 56.4529 11.4754 56.1881C10.9945 55.9233 10.5136 55.6933 10.3952 55.6724C10.0623 55.6097 9.74415 55.8048 9.4852 56.2368C9.35942 56.4459 9.23364 56.634 9.20405 56.648C9.15226 56.6828 8.97469 56.5853 6.39997 55.1846C5.53434 54.7108 4.74269 54.3206 4.6465 54.3206C4.51333 54.3206 4.40975 54.3972 4.28397 54.5784ZM6.2594 56.648C6.57754 56.7734 6.75511 57.0382 6.75511 57.3936C6.75511 57.7908 6.38518 58.1531 5.97086 58.1531C5.29758 58.1531 4.89806 57.5957 5.1718 57.0591C5.26059 56.8988 5.40856 56.7455 5.57133 56.6758C5.88207 56.5225 5.94866 56.5225 6.2594 56.648ZM11.3201 58.9684C14.5385 60.8498 16.2327 61.7766 18.1564 62.7104C19.4141 63.3236 19.6139 63.4421 19.5177 63.5187C19.4363 63.5814 19.244 63.5954 18.8666 63.5744C18.2008 63.5326 17.5053 63.2818 14.2647 61.909L11.8971 60.9056H11.3053C10.78 60.9056 10.6542 60.9335 10.1511 61.1565C9.16706 61.6024 8.99689 61.7906 7.53196 64.0762C6.29639 65.9994 5.68971 66.8286 5.09042 67.3861C4.61691 67.8251 3.84005 68.3199 3.75127 68.2362C3.72907 68.2223 3.81786 68.0411 3.93624 67.846C4.06201 67.6509 4.52813 66.8077 4.97204 65.9715C5.41596 65.1423 6.20761 63.7835 6.73291 62.9612C7.83531 61.2261 9.86253 58.1531 9.90692 58.1531C9.92172 58.1531 10.558 58.5155 11.3201 58.9684ZM4.86846 59.6374C5.29758 60.2157 4.46894 60.8917 3.90664 60.4318C3.52931 60.1321 3.71428 59.4632 4.19519 59.3935C4.42454 59.3586 4.74269 59.4701 4.86846 59.6374ZM3.26296 61.8881C3.49232 62.0345 3.66989 62.4317 3.6107 62.6895C3.55151 62.9403 3.19637 63.2818 2.95222 63.3236C2.70067 63.3724 2.23455 63.2051 2.07918 63.017C1.90902 62.8079 1.90902 62.3132 2.07179 62.0763C2.32334 61.7209 2.84864 61.6373 3.26296 61.8881Z" fill="white"/>
</g>
</svg>
