<svg width="60" height="60" viewBox="0 0 60 60" fill="none" xmlns="http://www.w3.org/2000/svg">
<path opacity="0.4" d="M30 0C13.4314 0 0 13.4314 0 30C0 46.5686 13.4314 60 30 60C46.5686 60 60 46.5686 60 30C60 13.4314 46.5686 0 30 0ZM30 54.1936C16.6292 54.1936 5.80645 43.3729 5.80645 30C5.80645 16.6293 16.6271 5.80645 30 5.80645C43.3708 5.80645 54.1936 16.6271 54.1936 30C54.1936 43.3708 43.3729 54.1936 30 54.1936ZM43.3599 44.2995C36.9431 32.6522 37.2813 33.2348 36.9158 32.6763C39.8514 30.9974 41.6919 27.6485 41.6919 23.8244C41.6919 17.4732 38.033 13.5116 29.4139 13.5116H19.8977C19.0973 13.5116 18.4461 14.1628 18.4461 14.9632V45C18.4461 45.8004 19.0973 46.4516 19.8977 46.4516H24.5632C25.3637 46.4516 26.0148 45.8004 26.0148 45V34.8795H29.8807L35.6285 45.6823C35.752 45.9148 35.9366 46.1093 36.1624 46.2449C36.3881 46.3804 36.6466 46.4519 36.9099 46.4516H42.0886C43.1942 46.4516 43.8927 45.2663 43.3599 44.2995ZM30.1129 28.0531H26.0151V20.2943H29.3268C33.2482 20.2943 34.036 21.762 34.036 24.13C34.0359 26.6598 32.6427 28.0531 30.1129 28.0531Z" fill="white"/>
</svg>
