<svg width="100" height="112" viewBox="0 0 100 112" fill="none" xmlns="http://www.w3.org/2000/svg">
<g opacity="0.4">
<path d="M81.3332 46.6663C81.3332 74.6663 43.9998 102.666 43.9998 102.666C43.9998 102.666 6.6665 74.6663 6.6665 46.6663C6.6665 36.7649 10.5998 27.269 17.6012 20.2677C24.6025 13.2663 34.0984 9.33301 43.9998 9.33301C53.9013 9.33301 63.3971 13.2663 70.3985 20.2677C77.3998 27.269 81.3332 36.7649 81.3332 46.6663Z" stroke="white" stroke-width="10" stroke-linecap="round" stroke-linejoin="round"/>
<path d="M43.9998 60.6663C51.7318 60.6663 57.9998 54.3983 57.9998 46.6663C57.9998 38.9344 51.7318 32.6663 43.9998 32.6663C36.2678 32.6663 29.9998 38.9344 29.9998 46.6663C29.9998 54.3983 36.2678 60.6663 43.9998 60.6663Z" stroke="white" stroke-width="10" stroke-linecap="round" stroke-linejoin="round"/>
</g>
</svg>
