<svg width="65" height="78" viewBox="0 0 65 78" fill="none" xmlns="http://www.w3.org/2000/svg">
<path fill-rule="evenodd" clip-rule="evenodd" d="M4.51133 31.9894H14.6176H55.4476C57.3745 31.9894 58.9511 33.5675 58.9511 35.4965V44.8618H51.1093C47.242 44.8618 44.0779 48.0287 44.0779 51.8997C44.0779 55.7706 47.242 58.9375 51.1093 58.9375H58.9511V72.9936C58.9511 74.9224 57.3745 76.5005 55.4476 76.5005H4.51133C2.58441 76.5005 1.00781 74.9224 1.00781 72.9936V42.3754V35.4965V28.5703C1.00781 30.4509 2.54517 31.9894 4.42391 31.9894H4.51133V31.9894Z" stroke="#313D57" stroke-width="2" stroke-miterlimit="22.9256"/>
<path d="M9.71248 22.8164H6.12897C3.2316 22.8164 0.839234 22.7852 1.00846 28.5691" stroke="#313D57" stroke-width="2" stroke-miterlimit="22.9256"/>
<path d="M50.875 51.7812H52.8671" stroke="#313D57" stroke-width="2" stroke-miterlimit="22.9256"/>
<path fill-rule="evenodd" clip-rule="evenodd" d="M51.1094 44.8633H64.0001V58.939H51.1094C47.2422 58.939 44.0781 55.7721 44.0781 51.9009C44.0781 48.0302 47.2422 44.8633 51.1094 44.8633Z" stroke="#313D57" stroke-width="2" stroke-miterlimit="22.9256"/>
<path d="M46.4648 22.8633L46.6091 22.8838C47.0071 22.9306 47.3818 23.0097 47.7244 23.1431C48.9072 23.6037 49.7123 24.7129 49.8181 27.3832C49.8327 27.7479 49.8342 31.562 49.8217 31.988" stroke="#313D57" stroke-width="2" stroke-miterlimit="22.9256"/>
<path d="M5.64258 31.9881L18.5329 3.10221L23.1032 5.21347L24.8271 1.5L50.7163 13.1462L42.4717 31.9881" stroke="#313D57" stroke-width="2" stroke-miterlimit="22.9256"/>
<path d="M11.2656 31.9856L23.1028 5.21094" stroke="#313D57" stroke-width="2" stroke-miterlimit="22.9256"/>
<path d="M16.1973 31.9862L25.2123 11.9875C25.2123 11.9875 27.2193 12.7853 28.8506 11.9104C30.4819 11.0355 30.9479 9.46094 30.9479 9.46094L40.1533 13.6016C40.1533 13.6016 39.6873 15.5259 40.5611 17.2171C41.4352 18.9084 42.8336 19.6666 42.8336 19.6666L37.5317 31.9862" stroke="#313D57" stroke-width="2" stroke-miterlimit="22.9256"/>
<path fill-rule="evenodd" clip-rule="evenodd" d="M26.8571 27.5273C29.2438 27.5273 31.1788 29.4642 31.1788 31.8532C31.1788 31.8984 31.1779 31.9434 31.1767 31.988H22.5375C22.5361 31.9434 22.5352 31.8984 22.5352 31.8532C22.5352 29.4642 24.4701 27.5273 26.8571 27.5273Z" stroke="#313D57" stroke-width="2" stroke-miterlimit="22.9256"/>
</svg>
