<svg width="80" height="89" viewBox="0 0 80 89" fill="none" xmlns="http://www.w3.org/2000/svg">
<path d="M8.16248 65.3551V37.6935H2L15.6041 19.5625L28.8592 37.4612H22.8128V51.6407" stroke="#313D57" stroke-width="2" stroke-miterlimit="22.9256"/>
<path d="M12.4642 37.6953H8.16211" stroke="#313D57" stroke-width="2" stroke-miterlimit="22.9256"/>
<path d="M57.3031 65.3551V37.6935H51.1406L64.7447 19.5625L77.9998 37.4612H71.9536V51.6407" stroke="#313D57" stroke-width="2" stroke-miterlimit="22.9256"/>
<path d="M61.6048 37.6953H57.3027" stroke="#313D57" stroke-width="2" stroke-miterlimit="22.9256"/>
<path d="M32.6996 25.9941V20.631H26.5371L40.1409 2.5L53.3961 20.3984H47.3499V25.9941" stroke="#313D57" stroke-width="2" stroke-miterlimit="22.9256"/>
<path d="M37.0013 20.6328H32.6992" stroke="#313D57" stroke-width="2" stroke-miterlimit="22.9256"/>
<path d="M25.4375 61.6781V79.0616V67.475V61.6781ZM25.4375 61.6781C25.4375 61.6781 25.5596 58.7751 27.5253 57.9659M25.4375 61.6781L25.6012 60.6251L26 59.4978L26.5 58.7238L27.5253 57.9659M27.5253 57.9659C29.4908 57.157 34.8092 55.1924 34.8092 55.1924M27.5253 57.9659L34.8092 55.1924M34.8092 55.1924L36.2589 51.8984M34.8092 55.1924L40.3012 59.9306M40.3012 52.9769V66.5183M31.3608 72.9477V79.0616M55.1649 79.0616V61.6781M55.1649 61.6781C55.1649 61.6781 55.0426 58.7751 53.0771 57.9659M55.1649 61.6781L55.0761 60.9777L54.8496 60.1002L54.5 59.3023L53.8692 58.4787L53.0771 57.9659M53.0771 57.9659C51.1114 57.157 45.793 55.1924 45.793 55.1924M53.0771 57.9659L45.793 55.1924M45.793 55.1924L44.5213 51.8984" stroke="#313D57" stroke-width="2" stroke-miterlimit="22.9256"/>
<path d="M45.7926 55.1914L40.3008 59.9296" stroke="#313D57" stroke-width="2" stroke-miterlimit="22.9256"/>
<path d="M49.2422 72.9453V79.0592" stroke="#313D57" stroke-width="2" stroke-miterlimit="22.9256"/>
<path fill-rule="evenodd" clip-rule="evenodd" d="M34.3549 50.121C32.3315 47.1736 32.7361 42.3194 32.7361 42.3194V34.3449C32.7361 34.3449 35.0486 31.3398 39.7314 31.3398C39.9251 31.3398 40.1144 31.3445 40.3004 31.3533C40.4864 31.3445 40.6756 31.3398 40.869 31.3398C45.5519 31.3398 47.8643 34.3449 47.8643 34.3449V42.3194C47.8643 42.3194 48.269 47.1736 46.2457 50.121C43.6345 53.9241 36.9661 53.9241 34.3549 50.121Z" stroke="#313D57" stroke-width="2" stroke-miterlimit="22.9256"/>
<path fill-rule="evenodd" clip-rule="evenodd" d="M32.7363 41.9728V34.3449C32.7363 34.3449 35.0488 31.3398 39.7316 31.3398C39.9253 31.3398 40.1146 31.3445 40.3005 31.3533C40.4865 31.3445 40.6758 31.3398 40.8692 31.3398C45.552 31.3398 47.8645 34.3449 47.8645 34.3449V41.9728C45.1474 41.9728 43.8178 39.0257 43.8178 39.0257H36.7833C36.7833 39.0257 35.4537 41.9728 32.7363 41.9728V41.9728Z" stroke="#313D57" stroke-width="2" stroke-miterlimit="22.9256"/>
</svg>
