<svg width="74" height="74" viewBox="0 0 74 74" fill="none" xmlns="http://www.w3.org/2000/svg">
<mask id="path-1-inside-1_904_29654" fill="white">
<path d="M43.5106 1.39607H5.71653C5.29879 1.42575 1.39629 1.81284 1.39629 5.95293V62.6377C1.39629 62.6509 1.36874 67.1834 6.06179 67.1834H22.365C21.8219 66.5315 21.6647 65.8807 21.6515 65.3695C20.4829 65.3068 18.3402 64.9794 17.4794 63.4491C17.4068 63.3172 17.3442 63.1731 17.2947 63.0225C16.9594 62.0012 17.3036 60.7392 17.9786 59.6113C18.6173 58.5428 19.5715 57.5622 20.5103 57.0345C20.74 56.9059 20.9732 56.8003 21.203 56.7256C22.1132 56.4298 22.9431 56.4585 23.6423 56.641C24.6867 56.9125 25.4541 57.5423 25.7927 57.9359L26.1542 58.3658C26.8534 57.7205 27.9989 56.9939 29.4896 57.1994C30.5054 57.3391 31.2311 57.7083 31.7467 58.159C32.5052 58.8241 32.7942 59.6575 32.8954 60.2336L32.9272 60.4126C33.7758 60.3895 35.2239 60.4699 36.2166 61.1581C36.8806 61.6187 37.2257 62.2419 37.3752 62.8685C37.5873 63.7645 37.3917 64.6879 37.218 65.1211L37.151 65.2806C38.2207 65.418 39.7673 65.8093 40.3367 66.9251L40.5115 67.3066C40.5807 67.5067 40.6424 67.6573 40.6809 67.8585C40.7688 68.2872 40.9447 69.1843 39.8839 70.6596C40.8953 71.3489 43.0422 72.6637 44.6396 72.6C44.9287 72.589 45.5376 72.491 46.0631 72.2019C46.2885 72.0777 46.4952 71.9184 46.6293 71.7205C46.7546 71.538 46.8284 71.3037 46.8174 71.0113C46.8042 70.7024 46.6997 70.3265 46.4711 69.8703L44.5286 68.8644L45.166 67.6266L47.4957 68.8337L47.5451 68.9226C47.7759 69.126 48.6676 69.7725 50.8476 69.9165C51.4302 69.955 51.9546 69.7899 52.3592 69.5096C52.678 69.2886 52.9285 68.9941 53.0769 68.6709C53.2177 68.3642 53.2705 68.0311 53.2111 67.7178C53.1595 67.4485 53.0209 67.1802 52.7824 66.9395L52.4392 66.7482C49.1753 65.3234 47.7583 64.1789 47.7847 63.7194C47.6198 63.5413 47.6769 63.4777 47.9683 63.5305C48.53 63.3634 50.3616 63.9075 53.1033 65.5224L53.5111 65.7214C53.7145 65.8973 54.0025 66.0183 54.2433 66.1491C54.871 66.4844 55.5198 66.7514 56.142 66.7866C56.6883 66.8185 57.2413 66.6657 57.7832 66.2073C57.9009 66.0017 58.0954 65.6081 58.1339 65.2035C58.2075 64.4263 57.8228 63.8635 57.8228 63.8635L54.9271 60.9679L58.932 62.8939C59.5927 63.2182 60.5348 63.6776 61.2768 63.6007C61.5968 63.5666 61.9134 63.4239 62.1894 63.2447C62.6126 62.9688 62.9302 62.6245 63.0665 62.4168C63.227 62.1727 63.2689 61.8473 63.2249 61.512C63.17 61.0898 62.982 60.6633 62.7225 60.3379C62.4664 60.0169 61.4132 59.3794 60.3678 58.7956L57.8964 57.4831L54.7259 54.3126C57.372 55.6549 59.8796 56.9554 62.4949 58.3439L66.3119 56.4913L66.6196 56.6453C66.6196 56.6453 67.3231 57.0346 68.1421 57.0609C68.4092 57.0697 68.7292 57.0004 69.0293 56.9102C69.3646 56.8102 69.6758 56.6805 69.9023 56.5871C70.3585 56.398 71.184 56.0474 71.8326 55.623C72.2855 55.3273 72.6528 55.0272 72.5989 54.8623C72.1812 53.5849 70.2156 50.7837 68.173 47.8727L65.1091 43.4258L63.9185 41.7394C63.1291 40.6302 62.5532 39.8179 62.373 39.4815C62.2883 39.3452 61.5232 38.1369 61.1362 38.193C60.547 38.2788 58.6781 39.4078 58.6737 39.41L57.6183 40.0432V15.6193C57.6183 15.6171 57.7336 14.499 57.4324 13.3865C57.3379 13.0358 57.1984 12.6731 57.0038 12.3389C56.8455 12.063 56.6399 11.8013 56.3827 11.5726C54.6149 9.99948 45.3036 1.99756 45.2783 1.97558L45.2431 1.94573C45.2431 1.94573 45.0254 1.75788 44.4955 1.58308C44.3614 1.53911 44.2063 1.49623 44.0382 1.46435C43.8732 1.43246 43.6953 1.40816 43.5106 1.39607ZM5.70129 0L43.5512 0.00214713C43.8271 0.0164385 44.0788 0.0505006 44.3031 0.0944739C44.5329 0.138447 44.743 0.196763 44.9288 0.257227C45.7566 0.529861 46.2304 0.958695 46.2304 0.958695C46.8427 1.48528 55.5284 8.94517 57.3104 10.5304C57.6776 10.858 57.9734 11.2363 58.2064 11.6353C58.4714 12.086 58.6562 12.5654 58.7804 13.026C59.1596 14.4288 59.0144 15.616 59.0144 15.6193V37.6191C59.6729 37.2673 60.4798 36.8792 60.9404 36.8122C62.2222 36.6264 63.5712 38.7724 63.5745 38.779L63.5998 38.8251C63.7065 39.0373 64.2703 39.8321 65.0519 40.9336L66.2457 42.6234L69.3108 47.0712C71.4171 50.0702 73.4421 52.9569 73.9248 54.4311C74.237 55.3821 73.5356 56.1759 72.5957 56.7904C71.8514 57.2763 70.94 57.6643 70.4365 57.8732C70.1727 57.982 69.8143 58.1305 69.4274 58.247C69.0096 58.3723 68.5457 58.4668 68.0983 58.4525C67.3475 58.4294 66.6845 58.1986 66.313 58.0392L63.6735 59.3199L63.813 59.4717C64.2209 59.9851 64.5187 60.6601 64.6056 61.3318C64.6902 61.9749 64.588 62.6322 64.2274 63.1796C64.0142 63.5039 63.5436 64.0229 62.9477 64.4121C62.5091 64.6979 61.987 64.9267 61.4241 64.986C60.7678 65.0542 60.1061 64.8946 59.508 64.6725C59.5333 64.8847 59.541 65.1069 59.519 65.3356C59.42 66.3744 58.9386 66.9757 58.9386 66.9768L58.8791 67.0934L58.7804 67.1834C57.8987 67.9727 56.9796 68.2322 56.0627 68.1784C55.5746 68.1498 55.0942 68.0301 54.627 67.8542C54.6489 68.3357 54.5467 68.816 54.3412 69.2569C54.0883 69.8011 53.675 70.2923 53.1506 70.6551C52.5031 71.1047 51.6742 71.3676 50.7595 71.3083C49.68 71.2368 48.8391 71.0432 48.2004 70.8189L48.2092 70.9563C48.2345 71.5786 48.064 72.0897 47.7793 72.5053C47.5067 72.9054 47.1329 73.2046 46.7339 73.4245C45.9863 73.8356 45.1112 73.9753 44.6945 73.9917C42.0352 74.0984 38.4668 71.36 38.4569 71.3523L37.8776 70.9014L38.3579 70.3463C39.5012 69.0205 39.3705 68.4027 39.3145 68.1311L39.2221 67.8331L39.0922 67.5583C38.5898 66.5733 36.0615 66.603 36.0549 66.603H34.3696L35.5613 65.4114C35.5613 65.4114 35.7273 65.0959 35.9252 64.6023C36.034 64.3319 36.1549 63.7537 36.0197 63.1897C35.9383 62.861 35.7613 62.5367 35.4249 62.3036C34.3773 61.578 32.4678 61.833 32.4634 61.833L31.7817 61.9463L31.5212 60.4732C31.4586 60.1159 31.2828 59.6026 30.8298 59.2057C30.5011 58.9177 30.0129 58.679 29.2983 58.58C27.6361 58.3503 26.4687 60.1147 26.4654 60.118L25.7849 60.9668L25.3001 59.9961C25.3001 59.995 25.4684 59.6904 24.7395 58.8461C24.5174 58.5888 24.0062 58.1734 23.2928 57.9887C22.8222 57.8667 22.2583 57.8491 21.6339 58.0514C21.4932 58.0965 21.3424 58.1656 21.1918 58.2502C20.4552 58.6636 19.6935 59.4541 19.1724 60.3259C18.6876 61.1361 18.4215 61.987 18.6172 62.5894L18.6942 62.7674C19.4561 64.1207 22.4352 63.9801 22.4429 63.9801H23.5697L23.0652 64.9892C23.0652 64.9903 22.6573 65.9303 24.1458 66.9109L24.458 67.0966L24.7547 67.2439L27.8417 68.5797H6.06179C-0.0351052 68.5797 4.55179e-06 62.6542 4.55179e-06 62.6377V5.95293C4.55179e-06 0.248492 5.63525 0.00324647 5.64954 0.00214713L5.70129 0Z"/>
</mask>
<path d="M43.5106 1.39607H5.71653C5.29879 1.42575 1.39629 1.81284 1.39629 5.95293V62.6377C1.39629 62.6509 1.36874 67.1834 6.06179 67.1834H22.365C21.8219 66.5315 21.6647 65.8807 21.6515 65.3695C20.4829 65.3068 18.3402 64.9794 17.4794 63.4491C17.4068 63.3172 17.3442 63.1731 17.2947 63.0225C16.9594 62.0012 17.3036 60.7392 17.9786 59.6113C18.6173 58.5428 19.5715 57.5622 20.5103 57.0345C20.74 56.9059 20.9732 56.8003 21.203 56.7256C22.1132 56.4298 22.9431 56.4585 23.6423 56.641C24.6867 56.9125 25.4541 57.5423 25.7927 57.9359L26.1542 58.3658C26.8534 57.7205 27.9989 56.9939 29.4896 57.1994C30.5054 57.3391 31.2311 57.7083 31.7467 58.159C32.5052 58.8241 32.7942 59.6575 32.8954 60.2336L32.9272 60.4126C33.7758 60.3895 35.2239 60.4699 36.2166 61.1581C36.8806 61.6187 37.2257 62.2419 37.3752 62.8685C37.5873 63.7645 37.3917 64.6879 37.218 65.1211L37.151 65.2806C38.2207 65.418 39.7673 65.8093 40.3367 66.9251L40.5115 67.3066C40.5807 67.5067 40.6424 67.6573 40.6809 67.8585C40.7688 68.2872 40.9447 69.1843 39.8839 70.6596C40.8953 71.3489 43.0422 72.6637 44.6396 72.6C44.9287 72.589 45.5376 72.491 46.0631 72.2019C46.2885 72.0777 46.4952 71.9184 46.6293 71.7205C46.7546 71.538 46.8284 71.3037 46.8174 71.0113C46.8042 70.7024 46.6997 70.3265 46.4711 69.8703L44.5286 68.8644L45.166 67.6266L47.4957 68.8337L47.5451 68.9226C47.7759 69.126 48.6676 69.7725 50.8476 69.9165C51.4302 69.955 51.9546 69.7899 52.3592 69.5096C52.678 69.2886 52.9285 68.9941 53.0769 68.6709C53.2177 68.3642 53.2705 68.0311 53.2111 67.7178C53.1595 67.4485 53.0209 67.1802 52.7824 66.9395L52.4392 66.7482C49.1753 65.3234 47.7583 64.1789 47.7847 63.7194C47.6198 63.5413 47.6769 63.4777 47.9683 63.5305C48.53 63.3634 50.3616 63.9075 53.1033 65.5224L53.5111 65.7214C53.7145 65.8973 54.0025 66.0183 54.2433 66.1491C54.871 66.4844 55.5198 66.7514 56.142 66.7866C56.6883 66.8185 57.2413 66.6657 57.7832 66.2073C57.9009 66.0017 58.0954 65.6081 58.1339 65.2035C58.2075 64.4263 57.8228 63.8635 57.8228 63.8635L54.9271 60.9679L58.932 62.8939C59.5927 63.2182 60.5348 63.6776 61.2768 63.6007C61.5968 63.5666 61.9134 63.4239 62.1894 63.2447C62.6126 62.9688 62.9302 62.6245 63.0665 62.4168C63.227 62.1727 63.2689 61.8473 63.2249 61.512C63.17 61.0898 62.982 60.6633 62.7225 60.3379C62.4664 60.0169 61.4132 59.3794 60.3678 58.7956L57.8964 57.4831L54.7259 54.3126C57.372 55.6549 59.8796 56.9554 62.4949 58.3439L66.3119 56.4913L66.6196 56.6453C66.6196 56.6453 67.3231 57.0346 68.1421 57.0609C68.4092 57.0697 68.7292 57.0004 69.0293 56.9102C69.3646 56.8102 69.6758 56.6805 69.9023 56.5871C70.3585 56.398 71.184 56.0474 71.8326 55.623C72.2855 55.3273 72.6528 55.0272 72.5989 54.8623C72.1812 53.5849 70.2156 50.7837 68.173 47.8727L65.1091 43.4258L63.9185 41.7394C63.1291 40.6302 62.5532 39.8179 62.373 39.4815C62.2883 39.3452 61.5232 38.1369 61.1362 38.193C60.547 38.2788 58.6781 39.4078 58.6737 39.41L57.6183 40.0432V15.6193C57.6183 15.6171 57.7336 14.499 57.4324 13.3865C57.3379 13.0358 57.1984 12.6731 57.0038 12.3389C56.8455 12.063 56.6399 11.8013 56.3827 11.5726C54.6149 9.99948 45.3036 1.99756 45.2783 1.97558L45.2431 1.94573C45.2431 1.94573 45.0254 1.75788 44.4955 1.58308C44.3614 1.53911 44.2063 1.49623 44.0382 1.46435C43.8732 1.43246 43.6953 1.40816 43.5106 1.39607ZM5.70129 0L43.5512 0.00214713C43.8271 0.0164385 44.0788 0.0505006 44.3031 0.0944739C44.5329 0.138447 44.743 0.196763 44.9288 0.257227C45.7566 0.529861 46.2304 0.958695 46.2304 0.958695C46.8427 1.48528 55.5284 8.94517 57.3104 10.5304C57.6776 10.858 57.9734 11.2363 58.2064 11.6353C58.4714 12.086 58.6562 12.5654 58.7804 13.026C59.1596 14.4288 59.0144 15.616 59.0144 15.6193V37.6191C59.6729 37.2673 60.4798 36.8792 60.9404 36.8122C62.2222 36.6264 63.5712 38.7724 63.5745 38.779L63.5998 38.8251C63.7065 39.0373 64.2703 39.8321 65.0519 40.9336L66.2457 42.6234L69.3108 47.0712C71.4171 50.0702 73.4421 52.9569 73.9248 54.4311C74.237 55.3821 73.5356 56.1759 72.5957 56.7904C71.8514 57.2763 70.94 57.6643 70.4365 57.8732C70.1727 57.982 69.8143 58.1305 69.4274 58.247C69.0096 58.3723 68.5457 58.4668 68.0983 58.4525C67.3475 58.4294 66.6845 58.1986 66.313 58.0392L63.6735 59.3199L63.813 59.4717C64.2209 59.9851 64.5187 60.6601 64.6056 61.3318C64.6902 61.9749 64.588 62.6322 64.2274 63.1796C64.0142 63.5039 63.5436 64.0229 62.9477 64.4121C62.5091 64.6979 61.987 64.9267 61.4241 64.986C60.7678 65.0542 60.1061 64.8946 59.508 64.6725C59.5333 64.8847 59.541 65.1069 59.519 65.3356C59.42 66.3744 58.9386 66.9757 58.9386 66.9768L58.8791 67.0934L58.7804 67.1834C57.8987 67.9727 56.9796 68.2322 56.0627 68.1784C55.5746 68.1498 55.0942 68.0301 54.627 67.8542C54.6489 68.3357 54.5467 68.816 54.3412 69.2569C54.0883 69.8011 53.675 70.2923 53.1506 70.6551C52.5031 71.1047 51.6742 71.3676 50.7595 71.3083C49.68 71.2368 48.8391 71.0432 48.2004 70.8189L48.2092 70.9563C48.2345 71.5786 48.064 72.0897 47.7793 72.5053C47.5067 72.9054 47.1329 73.2046 46.7339 73.4245C45.9863 73.8356 45.1112 73.9753 44.6945 73.9917C42.0352 74.0984 38.4668 71.36 38.4569 71.3523L37.8776 70.9014L38.3579 70.3463C39.5012 69.0205 39.3705 68.4027 39.3145 68.1311L39.2221 67.8331L39.0922 67.5583C38.5898 66.5733 36.0615 66.603 36.0549 66.603H34.3696L35.5613 65.4114C35.5613 65.4114 35.7273 65.0959 35.9252 64.6023C36.034 64.3319 36.1549 63.7537 36.0197 63.1897C35.9383 62.861 35.7613 62.5367 35.4249 62.3036C34.3773 61.578 32.4678 61.833 32.4634 61.833L31.7817 61.9463L31.5212 60.4732C31.4586 60.1159 31.2828 59.6026 30.8298 59.2057C30.5011 58.9177 30.0129 58.679 29.2983 58.58C27.6361 58.3503 26.4687 60.1147 26.4654 60.118L25.7849 60.9668L25.3001 59.9961C25.3001 59.995 25.4684 59.6904 24.7395 58.8461C24.5174 58.5888 24.0062 58.1734 23.2928 57.9887C22.8222 57.8667 22.2583 57.8491 21.6339 58.0514C21.4932 58.0965 21.3424 58.1656 21.1918 58.2502C20.4552 58.6636 19.6935 59.4541 19.1724 60.3259C18.6876 61.1361 18.4215 61.987 18.6172 62.5894L18.6942 62.7674C19.4561 64.1207 22.4352 63.9801 22.4429 63.9801H23.5697L23.0652 64.9892C23.0652 64.9903 22.6573 65.9303 24.1458 66.9109L24.458 67.0966L24.7547 67.2439L27.8417 68.5797H6.06179C-0.0351052 68.5797 4.55179e-06 62.6542 4.55179e-06 62.6377V5.95293C4.55179e-06 0.248492 5.63525 0.00324647 5.64954 0.00214713L5.70129 0Z" fill="#313D57" stroke="black" stroke-width="4" mask="url(#path-1-inside-1_904_29654)"/>
<mask id="path-2-inside-2_904_29654" fill="white">
<path d="M58.1482 14C55.6714 14 52.9802 14.113 50.5463 13.9976C50.5298 13.9965 44.124 13.7932 44.124 9.07702V0.953125H45.5203V9.07702C45.5203 12.242 50.087 12.5773 50.5927 12.6037H58.1482V14Z"/>
</mask>
<path d="M58.1482 14C55.6714 14 52.9802 14.113 50.5463 13.9976C50.5298 13.9965 44.124 13.7932 44.124 9.07702V0.953125H45.5203V9.07702C45.5203 12.242 50.087 12.5773 50.5927 12.6037H58.1482V14Z" fill="#313D57"/>
<path d="M50.5463 13.9976L50.4133 15.9932L50.4324 15.9945L50.4516 15.9954L50.5463 13.9976ZM44.124 0.953125V-1.04688H42.124V0.953125H44.124ZM45.5203 0.953125H47.5203V-1.04688H45.5203V0.953125ZM50.5927 12.6037L50.4885 14.601L50.5406 14.6037H50.5927V12.6037ZM58.1482 12.6037H60.1482V10.6037H58.1482V12.6037ZM58.1482 12C55.5444 12 53.0184 12.1126 50.6411 11.9999L50.4516 15.9954C52.9421 16.1135 55.7985 16 58.1482 16V12ZM50.6794 12.002C50.6484 12 49.3429 11.9562 48.0709 11.4481C46.8142 10.9462 46.124 10.2483 46.124 9.07702H42.124C42.124 12.6218 44.6368 14.3837 46.5871 15.1628C48.5221 15.9357 50.4277 15.9941 50.4133 15.9932L50.6794 12.002ZM46.124 9.07702V0.953125H42.124V9.07702H46.124ZM44.124 2.95312H45.5203V-1.04688H44.124V2.95312ZM43.5203 0.953125V9.07702H47.5203V0.953125H43.5203ZM43.5203 9.07702C43.5203 11.8941 45.6404 13.2798 47.123 13.8739C48.6362 14.4801 50.167 14.5842 50.4885 14.601L50.6969 10.6064C50.5127 10.5968 49.5073 10.52 48.6107 10.1608C47.6836 9.78934 47.5203 9.42489 47.5203 9.07702H43.5203ZM50.5927 14.6037H58.1482V10.6037H50.5927V14.6037ZM56.1482 12.6037V14H60.1482V12.6037H56.1482Z" fill="black" mask="url(#path-2-inside-2_904_29654)"/>
<mask id="path-4-inside-3_904_29654" fill="white">
<path d="M9.33496 11.9609H29.6232V13.3572H9.33496V11.9609Z"/>
</mask>
<path d="M9.33496 11.9609H29.6232V13.3572H9.33496V11.9609Z" fill="#313D57"/>
<path d="M9.33496 11.9609V9.96094H7.33496V11.9609H9.33496ZM29.6232 11.9609H31.6232V9.96094H29.6232V11.9609ZM29.6232 13.3572V15.3572H31.6232V13.3572H29.6232ZM9.33496 13.3572H7.33496V15.3572H9.33496V13.3572ZM9.33496 13.9609H29.6232V9.96094H9.33496V13.9609ZM27.6232 11.9609V13.3572H31.6232V11.9609H27.6232ZM29.6232 11.3572H9.33496V15.3572H29.6232V11.3572ZM11.335 13.3572V11.9609H7.33496V13.3572H11.335Z" fill="black" mask="url(#path-4-inside-3_904_29654)"/>
<mask id="path-6-inside-4_904_29654" fill="white">
<path d="M9.33496 19.9688H49.586V21.3648H9.33496V19.9688Z"/>
</mask>
<path d="M9.33496 19.9688H49.586V21.3648H9.33496V19.9688Z" fill="#313D57"/>
<path d="M9.33496 19.9688V17.9688H7.33496V19.9688H9.33496ZM49.586 19.9688H51.586V17.9688H49.586V19.9688ZM49.586 21.3648V23.3648H51.586V21.3648H49.586ZM9.33496 21.3648H7.33496V23.3648H9.33496V21.3648ZM9.33496 21.9688H49.586V17.9688H9.33496V21.9688ZM47.586 19.9688V21.3648H51.586V19.9688H47.586ZM49.586 19.3648H9.33496V23.3648H49.586V19.3648ZM11.335 21.3648V19.9688H7.33496V21.3648H11.335Z" fill="black" mask="url(#path-6-inside-4_904_29654)"/>
<mask id="path-8-inside-5_904_29654" fill="white">
<path d="M9.33496 27.9883H49.586V29.3843H9.33496V27.9883Z"/>
</mask>
<path d="M9.33496 27.9883H49.586V29.3843H9.33496V27.9883Z" fill="#313D57"/>
<path d="M9.33496 27.9883V25.9883H7.33496V27.9883H9.33496ZM49.586 27.9883H51.586V25.9883H49.586V27.9883ZM49.586 29.3843V31.3843H51.586V29.3843H49.586ZM9.33496 29.3843H7.33496V31.3843H9.33496V29.3843ZM9.33496 29.9883H49.586V25.9883H9.33496V29.9883ZM47.586 27.9883V29.3843H51.586V27.9883H47.586ZM49.586 27.3843H9.33496V31.3843H49.586V27.3843ZM11.335 29.3843V27.9883H7.33496V29.3843H11.335Z" fill="black" mask="url(#path-8-inside-5_904_29654)"/>
<mask id="path-10-inside-6_904_29654" fill="white">
<path d="M11.3175 53.5802C11.1944 53.8836 10.769 55.083 11.499 55.5755C12.6621 56.3604 14.2957 57.0112 14.5859 57.1234C14.8146 57.1893 16.7186 57.6555 18.2422 55.4349C20.2419 52.5194 26.0111 43.5344 26.4464 42.8561C26.5377 42.623 27.1225 40.9896 25.944 40.0079C24.4006 38.7217 23.1354 38.3819 23.1332 38.3819C23.131 38.3819 21.9877 38.0379 21.2918 38.8998C20.3189 40.1068 11.9683 52.6061 11.3175 53.5802ZM10.7183 56.7319C8.86698 55.4831 10.0522 52.9965 10.0544 52.991L10.1259 52.8579C10.1511 52.8205 19.2316 39.2349 20.2056 38.0267C21.4962 36.4272 23.4672 37.0285 23.4716 37.0296C23.4749 37.0296 25.0448 37.4486 26.8323 38.9393C28.8946 40.6564 27.6822 43.4994 27.6789 43.5071L27.6405 43.5773C27.6229 43.6048 21.151 53.656 19.392 56.2196C17.1813 59.4429 14.1878 58.4602 14.1801 58.458L14.112 58.4338C14.1076 58.4327 12.1276 57.6829 10.7183 56.7319Z"/>
</mask>
<path d="M11.3175 53.5802C11.1944 53.8836 10.769 55.083 11.499 55.5755C12.6621 56.3604 14.2957 57.0112 14.5859 57.1234C14.8146 57.1893 16.7186 57.6555 18.2422 55.4349C20.2419 52.5194 26.0111 43.5344 26.4464 42.8561C26.5377 42.623 27.1225 40.9896 25.944 40.0079C24.4006 38.7217 23.1354 38.3819 23.1332 38.3819C23.131 38.3819 21.9877 38.0379 21.2918 38.8998C20.3189 40.1068 11.9683 52.6061 11.3175 53.5802ZM10.7183 56.7319C8.86698 55.4831 10.0522 52.9965 10.0544 52.991L10.1259 52.8579C10.1511 52.8205 19.2316 39.2349 20.2056 38.0267C21.4962 36.4272 23.4672 37.0285 23.4716 37.0296C23.4749 37.0296 25.0448 37.4486 26.8323 38.9393C28.8946 40.6564 27.6822 43.4994 27.6789 43.5071L27.6405 43.5773C27.6229 43.6048 21.151 53.656 19.392 56.2196C17.1813 59.4429 14.1878 58.4602 14.1801 58.458L14.112 58.4338C14.1076 58.4327 12.1276 57.6829 10.7183 56.7319Z" fill="#313D57"/>
<path d="M11.499 55.5755L12.6177 53.9177L12.6176 53.9176L11.499 55.5755ZM14.5859 57.1234L13.8651 58.989L13.9471 59.0206L14.0316 59.045L14.5859 57.1234ZM18.2422 55.4349L19.8914 56.5664L19.8916 56.5661L18.2422 55.4349ZM26.4464 42.8561L28.1296 43.9364L28.2366 43.7697L28.3088 43.5852L26.4464 42.8561ZM25.944 40.0079L24.6636 41.5443L24.6639 41.5446L25.944 40.0079ZM21.2918 38.8998L19.7357 37.6434L19.7347 37.6447L21.2918 38.8998ZM10.0544 52.991L8.29242 52.0446L8.23919 52.1438L8.19741 52.2482L10.0544 52.991ZM10.1259 52.8579L8.4693 51.7372L8.41217 51.8217L8.36392 51.9115L10.1259 52.8579ZM20.2056 38.0267L18.6491 36.7708L18.6486 36.7715L20.2056 38.0267ZM23.4716 37.0296L22.9865 38.9699L23.2254 39.0296H23.4716V37.0296ZM26.8323 38.9393L25.5514 40.4753L25.5526 40.4763L26.8323 38.9393ZM27.6789 43.5071L29.4333 44.4674L29.4794 44.3832L29.5172 44.2949L27.6789 43.5071ZM27.6405 43.5773L29.325 44.6554L29.3619 44.5977L29.3948 44.5376L27.6405 43.5773ZM19.392 56.2196L17.7429 55.0881L17.7427 55.0884L19.392 56.2196ZM14.1801 58.458L13.5085 60.3419L13.569 60.3634L13.6306 60.3811L14.1801 58.458ZM14.112 58.4338L14.7836 56.5499L14.6917 56.5171L14.5971 56.4935L14.112 58.4338ZM9.4643 52.8281C9.3751 53.0479 9.14803 53.649 9.09414 54.3546C9.0442 55.0085 9.11504 56.3797 10.3804 57.2334L12.6176 53.9176C12.7243 53.9896 12.8212 54.0833 12.8995 54.1921C12.9761 54.2984 13.021 54.3996 13.0467 54.4781C13.0933 54.6211 13.0796 54.6978 13.0825 54.6592C13.0848 54.6296 13.0943 54.5712 13.1166 54.4922C13.1375 54.4177 13.1604 54.3577 13.1707 54.3322L9.4643 52.8281ZM10.3802 57.2333C11.7482 58.1565 13.5709 58.8753 13.8651 58.989L15.3067 55.2578C15.0205 55.1472 13.5759 54.5643 12.6177 53.9177L10.3802 57.2333ZM14.0316 59.045C14.3347 59.1325 15.2259 59.3388 16.3578 59.0899C17.5515 58.8275 18.8435 58.0936 19.8914 56.5664L16.5931 54.3033C16.1173 54.9968 15.6955 55.14 15.499 55.1832C15.2409 55.24 15.0657 55.1802 15.1402 55.2017L14.0316 59.045ZM19.8916 56.5661C21.9134 53.6184 27.7046 44.5985 28.1296 43.9364L24.7633 41.7758C24.3176 42.4702 18.5705 51.4204 16.5929 54.3036L19.8916 56.5661ZM28.3088 43.5852C28.3918 43.3731 28.6545 42.6517 28.671 41.7495C28.6882 40.8163 28.4333 39.4785 27.2241 38.4712L24.6639 41.5446C24.6733 41.5524 24.6712 41.5523 24.6652 41.5437C24.6596 41.5357 24.6573 41.5298 24.6576 41.5305C24.6597 41.5362 24.6735 41.5799 24.6717 41.676C24.67 41.7716 24.6535 41.8772 24.6295 41.9754C24.6062 42.0706 24.5829 42.13 24.5841 42.127L28.3088 43.5852ZM27.2244 38.4715C26.3124 37.7114 25.4685 37.2193 24.8295 36.9111C24.51 36.757 24.241 36.6486 24.0391 36.5752C23.9381 36.5386 23.8535 36.5105 23.7872 36.4898C23.7541 36.4795 23.725 36.4708 23.7 36.4637C23.6877 36.4601 23.6751 36.4566 23.6625 36.4532C23.6567 36.4516 23.6479 36.4492 23.6373 36.4464C23.6331 36.4453 23.6222 36.4425 23.6084 36.4391C23.603 36.4378 23.5863 36.4338 23.565 36.429C23.5528 36.4264 23.5203 36.4197 23.5 36.4158C23.4575 36.4083 23.2744 36.3869 23.1332 36.3819V40.3819C22.992 40.3769 22.8089 40.3554 22.7665 40.348C22.7461 40.3441 22.7137 40.3374 22.7016 40.3347C22.6803 40.3301 22.6638 40.326 22.6586 40.3247C22.6451 40.3215 22.6347 40.3188 22.6311 40.3178C22.6219 40.3154 22.6149 40.3135 22.6116 40.3126C22.604 40.3106 22.5988 40.3091 22.5963 40.3084C22.5909 40.3068 22.5907 40.3067 22.5954 40.3082C22.6048 40.3111 22.6314 40.3196 22.6735 40.3349C22.7576 40.3655 22.9018 40.4223 23.0918 40.514C23.4718 40.6973 24.0322 41.0181 24.6636 41.5443L27.2244 38.4715ZM23.1332 36.3819C23.2837 36.3875 23.4805 36.4123 23.5276 36.4212C23.5507 36.4259 23.587 36.434 23.6003 36.4372C23.6232 36.4427 23.641 36.4474 23.6451 36.4485C23.652 36.4503 23.6574 36.4518 23.6598 36.4525C23.6626 36.4532 23.6648 36.4538 23.6658 36.4541C23.6675 36.4546 23.669 36.455 23.668 36.4547C23.6676 36.4546 23.6664 36.4543 23.6649 36.4539C23.658 36.4519 23.6477 36.4491 23.6348 36.4457C23.6092 36.4389 23.5774 36.4307 23.5399 36.4219C23.4655 36.4044 23.3694 36.3843 23.2558 36.3663C23.0332 36.331 22.7202 36.2998 22.3563 36.321C21.6255 36.3636 20.549 36.6361 19.7357 37.6434L22.8479 40.1562C22.8037 40.211 22.7369 40.2605 22.6687 40.2901C22.6117 40.3148 22.5797 40.3148 22.589 40.3142C22.5982 40.3137 22.6149 40.3147 22.629 40.3169C22.6337 40.3176 22.6328 40.3177 22.6241 40.3157C22.6194 40.3146 22.613 40.313 22.6048 40.3108C22.6006 40.3097 22.5969 40.3086 22.5945 40.308C22.5942 40.3079 22.5939 40.3078 22.5944 40.3079C22.5945 40.308 22.5951 40.3081 22.5957 40.3083C22.5962 40.3085 22.5974 40.3088 22.5988 40.3092C22.5992 40.3093 22.6089 40.312 22.6208 40.3151C22.6251 40.3163 22.643 40.321 22.666 40.3265C22.6793 40.3297 22.7156 40.3378 22.7387 40.3426C22.7858 40.3515 22.9827 40.3762 23.1332 40.3819V36.3819ZM19.7347 37.6447C19.178 38.3353 16.7743 41.8739 14.5256 45.2093C12.2325 48.6105 9.98014 51.9818 9.65458 52.469L12.9805 54.6913C13.3057 54.2045 15.5541 50.8392 17.8422 47.4454C20.1746 43.9859 22.4327 40.6713 22.849 40.1549L19.7347 37.6447ZM11.8367 55.0739C11.7378 55.0072 11.7226 54.9648 11.712 54.9357C11.6904 54.8764 11.668 54.7568 11.6843 54.562C11.7003 54.3706 11.7479 54.1769 11.7986 54.0213C11.8227 53.9473 11.8445 53.891 11.8577 53.8588C11.8641 53.8429 11.8683 53.8335 11.8693 53.8313C11.8697 53.8302 11.8695 53.8307 11.8686 53.8328C11.8681 53.8339 11.8676 53.8349 11.8674 53.8354C11.8664 53.8375 11.8683 53.8334 11.8684 53.8331C11.8686 53.8327 11.8704 53.829 11.8724 53.8244C11.8737 53.8217 11.8771 53.8142 11.8793 53.8093C11.8835 53.7998 11.8997 53.7621 11.9113 53.7338L8.19741 52.2482C8.22826 52.1711 7.79338 53.0917 7.69823 54.2284C7.59969 55.4055 7.84604 57.2069 9.59979 58.39L11.8367 55.0739ZM11.8163 53.9373L11.8878 53.8042L8.36392 51.9115L8.29242 52.0446L11.8163 53.9373ZM11.7824 53.9785C11.7894 53.9682 14.089 50.5281 16.4682 46.9994C18.9066 43.3831 21.346 39.7987 21.7626 39.282L18.6486 36.7715C18.0911 37.4629 15.5033 41.2755 13.1517 44.7633C11.9529 46.5413 10.7839 48.2823 9.9133 49.5809C9.47794 50.2303 9.11707 50.7692 8.86423 51.147C8.60718 51.531 8.4688 51.738 8.4693 51.7372L11.7824 53.9785ZM21.7621 39.2826C21.9709 39.0238 22.2063 38.9423 22.4717 38.9223C22.6138 38.9115 22.7447 38.9226 22.8377 38.9369C22.8821 38.9437 22.9121 38.9504 22.9232 38.953C22.9286 38.9543 22.929 38.9545 22.9239 38.9531C22.9213 38.9524 22.9175 38.9513 22.9126 38.9499C22.9101 38.9492 22.9078 38.9485 22.9058 38.9479C22.9055 38.9478 22.9039 38.9473 22.9056 38.9479C22.906 38.948 22.9069 38.9482 22.9075 38.9484C22.9083 38.9487 22.9106 38.9493 22.912 38.9497C22.9142 38.9504 22.9203 38.9521 22.9243 38.9533C22.9321 38.9555 22.9632 38.9639 22.9865 38.9699L23.9567 35.0893C24.0971 35.1244 20.8214 34.0785 18.6491 36.7708L21.7621 39.2826ZM23.4716 39.0296C23.3437 39.0255 23.1723 39.0071 23.1285 39C23.1065 38.996 23.0711 38.9891 23.0577 38.9863C23.0338 38.9813 23.0153 38.9769 23.0092 38.9754C22.9939 38.9718 22.9822 38.9688 22.9783 38.9678C22.9682 38.9652 22.9608 38.9632 22.9578 38.9624C22.9505 38.9605 22.9461 38.9593 22.9451 38.959C22.9424 38.9582 22.9461 38.9592 22.9559 38.9622C22.9753 38.9682 23.016 38.9812 23.0753 39.0023C23.1941 39.0446 23.3851 39.1188 23.6288 39.2339C24.117 39.4645 24.8075 39.8549 25.5514 40.4753L28.1132 37.4033C27.0695 36.5329 26.0814 35.9686 25.337 35.617C24.9643 35.441 24.6505 35.3172 24.4181 35.2344C24.3019 35.193 24.2054 35.1616 24.1314 35.1388C24.0944 35.1275 24.0623 35.1181 24.0354 35.1104C24.0222 35.1067 24.0086 35.1029 23.9951 35.0993C23.989 35.0976 23.9792 35.095 23.9675 35.092C23.9628 35.0908 23.9504 35.0877 23.9347 35.084C23.9284 35.0825 23.9097 35.078 23.8857 35.073C23.8723 35.0702 23.8368 35.0632 23.8147 35.0593C23.7709 35.0521 23.5995 35.0337 23.4716 35.0296V39.0296ZM25.5526 40.4763C25.9332 40.7932 26.06 41.2114 26.0326 41.7656C26.0038 42.3497 25.8016 42.8103 25.8406 42.7193L29.5172 44.2949C29.5595 44.1962 29.9652 43.2314 30.0278 41.9628C30.0919 40.6644 29.7938 38.8026 28.112 37.4023L25.5526 40.4763ZM25.9245 42.5468L25.8861 42.617L29.3948 44.5376L29.4333 44.4674L25.9245 42.5468ZM25.9559 42.4992C25.956 42.499 25.8557 42.6549 25.6721 42.9397C25.4903 43.2218 25.2294 43.6263 24.9113 44.119C24.2751 45.1044 23.4103 46.4422 22.4913 47.859C20.6453 50.705 18.6042 53.8328 17.7429 55.0881L21.0412 57.3511C22.8225 54.7548 29.3145 44.6718 29.325 44.6554L25.9559 42.4992ZM17.7427 55.0884C16.9707 56.214 16.1737 56.4924 15.6574 56.5714C15.3689 56.6155 15.1197 56.6024 14.9505 56.5799C14.8674 56.5689 14.8087 56.5562 14.7808 56.5495C14.7503 56.5422 14.7846 56.5507 14.7295 56.535L13.6306 60.3811C13.5775 60.3659 13.707 60.4055 13.8504 60.4398C13.9962 60.4747 14.1899 60.514 14.4231 60.545C14.8865 60.6066 15.5252 60.6382 16.2625 60.5253C17.7975 60.2904 19.6026 59.4485 21.0414 57.3509L17.7427 55.0884ZM14.8516 56.5741L14.7836 56.5499L13.4405 60.3176L13.5085 60.3419L14.8516 56.5741ZM14.5971 56.4935C14.6511 56.5078 14.7237 56.5296 14.7426 56.5358C14.7522 56.539 14.7678 56.5443 14.7736 56.5464C14.7842 56.5501 14.7923 56.553 14.7949 56.5539C14.8014 56.5563 14.8063 56.5581 14.8075 56.5586C14.8094 56.5593 14.8108 56.5598 14.8114 56.5601C14.8121 56.5603 14.8125 56.5605 14.8126 56.5605C14.8126 56.5605 14.812 56.5602 14.8105 56.5597C14.8091 56.5592 14.8071 56.5584 14.8046 56.5574C14.7944 56.5535 14.7769 56.5468 14.7526 56.5372C14.7041 56.5182 14.6303 56.4889 14.5362 56.4503C14.3473 56.373 14.0799 56.2598 13.7721 56.1194C13.1394 55.8308 12.4073 55.4589 11.8369 55.074L9.59962 58.3898C10.4386 58.9559 11.4011 59.4344 12.1119 59.7586C12.4758 59.9247 12.7923 60.0586 13.02 60.1519C13.1341 60.1986 13.2267 60.2355 13.2929 60.2614C13.3259 60.2743 13.3528 60.2847 13.3727 60.2924C13.3826 60.2962 13.3915 60.2996 13.3992 60.3025C13.4028 60.3038 13.4078 60.3057 13.4133 60.3077C13.4155 60.3086 13.4212 60.3107 13.4282 60.3132C13.4311 60.3143 13.4394 60.3173 13.4501 60.321C13.4561 60.3231 13.4717 60.3285 13.4814 60.3317C13.5003 60.3379 13.5729 60.3597 13.6269 60.374L14.5971 56.4935Z" fill="black" mask="url(#path-10-inside-6_904_29654)"/>
<mask id="path-12-inside-7_904_29654" fill="white">
<path d="M27.2629 42.7441C27.2717 42.7485 30.8774 44.5515 33.2212 43.5302C34.5909 42.9333 35.7497 42.544 36.7457 42.3604C37.8032 42.1659 38.6971 42.1976 39.4809 42.4483C40.9705 42.9243 42.0312 43.7962 42.0334 43.7984L41.0464 44.7856C41.0453 44.7845 40.267 44.1611 39.0588 43.7741C38.4981 43.5949 37.824 43.5784 36.9963 43.7301C36.1047 43.895 35.0472 44.2524 33.7775 44.8054C30.8368 46.0872 26.6516 43.9941 26.6406 43.9886L27.2629 42.7441Z"/>
</mask>
<path d="M27.2629 42.7441C27.2717 42.7485 30.8774 44.5515 33.2212 43.5302C34.5909 42.9333 35.7497 42.544 36.7457 42.3604C37.8032 42.1659 38.6971 42.1976 39.4809 42.4483C40.9705 42.9243 42.0312 43.7962 42.0334 43.7984L41.0464 44.7856C41.0453 44.7845 40.267 44.1611 39.0588 43.7741C38.4981 43.5949 37.824 43.5784 36.9963 43.7301C36.1047 43.895 35.0472 44.2524 33.7775 44.8054C30.8368 46.0872 26.6516 43.9941 26.6406 43.9886L27.2629 42.7441Z" fill="#313D57"/>
<path d="M33.2212 43.5302L34.0201 45.3637L34.0202 45.3637L33.2212 43.5302ZM36.7457 42.3604L36.3838 40.3935L36.3831 40.3936L36.7457 42.3604ZM39.4809 42.4483L38.8718 44.3532L38.8721 44.3533L39.4809 42.4483ZM42.0334 43.7984L43.4478 45.2124L44.8617 43.7982L43.4476 42.3842L42.0334 43.7984ZM41.0464 44.7856L39.6322 46.1998L41.0465 47.6142L42.4608 46.1997L41.0464 44.7856ZM39.0588 43.7741L39.6688 41.8694L39.6677 41.869L39.0588 43.7741ZM36.9963 43.7301L36.6357 41.7629L36.6325 41.7634L36.9963 43.7301ZM33.7775 44.8054L32.9789 42.9717L32.9783 42.972L33.7775 44.8054ZM26.6406 43.9886L24.8518 43.0942L23.9573 44.883L25.7462 45.7775L26.6406 43.9886ZM26.3684 44.533C26.3684 44.533 26.3687 44.5331 26.369 44.5333C26.3692 44.5334 26.3697 44.5336 26.37 44.5338C26.3707 44.5341 26.3714 44.5345 26.3722 44.5349C26.3739 44.5357 26.3757 44.5366 26.3778 44.5377C26.382 44.5397 26.3871 44.5422 26.3931 44.5452C26.405 44.551 26.4205 44.5585 26.4392 44.5676C26.4768 44.5856 26.5279 44.6098 26.5912 44.6388C26.7177 44.6969 26.8943 44.775 27.1111 44.8637C27.5415 45.0397 28.1465 45.2635 28.8438 45.4523C30.1265 45.7995 32.1892 46.1615 34.0201 45.3637L32.4222 41.6967C31.9094 41.9202 30.9973 41.8913 29.889 41.5913C29.3908 41.4564 28.9462 41.2926 28.6249 41.1612C28.4658 41.0961 28.3409 41.0407 28.2593 41.0033C28.2187 40.9846 28.1891 40.9706 28.1717 40.9622C28.163 40.9581 28.1574 40.9553 28.1551 40.9542C28.1539 40.9536 28.1535 40.9534 28.1539 40.9536C28.1542 40.9537 28.1546 40.9539 28.1552 40.9542C28.1555 40.9544 28.1559 40.9546 28.1563 40.9548C28.1565 40.9549 28.1568 40.955 28.1569 40.9551C28.1571 40.9552 28.1573 40.9553 28.1573 40.9553L26.3684 44.533ZM34.0202 45.3637C35.3174 44.7983 36.3206 44.4725 37.1082 44.3273L36.3831 40.3936C35.1788 40.6156 33.8645 41.0682 32.4221 41.6967L34.0202 45.3637ZM37.1076 44.3274C37.9298 44.1761 38.4773 44.2271 38.8718 44.3532L40.0901 40.5433C38.9168 40.1681 37.6767 40.1556 36.3838 40.3935L37.1076 44.3274ZM38.8721 44.3533C39.4197 44.5283 39.9082 44.7838 40.2673 45.0046C40.4434 45.1129 40.5797 45.2075 40.6667 45.2708C40.71 45.3023 40.7403 45.3255 40.7565 45.338C40.7645 45.3443 40.7688 45.3477 40.769 45.3479C40.7692 45.3481 40.7679 45.347 40.7651 45.3447C40.7639 45.3438 40.7612 45.3415 40.7574 45.3384C40.7559 45.3372 40.7519 45.3338 40.7467 45.3295C40.7445 45.3276 40.7386 45.3226 40.731 45.3162C40.7268 45.3126 40.7161 45.3032 40.7095 45.2975C40.6969 45.2863 40.6515 45.2441 40.6192 45.2126L43.4476 42.3842C43.4154 42.3526 43.3699 42.3105 43.3573 42.2992C43.3507 42.2935 43.3399 42.2841 43.3357 42.2805C43.3281 42.2739 43.322 42.2688 43.3197 42.2669C43.3142 42.2622 43.3098 42.2586 43.3077 42.2569C43.3028 42.2528 43.2985 42.2493 43.2952 42.2466C43.2881 42.2408 43.2805 42.2347 43.2725 42.2282C43.2562 42.2152 43.236 42.1991 43.212 42.1805C43.1639 42.143 43.0993 42.094 43.0196 42.036C42.8605 41.9203 42.6381 41.7668 42.3626 41.5974C41.8184 41.2626 41.0317 40.8442 40.0897 40.5432L38.8721 44.3533ZM40.6191 42.3843L39.632 43.3716L42.4608 46.1997L43.4478 45.2124L40.6191 42.3843ZM42.4606 43.3714C42.4166 43.3288 42.358 43.2757 42.3445 43.2641C42.338 43.2587 42.3277 43.2499 42.3237 43.2467C42.3168 43.2409 42.3113 43.2364 42.3094 43.2349C42.3045 43.2309 42.3006 43.2278 42.2987 43.2263C42.2944 43.2227 42.2904 43.2196 42.2874 43.2172C42.2809 43.212 42.274 43.2066 42.2668 43.201C42.2523 43.1897 42.2348 43.1762 42.2144 43.1609C42.1736 43.1301 42.1203 43.0909 42.0552 43.0451C41.9251 42.9537 41.7458 42.8346 41.523 42.7029C41.0807 42.4415 40.4469 42.1186 39.6688 41.8694L38.4487 45.6788C38.8789 45.8166 39.2383 45.9989 39.4875 46.1463C39.6104 46.2189 39.7014 46.28 39.7554 46.3179C39.7822 46.3368 39.7993 46.3495 39.806 46.3546C39.8094 46.3571 39.8099 46.3575 39.8075 46.3557C39.8064 46.3548 39.8041 46.353 39.8007 46.3503C39.7991 46.3491 39.7964 46.3469 39.7928 46.344C39.7913 46.3428 39.7877 46.3399 39.7831 46.3361C39.7812 46.3346 39.7758 46.3302 39.769 46.3245C39.765 46.3213 39.7547 46.3126 39.7483 46.3071C39.7348 46.2955 39.6761 46.2425 39.6322 46.1998L42.4606 43.3714ZM39.6677 41.869C38.6933 41.5576 37.664 41.5744 36.6357 41.7629L37.3568 45.6973C37.9841 45.5824 38.3029 45.6322 38.4499 45.6792L39.6677 41.869ZM36.6325 41.7634C35.5296 41.9674 34.3154 42.3897 32.9789 42.9717L34.576 46.639C35.779 46.1151 36.6797 45.8226 37.36 45.6967L36.6325 41.7634ZM32.9783 42.972C32.1366 43.3389 30.9029 43.2754 29.6082 42.9427C29.0056 42.7878 28.4744 42.5967 28.0934 42.4434C27.9044 42.3673 27.7563 42.3022 27.6593 42.258C27.6109 42.2359 27.5755 42.2192 27.5544 42.2091C27.5439 42.204 27.537 42.2007 27.5338 42.1991C27.5322 42.1983 27.5316 42.198 27.5319 42.1982C27.532 42.1983 27.5324 42.1984 27.5331 42.1988C27.5334 42.1989 27.5337 42.1991 27.5341 42.1993C27.5343 42.1994 27.5346 42.1995 27.5347 42.1996C27.5349 42.1997 27.5351 42.1998 27.5351 42.1998L25.7462 45.7775C25.7462 45.7775 25.7464 45.7776 25.7468 45.7777C25.7469 45.7778 25.7474 45.7781 25.7478 45.7782C25.7485 45.7786 25.7493 45.779 25.7502 45.7795C25.752 45.7804 25.7541 45.7814 25.7565 45.7826C25.7612 45.7849 25.7669 45.7877 25.7736 45.791C25.7871 45.7976 25.8047 45.8062 25.8261 45.8164C25.869 45.837 25.9275 45.8645 26.0004 45.8977C26.1458 45.964 26.3495 46.0533 26.6003 46.1543C27.099 46.3549 27.8 46.6079 28.6126 46.8168C30.1485 47.2115 32.4777 47.5537 34.5766 46.6388L32.9783 42.972ZM28.4295 44.883L29.0517 43.6386L25.474 41.8497L24.8518 43.0942L28.4295 44.883Z" fill="black" mask="url(#path-12-inside-7_904_29654)"/>
<mask id="path-14-inside-8_904_29654" fill="white">
<path d="M62.0857 39.0568C62.0857 39.0557 61.524 38.0938 61.092 38.195C60.3466 38.3687 57.6247 40.0175 57.2993 40.2154C57.1718 40.3341 56.3946 41.1247 56.8035 42.2449L57.0079 42.6614L57.4794 43.4739C59.6506 47.0544 65.7103 55.7139 66.0368 56.18C66.1545 56.3141 67.3868 57.63 69.4733 56.766C70.7288 56.2471 71.6114 55.7601 72.128 55.3005C72.4743 54.9916 72.6118 54.7332 72.547 54.5254C72.26 53.6053 62.1692 39.1898 62.1407 39.1491L62.0857 39.0568ZM60.7753 36.836C61.9494 36.5612 63.0126 37.9717 63.2709 38.3455C63.3039 38.3829 73.5451 53.0447 73.8771 54.1099C74.1212 54.8927 73.8553 55.6315 73.056 56.3428C72.4272 56.9012 71.4124 57.4694 70.003 58.0521C66.8633 59.3504 64.9451 57.0407 64.9407 57.0352L64.9165 57.0034C64.8989 56.9781 58.5394 47.903 56.2901 44.1928L55.7856 43.3277C55.6536 43.0847 55.5535 42.8781 55.4963 42.7198C54.7213 40.5992 56.4768 39.0908 56.4812 39.0875L56.5308 39.0523C56.5385 39.0479 59.787 37.0658 60.7753 36.836Z"/>
</mask>
<path d="M62.0857 39.0568C62.0857 39.0557 61.524 38.0938 61.092 38.195C60.3466 38.3687 57.6247 40.0175 57.2993 40.2154C57.1718 40.3341 56.3946 41.1247 56.8035 42.2449L57.0079 42.6614L57.4794 43.4739C59.6506 47.0544 65.7103 55.7139 66.0368 56.18C66.1545 56.3141 67.3868 57.63 69.4733 56.766C70.7288 56.2471 71.6114 55.7601 72.128 55.3005C72.4743 54.9916 72.6118 54.7332 72.547 54.5254C72.26 53.6053 62.1692 39.1898 62.1407 39.1491L62.0857 39.0568ZM60.7753 36.836C61.9494 36.5612 63.0126 37.9717 63.2709 38.3455C63.3039 38.3829 73.5451 53.0447 73.8771 54.1099C74.1212 54.8927 73.8553 55.6315 73.056 56.3428C72.4272 56.9012 71.4124 57.4694 70.003 58.0521C66.8633 59.3504 64.9451 57.0407 64.9407 57.0352L64.9165 57.0034C64.8989 56.9781 58.5394 47.903 56.2901 44.1928L55.7856 43.3277C55.6536 43.0847 55.5535 42.8781 55.4963 42.7198C54.7213 40.5992 56.4768 39.0908 56.4812 39.0875L56.5308 39.0523C56.5385 39.0479 59.787 37.0658 60.7753 36.836Z" fill="#313D57"/>
<path d="M61.092 38.195L61.5459 40.1428L61.5479 40.1423L61.092 38.195ZM57.2993 40.2154L56.2601 38.5066L56.0858 38.6126L55.9365 38.7516L57.2993 40.2154ZM56.8035 42.2449L54.9248 42.9307L54.9612 43.0306L55.0081 43.126L56.8035 42.2449ZM57.0079 42.6614L55.2125 43.5425L55.2432 43.605L55.2781 43.6653L57.0079 42.6614ZM57.4794 43.4739L55.7496 44.4778L55.7593 44.4944L55.7693 44.5109L57.4794 43.4739ZM66.0368 56.18L64.3987 57.3274L64.4613 57.4168L64.5332 57.4988L66.0368 56.18ZM69.4733 56.766L68.7094 54.9176L68.7081 54.9181L69.4733 56.766ZM72.128 55.3005L73.4572 56.795L73.4594 56.793L72.128 55.3005ZM72.547 54.5254L70.6376 55.1208L70.6378 55.1214L72.547 54.5254ZM62.1407 39.1491L60.4222 40.1723L60.4608 40.2372L60.5043 40.299L62.1407 39.1491ZM63.2709 38.3455L61.6257 39.4826L61.6929 39.58L61.7712 39.6687L63.2709 38.3455ZM73.8771 54.1099L71.9677 54.705L71.9678 54.7053L73.8771 54.1099ZM73.056 56.3428L74.3841 57.8381L74.3857 57.8368L73.056 56.3428ZM70.003 58.0521L69.2389 56.2038L69.2388 56.2039L70.003 58.0521ZM64.9407 57.0352L63.3511 58.2489L63.3648 58.2669L63.379 58.2846L64.9407 57.0352ZM64.9165 57.0034L63.2747 58.1456L63.3 58.1819L63.3268 58.2171L64.9165 57.0034ZM56.2901 44.1928L54.5625 45.2004L54.5711 45.2151L54.5799 45.2296L56.2901 44.1928ZM55.7856 43.3277L54.028 44.282L54.0426 44.3089L54.058 44.3353L55.7856 43.3277ZM55.4963 42.7198L57.3775 42.0405L57.3748 42.0333L55.4963 42.7198ZM56.4812 39.0875L55.3234 37.4567L55.3021 37.4718L55.2812 37.4875L56.4812 39.0875ZM56.5308 39.0523L55.5386 37.3158L55.4532 37.3646L55.373 37.4215L56.5308 39.0523ZM64.0857 39.0568C64.0546 38.7055 63.9363 38.2983 63.9079 38.2326C63.8952 38.205 63.8746 38.1625 63.867 38.1474C63.8541 38.1223 63.8435 38.1029 63.8408 38.0978C63.833 38.0835 63.8266 38.0723 63.8247 38.0689C63.8194 38.0597 63.815 38.0521 63.8128 38.0482C63.8074 38.039 63.8022 38.0302 63.7974 38.0221C63.7875 38.0055 63.7756 37.9858 63.7619 37.9637C63.7346 37.9195 63.6979 37.8617 63.6532 37.795C63.5669 37.6661 63.4361 37.4814 63.2726 37.2898C63.1224 37.1137 62.8744 36.8474 62.5426 36.6252C62.2524 36.4308 61.5451 36.0348 60.6361 36.2476L61.5479 40.1423C60.8549 40.3045 60.3798 39.9909 60.3164 39.9484C60.2115 39.8782 60.1849 39.8335 60.2291 39.8853C60.2601 39.9216 60.2966 39.9714 60.3291 40.0199C60.3439 40.042 60.3544 40.0587 60.3595 40.0669C60.362 40.071 60.3626 40.0721 60.3612 40.0696C60.3606 40.0686 60.3585 40.0652 60.3554 40.0598C60.3542 40.0577 60.3506 40.0515 60.3459 40.0432C60.3442 40.0403 60.3381 40.0295 60.3304 40.0154C60.3277 40.0105 60.3172 39.9912 60.3044 39.9661C60.2968 39.9511 60.2761 39.9086 60.2634 39.881C60.2351 39.8153 60.1168 39.4082 60.0857 39.0568H64.0857ZM60.6381 36.2472C60.1893 36.3517 59.6784 36.5966 59.338 36.7664C58.93 36.9699 58.4769 37.2168 58.0567 37.4535C57.213 37.9287 56.4287 38.4041 56.2601 38.5066L58.3385 41.9243C58.4953 41.8289 59.2347 41.3809 60.0197 40.9387C60.4138 40.7167 60.8013 40.5065 61.1234 40.3458C61.5131 40.1514 61.622 40.125 61.5459 40.1428L60.6381 36.2472ZM55.9365 38.7516C55.722 38.9513 54.0639 40.5725 54.9248 42.9307L58.6822 41.559C58.6795 41.5515 58.6818 41.5557 58.6838 41.5701C58.6857 41.5844 58.6864 41.6017 58.685 41.6201C58.6837 41.638 58.6808 41.6525 58.678 41.6626C58.6754 41.6724 58.6732 41.6773 58.6731 41.6775C58.6731 41.6776 58.6734 41.6768 58.6742 41.6753C58.675 41.6737 58.6762 41.6717 58.6778 41.6692C58.681 41.6639 58.6847 41.6587 58.6881 41.6544C58.6964 41.6437 58.6939 41.6496 58.6621 41.6792L55.9365 38.7516ZM55.0081 43.126L55.2125 43.5425L58.8034 41.7804L58.599 41.3638L55.0081 43.126ZM55.2781 43.6653L55.7496 44.4778L59.2092 42.47L58.7377 41.6576L55.2781 43.6653ZM55.7693 44.5109C57.9835 48.1624 64.0918 56.8892 64.3987 57.3274L67.6749 55.0326C67.3289 54.5386 61.3177 45.9464 59.1896 42.4369L55.7693 44.5109ZM64.5332 57.4988C64.8385 57.8468 66.9369 59.9811 70.2386 58.6138L68.7081 54.9181C68.4229 55.0362 68.2208 55.0591 68.0919 55.0579C67.9605 55.0566 67.856 55.0296 67.7713 54.9951C67.578 54.9164 67.4827 54.7954 67.5405 54.8612L64.5332 57.4988ZM70.2373 58.6143C71.5396 58.076 72.6801 57.4861 73.4572 56.795L70.7989 53.8061C70.5426 54.034 69.918 54.4181 68.7094 54.9176L70.2373 58.6143ZM73.4594 56.793C73.7194 56.5611 74.0285 56.2396 74.2527 55.8231C74.4883 55.3855 74.6973 54.7021 74.4561 53.9294L70.6378 55.1214C70.4615 54.5565 70.6342 54.1063 70.7306 53.927C70.8158 53.7688 70.883 53.7311 70.7967 53.8081L73.4594 56.793ZM74.4563 53.93C74.361 53.6244 74.1833 53.3201 74.1174 53.2055C74.0084 53.0156 73.8691 52.7878 73.7115 52.5372C73.3942 52.0329 72.9651 51.3772 72.4685 50.6317C71.4732 49.1375 70.1773 47.2382 68.8946 45.3739C66.3281 41.6436 63.7945 38.0241 63.777 37.9993L60.5043 40.299C60.5037 40.2982 60.5127 40.311 60.5335 40.3408C60.5533 40.3692 60.5824 40.4107 60.62 40.4645C60.6953 40.5722 60.8051 40.7293 60.9445 40.9288C61.2232 41.3279 61.6202 41.8971 62.0968 42.5819C63.0501 43.9517 64.3209 45.7831 65.5992 47.6411C66.8787 49.5008 68.1611 51.3804 69.1394 52.8492C69.6296 53.5851 70.0362 54.2069 70.3258 54.6672C70.4715 54.8989 70.5785 55.0752 70.6488 55.1976C70.7623 55.3953 70.6971 55.3114 70.6376 55.1208L74.4563 53.93ZM63.8592 38.126L63.8042 38.0337L60.3672 40.0799L60.4222 40.1723L63.8592 38.126ZM61.2311 38.7834C61.0675 38.8217 60.9497 38.7863 60.9304 38.7792C60.9269 38.7779 60.9855 38.8015 61.0979 38.8937C61.2047 38.9814 61.3151 39.0938 61.417 39.2131C61.5167 39.3296 61.5899 39.4309 61.6257 39.4826L64.9162 37.2083C64.7448 36.9604 64.2905 36.3391 63.6351 35.8014C63.0341 35.3082 61.8291 34.5353 60.3195 34.8887L61.2311 38.7834ZM61.7712 39.6687C61.7408 39.6334 61.6991 39.5822 61.6873 39.567C61.681 39.5587 61.6706 39.5451 61.6668 39.5399C61.6598 39.5306 61.6547 39.5235 61.6536 39.5219C61.6504 39.5175 61.6489 39.5154 61.6506 39.5178C61.6533 39.5216 61.6591 39.5297 61.6687 39.5434C61.6875 39.5701 61.716 39.6107 61.7541 39.665C61.83 39.7733 61.9411 39.9321 62.0826 40.1348C62.3655 40.5399 62.7686 41.1186 63.2527 41.8156C64.2211 43.2098 65.5122 45.0756 66.812 46.9727C68.1131 48.8716 69.4178 50.7943 70.4157 52.3049C70.9157 53.0619 71.3308 53.7036 71.6277 54.1823C71.777 54.4231 71.8871 54.6077 71.9602 54.7377C72.0688 54.931 72.0196 54.8717 71.9677 54.705L75.7865 53.5149C75.6931 53.2151 75.525 52.9163 75.4471 52.7778C75.3337 52.576 75.1897 52.3364 75.0271 52.0742C74.7002 51.5471 74.2606 50.8683 73.7532 50.1003C72.7365 48.561 71.4166 46.6162 70.1117 44.7118C68.8057 42.8056 67.5095 40.9324 66.538 39.5337C66.0522 38.8342 65.6472 38.253 65.3624 37.845C65.2201 37.6411 65.1074 37.4801 65.0295 37.3689C64.9907 37.3136 64.9598 37.2696 64.9379 37.2385C64.9272 37.2233 64.9172 37.2093 64.9091 37.1979C64.9054 37.1927 64.8997 37.1847 64.8935 37.1761C64.8908 37.1724 64.8846 37.1638 64.8767 37.1532C64.8725 37.1475 64.8618 37.1334 64.8551 37.1247C64.843 37.1091 64.8011 37.0577 64.7706 37.0222L61.7712 39.6687ZM71.9678 54.7053C71.9707 54.7146 71.9638 54.6957 71.9644 54.6565C71.9651 54.6161 71.9733 54.5832 71.9795 54.5661C71.9895 54.5388 71.961 54.64 71.7264 54.8487L74.3857 57.8368C74.9503 57.3343 75.4544 56.7104 75.7361 55.9402C76.0304 55.1355 76.0325 54.3036 75.7864 53.5146L71.9678 54.7053ZM71.728 54.8474C71.3503 55.1827 70.5811 55.6489 69.2389 56.2038L70.7671 59.9004C72.2436 59.29 73.5041 58.6197 74.3841 57.8381L71.728 54.8474ZM69.2388 56.2039C68.2663 56.606 67.5953 56.4362 67.1565 56.2271C66.6449 55.9833 66.3882 55.643 66.5025 55.7858L63.379 58.2846C63.4977 58.4329 64.2023 59.2502 65.4357 59.838C66.7421 60.4606 68.6001 60.7965 70.7673 59.9003L69.2388 56.2039ZM66.5304 55.8215L66.5061 55.7897L63.3268 58.2171L63.3511 58.2489L66.5304 55.8215ZM66.5583 55.8613C66.5141 55.7977 60.2074 46.7965 58.0004 43.156L54.5799 45.2296C56.8713 49.0095 63.2837 58.1586 63.2747 58.1456L66.5583 55.8613ZM58.0177 43.1851L57.5132 42.32L54.058 44.3353L54.5625 45.2004L58.0177 43.1851ZM57.5432 42.3733C57.4885 42.2727 57.4472 42.1919 57.4173 42.1294C57.3859 42.0637 57.3761 42.0368 57.3775 42.0405L53.6152 43.3991C53.7249 43.7028 53.8834 44.0158 54.028 44.282L57.5432 42.3733ZM57.3748 42.0333C57.2353 41.6514 57.3042 41.3454 57.4614 41.0505C57.5444 40.8948 57.6435 40.7647 57.7219 40.675C57.7596 40.6319 57.7883 40.6029 57.8015 40.5901C57.808 40.5838 57.8101 40.5819 57.8069 40.5849C57.8054 40.5863 57.8021 40.5892 57.797 40.5937C57.7946 40.5958 57.791 40.599 57.7864 40.603C57.7843 40.6048 57.7806 40.608 57.7758 40.612C57.7737 40.6138 57.7691 40.6177 57.7631 40.6227C57.7599 40.6254 57.7519 40.632 57.7471 40.636C57.7379 40.6434 57.7051 40.6694 57.6812 40.6875L55.2812 37.4875C55.0675 37.6479 54.4247 38.2439 53.9316 39.1689C53.4037 40.1591 52.9824 41.6676 53.6179 43.4064L57.3748 42.0333ZM57.639 40.7183L57.6886 40.6831L55.373 37.4215L55.3234 37.4567L57.639 40.7183ZM57.5231 40.7888C57.6716 40.7039 58.2716 40.3289 59.263 39.7735C59.7168 39.5192 60.1809 39.2691 60.5789 39.0733C61.0355 38.8487 61.2334 38.7829 61.2282 38.7841L60.3224 34.888C59.8231 35.0041 59.2442 35.2721 58.8135 35.484C58.3243 35.7246 57.7905 36.0134 57.3077 36.2839C56.4258 36.7781 55.3977 37.3963 55.5386 37.3158L57.5231 40.7888Z" fill="black" mask="url(#path-14-inside-8_904_29654)"/>
<mask id="path-16-inside-9_904_29654" fill="white">
<path d="M57.2449 44.6885C57.2361 44.6918 53.9656 45.9088 50.7412 44.594C49.3264 44.0179 48.2919 43.7421 47.3509 43.6915C46.4198 43.6421 45.5359 43.8114 44.4289 44.1225L44.2552 44.1697C42.1489 44.7611 39.7775 45.4261 39.595 46.8508C39.4565 47.9403 39.3576 49.8973 39.4664 51.4781C39.5346 52.4609 39.6545 53.2447 39.8458 53.403C40.102 53.6152 40.6482 53.6316 41.2638 53.5085C41.9817 53.3611 42.7448 53.0138 43.2802 52.5367C44.308 51.622 44.4113 49.9147 44.4113 49.9103V48.7485C49.6232 51.5188 58.4136 55.4885 62.867 58.5501C62.8736 58.5545 65.5196 60.5914 64.472 62.745C63.9893 63.7388 63.2813 64.4249 62.4129 64.7635C61.5609 65.0977 60.5782 65.0878 59.5228 64.7019L59.5359 65.0098C59.5359 65.6991 59.3425 66.4322 58.884 67.0743C57.854 68.5232 55.3069 68.1483 55.3003 68.1472L55.1978 68.1296L54.6868 67.8734C54.7011 68.3099 54.6099 68.7474 54.4307 69.1553C54.2009 69.6818 53.8204 70.1666 53.3367 70.5404C52.6529 71.067 51.7536 71.3848 50.7543 71.3133C50.0398 71.2617 49.1549 71.0032 48.2325 70.6492L48.2589 70.9462C48.2776 71.4442 48.1677 71.908 47.9478 72.3169C47.7302 72.7204 47.4026 73.0689 46.9859 73.3405C46.3967 73.7252 45.6149 73.9628 44.6904 73.9968C41.9135 74.1002 38.4672 71.3651 38.4573 71.3574L39.3125 70.2557C39.3202 70.2623 42.3852 72.6897 44.6421 72.6051C45.3028 72.5809 45.8437 72.4237 46.2273 72.1731C46.4461 72.0312 46.6154 71.8541 46.721 71.6573C46.8243 71.4649 46.876 71.2396 46.8672 70.9945C46.8551 70.6702 46.7386 70.3008 46.5067 69.904C44.4256 68.9212 42.5907 67.7866 42.5819 67.7822L43.2746 66.5708C43.2889 66.5785 48.4579 69.7468 50.8533 69.9216C51.4887 69.9666 52.0582 69.7687 52.4858 69.4389C52.7848 69.2069 53.019 68.9122 53.1553 68.5989C53.2839 68.3043 53.3312 67.9912 53.2729 67.7032C53.2147 67.4173 53.0465 67.1369 52.7475 66.8995L45.4204 63.221L46.0427 61.9767L55.6189 66.784C55.974 66.8235 57.2845 66.9215 57.7495 66.2674C58.0232 65.8826 58.1398 65.4352 58.1398 65.0098C58.1398 64.5843 58.0288 64.1929 57.8485 63.9158C54.5604 62.2327 48.3161 58.6402 48.2952 58.6281L48.9943 57.4233C49.0196 57.4376 58.2408 62.7462 59.9887 63.3893C60.7187 63.6576 61.3708 63.6762 61.9051 63.4673C62.4404 63.2606 62.89 62.8077 63.2165 62.1371C63.7409 61.0543 62.3029 59.8747 62.1127 59.7263L45.6293 50.9768C45.4326 51.7738 45.0291 52.8489 44.2079 53.5789C43.4912 54.2165 42.4842 54.6793 41.5431 54.8706C40.5351 55.0729 39.5567 54.9739 38.9576 54.4781C38.4266 54.0395 38.1659 52.9006 38.0747 51.5704C37.9603 49.9105 38.066 47.8393 38.2144 46.6773C38.5146 44.3336 41.3552 43.5377 43.8792 42.8297L44.0529 42.7822C45.3007 42.4315 46.312 42.2404 47.4246 42.2998C48.5316 42.3602 49.7035 42.6647 51.2645 43.3012C53.993 44.4137 56.7524 43.3869 56.759 43.3847L57.2449 44.6885Z"/>
</mask>
<path d="M57.2449 44.6885C57.2361 44.6918 53.9656 45.9088 50.7412 44.594C49.3264 44.0179 48.2919 43.7421 47.3509 43.6915C46.4198 43.6421 45.5359 43.8114 44.4289 44.1225L44.2552 44.1697C42.1489 44.7611 39.7775 45.4261 39.595 46.8508C39.4565 47.9403 39.3576 49.8973 39.4664 51.4781C39.5346 52.4609 39.6545 53.2447 39.8458 53.403C40.102 53.6152 40.6482 53.6316 41.2638 53.5085C41.9817 53.3611 42.7448 53.0138 43.2802 52.5367C44.308 51.622 44.4113 49.9147 44.4113 49.9103V48.7485C49.6232 51.5188 58.4136 55.4885 62.867 58.5501C62.8736 58.5545 65.5196 60.5914 64.472 62.745C63.9893 63.7388 63.2813 64.4249 62.4129 64.7635C61.5609 65.0977 60.5782 65.0878 59.5228 64.7019L59.5359 65.0098C59.5359 65.6991 59.3425 66.4322 58.884 67.0743C57.854 68.5232 55.3069 68.1483 55.3003 68.1472L55.1978 68.1296L54.6868 67.8734C54.7011 68.3099 54.6099 68.7474 54.4307 69.1553C54.2009 69.6818 53.8204 70.1666 53.3367 70.5404C52.6529 71.067 51.7536 71.3848 50.7543 71.3133C50.0398 71.2617 49.1549 71.0032 48.2325 70.6492L48.2589 70.9462C48.2776 71.4442 48.1677 71.908 47.9478 72.3169C47.7302 72.7204 47.4026 73.0689 46.9859 73.3405C46.3967 73.7252 45.6149 73.9628 44.6904 73.9968C41.9135 74.1002 38.4672 71.3651 38.4573 71.3574L39.3125 70.2557C39.3202 70.2623 42.3852 72.6897 44.6421 72.6051C45.3028 72.5809 45.8437 72.4237 46.2273 72.1731C46.4461 72.0312 46.6154 71.8541 46.721 71.6573C46.8243 71.4649 46.876 71.2396 46.8672 70.9945C46.8551 70.6702 46.7386 70.3008 46.5067 69.904C44.4256 68.9212 42.5907 67.7866 42.5819 67.7822L43.2746 66.5708C43.2889 66.5785 48.4579 69.7468 50.8533 69.9216C51.4887 69.9666 52.0582 69.7687 52.4858 69.4389C52.7848 69.2069 53.019 68.9122 53.1553 68.5989C53.2839 68.3043 53.3312 67.9912 53.2729 67.7032C53.2147 67.4173 53.0465 67.1369 52.7475 66.8995L45.4204 63.221L46.0427 61.9767L55.6189 66.784C55.974 66.8235 57.2845 66.9215 57.7495 66.2674C58.0232 65.8826 58.1398 65.4352 58.1398 65.0098C58.1398 64.5843 58.0288 64.1929 57.8485 63.9158C54.5604 62.2327 48.3161 58.6402 48.2952 58.6281L48.9943 57.4233C49.0196 57.4376 58.2408 62.7462 59.9887 63.3893C60.7187 63.6576 61.3708 63.6762 61.9051 63.4673C62.4404 63.2606 62.89 62.8077 63.2165 62.1371C63.7409 61.0543 62.3029 59.8747 62.1127 59.7263L45.6293 50.9768C45.4326 51.7738 45.0291 52.8489 44.2079 53.5789C43.4912 54.2165 42.4842 54.6793 41.5431 54.8706C40.5351 55.0729 39.5567 54.9739 38.9576 54.4781C38.4266 54.0395 38.1659 52.9006 38.0747 51.5704C37.9603 49.9105 38.066 47.8393 38.2144 46.6773C38.5146 44.3336 41.3552 43.5377 43.8792 42.8297L44.0529 42.7822C45.3007 42.4315 46.312 42.2404 47.4246 42.2998C48.5316 42.3602 49.7035 42.6647 51.2645 43.3012C53.993 44.4137 56.7524 43.3869 56.759 43.3847L57.2449 44.6885Z" fill="#313D57"/>
<path d="M50.7412 44.594L51.4964 42.742L51.4954 42.7416L50.7412 44.594ZM47.3509 43.6915L47.4582 41.6944L47.457 41.6944L47.3509 43.6915ZM44.4289 44.1225L44.9537 46.0524L44.9619 46.0502L44.97 46.0479L44.4289 44.1225ZM44.2552 44.1697L43.7304 42.2398L43.7224 42.242L43.7145 42.2442L44.2552 44.1697ZM39.595 46.8508L37.6112 46.5967L37.611 46.5986L39.595 46.8508ZM39.4664 51.4781L37.4712 51.6155L37.4712 51.6165L39.4664 51.4781ZM39.8458 53.403L41.1216 51.8628L41.121 51.8622L39.8458 53.403ZM41.2638 53.5085L41.656 55.4696L41.6658 55.4676L41.2638 53.5085ZM43.2802 52.5367L41.9506 51.0425L41.9495 51.0435L43.2802 52.5367ZM44.4113 48.7485L45.35 46.9824L42.4113 45.4204V48.7485H44.4113ZM62.867 58.5501L61.7339 60.1982L61.7457 60.2063L61.7576 60.2142L62.867 58.5501ZM64.472 62.745L62.6735 61.8701L62.6729 61.8713L64.472 62.745ZM62.4129 64.7635L61.6864 62.9001L61.6825 62.9016L62.4129 64.7635ZM59.5228 64.7019L60.2096 62.8235L57.3974 61.7953L57.5246 64.7869L59.5228 64.7019ZM59.5359 65.0098H61.5359V64.9673L61.5341 64.9248L59.5359 65.0098ZM58.884 67.0743L57.2564 65.912L57.254 65.9154L58.884 67.0743ZM55.3003 68.1472L54.9614 70.1183L54.9715 70.12L55.3003 68.1472ZM55.1978 68.1296L54.3016 69.9175L54.5667 70.0504L54.859 70.1007L55.1978 68.1296ZM54.6868 67.8734L55.583 66.0855L52.5779 64.5791L52.6879 67.9389L54.6868 67.8734ZM54.4307 69.1553L52.5996 68.3508L52.5976 68.3554L54.4307 69.1553ZM53.3367 70.5404L54.557 72.125L54.5596 72.1229L53.3367 70.5404ZM50.7543 71.3133L50.6101 73.3081L50.6117 73.3083L50.7543 71.3133ZM48.2325 70.6492L48.9492 68.782L45.9564 67.6335L46.2404 70.8264L48.2325 70.6492ZM48.2589 70.9462L50.2575 70.8712L50.2556 70.82L50.2511 70.769L48.2589 70.9462ZM47.9478 72.3169L49.708 73.2665L49.7094 73.264L47.9478 72.3169ZM46.9859 73.3405L45.8939 71.6649L45.8924 71.6659L46.9859 73.3405ZM44.6904 73.9968L44.6167 71.9982L44.616 71.9982L44.6904 73.9968ZM38.4573 71.3574L36.8774 70.131L35.6522 71.7093L37.2294 72.9361L38.4573 71.3574ZM39.3125 70.2557L40.6141 68.7372L39.02 67.3708L37.7326 69.0293L39.3125 70.2557ZM44.6421 72.6051L44.5689 70.6064L44.5671 70.6065L44.6421 72.6051ZM46.2273 72.1731L45.1394 70.4948L45.1335 70.4987L46.2273 72.1731ZM46.721 71.6573L44.959 70.7109L44.9584 70.7121L46.721 71.6573ZM46.8672 70.9945L48.8659 70.9228L48.8658 70.92L46.8672 70.9945ZM46.5067 69.904L48.2334 68.8947L47.9208 68.36L47.3607 68.0955L46.5067 69.904ZM42.5819 67.7822L40.8457 66.7894L39.796 68.6253L41.6875 69.571L42.5819 67.7822ZM43.2746 66.5708L44.2228 64.8098L42.5061 63.8855L41.5384 65.578L43.2746 66.5708ZM50.8533 69.9216L50.7078 71.9163L50.7118 71.9166L50.8533 69.9216ZM52.4858 69.4389L53.7072 71.0226L53.7117 71.0192L52.4858 69.4389ZM53.1553 68.5989L51.3223 67.7987L51.3213 67.801L53.1553 68.5989ZM53.2729 67.7032L55.2332 67.3066L55.2326 67.3037L53.2729 67.7032ZM52.7475 66.8995L53.9913 65.3333L53.8295 65.2048L53.6449 65.1121L52.7475 66.8995ZM45.4204 63.221L43.6316 62.3265L42.7385 64.1125L44.5231 65.0084L45.4204 63.221ZM46.0427 61.9767L46.94 60.1893L45.1498 59.2907L44.2539 61.0822L46.0427 61.9767ZM55.6189 66.784L54.7216 68.5714L55.0416 68.732L55.3974 68.7717L55.6189 66.784ZM57.7495 66.2674L56.1198 65.108L56.1194 65.1085L57.7495 66.2674ZM57.8485 63.9158L59.5248 62.8249L59.2341 62.3783L58.7598 62.1355L57.8485 63.9158ZM48.2952 58.6281L46.5654 57.6243L45.5606 59.3559L47.2932 60.3589L48.2952 58.6281ZM48.9943 57.4233L49.9785 55.6822L48.257 54.7092L47.2645 56.4195L48.9943 57.4233ZM59.9887 63.3893L59.2981 65.2663L59.2989 65.2666L59.9887 63.3893ZM61.9051 63.4673L61.1848 61.6015L61.1768 61.6046L61.9051 63.4673ZM63.2165 62.1371L65.0147 63.0127L65.0166 63.0088L63.2165 62.1371ZM62.1127 59.7263L63.3431 58.1496L63.205 58.0419L63.0504 57.9598L62.1127 59.7263ZM45.6293 50.9768L46.5671 49.2102L44.3023 48.008L43.6877 50.4974L45.6293 50.9768ZM44.2079 53.5789L42.8792 52.0841L42.8786 52.0846L44.2079 53.5789ZM41.5431 54.8706L41.9366 56.8315L41.9415 56.8305L41.5431 54.8706ZM38.9576 54.4781L40.2326 52.9373L40.2313 52.9362L38.9576 54.4781ZM38.0747 51.5704L40.07 51.4336L40.0699 51.433L38.0747 51.5704ZM38.2144 46.6773L36.2306 46.4233L36.2306 46.424L38.2144 46.6773ZM43.8792 42.8297L43.3522 40.9003L43.3391 40.904L43.8792 42.8297ZM44.0529 42.7822L44.58 44.7115L44.587 44.7096L44.5941 44.7076L44.0529 42.7822ZM47.4246 42.2998L47.5336 40.3027L47.5311 40.3026L47.4246 42.2998ZM51.2645 43.3012L50.5094 45.1532L50.5094 45.1532L51.2645 43.3012ZM56.759 43.3847L58.6331 42.6863L57.9587 40.8767L56.1266 41.4874L56.759 43.3847ZM56.5427 42.8158C56.6047 42.7925 53.9708 43.751 51.4964 42.742L49.9861 46.4459C53.9603 48.0665 57.8675 46.591 57.9472 46.5611L56.5427 42.8158ZM51.4954 42.7416C49.9868 42.1274 48.7167 41.7621 47.4582 41.6944L47.2436 45.6887C47.8672 45.7222 48.666 45.9085 49.9871 46.4463L51.4954 42.7416ZM47.457 41.6944C46.2009 41.6276 45.0689 41.8651 43.8878 42.1971L44.97 46.0479C46.0029 45.7576 46.6386 45.6565 47.2448 45.6887L47.457 41.6944ZM43.9041 42.1926L43.7304 42.2398L44.78 46.0996L44.9537 46.0524L43.9041 42.1926ZM43.7145 42.2442C42.7088 42.5266 41.4088 42.8853 40.3443 43.3918C39.4039 43.8394 37.8452 44.77 37.6113 46.5967L41.5788 47.1049C41.5273 47.5069 41.2456 47.3927 42.0631 47.0037C42.7564 46.6738 43.6953 46.4043 44.7959 46.0952L43.7145 42.2442ZM37.611 46.5986C37.458 47.8017 37.3524 49.89 37.4712 51.6155L41.4617 51.3408C41.3628 49.9046 41.455 48.0789 41.5791 47.1031L37.611 46.5986ZM37.4712 51.6165C37.5074 52.1378 37.5607 52.6654 37.6431 53.1124C37.6836 53.3318 37.7412 53.5892 37.8294 53.8393C37.886 53.9994 38.0752 54.5338 38.5707 54.9438L41.121 51.8622C41.3534 52.0546 41.4736 52.2513 41.5193 52.3325C41.572 52.4258 41.5961 52.4929 41.6014 52.5081C41.6113 52.5359 41.5988 52.5063 41.5768 52.3872C41.5344 52.1569 41.4936 51.8012 41.4616 51.3398L37.4712 51.6165ZM38.57 54.9433C39.1782 55.4471 39.8851 55.5521 40.2962 55.5776C40.764 55.6067 41.2351 55.5538 41.656 55.4696L40.8716 51.5473C40.7805 51.5655 40.7038 51.5761 40.6434 51.5814C40.5815 51.5869 40.5492 51.5856 40.5438 51.5853C40.5349 51.5848 40.5835 51.5863 40.6707 51.6128C40.7552 51.6385 40.9302 51.7042 41.1216 51.8628L38.57 54.9433ZM41.6658 55.4676C42.6668 55.2622 43.7688 54.7802 44.6108 54.0298L41.9495 51.0435C41.7208 51.2474 41.2965 51.4601 40.8618 51.5493L41.6658 55.4676ZM44.6097 54.0308C45.5351 53.2073 45.9559 52.1279 46.1547 51.43C46.3542 50.7295 46.4113 50.1169 46.4113 49.9103H42.4113C42.4114 49.8842 42.4123 49.8474 42.4126 49.8368C42.4129 49.831 42.4133 49.8215 42.4134 49.8178C42.4137 49.8108 42.414 49.8053 42.4142 49.803C42.4144 49.7978 42.4147 49.7937 42.4148 49.7917C42.4151 49.7873 42.4153 49.7839 42.4154 49.7821C42.4157 49.778 42.4159 49.7759 42.4159 49.7756C42.4159 49.775 42.4155 49.7801 42.4145 49.7902C42.4125 49.8107 42.4082 49.8496 42.4004 49.9028C42.3844 50.0116 42.3557 50.1655 42.3077 50.3343C42.2589 50.5054 42.1976 50.6654 42.1264 50.7988C42.0548 50.9328 41.9911 51.0065 41.9506 51.0425L44.6097 54.0308ZM46.4113 49.9103V48.7485H42.4113V49.9103H46.4113ZM43.4726 50.5145C46.0984 51.9102 49.6739 53.6331 53.0214 55.325C56.4366 57.0512 59.633 58.7539 61.7339 60.1982L64 56.902C61.6475 55.2848 58.2221 53.4718 54.8258 51.7551C51.3617 50.0042 47.9361 48.3571 45.35 46.9824L43.4726 50.5145ZM61.7576 60.2142C61.7321 60.197 61.6972 60.1724 61.6875 60.1653C61.6824 60.1616 61.674 60.1554 61.6707 60.1529C61.6646 60.1484 61.6599 60.1448 61.658 60.1433C61.6534 60.1399 61.6501 60.1373 61.6485 60.1361C61.6449 60.1333 61.6426 60.1315 61.6417 60.1309C61.6398 60.1293 61.6404 60.1298 61.6435 60.1323C61.6496 60.1372 61.664 60.1489 61.6852 60.1669C61.7278 60.2032 61.7952 60.2626 61.8767 60.3415C62.045 60.5044 62.2453 60.7234 62.4126 60.9687C62.7869 61.5174 62.7298 61.7543 62.6735 61.8701L66.2704 63.6199C67.2618 61.582 66.4055 59.7238 65.717 58.7146C65.3529 58.1808 64.956 57.7552 64.659 57.4677C64.3969 57.2139 64.1284 56.9874 63.9764 56.886L61.7576 60.2142ZM62.6729 61.8713C62.3731 62.4887 62.0115 62.7734 61.6864 62.9001L63.1393 66.6269C64.5511 66.0765 65.6056 64.9889 66.271 63.6187L62.6729 61.8713ZM61.6825 62.9016C61.3618 63.0274 60.8903 63.0724 60.2096 62.8235L58.836 66.5803C60.2661 67.1031 61.7599 67.168 63.1432 66.6254L61.6825 62.9016ZM57.5246 64.7869L57.5377 65.0948L61.5341 64.9248L61.521 64.6169L57.5246 64.7869ZM57.5359 65.0098C57.5359 65.3301 57.4463 65.6461 57.2564 65.912L60.5117 68.2365C61.2386 67.2184 61.5359 66.0681 61.5359 65.0098H57.5359ZM57.254 65.9154C57.2534 65.9163 57.223 65.9621 57.086 66.0222C56.9408 66.086 56.7356 66.1385 56.4821 66.1673C55.9583 66.227 55.5168 66.1557 55.6291 66.1744L54.9715 70.12C55.0904 70.1398 55.9257 70.2565 56.9346 70.1416C57.8744 70.0346 59.4957 69.6655 60.5141 68.2331L57.254 65.9154ZM55.6391 66.1761L55.5367 66.1585L54.859 70.1007L54.9614 70.1183L55.6391 66.1761ZM56.0941 66.3416L55.583 66.0855L53.7906 69.6614L54.3016 69.9175L56.0941 66.3416ZM52.6879 67.9389C52.6916 68.053 52.6683 68.1944 52.5996 68.3508L56.2617 69.9597C56.5514 69.3004 56.7106 68.5667 56.6857 67.808L52.6879 67.9389ZM52.5976 68.3554C52.5082 68.5601 52.3438 68.7801 52.1138 68.9578L54.5596 72.1229C55.297 71.5531 55.8936 70.8035 56.2638 69.9551L52.5976 68.3554ZM52.1164 68.9558C51.7956 69.2029 51.3756 69.3527 50.897 69.3184L50.6117 73.3083C52.1316 73.4169 53.5102 72.9311 54.557 72.125L52.1164 68.9558ZM50.8986 69.3186C50.4829 69.2885 49.8189 69.1158 48.9492 68.782L47.5159 72.5164C48.4909 72.8906 49.5967 73.2349 50.6101 73.3081L50.8986 69.3186ZM46.2404 70.8264L46.2668 71.1234L50.2511 70.769L50.2247 70.4721L46.2404 70.8264ZM46.2604 71.0212C46.2659 71.1698 46.2346 71.2799 46.1863 71.3698L49.7094 73.264C50.1008 72.536 50.2893 71.7186 50.2575 70.8712L46.2604 71.0212ZM46.1877 71.3673C46.1419 71.4521 46.0552 71.5598 45.8939 71.6649L48.0779 75.016C48.7499 74.5781 49.3184 73.9887 49.708 73.2665L46.1877 71.3673ZM45.8924 71.6659C45.6626 71.8159 45.2503 71.9748 44.6167 71.9982L44.7641 75.9955C45.9796 75.9507 47.1308 75.6345 48.0794 75.0151L45.8924 71.6659ZM44.616 71.9982C43.8046 72.0284 42.6572 71.6088 41.5071 70.9702C40.975 70.6747 40.5146 70.3736 40.1869 70.1457C40.0241 70.0325 39.8968 69.9392 39.8127 69.8762C39.7302 69.8145 39.6921 69.784 39.6852 69.7787L37.2294 72.9361C37.2249 72.9326 37.2967 72.9893 37.4154 73.0782C37.5325 73.1659 37.6977 73.2868 37.9028 73.4294C38.3109 73.7133 38.8875 74.0909 39.5653 74.4673C40.8351 75.1723 42.7993 76.0686 44.7648 75.9955L44.616 71.9982ZM40.0371 72.5838L40.8923 71.4821L37.7326 69.0293L36.8774 70.131L40.0371 72.5838ZM38.0109 71.7742C38.1137 71.8623 38.9868 72.544 40.1447 73.2029C41.2258 73.818 42.9837 74.6687 44.7171 74.6037L44.5671 70.6065C44.0435 70.6261 43.1405 70.3053 42.123 69.7263C41.1822 69.191 40.5189 68.6556 40.6141 68.7372L38.0109 71.7742ZM44.7153 74.6037C45.6293 74.5703 46.5525 74.3496 47.3212 73.8474L45.1335 70.4987C45.1348 70.4978 44.9763 70.5915 44.5689 70.6064L44.7153 74.6037ZM47.3152 73.8513C47.7707 73.556 48.1942 73.1419 48.4835 72.6026L44.9584 70.7121C45.0366 70.5663 45.1215 70.5065 45.1394 70.4948L47.3152 73.8513ZM48.4829 72.6037C48.7659 72.0768 48.8865 71.4962 48.8659 70.9228L44.8685 71.0662C44.8655 70.9831 44.8827 70.8531 44.959 70.7109L48.4829 72.6037ZM48.8658 70.92C48.8383 70.1826 48.5833 69.4934 48.2334 68.8947L44.78 70.9132C44.834 71.0056 44.8585 71.0675 44.8683 71.0975C44.8781 71.1277 44.8703 71.1167 44.8686 71.069L48.8658 70.92ZM47.3607 68.0955C46.3789 67.6318 45.4456 67.1276 44.7515 66.7352C44.4061 66.5399 44.1236 66.3744 43.9283 66.2582C43.8308 66.2002 43.755 66.1546 43.7039 66.1237C43.6784 66.1082 43.6589 66.0963 43.6451 66.0879C43.639 66.0842 43.6318 66.0798 43.6269 66.0768C43.6247 66.0755 43.62 66.0726 43.6149 66.0696C43.6128 66.0683 43.6068 66.0647 43.5992 66.0602C43.5957 66.0582 43.5874 66.0533 43.5768 66.0472C43.5714 66.0441 43.5581 66.0366 43.5501 66.0321C43.5373 66.0251 43.5005 66.0056 43.4763 65.9933L41.6875 69.571C41.5899 69.5222 41.471 69.4473 41.5492 69.4949C41.5519 69.4965 41.5558 69.4989 41.564 69.5039C41.5792 69.5131 41.6019 69.527 41.6315 69.5449C41.6906 69.5807 41.7759 69.6321 41.8841 69.6965C42.1004 69.825 42.4083 70.0054 42.7829 70.2172C43.5287 70.6388 44.5534 71.1933 45.6526 71.7124L47.3607 68.0955ZM44.3181 68.7749L45.0108 67.5635L41.5384 65.578L40.8457 66.7894L44.3181 68.7749ZM42.3264 68.3317C42.0989 68.2092 43.7246 69.1788 45.2604 69.9642C46.0892 70.388 47.025 70.8328 47.9314 71.1877C48.797 71.5266 49.7984 71.8499 50.7078 71.9163L50.9989 67.9269C50.7105 67.9058 50.1676 67.7676 49.3898 67.463C48.6528 67.1745 47.8463 66.7939 47.0816 66.4028C45.4305 65.5585 44.4645 64.94 44.2228 64.8098L42.3264 68.3317ZM50.7118 71.9166C51.8556 71.9977 52.9064 71.6402 53.7072 71.0226L51.2644 67.8552C51.2099 67.8972 51.1219 67.9356 50.9948 67.9266L50.7118 71.9166ZM53.7117 71.0192C54.2495 70.602 54.7063 70.047 54.9892 69.3969L51.3213 67.801C51.3281 67.7854 51.3293 67.7882 51.3171 67.8035C51.3052 67.8184 51.2861 67.8383 51.2599 67.8586L53.7117 71.0192ZM54.9882 69.3991C55.2465 68.8076 55.3886 68.0745 55.2332 67.3066L51.3126 68.0997C51.2738 67.9079 51.3213 67.8011 51.3223 67.7987L54.9882 69.3991ZM55.2326 67.3037C55.07 66.506 54.616 65.8293 53.9913 65.3333L51.5038 68.4657C51.4952 68.4589 51.4579 68.4269 51.4158 68.361C51.373 68.2941 51.3344 68.2065 51.3132 68.1026L55.2326 67.3037ZM53.6449 65.1121L46.3178 61.4336L44.5231 65.0084L51.8502 68.6869L53.6449 65.1121ZM47.2092 64.1156L47.8315 62.8713L44.2539 61.0822L43.6316 62.3265L47.2092 64.1156ZM45.1454 63.7642L54.7216 68.5714L56.5162 64.9965L46.94 60.1893L45.1454 63.7642ZM55.3974 68.7717C55.6379 68.7985 56.2306 68.8507 56.8845 68.7712C57.4209 68.7059 58.6275 68.484 59.3795 67.4262L56.1194 65.1085C56.2784 64.8849 56.4541 64.8033 56.4895 64.7883C56.5231 64.7741 56.5017 64.7882 56.4014 64.8004C56.3092 64.8117 56.1993 64.8154 56.0865 64.8126C55.9766 64.8098 55.8868 64.8014 55.8404 64.7963L55.3974 68.7717ZM59.3792 67.4268C59.9255 66.6589 60.1398 65.7926 60.1398 65.0098H56.1398C56.1398 65.0779 56.121 65.1063 56.1198 65.108L59.3792 67.4268ZM60.1398 65.0098C60.1398 64.2662 59.9511 63.48 59.5248 62.8249L56.1722 65.0067C56.1515 64.975 56.1406 64.952 56.1358 64.9409C56.1308 64.9295 56.1302 64.9257 56.1314 64.9301C56.1325 64.9344 56.1348 64.944 56.1367 64.9585C56.1385 64.9729 56.1398 64.9902 56.1398 65.0098H60.1398ZM58.7598 62.1355C57.1542 61.3137 54.8018 60.0122 52.8267 58.9019C51.8438 58.3494 50.9622 57.8487 50.3251 57.4853C49.6861 57.121 49.2966 56.8968 49.2973 56.8972L47.2932 60.3589C47.3057 60.3662 53.5951 63.9854 56.9372 65.6961L58.7598 62.1355ZM50.0251 59.6319L50.7242 58.4271L47.2645 56.4195L46.5654 57.6243L50.0251 59.6319ZM48.0102 59.1644C47.9979 59.1575 50.3417 60.5064 52.8714 61.9172C54.1398 62.6247 55.4715 63.357 56.6008 63.9552C57.6756 64.5245 58.7084 65.0494 59.2981 65.2663L60.6793 61.5124C60.3951 61.4078 59.6198 61.0279 58.4732 60.4205C57.3811 59.842 56.0782 59.1257 54.8197 58.4238C52.2955 57.016 50.016 55.7034 49.9785 55.6822L48.0102 59.1644ZM59.2989 65.2666C60.3514 65.6534 61.525 65.7633 62.6333 65.33L61.1768 61.6046C61.2166 61.589 61.086 61.6618 60.6786 61.5121L59.2989 65.2666ZM62.6253 65.3331C63.7539 64.8974 64.5316 64.005 65.0147 63.0127L61.4183 61.2616C61.2485 61.6105 61.1269 61.6238 61.1848 61.6015L62.6253 65.3331ZM65.0166 63.0088C65.7768 61.4389 64.9923 60.0294 64.5649 59.4257C64.0808 58.7419 63.4959 58.2688 63.3431 58.1496L60.8823 61.3031C60.8821 61.303 60.8869 61.3067 60.8959 61.314C60.9048 61.3213 60.9172 61.3316 60.9324 61.3447C60.9632 61.3712 61.0035 61.4073 61.0485 61.4508C61.1437 61.5429 61.2342 61.6438 61.3002 61.737C61.3729 61.8396 61.3638 61.8596 61.3479 61.794C61.338 61.753 61.3255 61.6768 61.3334 61.5751C61.3415 61.4691 61.3699 61.3616 61.4165 61.2654L65.0166 63.0088ZM63.0504 57.9598L46.5671 49.2102L44.6916 52.7433L61.175 61.4929L63.0504 57.9598ZM43.6877 50.4974C43.5254 51.1547 43.2491 51.7553 42.8792 52.0841L45.5367 55.0737C46.8092 53.9425 47.3398 52.3929 47.571 51.4562L43.6877 50.4974ZM42.8786 52.0846C42.4616 52.4556 41.7902 52.7795 41.1447 52.9107L41.9415 56.8305C43.1781 56.5792 44.5208 55.9774 45.5372 55.0732L42.8786 52.0846ZM41.1497 52.9097C40.8193 52.976 40.5519 52.9799 40.3702 52.9549C40.1834 52.9291 40.1709 52.8862 40.2326 52.9373L37.6825 56.0189C38.9663 57.0814 40.6907 57.0815 41.9366 56.8315L41.1497 52.9097ZM40.2313 52.9362C40.3582 53.041 40.3928 53.1217 40.3746 53.0875C40.3588 53.0576 40.3207 52.9735 40.2758 52.8147C40.1845 52.4916 40.1105 52.0246 40.07 51.4336L36.0793 51.7073C36.1301 52.4465 36.232 53.214 36.4266 53.9025C36.6024 54.5245 36.9401 55.4056 37.6838 56.02L40.2313 52.9362ZM40.0699 51.433C39.9657 49.9192 40.0643 47.9799 40.1983 46.9307L36.2306 46.424C36.0677 47.6988 35.955 49.9018 36.0794 51.7079L40.0699 51.433ZM40.1982 46.9314C40.2332 46.6585 40.3883 46.323 41.1712 45.8955C41.996 45.4452 43.0999 45.1255 44.4194 44.7554L43.3391 40.904C42.1345 41.2419 40.556 41.6741 39.2545 42.3847C37.9111 43.1181 36.4958 44.3524 36.2306 46.4233L40.1982 46.9314ZM44.4063 44.759L44.58 44.7115L43.5259 40.8529L43.3522 40.9004L44.4063 44.759ZM44.5941 44.7076C45.7549 44.3814 46.5231 44.2545 47.318 44.2969L47.5311 40.3026C46.101 40.2263 44.8464 40.4817 43.5118 40.8568L44.5941 44.7076ZM47.3155 44.2968C48.1181 44.3406 49.0603 44.5623 50.5094 45.1532L52.0196 41.4492C50.3466 40.7671 48.9451 40.3798 47.5336 40.3027L47.3155 44.2968ZM50.5094 45.1532C53.9883 46.5717 57.4036 45.278 57.3915 45.2821L56.1266 41.4874C56.1012 41.4958 53.9978 42.2558 52.0196 41.4492L50.5094 45.1532ZM54.8849 44.0832L55.3708 45.3869L59.119 43.99L58.6331 42.6863L54.8849 44.0832Z" fill="black" mask="url(#path-16-inside-9_904_29654)"/>
<mask id="path-18-inside-10_904_29654" fill="white">
<path d="M66.2795 58.0067L62.7932 59.7449L62.1709 58.496L65.6572 56.7578L66.2795 58.0067Z"/>
</mask>
<path d="M66.2795 58.0067L62.7932 59.7449L62.1709 58.496L65.6572 56.7578L66.2795 58.0067Z" fill="#313D57"/>
<path d="M66.2795 58.0067L67.1719 59.7965L68.9614 58.9044L68.0696 57.1147L66.2795 58.0067ZM62.7932 59.7449L61.0031 60.6369L61.8953 62.4274L63.6856 61.5348L62.7932 59.7449ZM62.1709 58.496L61.2785 56.7062L59.4891 57.5984L60.3808 59.388L62.1709 58.496ZM65.6572 56.7578L67.4473 55.8658L66.5551 54.0753L64.7648 54.9679L65.6572 56.7578ZM65.3871 56.2168L61.9008 57.955L63.6856 61.5348L67.1719 59.7965L65.3871 56.2168ZM64.5833 58.8529L63.961 57.6041L60.3808 59.388L61.0031 60.6369L64.5833 58.8529ZM63.0633 60.2859L66.5496 58.5477L64.7648 54.9679L61.2785 56.7062L63.0633 60.2859ZM63.8672 57.6498L64.4894 58.8986L68.0696 57.1147L67.4473 55.8658L63.8672 57.6498Z" fill="black" mask="url(#path-18-inside-10_904_29654)"/>
<mask id="path-20-inside-11_904_29654" fill="white">
<path d="M21.6536 65.3654C20.4851 65.3027 18.3423 64.9752 17.4815 63.445C17.409 63.313 17.3464 63.1689 17.2969 63.0183C16.9616 61.997 17.3058 60.7351 17.9808 59.6072C18.6195 58.5386 19.5736 57.5581 20.5124 57.0304C20.7422 56.9018 20.9753 56.7962 21.2051 56.7214C22.1187 56.4268 22.9464 56.4554 23.6445 56.6368C24.6888 56.9084 25.4541 57.5371 25.7937 57.9318L26.1553 58.3627C26.8534 57.7174 28 56.9886 29.4918 57.1953C30.5075 57.3349 31.2332 57.7041 31.7488 58.1549C32.5074 58.8199 32.7964 59.6534 32.8975 60.2294L32.9293 60.4085C33.778 60.3854 35.226 60.4658 36.2187 61.154C36.8827 61.6146 37.2278 62.2378 37.3773 62.8644C37.5895 63.7603 37.3938 64.6838 37.2202 65.1169L37.1532 65.2765C38.2228 65.4139 39.7694 65.8051 40.3389 66.921C40.772 67.7707 40.8765 68.5074 40.6852 69.2439C40.5049 69.9332 40.0631 70.5742 39.3903 71.2766L38.8945 71.8153C37.9326 72.8883 37.3554 73.5281 35.4041 73.4016C34.4873 73.3423 33.7814 72.9806 33.2636 72.5299C32.6887 72.0242 32.3413 71.3721 32.1808 70.8884C31.2101 71.2072 29.6501 71.5284 28.4815 70.8457C27.4778 70.2598 27.0052 69.4286 26.7831 68.7954C26.0213 68.9669 24.7911 68.9943 23.3851 68.0675C21.9988 67.1551 21.6723 66.1118 21.6536 65.3654ZM18.6964 62.7632C19.4582 64.1165 22.4374 63.9759 22.4451 63.9759H23.5719L23.0673 64.9851C23.0673 64.9862 22.6595 65.9262 24.148 66.9068C25.7772 67.9808 26.971 67.2564 26.9732 67.2553L27.9823 66.7507V67.8775C27.9823 67.8797 28.0199 68.9602 29.1851 69.6407C30.3625 70.3278 32.4577 69.2891 32.4621 69.2869L33.4715 68.7821V70.3686C33.4715 70.5401 33.6847 71.0458 34.1794 71.4789C34.4971 71.7515 34.9302 71.9736 35.4919 72.0099C36.7748 72.0934 37.1817 71.6426 37.8589 70.8874L38.3822 70.3169C38.8978 69.7804 39.2253 69.3253 39.3374 68.8944C39.4375 68.5074 39.3637 68.0818 39.0944 67.5541C38.592 66.5691 36.0636 66.5989 36.0571 66.5989H34.3718L35.5634 65.4072C35.5634 65.4072 35.7295 65.0918 35.9274 64.5982C36.0362 64.3278 36.1571 63.7495 36.0218 63.1856C35.9405 62.8569 35.7635 62.5325 35.4271 62.2995C34.3794 61.5739 32.4699 61.8288 32.4655 61.8288L31.7838 61.9422L31.5234 60.469C31.4607 60.1117 31.2849 59.5984 30.832 59.2016C30.5033 58.9136 30.015 58.6748 29.3004 58.5759C27.6383 58.3461 26.4708 60.1106 26.4675 60.1139L25.7871 60.9627L25.3023 59.9919C25.3023 59.9908 25.3452 59.5422 24.7406 58.8419C24.5185 58.5847 24.0084 58.1693 23.2949 57.9846C22.8244 57.8615 22.2616 57.8439 21.636 58.0462C21.4953 58.0924 21.3446 58.1615 21.1939 58.2461C20.4574 58.6595 19.6956 59.45 19.1746 60.3217C18.6898 61.1319 18.4236 61.9828 18.6193 62.5852L18.6964 62.7632Z"/>
</mask>
<path d="M21.6536 65.3654C20.4851 65.3027 18.3423 64.9752 17.4815 63.445C17.409 63.313 17.3464 63.1689 17.2969 63.0183C16.9616 61.997 17.3058 60.7351 17.9808 59.6072C18.6195 58.5386 19.5736 57.5581 20.5124 57.0304C20.7422 56.9018 20.9753 56.7962 21.2051 56.7214C22.1187 56.4268 22.9464 56.4554 23.6445 56.6368C24.6888 56.9084 25.4541 57.5371 25.7937 57.9318L26.1553 58.3627C26.8534 57.7174 28 56.9886 29.4918 57.1953C30.5075 57.3349 31.2332 57.7041 31.7488 58.1549C32.5074 58.8199 32.7964 59.6534 32.8975 60.2294L32.9293 60.4085C33.778 60.3854 35.226 60.4658 36.2187 61.154C36.8827 61.6146 37.2278 62.2378 37.3773 62.8644C37.5895 63.7603 37.3938 64.6838 37.2202 65.1169L37.1532 65.2765C38.2228 65.4139 39.7694 65.8051 40.3389 66.921C40.772 67.7707 40.8765 68.5074 40.6852 69.2439C40.5049 69.9332 40.0631 70.5742 39.3903 71.2766L38.8945 71.8153C37.9326 72.8883 37.3554 73.5281 35.4041 73.4016C34.4873 73.3423 33.7814 72.9806 33.2636 72.5299C32.6887 72.0242 32.3413 71.3721 32.1808 70.8884C31.2101 71.2072 29.6501 71.5284 28.4815 70.8457C27.4778 70.2598 27.0052 69.4286 26.7831 68.7954C26.0213 68.9669 24.7911 68.9943 23.3851 68.0675C21.9988 67.1551 21.6723 66.1118 21.6536 65.3654ZM18.6964 62.7632C19.4582 64.1165 22.4374 63.9759 22.4451 63.9759H23.5719L23.0673 64.9851C23.0673 64.9862 22.6595 65.9262 24.148 66.9068C25.7772 67.9808 26.971 67.2564 26.9732 67.2553L27.9823 66.7507V67.8775C27.9823 67.8797 28.0199 68.9602 29.1851 69.6407C30.3625 70.3278 32.4577 69.2891 32.4621 69.2869L33.4715 68.7821V70.3686C33.4715 70.5401 33.6847 71.0458 34.1794 71.4789C34.4971 71.7515 34.9302 71.9736 35.4919 72.0099C36.7748 72.0934 37.1817 71.6426 37.8589 70.8874L38.3822 70.3169C38.8978 69.7804 39.2253 69.3253 39.3374 68.8944C39.4375 68.5074 39.3637 68.0818 39.0944 67.5541C38.592 66.5691 36.0636 66.5989 36.0571 66.5989H34.3718L35.5634 65.4072C35.5634 65.4072 35.7295 65.0918 35.9274 64.5982C36.0362 64.3278 36.1571 63.7495 36.0218 63.1856C35.9405 62.8569 35.7635 62.5325 35.4271 62.2995C34.3794 61.5739 32.4699 61.8288 32.4655 61.8288L31.7838 61.9422L31.5234 60.469C31.4607 60.1117 31.2849 59.5984 30.832 59.2016C30.5033 58.9136 30.015 58.6748 29.3004 58.5759C27.6383 58.3461 26.4708 60.1106 26.4675 60.1139L25.7871 60.9627L25.3023 59.9919C25.3023 59.9908 25.3452 59.5422 24.7406 58.8419C24.5185 58.5847 24.0084 58.1693 23.2949 57.9846C22.8244 57.8615 22.2616 57.8439 21.636 58.0462C21.4953 58.0924 21.3446 58.1615 21.1939 58.2461C20.4574 58.6595 19.6956 59.45 19.1746 60.3217C18.6898 61.1319 18.4236 61.9828 18.6193 62.5852L18.6964 62.7632Z" fill="#313D57"/>
<path d="M17.4815 63.445L15.7291 64.4088L15.7337 64.4172L15.7384 64.4255L17.4815 63.445ZM17.2969 63.0183L15.3967 63.6422L15.3968 63.6425L17.2969 63.0183ZM17.9808 59.6072L19.6969 60.6342L19.6975 60.6333L17.9808 59.6072ZM20.5124 57.0304L19.5355 55.2852L19.5325 55.2869L20.5124 57.0304ZM21.2051 56.7214L20.5912 54.818L20.5863 54.8196L21.2051 56.7214ZM23.6445 56.6368L24.1477 54.7012L24.1474 54.7011L23.6445 56.6368ZM25.7937 57.9318L27.3259 56.6462L27.3178 56.6366L27.3096 56.6271L25.7937 57.9318ZM26.1553 58.3627L24.6232 59.6482L25.972 61.2558L27.5129 59.8313L26.1553 58.3627ZM29.4918 57.1953L29.2173 59.1764L29.2194 59.1767L29.4918 57.1953ZM31.7488 58.1549L33.0674 56.651L33.0652 56.6491L31.7488 58.1549ZM32.8975 60.2294L30.9277 60.5753L30.9283 60.5789L32.8975 60.2294ZM32.9293 60.4085L30.9601 60.7579L31.2612 62.4546L32.9837 62.4077L32.9293 60.4085ZM36.2187 61.154L37.3587 59.5107L37.3582 59.5103L36.2187 61.154ZM37.3773 62.8644L39.3235 62.4035L39.3227 62.4002L37.3773 62.8644ZM37.2202 65.1169L39.0642 65.8913L39.0704 65.8764L39.0765 65.8613L37.2202 65.1169ZM37.1532 65.2765L35.3091 64.5021L34.2916 66.9253L36.8983 67.2602L37.1532 65.2765ZM40.3389 66.921L42.1208 66.0127L42.1203 66.0118L40.3389 66.921ZM40.6852 69.2439L42.6201 69.75L42.621 69.7467L40.6852 69.2439ZM39.3903 71.2766L37.9459 69.8933L37.9321 69.9076L37.9186 69.9223L39.3903 71.2766ZM38.8945 71.8153L37.4228 70.461L37.414 70.4706L37.4053 70.4803L38.8945 71.8153ZM35.4041 73.4016L35.5334 71.4058L35.5333 71.4058L35.4041 73.4016ZM33.2636 72.5299L31.9427 74.0317L31.9505 74.0384L33.2636 72.5299ZM32.1808 70.8884L34.0791 70.2586L33.4511 68.3661L31.5568 68.9883L32.1808 70.8884ZM28.4815 70.8457L29.4904 69.1188L29.4899 69.1185L28.4815 70.8457ZM26.7831 68.7954L28.6705 68.1335L28.0812 66.4532L26.3439 66.8442L26.7831 68.7954ZM23.3851 68.0675L24.4857 66.3976L24.4847 66.3969L23.3851 68.0675ZM23.5719 63.9759L25.3607 64.8704L26.808 61.9759H23.5719V63.9759ZM23.0673 64.9851L21.2785 64.0907L21.0673 64.513V64.9851H23.0673ZM24.148 66.9068L25.2488 65.237L25.2482 65.2366L24.148 66.9068ZM26.9732 67.2553L27.8676 69.0441L26.9732 67.2553ZM27.9823 66.7507H29.9823V63.5146L27.0879 64.9618L27.9823 66.7507ZM29.1851 69.6407L28.1766 71.3678L28.1771 71.3681L29.1851 69.6407ZM32.4621 69.2869L33.3565 71.0757L33.3567 71.0757L32.4621 69.2869ZM33.4715 68.7821H35.4715V65.5457L32.5769 66.9933L33.4715 68.7821ZM34.1794 71.4789L32.8619 72.9836L32.8694 72.9902L32.8769 72.9967L34.1794 71.4789ZM35.4919 72.0099L35.6219 70.0141L35.6208 70.014L35.4919 72.0099ZM37.8589 70.8874L36.385 69.5355L36.3774 69.5438L36.3699 69.5522L37.8589 70.8874ZM38.3822 70.3169L36.9402 68.931L36.924 68.9478L36.9083 68.965L38.3822 70.3169ZM39.3374 68.8944L41.273 69.398L41.2738 69.395L39.3374 68.8944ZM39.0944 67.5541L37.3127 68.4629L37.313 68.4634L39.0944 67.5541ZM34.3718 66.5989L32.9576 65.1847L29.5433 68.5989H34.3718V66.5989ZM35.5634 65.4072L36.9776 66.8214L37.192 66.6071L37.3332 66.3389L35.5634 65.4072ZM35.9274 64.5982L34.072 63.8515L34.071 63.854L35.9274 64.5982ZM36.0218 63.1856L37.9667 62.7193L37.965 62.7122L37.9633 62.7051L36.0218 63.1856ZM35.4271 62.2995L36.5661 60.6555L36.5658 60.6553L35.4271 62.2995ZM32.4655 61.8288V59.8288H32.3004L32.1374 59.8559L32.4655 61.8288ZM31.7838 61.9422L29.8144 62.2904L30.159 64.2399L32.1119 63.9151L31.7838 61.9422ZM31.5234 60.469L29.5534 60.8145L29.5539 60.8172L31.5234 60.469ZM30.832 59.2016L29.5139 60.7058L29.514 60.7058L30.832 59.2016ZM29.3004 58.5759L29.5748 56.5948L29.5743 56.5947L29.3004 58.5759ZM26.4675 60.1139L25.0533 58.6997L24.9757 58.7773L24.9071 58.8629L26.4675 60.1139ZM25.7871 60.9627L23.9978 61.8563L25.3936 64.651L27.3476 62.2136L25.7871 60.9627ZM25.3023 59.9919H23.3023V60.4636L23.513 60.8856L25.3023 59.9919ZM24.7406 58.8419L23.2266 60.1488L23.2268 60.149L24.7406 58.8419ZM23.2949 57.9846L22.7886 59.9194L22.7937 59.9208L23.2949 57.9846ZM21.636 58.0462L21.0207 56.1432L21.0125 56.1459L21.636 58.0462ZM21.1939 58.2461L22.1727 59.9902L22.1739 59.9896L21.1939 58.2461ZM19.1746 60.3217L20.8908 61.3487L20.8913 61.3479L19.1746 60.3217ZM18.6193 62.5852L16.7171 63.2031L16.7464 63.2931L16.784 63.38L18.6193 62.5852ZM21.7607 63.3682C21.2738 63.3421 20.6588 63.2621 20.1229 63.0713C19.5755 62.8765 19.3272 62.6466 19.2247 62.4644L15.7384 64.4255C16.4967 65.7736 17.7502 66.4726 18.7815 66.8397C19.8242 67.2109 20.8649 67.3259 21.5466 67.3625L21.7607 63.3682ZM19.234 62.4811C19.2227 62.4606 19.2089 62.4305 19.197 62.3942L15.3968 63.6425C15.4838 63.9074 15.5953 64.1655 15.7291 64.4088L19.234 62.4811ZM19.1971 62.3945C19.1279 62.1835 19.1428 61.5601 19.6969 60.6342L16.2646 58.5801C15.4687 59.9101 14.7953 61.8106 15.3967 63.6422L19.1971 62.3945ZM19.6975 60.6333C20.192 59.8059 20.9115 59.1004 21.4924 58.7739L19.5325 55.2869C18.2357 56.0158 17.0469 57.2714 16.2641 58.581L19.6975 60.6333ZM21.4894 58.7756C21.6261 58.699 21.7392 58.6508 21.8239 58.6233L20.5863 54.8196C20.2115 54.9415 19.8583 55.1045 19.5355 55.2852L21.4894 58.7756ZM21.819 58.6249C22.3404 58.4567 22.779 58.4784 23.1415 58.5725L24.1474 54.7011C23.1138 54.4325 21.8969 54.3969 20.5912 54.818L21.819 58.6249ZM23.1412 58.5725C23.4171 58.6442 23.6695 58.7673 23.8816 58.9073C24.0999 59.0514 24.2349 59.1864 24.2779 59.2365L27.3096 56.6271C26.7541 55.9817 25.6537 55.0927 24.1477 54.7012L23.1412 58.5725ZM24.2616 59.2173L24.6232 59.6482L27.6874 57.0772L27.3259 56.6462L24.2616 59.2173ZM27.5129 59.8313C27.9997 59.3814 28.5703 59.0867 29.2173 59.1764L29.7662 55.2142C27.4297 54.8905 25.7071 56.0534 24.7977 56.8941L27.5129 59.8313ZM29.2194 59.1767C29.8717 59.2663 30.2283 59.4821 30.4325 59.6606L33.0652 56.6491C32.2381 55.9261 31.1434 55.4035 29.7641 55.2139L29.2194 59.1767ZM30.4303 59.6587C30.7416 59.9316 30.8774 60.2889 30.9277 60.5753L34.8674 59.8836C34.7154 59.0178 34.2731 57.7083 33.0674 56.651L30.4303 59.6587ZM30.9283 60.5789L30.9601 60.7579L34.8986 60.059L34.8668 59.88L30.9283 60.5789ZM32.9837 62.4077C33.3247 62.3985 33.7571 62.4117 34.1765 62.4848C34.6119 62.5607 34.9097 62.6801 35.0793 62.7976L37.3582 59.5103C35.7946 58.4264 33.7637 58.385 32.8749 58.4092L32.9837 62.4077ZM35.0788 62.7973C35.1913 62.8754 35.2611 62.9547 35.3098 63.0302C35.3608 63.1094 35.403 63.2074 35.4319 63.3285L39.3227 62.4002C39.0774 61.372 38.4879 60.294 37.3587 59.5107L35.0788 62.7973ZM35.4311 63.3252C35.4721 63.4983 35.4811 63.7146 35.4557 63.9434C35.4296 64.1782 35.3772 64.3393 35.3638 64.3725L39.0765 65.8613C39.3638 65.1447 39.6527 63.7938 39.3235 62.4035L35.4311 63.3252ZM35.3761 64.3426L35.3091 64.5021L38.9972 66.0508L39.0642 65.8913L35.3761 64.3426ZM36.8983 67.2602C37.3381 67.3167 37.7892 67.4167 38.1433 67.569C38.5125 67.7279 38.5682 67.8513 38.5574 67.8301L42.1203 66.0118C41.54 64.8748 40.5378 64.2447 39.7239 63.8946C38.8949 63.538 38.0379 63.3737 37.408 63.2928L36.8983 67.2602ZM38.557 67.8292C38.8192 68.3437 38.7921 68.5767 38.7494 68.7412L42.621 69.7467C42.9608 68.4381 42.7248 67.1978 42.1208 66.0127L38.557 67.8292ZM38.7503 68.7378C38.6964 68.9437 38.5254 69.2881 37.9459 69.8933L40.8347 72.66C41.6007 71.8602 42.3134 70.9227 42.6201 69.75L38.7503 68.7378ZM37.9186 69.9223L37.4228 70.461L40.3661 73.1697L40.8619 72.631L37.9186 69.9223ZM37.4053 70.4803C36.8721 71.075 36.7132 71.2201 36.5602 71.3038C36.4919 71.3412 36.2745 71.4538 35.5334 71.4058L35.2748 75.3975C36.4851 75.4759 37.5318 75.3319 38.4805 74.8127C39.3444 74.3399 39.9549 73.6286 40.3837 73.1504L37.4053 70.4803ZM35.5333 71.4058C35.1042 71.378 34.8042 71.2193 34.5768 71.0214L31.9505 74.0384C32.7586 74.7419 33.8703 75.3065 35.2749 75.3975L35.5333 71.4058ZM34.5845 71.0281C34.4652 70.9232 34.3561 70.7906 34.2639 70.6427C34.1709 70.4935 34.1106 70.3537 34.0791 70.2586L30.2826 71.5183C30.5298 72.2634 31.0476 73.2443 31.9428 74.0317L34.5845 71.0281ZM31.5568 68.9883C31.1685 69.1158 30.7194 69.2232 30.2997 69.2454C29.8717 69.2681 29.6214 69.1953 29.4904 69.1188L27.4727 72.5726C28.5103 73.1788 29.6242 73.2868 30.5111 73.2398C31.4062 73.1924 32.2225 72.9799 32.8049 72.7886L31.5568 68.9883ZM29.4899 69.1185C28.9981 68.8314 28.7793 68.4439 28.6705 68.1335L24.8958 69.4573C25.2311 70.4133 25.9575 71.6881 27.4732 72.5729L29.4899 69.1185ZM26.3439 66.8442C26.0231 66.9164 25.367 66.9785 24.4857 66.3976L22.2844 69.7374C24.2153 71.0101 26.0195 71.0174 27.2224 70.7466L26.3439 66.8442ZM24.4847 66.3969C24.0304 66.0979 23.8416 65.8408 23.7594 65.6911C23.6765 65.5403 23.6555 65.4141 23.653 65.3153L19.6543 65.4154C19.689 66.8034 20.3409 68.4582 22.2855 69.7381L24.4847 66.3969ZM16.9536 63.7444C17.4269 64.5851 18.1677 65.0662 18.7693 65.3418C19.381 65.6221 20.0192 65.7694 20.5388 65.8522C21.5759 66.0174 22.5195 65.9759 22.4451 65.9759V61.9759C22.363 61.9759 21.8132 62.0048 21.1683 61.902C20.8469 61.8508 20.597 61.7794 20.4356 61.7054C20.2641 61.6269 20.3469 61.6181 20.4392 61.7821L16.9536 63.7444ZM22.4451 65.9759H23.5719V61.9759H22.4451V65.9759ZM21.783 63.0815L21.2785 64.0907L24.8562 65.8795L25.3607 64.8704L21.783 63.0815ZM21.0673 64.9851C21.0849 64.7207 21.1526 64.4072 21.1695 64.3539C21.1773 64.331 21.1897 64.2961 21.1942 64.2842C21.2014 64.2649 21.2074 64.2497 21.2081 64.248C21.2107 64.2414 21.2135 64.2346 21.2121 64.2381C21.2113 64.2399 21.2089 64.246 21.2058 64.2539C21.1995 64.2697 21.1923 64.2885 21.1845 64.31C21.1689 64.3526 21.1522 64.402 21.1357 64.4577C21.1027 64.5686 21.0702 64.7043 21.0474 64.8618C21.0016 65.1789 20.9958 65.5822 21.1025 66.0364C21.3275 66.9934 21.9729 67.8689 23.0477 68.5769L25.2482 65.2366C25.0328 65.0947 24.9576 65.0014 24.9459 64.986C24.9382 64.9758 24.9727 65.0202 24.9964 65.1209C25.019 65.2173 25.0222 65.3241 25.0063 65.4341C24.9985 65.488 24.9862 65.5424 24.9697 65.5979C24.9614 65.6258 24.9521 65.6539 24.9417 65.6822C24.9365 65.6964 24.9314 65.7098 24.9266 65.722C24.9242 65.728 24.9224 65.7327 24.922 65.7336C24.9208 65.7366 24.9237 65.7294 24.9264 65.7226C24.9271 65.7207 24.9332 65.7055 24.9404 65.6861C24.9449 65.6741 24.9573 65.6393 24.9651 65.6163C24.982 65.563 25.0498 65.2495 25.0673 64.9851H21.0673ZM23.0472 68.5766C24.2553 69.373 25.4179 69.5634 26.357 69.4755C27.2728 69.3898 27.874 69.0409 27.8676 69.0441L26.0787 65.4664C26.0404 65.4861 25.9916 65.5127 25.9807 65.5189C25.9754 65.5219 25.9674 65.5266 25.9647 65.5281C25.9629 65.5292 25.9601 65.5308 25.9592 65.5314C25.9584 65.5318 25.9574 65.5324 25.957 65.5326C25.9552 65.5337 25.9573 65.5325 25.9582 65.532C25.9613 65.5301 25.9651 65.5279 25.9694 65.5254C25.9778 65.5205 25.9859 65.516 25.9937 65.5117C26.009 65.5033 26.0216 65.4968 26.0315 65.4918C26.0512 65.4821 26.0609 65.4785 26.0617 65.4781C26.0626 65.4778 26.0348 65.4882 25.9844 65.4929C25.9371 65.4973 25.8591 65.498 25.7499 65.4714C25.6415 65.4449 25.4725 65.3845 25.2488 65.237L23.0472 68.5766ZM27.8676 69.0441L28.8767 68.5395L27.0879 64.9618L26.0787 65.4664L27.8676 69.0441ZM25.9823 66.7507V67.8775H29.9823V66.7507H25.9823ZM25.9823 67.8775C25.9823 68.2214 26.1341 70.1751 28.1766 71.3678L30.1937 67.9136C30.1016 67.8599 30.0541 67.8122 30.0298 67.7835C30.0037 67.7528 29.9888 67.7255 29.98 67.7052C29.9704 67.6832 29.9685 67.6708 29.9699 67.6782C29.9708 67.6825 29.9728 67.6941 29.975 67.7147C29.9761 67.7251 29.9773 67.7381 29.9784 67.7541C29.9789 67.762 29.9795 67.771 29.98 67.7809C29.9802 67.7858 29.9805 67.7913 29.9807 67.7975C29.9808 67.8004 29.981 67.8043 29.9811 67.8089C29.9812 67.811 29.9813 67.8146 29.9815 67.8191C29.9815 67.8215 29.9817 67.8272 29.9818 67.8305C29.9819 67.837 29.9822 67.8605 29.9823 67.8775H25.9823ZM28.1771 71.3681C29.5095 72.1457 31.0368 71.8472 31.7654 71.6583C32.6297 71.4342 33.296 71.106 33.3565 71.0757L31.5677 67.498C31.6238 67.47 31.2404 67.6622 30.7616 67.7863C30.5243 67.8478 30.3277 67.8753 30.1889 67.8756C30.0423 67.8759 30.0784 67.8464 30.1932 67.9133L28.1771 71.3681ZM33.3567 71.0757L34.3661 70.5709L32.5769 66.9933L31.5675 67.4981L33.3567 71.0757ZM31.4715 68.7821V70.3686H35.4715V68.7821H31.4715ZM31.4715 70.3686C31.4715 70.7449 31.5696 71.0585 31.6272 71.221C31.6994 71.425 31.7938 71.6256 31.9024 71.8161C32.1198 72.1974 32.4349 72.6098 32.8619 72.9836L35.4969 69.9742C35.4291 69.9149 35.3903 69.8578 35.3775 69.8352C35.3709 69.8236 35.3811 69.8387 35.3978 69.886C35.4063 69.91 35.4212 69.9556 35.4354 70.0206C35.4476 70.0761 35.4715 70.2002 35.4715 70.3686H31.4715ZM32.8769 72.9967C33.4787 73.5131 34.313 73.9379 35.363 74.0057L35.6208 70.014C35.5735 70.011 35.5488 70.002 35.5364 69.9966C35.5215 69.9902 35.5034 69.9796 35.4818 69.9611L32.8769 72.9967ZM35.362 74.0056C36.2652 74.0645 37.107 73.9465 37.8893 73.5028C38.5737 73.1146 39.0626 72.5408 39.348 72.2225L36.3699 69.5522C36.1889 69.754 36.0882 69.8645 35.9993 69.9498C35.9216 70.0243 35.9 70.0325 35.9158 70.0235C35.9409 70.0093 35.96 70.0063 35.9446 70.0092C35.9173 70.0142 35.823 70.0272 35.6219 70.0141L35.362 74.0056ZM39.3328 72.2392L39.8561 71.6687L36.9083 68.965L36.385 69.5355L39.3328 72.2392ZM39.8242 71.7027C40.3776 71.1269 41.0233 70.3577 41.273 69.398L37.4019 68.3907C37.4211 68.3171 37.4352 68.3274 37.3597 68.4378C37.2846 68.5478 37.1552 68.7073 36.9402 68.931L39.8242 71.7027ZM41.2738 69.395C41.5403 68.364 41.2712 67.4196 40.8758 66.6449L37.313 68.4634C37.3481 68.5321 37.3677 68.5798 37.3781 68.6088C37.3884 68.6374 37.3883 68.6436 37.3859 68.6302C37.3833 68.6158 37.3791 68.584 37.3804 68.5385C37.3817 68.4923 37.3884 68.4428 37.4011 68.3938L41.2738 69.395ZM40.876 66.6454C40.4459 65.8021 39.7012 65.3734 39.2158 65.1594C38.6938 64.9292 38.1483 64.8058 37.7179 64.7342C37.2728 64.6602 36.8607 64.6274 36.5662 64.6123C36.4165 64.6046 36.2913 64.6012 36.2002 64.5998C36.1088 64.5983 36.0431 64.5989 36.0571 64.5989V68.5989C36.0727 68.5989 36.0874 68.5985 36.1375 68.5993C36.1878 68.6001 36.2652 68.6021 36.3614 68.607C36.5585 68.6171 36.8111 68.6384 37.0617 68.68C37.327 68.7242 37.5082 68.778 37.6018 68.8193C37.732 68.8767 37.4917 68.8137 37.3127 68.4629L40.876 66.6454ZM36.0571 64.5989H34.3718V68.5989H36.0571V64.5989ZM35.786 68.0131L36.9776 66.8214L34.1492 63.993L32.9576 65.1847L35.786 68.0131ZM35.5634 65.4072C37.3332 66.3389 37.3332 66.3388 37.3333 66.3386C37.3333 66.3386 37.3334 66.3384 37.3335 66.3383C37.3336 66.3382 37.3337 66.338 37.3338 66.3378C37.334 66.3374 37.3342 66.337 37.3344 66.3365C37.3349 66.3357 37.3354 66.3347 37.3359 66.3337C37.337 66.3316 37.3382 66.3293 37.3396 66.3266C37.3424 66.3212 37.3458 66.3146 37.3499 66.3067C37.3579 66.2911 37.3684 66.2705 37.381 66.2453C37.4062 66.195 37.44 66.126 37.4803 66.0405C37.5607 65.87 37.6679 65.6313 37.7837 65.3424L34.071 63.854C33.9889 64.0587 33.9142 64.2245 33.8621 64.3351C33.8361 64.3902 33.8161 64.4309 33.8039 64.4551C33.7979 64.4672 33.7938 64.4752 33.792 64.4787C33.7911 64.4804 33.7908 64.4811 33.7911 64.4806C33.7912 64.4803 33.7915 64.4798 33.7919 64.4789C33.7921 64.4785 33.7924 64.478 33.7927 64.4775C33.7928 64.4772 33.793 64.4769 33.7931 64.4766C33.7932 64.4764 33.7933 64.4763 33.7934 64.4761C33.7934 64.476 33.7935 64.4759 33.7935 64.4758C33.7936 64.4757 33.7937 64.4756 35.5634 65.4072ZM37.7828 65.3449C38.0091 64.7825 38.2198 63.7749 37.9667 62.7193L34.077 63.6519C34.077 63.6519 34.077 63.6521 34.0771 63.6526C34.0772 63.6531 34.0773 63.6537 34.0775 63.6547C34.0779 63.6565 34.0783 63.6592 34.0788 63.6628C34.0798 63.67 34.0808 63.6801 34.0813 63.693C34.0825 63.7197 34.0815 63.7519 34.0777 63.7869C34.0739 63.822 34.0682 63.8516 34.0635 63.871C34.058 63.8937 34.0577 63.8869 34.072 63.8515L37.7828 65.3449ZM37.9633 62.7051C37.7909 62.0087 37.3833 61.2217 36.5661 60.6555L34.2881 63.9435C34.2281 63.9019 34.1736 63.8444 34.1337 63.7819C34.0967 63.7238 34.0838 63.6799 34.0804 63.6661L37.9633 62.7051ZM36.5658 60.6553C35.5591 59.9581 34.3406 59.8249 33.6436 59.794C33.2499 59.7766 32.9035 59.7885 32.6549 59.8044C32.5292 59.8125 32.4253 59.8218 32.349 59.8295C32.3107 59.8334 32.2795 59.8369 32.2562 59.8396C32.2445 59.841 32.2354 59.8421 32.2294 59.8428C32.228 59.843 32.2268 59.8431 32.2262 59.8432C32.2253 59.8433 32.2258 59.8432 32.2266 59.8432C32.227 59.8431 32.2281 59.843 32.2296 59.8428C32.2309 59.8426 32.2338 59.8423 32.2376 59.8418C32.24 59.8416 32.2495 59.8405 32.2617 59.8392C32.2686 59.8385 32.287 59.8368 32.2986 59.8358C32.3209 59.8341 32.4043 59.8298 32.4655 59.8288V63.8288C32.5268 63.8279 32.6103 63.8236 32.6326 63.8218C32.6442 63.8208 32.6627 63.8191 32.6697 63.8184C32.682 63.8171 32.6917 63.816 32.6944 63.8157C32.7013 63.8149 32.707 63.8142 32.7077 63.8141C32.7095 63.8139 32.7111 63.8137 32.7117 63.8136C32.7125 63.8135 32.713 63.8135 32.7135 63.8134C32.7151 63.8132 32.717 63.813 32.7198 63.8126C32.7255 63.812 32.7368 63.8107 32.7532 63.809C32.7862 63.8057 32.8404 63.8007 32.9107 63.7962C33.0541 63.787 33.2514 63.7806 33.4666 63.7901C33.6861 63.7998 33.8899 63.8248 34.0574 63.8649C34.2329 63.9069 34.2946 63.948 34.2884 63.9437L36.5658 60.6553ZM32.1374 59.8559L31.4557 59.9693L32.1119 63.9151L32.7936 63.8017L32.1374 59.8559ZM33.7533 61.594L33.4928 60.1208L29.5539 60.8172L29.8144 62.2904L33.7533 61.594ZM33.4933 60.1235C33.3832 59.4959 33.0614 58.4959 32.15 57.6973L29.514 60.7058C29.514 60.7058 29.5142 60.7059 29.5154 60.7075C29.517 60.7097 29.5208 60.7153 29.5259 60.7258C29.5311 60.7365 29.5368 60.7506 29.5421 60.7675C29.5473 60.7845 29.5511 60.8009 29.5534 60.8145L33.4933 60.1235ZM32.1501 57.6974C31.4789 57.1092 30.6069 56.7377 29.5748 56.5948L29.0261 60.557C29.2283 60.585 29.354 60.6266 29.4241 60.6565C29.4592 60.6716 29.4819 60.6844 29.4951 60.6926C29.5082 60.7008 29.5137 60.7056 29.5139 60.7058L32.1501 57.6974ZM29.5743 56.5947C27.9477 56.3699 26.6877 57.138 25.9886 57.7152C25.6206 58.019 25.3365 58.3265 25.1443 58.5559C25.0468 58.6725 24.969 58.7736 24.9124 58.8503C24.884 58.8889 24.8609 58.9213 24.8434 58.9463C24.8346 58.9589 24.8277 58.9689 24.823 58.9757C24.822 58.9772 24.8211 58.9785 24.8206 58.9792C24.8199 58.9803 24.8204 58.9795 24.821 58.9786C24.8214 58.9781 24.8223 58.9767 24.8235 58.9749C24.8246 58.9734 24.8271 58.9698 24.8303 58.9653C24.8322 58.9624 24.8403 58.9509 24.851 58.9362C24.8571 58.928 24.8736 58.9058 24.8842 58.892C24.905 58.8655 24.9881 58.768 25.0533 58.6997L27.8817 61.5281C27.9469 61.4598 28.0301 61.3623 28.0509 61.3357C28.0615 61.3219 28.0781 61.2997 28.0842 61.2913C28.095 61.2765 28.1032 61.2648 28.1054 61.2617C28.1111 61.2536 28.1157 61.2469 28.1161 61.2463C28.1173 61.2445 28.1186 61.2427 28.1187 61.2425C28.1192 61.2418 28.1193 61.2416 28.1194 61.2414C28.1195 61.2413 28.1195 61.2413 28.1199 61.2408C28.1206 61.2397 28.1246 61.2341 28.1316 61.2245C28.146 61.2051 28.173 61.1695 28.2113 61.1238C28.2909 61.0287 28.4031 60.9088 28.5352 60.7998C28.8362 60.5514 28.991 60.5521 29.0266 60.5571L29.5743 56.5947ZM24.9071 58.8629L24.2266 59.7117L27.3476 62.2136L28.028 61.3649L24.9071 58.8629ZM27.5763 60.069L27.0915 59.0983L23.513 60.8856L23.9978 61.8563L27.5763 60.069ZM27.3023 59.9919C27.3018 60.0344 27.2997 60.0923 27.2989 60.1077C27.2984 60.1159 27.2976 60.1286 27.2973 60.1331C27.2967 60.1407 27.2963 60.1467 27.2962 60.147C27.2961 60.1483 27.296 60.1496 27.2961 60.1489C27.2961 60.1488 27.2962 60.1481 27.2962 60.1472C27.2966 60.1429 27.297 60.1368 27.2975 60.1294C27.2986 60.1147 27.2995 60.0987 27.3004 60.0813C27.302 60.0468 27.303 60.0097 27.3029 59.97C27.3029 59.8906 27.2989 59.8028 27.2892 59.7073C27.2697 59.5156 27.2273 59.2985 27.1505 59.0618C26.9954 58.5837 26.713 58.0661 26.2544 57.5349L23.2268 60.149C23.3728 60.3181 23.3713 60.3749 23.3458 60.2964C23.3339 60.2596 23.3186 60.1987 23.3099 60.1132C23.3055 60.0709 23.303 60.0238 23.3029 59.9719C23.3029 59.9459 23.3035 59.9192 23.3049 59.8917C23.3055 59.8779 23.3063 59.8645 23.3072 59.8517C23.3077 59.8452 23.3081 59.8398 23.3084 59.836C23.3084 59.8352 23.3085 59.8346 23.3085 59.8345C23.3085 59.834 23.3084 59.8353 23.3083 59.8366C23.3083 59.837 23.3078 59.8431 23.3073 59.8507C23.3069 59.8553 23.3061 59.8679 23.3056 59.8761C23.3048 59.8916 23.3027 59.9495 23.3023 59.9919H27.3023ZM26.2545 57.535C25.8062 57.0157 24.958 56.3492 23.7961 56.0484L22.7937 59.9208C22.9119 59.9513 23.0207 60.0035 23.1111 60.0623C23.2089 60.1259 23.2468 60.1722 23.2266 60.1488L26.2545 57.535ZM23.8012 56.0497C22.9848 55.8361 22.0317 55.8163 21.0207 56.1432L22.2514 59.9492C22.4914 59.8716 22.664 59.8868 22.7886 59.9194L23.8012 56.0497ZM21.0125 56.1459C20.7209 56.2416 20.45 56.37 20.214 56.5026L22.1739 59.9896C22.2038 59.9727 22.2279 59.9608 22.245 59.953C22.2626 59.9451 22.2675 59.9439 22.2596 59.9465L21.0125 56.1459ZM20.2152 56.502C19.1088 57.1229 18.1152 58.1959 17.4579 59.2956L20.8913 61.3479C21.2761 60.704 21.806 60.196 22.1727 59.9902L20.2152 56.502ZM17.4583 59.2948C17.1472 59.8147 16.8705 60.4046 16.7079 61.0214C16.5511 61.616 16.457 62.4021 16.7171 63.2031L20.5215 61.9674C20.5562 62.0743 20.5547 62.1424 20.5545 62.1479C20.5544 62.153 20.5552 62.119 20.5756 62.0414C20.6183 61.8796 20.7171 61.639 20.8908 61.3487L17.4583 59.2948ZM16.784 63.38L16.8611 63.558L20.5317 61.9685L20.4546 61.7905L16.784 63.38Z" fill="black" mask="url(#path-20-inside-11_904_29654)"/>
<mask id="path-22-inside-12_904_29654" fill="white">
<path d="M21.8691 64.2748L25.3486 59.2812L26.4942 60.077L23.0147 65.0706L21.8691 64.2748Z"/>
</mask>
<path d="M21.8691 64.2748L25.3486 59.2812L26.4942 60.077L23.0147 65.0706L21.8691 64.2748Z" fill="#313D57"/>
<path d="M21.8691 64.2748L20.2282 63.1314L19.0832 64.7747L20.7281 65.9174L21.8691 64.2748ZM25.3486 59.2812L26.4896 57.6387L24.8494 56.4993L23.7077 58.1379L25.3486 59.2812ZM26.4942 60.077L28.1351 61.2204L29.2802 59.5771L27.6352 58.4345L26.4942 60.077ZM23.0147 65.0706L21.8737 66.7131L23.5139 67.8525L24.6557 66.214L23.0147 65.0706ZM23.5101 65.4182L26.9895 60.4246L23.7077 58.1379L20.2282 63.1314L23.5101 65.4182ZM24.2076 60.9238L25.3532 61.7196L27.6352 58.4345L26.4896 57.6387L24.2076 60.9238ZM24.8533 58.9336L21.3738 63.9272L24.6557 66.214L28.1351 61.2204L24.8533 58.9336ZM24.1557 63.428L23.0102 62.6322L20.7281 65.9174L21.8737 66.7131L24.1557 63.428Z" fill="black" mask="url(#path-22-inside-12_904_29654)"/>
<mask id="path-24-inside-13_904_29654" fill="white">
<path d="M26.7266 67.4665L31.7937 60.7305L32.9063 61.566L27.8391 68.302L26.7266 67.4665Z"/>
</mask>
<path d="M26.7266 67.4665L31.7937 60.7305L32.9063 61.566L27.8391 68.302L26.7266 67.4665Z" fill="#313D57"/>
<path d="M26.7266 67.4665L25.1283 66.2642L23.925 67.8638L25.5255 69.0657L26.7266 67.4665ZM31.7937 60.7305L32.9948 59.1312L31.3968 57.9312L30.1955 59.5282L31.7937 60.7305ZM32.9063 61.566L34.5045 62.7683L35.7078 61.1687L34.1073 59.9668L32.9063 61.566ZM27.8391 68.302L26.638 69.9013L28.236 71.1013L29.4373 69.5043L27.8391 68.302ZM28.3248 68.6688L33.392 61.9328L30.1955 59.5282L25.1283 66.2642L28.3248 68.6688ZM30.5927 62.3297L31.7052 63.1652L34.1073 59.9668L32.9948 59.1312L30.5927 62.3297ZM31.308 60.3637L26.2408 67.0997L29.4373 69.5043L34.5045 62.7683L31.308 60.3637ZM29.0401 66.7028L27.9276 65.8673L25.5255 69.0657L26.638 69.9013L29.0401 66.7028Z" fill="black" mask="url(#path-24-inside-13_904_29654)"/>
<mask id="path-26-inside-14_904_29654" fill="white">
<path d="M32.2344 69.4732L35.5182 65.4648L36.5979 66.3487L33.3138 70.3572L32.2344 69.4732Z"/>
</mask>
<path d="M32.2344 69.4732L35.5182 65.4648L36.5979 66.3487L33.3138 70.3572L32.2344 69.4732Z" fill="#313D57"/>
<path d="M32.2344 69.4732L30.6873 68.2057L29.4196 69.7531L30.9672 71.0205L32.2344 69.4732ZM35.5182 65.4648L36.7851 63.9173L35.2381 62.6509L33.9711 64.1974L35.5182 65.4648ZM36.5979 66.3487L38.145 67.6161L39.4129 66.0685L37.8648 64.8011L36.5979 66.3487ZM33.3138 70.3572L32.0466 71.9045L33.5937 73.1715L34.8609 71.6247L33.3138 70.3572ZM33.7815 70.7407L37.0653 66.7323L33.9711 64.1974L30.6873 68.2057L33.7815 70.7407ZM34.2513 67.0124L35.331 67.8963L37.8648 64.8011L36.7851 63.9173L34.2513 67.0124ZM35.0508 65.0812L31.7667 69.0898L34.8609 71.6247L38.145 67.6161L35.0508 65.0812ZM34.581 68.8099L33.5016 67.9259L30.9672 71.0205L32.0466 71.9045L34.581 68.8099Z" fill="black" mask="url(#path-26-inside-14_904_29654)"/>
<mask id="path-28-inside-15_904_29654" fill="white">
<path d="M18.8405 59.6198L16.5713 58.0862L17.3518 56.9297L19.6211 58.4633L18.8405 59.6198Z"/>
</mask>
<path d="M18.8405 59.6198L16.5713 58.0862L17.3518 56.9297L19.6211 58.4633L18.8405 59.6198Z" fill="#313D57"/>
<path d="M18.8405 59.6198L17.7207 61.2769L19.3788 62.3975L20.4983 60.7386L18.8405 59.6198ZM16.5713 58.0862L14.9135 56.9674L13.7954 58.6241L15.4514 59.7433L16.5713 58.0862ZM17.3518 56.9297L18.4717 55.2726L16.8136 54.152L15.6941 55.8109L17.3518 56.9297ZM19.6211 58.4633L21.2789 59.5821L22.397 57.9254L20.741 56.8062L19.6211 58.4633ZM19.9604 57.9627L17.6912 56.4291L15.4514 59.7433L17.7207 61.2769L19.9604 57.9627ZM18.2291 59.205L19.0096 58.0485L15.6941 55.8109L14.9135 56.9674L18.2291 59.205ZM16.232 58.5868L18.5012 60.1204L20.741 56.8062L18.4717 55.2726L16.232 58.5868ZM17.9633 57.3445L17.1828 58.501L20.4983 60.7386L21.2789 59.5821L17.9633 57.3445Z" fill="black" mask="url(#path-28-inside-15_904_29654)"/>
</svg>
