<svg width="69" height="78" viewBox="0 0 69 78" fill="none" xmlns="http://www.w3.org/2000/svg">
<path fill-rule="evenodd" clip-rule="evenodd" d="M3.90546 37.7148H27.3134C26.9087 41.6847 27.7284 45.7387 29.2726 49.7657H24.769C23.0044 49.7657 21.5609 48.3223 21.5609 46.5577V46.5102V46.0618C21.5609 45.1535 20.8184 44.4109 19.9101 44.4109H18.213C17.3047 44.4109 16.5621 45.1535 16.5621 46.0618V46.5102H16.5627V46.5577C16.5627 48.3223 15.1193 49.7657 13.3547 49.7657H4.20802C2.44343 49.7657 1 48.3223 1 46.5577V43.6047V43.2611V40.6203C1 39.0221 2.30725 37.7148 3.90546 37.7148V37.7148Z" stroke="#1B2A55" stroke-width="2" stroke-miterlimit="22.9256"/>
<path fill-rule="evenodd" clip-rule="evenodd" d="M10.5039 22.707H23.0828C24.8474 22.707 26.2907 24.1504 26.2907 25.915V29.211C26.2907 30.9756 24.8474 32.4197 23.0828 32.4197H10.5039C8.73933 32.4197 7.2959 30.9756 7.2959 29.211V25.915C7.2959 24.1504 8.73933 22.707 10.5039 22.707Z" stroke="#1B2A55" stroke-width="2" stroke-miterlimit="22.9256"/>
<path fill-rule="evenodd" clip-rule="evenodd" d="M10.5032 1H48.1795C49.944 1 51.3868 2.44277 51.3868 4.20736V14.3401C51.3868 16.1047 49.944 17.5474 48.1795 17.5474H10.5032C8.73864 17.5474 7.2959 16.1047 7.2959 14.3401V4.20736C7.2959 2.44277 8.73864 1 10.5032 1Z" stroke="#1B2A55" stroke-width="2" stroke-miterlimit="22.9256"/>
<path fill-rule="evenodd" clip-rule="evenodd" d="M46.1932 32.9638C50.3833 32.3497 53.6825 35.5268 54.1566 39.0708C54.7155 43.25 51.6508 46.5723 48.1299 47.067C43.9121 47.6599 40.5564 44.6016 40.0515 41.0274C39.5035 37.1495 42.1051 33.5631 46.1932 32.9638ZM47.1034 77.0007C47.3302 76.8607 47.2871 76.8549 47.4548 76.6403L49.8945 73.7625C50.8028 72.6583 51.7073 71.5258 52.5738 70.3663C57.7295 63.4641 63.0759 55.8559 65.7687 47.3246C68.1314 39.8372 67.0714 33.6152 63.1832 28.2295C55.4118 17.4666 39.0275 17.2919 31.0532 28.1839C24.686 36.881 27.0833 46.5242 32.0431 55.7223C35.3069 61.7746 39.9243 68.481 44.277 73.7214C44.7311 74.2681 45.1982 74.8713 45.6568 75.38C45.8932 75.6421 46.8342 76.8369 47.1034 77.0007V77.0007Z" stroke="#1B2A55" stroke-width="2" stroke-miterlimit="22.9256"/>
</svg>
