<svg width="70" height="81" viewBox="0 0 70 81" fill="none" xmlns="http://www.w3.org/2000/svg">
<path d="M40.6212 79.0159C56.2945 79.0159 69.0003 66.3101 69.0003 50.6368C69.0003 34.9635 56.2945 22.2578 40.6212 22.2578C24.9479 22.2578 12.2422 34.9635 12.2422 50.6368C12.2422 66.3101 24.9479 79.0159 40.6212 79.0159Z" stroke="#1B2A55" stroke-width="2" stroke-miterlimit="22.9256"/>
<path d="M9.728 18.702V17.702H8.728V18.702H9.728ZM9.728 20.982H8.728V21.982H9.728V20.982ZM16.112 20.982H17.112V19.982H16.112V20.982ZM16.112 24.934V25.934H17.112V24.934H16.112ZM9.728 24.934V23.934H8.728V24.934H9.728ZM9.728 29V30H10.728V29H9.728ZM4.332 29H3.332V30H4.332V29ZM4.332 24.934H5.332V23.934H4.332V24.934ZM1.064 24.934H0.064V25.934H1.064V24.934ZM1.064 20.982V19.982H0.064V20.982H1.064ZM4.332 20.982V21.982H5.332V20.982H4.332ZM4.332 18.702H5.332V17.702H4.332V18.702ZM1.064 18.702H0.064V19.702H1.064V18.702ZM1.064 14.75V13.75H0.064V14.75H1.064ZM4.332 14.75V15.75H5.332V14.75H4.332ZM4.332 2.096V1.096H3.332V2.096H4.332ZM19.266 4.262L19.9253 3.51014L19.266 4.262ZM19.19 16.688L19.8104 17.4723L19.8175 17.4666L19.19 16.688ZM9.728 7.074V6.074H8.728V7.074H9.728ZM9.728 14.75H8.728V15.75H9.728V14.75ZM14.858 8.024L14.2178 8.79222L14.224 8.79737L14.2302 8.80241L14.858 8.024ZM11.894 17.702H9.728V19.702H11.894V17.702ZM8.728 18.702V20.982H10.728V18.702H8.728ZM9.728 21.982H16.112V19.982H9.728V21.982ZM15.112 20.982V24.934H17.112V20.982H15.112ZM16.112 23.934H9.728V25.934H16.112V23.934ZM8.728 24.934V29H10.728V24.934H8.728ZM9.728 28H4.332V30H9.728V28ZM5.332 29V24.934H3.332V29H5.332ZM4.332 23.934H1.064V25.934H4.332V23.934ZM2.064 24.934V20.982H0.064V24.934H2.064ZM1.064 21.982H4.332V19.982H1.064V21.982ZM5.332 20.982V18.702H3.332V20.982H5.332ZM4.332 17.702H1.064V19.702H4.332V17.702ZM2.064 18.702V14.75H0.064V18.702H2.064ZM1.064 15.75H4.332V13.75H1.064V15.75ZM5.332 14.75V2.096H3.332V14.75H5.332ZM4.332 3.096H12.274V1.096H4.332V3.096ZM12.274 3.096C15.1376 3.096 17.2011 3.78129 18.6067 5.01386L19.9253 3.51014C18.0376 1.85471 15.4398 1.096 12.274 1.096V3.096ZM18.6067 5.01386C19.9867 6.22405 20.736 7.99721 20.736 10.494H22.736C22.736 7.56945 21.8386 5.18795 19.9253 3.51014L18.6067 5.01386ZM20.736 10.494C20.736 13.0408 19.9634 14.7803 18.5625 15.9094L19.8175 17.4666C21.8113 15.8597 22.736 13.4699 22.736 10.494H20.736ZM18.5696 15.9037C17.1143 17.0549 14.9362 17.702 11.894 17.702V19.702C15.1851 19.702 17.871 19.0064 19.8104 17.4723L18.5696 15.9037ZM11.59 6.074H9.728V8.074H11.59V6.074ZM8.728 7.074V14.75H10.728V7.074H8.728ZM9.728 15.75H11.438V13.75H9.728V15.75ZM11.438 15.75C13.0909 15.75 14.5172 15.3981 15.5383 14.5204C16.5885 13.6178 17.036 12.3123 17.036 10.798H15.036C15.036 11.9183 14.7172 12.5889 14.2347 13.0036C13.7232 13.4433 12.8505 13.75 11.438 13.75V15.75ZM17.036 10.798C17.036 9.34838 16.5553 8.1081 15.4858 7.24559L14.2302 8.80241C14.7314 9.20657 15.036 9.81562 15.036 10.798H17.036ZM15.4982 7.25578C14.4945 6.41941 13.1431 6.074 11.59 6.074V8.074C12.8742 8.074 13.7015 8.36192 14.2178 8.79222L15.4982 7.25578Z" fill="#1B2A55"/>
<path d="M41.1768 30.0469V50.0791H56.7574" stroke="#1B2A55" stroke-width="2" stroke-miterlimit="22.9256"/>
</svg>
