<svg width="63" height="74" viewBox="0 0 63 74" fill="none" xmlns="http://www.w3.org/2000/svg">
<path fill-rule="evenodd" clip-rule="evenodd" d="M2.90025 28.7254C2.90025 33.146 -0.506799 34.5431 1.80325 37.7506C2.54545 38.7808 3.92871 39.2417 4.90744 40.1353C5.78559 40.9372 6.59024 42.0707 7.03511 43.5081C7.4916 44.982 7.21085 46.9367 7.81931 48.221C8.35261 49.3473 9.59496 50.1951 11.1971 50.3106C14.4345 50.5443 16.5997 50.9655 18.5644 54.147C22.2643 60.1393 24.9186 53.5756 30.4346 54.9997C31.9847 55.3998 32.8524 56.3498 34.3406 56.6046C39.1641 57.4314 38.3738 51.0373 44.3413 50.4045C46.3203 50.1951 47.6754 50.3713 48.8442 49.218C50.7105 47.3766 49.2073 43.9192 51.6152 40.993C53.4549 38.757 56.7995 38.4127 56.259 34.8564C56.0275 33.335 55.1012 32.463 54.6635 30.9427C54.196 29.3207 54.4607 27.4776 54.9929 26.1435C55.5345 24.7846 56.5287 24.0833 56.2535 22.1396C55.7677 18.7066 53.046 19.7339 51.02 16.1943C49.0896 12.8209 50.989 9.91402 47.9694 8.24836C46.1081 7.22265 42.7519 8.57335 39.845 5.36857C39.0652 4.50921 38.334 2.92308 37.4741 2.25051C34.3163 -0.219802 32.7999 3.27403 28.3528 3.27403C24.4257 3.27403 22.1007 -1.61795 18.4124 4.17375C15.1125 9.35533 10.9445 6.48434 8.52782 8.9016C6.82402 10.6054 7.76183 12.265 7.01466 14.6104C6.40067 16.5391 5.25617 17.8373 3.81322 18.7906C2.40066 19.7245 0.717316 20.6519 1.06824 23.1885C1.32301 25.0299 2.90025 26.2142 2.90025 28.7254V28.7254Z" stroke="#1B2A55" stroke-width="2" stroke-miterlimit="22.9256"/>
<path d="M27.0919 55.0206L18.0651 70.6555L14.5856 60.5697L4.28711 62.7007L11.4317 50.3281" stroke="#1B2A55" stroke-width="2" stroke-miterlimit="22.9256"/>
<path d="M38.1943 55.0202L47.2212 70.6551L50.7006 60.5693L60.9992 62.7003L50.1674 43.9414" stroke="#1B2A55" stroke-width="2" stroke-miterlimit="22.9256"/>
<path d="M17.5947 27.4505L26.8327 38.6188L40.483 18.4883" stroke="#1B2A55" stroke-width="2" stroke-miterlimit="22.9256" stroke-linecap="round" stroke-linejoin="round"/>
</svg>
