<svg width="69" height="80" viewBox="0 0 69 80" fill="none" xmlns="http://www.w3.org/2000/svg">
<path fill-rule="evenodd" clip-rule="evenodd" d="M14.7947 27.6323C14.7947 25.8965 15.2913 23.7072 15.85 22.3982C18.368 16.4983 24.6552 13.5398 31.2681 15.4483C36.0654 16.8318 39.3342 21.477 39.7239 26.4718H52.8048C54.2433 24.4622 54.5171 22.7364 50.3022 20.1444C49.1665 19.445 49.1227 19.5289 48.166 18.5641C45.2548 15.6286 45.3897 14.2493 45.0929 9.91437C44.6205 3.02594 38.4397 6.47519 35.6663 6.47519C28.9895 6.47519 28.4592 1.04297 23.944 1.04297C21.1557 1.04297 20.4066 4.86941 18.4497 6.69926C13.5531 11.276 9.5889 8.47057 7.00937 10.4128C6.37261 10.8922 5.64538 12.018 5.64538 13.0515C5.64538 17.413 8.86226 20.6411 2.57098 27.1304C-0.478584 30.2764 1.31936 32.6454 4.48954 34.5066C13.2492 39.6491 6.50382 49.0757 13.3645 49.0757C16.0386 49.0757 20.1335 46.4518 25.2612 50.3315C26.4768 51.2508 27.5652 52.9873 29.2479 53.5022V39.6875C22.178 40.666 14.7947 35.1912 14.7947 27.6323V27.6323Z" stroke="#1B2A55" stroke-width="2" stroke-miterlimit="22.9256"/>
<path d="M35.625 69.1719H42.1244" stroke="#1B2A55" stroke-width="2" stroke-miterlimit="22.9256"/>
<path d="M35.625 58.1992H48.6238" stroke="#1B2A55" stroke-width="2" stroke-miterlimit="22.9256"/>
<path d="M35.625 47.2305H61.6226" stroke="#1B2A55" stroke-width="2" stroke-miterlimit="22.9256"/>
<path d="M35.625 36.2617H61.6226" stroke="#1B2A55" stroke-width="2" stroke-miterlimit="22.9256"/>
<path d="M48.876 64.4181L54.6458 71.3934L63.1713 58.8203" stroke="#1B2A55" stroke-width="2" stroke-miterlimit="22.9256" stroke-linecap="round" stroke-linejoin="round"/>
<path d="M63.2329 26.4727H34.0161C31.3833 26.4727 29.249 28.6069 29.249 31.2397V74.1933C29.249 76.8261 31.3833 78.9603 34.0161 78.9603H63.2329C65.8657 78.9603 68 76.8261 68 74.1933V31.2397C68 28.6069 65.8657 26.4727 63.2329 26.4727Z" stroke="#1B2A55" stroke-width="2" stroke-miterlimit="22.9256"/>
</svg>
