<svg width="73" height="74" viewBox="0 0 73 74" fill="none" xmlns="http://www.w3.org/2000/svg">
<path fill-rule="evenodd" clip-rule="evenodd" d="M62.3772 64.0239C63.232 64.0523 65.1012 63.2012 65.6624 63.3519C65.9877 63.4393 66.6696 64.25 66.9327 64.5235C68.2101 65.8484 68.1975 64.8373 67.1914 68.592C67.0648 69.0631 66.5762 69.0544 65.6809 69.2761C65.3747 69.3519 64.189 69.7002 64.0361 69.6926C63.6251 69.6707 63.7195 69.615 63.4149 69.2902C62.9198 68.764 62.0103 67.6924 61.471 67.4042L62.3772 64.0239V64.0239ZM30.3475 26.4589C31.0064 26.811 32.7025 28.708 33.3331 29.3615C34.3009 30.3648 35.402 31.4184 34.9233 33.2057C34.3222 35.4477 32.5371 36.3616 30.2722 35.7545C29.3054 35.4958 28.8441 34.8745 28.2988 34.3089L25.9367 31.8464C25.626 31.5106 25.3744 31.0663 25.0376 31.61C24.8236 31.9566 24.7586 34.0491 24.7772 34.4372C24.9671 38.3868 28.1798 41.7185 32.4825 41.9396C34.2458 42.0302 34.1366 41.4717 34.7901 41.993C36.8721 44.134 41.069 48.3468 41.069 48.3468C38.8592 50.2809 32.0114 51.0572 28.8163 50.2012C25.2445 49.2442 23.5587 48.6738 20.6229 46.2238C18.7679 44.6761 17.134 42.4057 16.075 40.2773C14.5049 37.1203 13.756 32.3644 14.7047 28.8226C15.7987 24.7409 16.7824 22.4225 19.8002 19.5014C28.3446 11.2305 42.2613 13.2459 48.0549 23.3101C50.7495 27.9912 51.1818 32.4054 49.7199 37.86C49.3023 39.418 48.1865 41.6955 47.4173 42.5913L42.3721 37.4762C41.7536 36.8326 41.2683 36.3686 40.6203 35.7665C41.735 31.6057 39.1753 27.2712 35.4037 26.2607C34.2545 25.9529 31.0266 25.2798 30.3475 26.4589V26.4589ZM39.2086 4.33463C36.2345 3.53816 36.1079 -0.170141 33.1436 1.37094C32.2309 1.84587 31.085 4.40126 28.1852 3.6239C27.1256 3.34003 24.0992 0.198348 22.4969 3.67028C20.0125 9.05504 17.812 4.86472 14.9477 6.38341C12.5998 7.62806 14.7473 11.1251 11.3496 12.4057C9.78946 12.9937 7.42626 12.2038 6.82141 14.4616C6.46384 15.7958 7.5338 16.9548 7.16041 18.3479C6.20235 21.9241 3.11965 20.5512 2.47495 22.958C1.86354 25.2399 4.59795 25.9802 3.83096 28.8423C3.30526 30.8043 1.62497 30.6361 1.05669 32.7564C0.823045 33.6298 1.35311 34.4962 1.88864 34.9979C2.58849 35.654 3.15186 35.9221 3.65136 36.7016C5.05378 38.8912 3.2594 40.6338 2.83796 42.2054C2.09499 44.9791 6.24657 44.7357 7.40825 46.9138C8.10318 48.2169 7.78 48.7709 7.55345 50.5036C7.09708 53.9919 11.1493 53.2304 11.7449 53.3903C15.8877 54.5002 13.572 58.8827 16.45 59.654C17.0996 59.8282 18.1401 59.4744 18.6855 59.2834C23.0609 57.7494 23.3758 62.7176 25.162 63.1958C28.135 63.9928 28.0657 60.6961 31.4541 61.604C33.6224 62.1853 34.5007 65.1223 36.8192 63.5905C38.0273 62.7924 38.869 59.6229 42.104 60.4898C43.3094 60.8124 44.9302 62.2945 46.4625 60.7327C47.7901 59.3783 46.7431 58.3122 48.8819 56.4403L52.6607 60.2458C53.9468 61.5832 55.2258 62.8612 56.4841 64.161C59.0646 66.8271 58.023 65.5039 58.3795 67.5565C59.6209 74.7007 69.3532 74.6876 71.0777 68.253C72.0303 64.6981 70.2157 61.2944 66.3207 60.2507C63.6174 59.5263 65.2147 60.7147 62.9853 58.5021C62.4192 57.941 55.448 50.609 55.448 50.609C56.2172 47.7375 60.1739 49.0668 60.8088 46.697C61.37 44.6035 59.3905 44.2645 60.1712 41.3505C60.8372 38.8656 62.9853 39.864 63.7621 36.9648C64.2856 35.0104 60.7187 34.1577 61.6009 30.8649C61.9322 29.6295 65.028 27.4568 62.833 25.3917C62.1364 24.7361 59.2606 23.9679 59.569 21.0059C59.6826 19.9146 61.4256 16.9095 58.8626 15.982C56.9001 15.2718 54.1805 15.6048 54.2525 11.2965C54.3246 6.99154 50.6889 8.79137 49.3258 8.42617L48.5211 8.21053C45.6426 7.43917 46.6809 3.92192 44.4803 3.33181C42.294 2.74606 41.4784 4.94277 39.2086 4.33463V4.33463Z" stroke="#1B2A55" stroke-width="2" stroke-miterlimit="22.9256"/>
<path d="M41.0693 48.3477L48.8823 56.4412" stroke="#1B2A55" stroke-width="2" stroke-miterlimit="22.9256"/>
<path d="M47.417 42.5938L55.4477 50.6114" stroke="#1B2A55" stroke-width="2" stroke-miterlimit="22.9256"/>
</svg>
