<svg width="42" height="84" viewBox="0 0 42 84" fill="none" xmlns="http://www.w3.org/2000/svg">
<path d="M19.4001 2.53777C19.4001 4.17719 19.34 4.32623 18.6494 4.50507C18.229 4.59449 17.4183 4.6243 16.8478 4.56469L15.7968 4.44546V5.72718V7.00891H16.9979C17.6585 7.00891 18.199 7.12814 18.199 7.30698C18.199 7.45602 17.6585 7.60506 16.9979 7.60506C15.8569 7.60506 15.7968 7.66468 15.7968 8.49929C15.7968 9.3339 15.8569 9.39352 16.9979 9.39352C18.0789 9.39352 18.199 9.45313 18.199 10.1387C18.199 10.7945 18.0789 10.8839 16.9979 10.8839H15.7968V12.0762V13.2685H16.9979C18.1389 13.2685 18.199 13.3281 18.199 14.1627C18.199 15.0271 18.1389 15.057 16.8478 15.057H15.4966V19.7367V24.4463L12.7942 21.7637L10.0917 19.081L5.22739 23.9396L0.333008 28.7684L4.38663 32.7925L8.44026 36.8165H11.9534H15.4966V42.9867L15.5266 49.1866L17.5985 51.2732L19.7003 53.3299V56.6981V60.0664H25.2553H30.8103V56.5491V53.0318L32.762 51.1241L34.7138 49.2164V32.1367V15.057H33.3325C31.9813 15.057 31.9813 15.057 32.0714 14.0733C32.1615 13.1493 32.2215 13.1195 33.3025 13.2089L34.4135 13.3281V12.106C34.4135 10.9435 34.3835 10.9137 33.3025 10.8243C32.3717 10.7647 32.1315 10.6156 32.0714 10.0493C31.9813 9.48294 32.1014 9.39352 33.0323 9.39352C34.0232 9.39352 34.1132 9.3339 34.1132 8.49929C34.1132 7.66468 34.0232 7.60506 33.0323 7.60506C32.3116 7.60506 32.0113 7.48583 32.1014 7.21756C32.1615 7.00891 32.5819 6.88968 33.1524 6.9493C34.0832 7.03872 34.1132 7.03872 34.1132 5.84641V4.6243H32.3116H30.51V2.68681V0.749317H24.955H19.4001V2.53777ZM29.3089 14.1627V15.0868L25.1953 14.9973L21.0515 14.9079L21.0215 14.0733L20.9915 13.2685H25.1352H29.3089V14.1627ZM32.0113 32.8819V48.0241L30.7202 49.2761L29.429 50.528H25.1052H20.7813L19.4901 49.2761L18.199 48.0241V32.8819V17.7396H25.1052H32.0113V32.8819ZM12.8842 25.7281L15.4966 28.3213V31.2425V34.1338H12.5539H9.64134L6.93892 31.4511L4.2365 28.7684L7.08905 25.9367C8.65045 24.3867 10.0017 23.105 10.0917 23.105C10.1818 23.105 11.4429 24.2675 12.8842 25.7281ZM27.8376 54.1645C27.8676 54.701 27.9277 55.476 27.9577 55.8933C28.1079 57.2943 27.8977 57.3837 25.0751 57.3837H22.4028V55.2972V53.2107H25.1052H27.8076L27.8376 54.1645Z" fill="white"/>
<path d="M17.2986 63.1973C16.3978 64.2704 14.2959 68.2646 14.2959 68.9204C14.2959 69.8146 15.557 70.4704 16.2476 69.904C16.8482 69.3973 19.7007 64.5089 19.7007 63.9127C19.7007 62.8396 18.0192 62.3329 17.2986 63.1973Z" fill="white"/>
<path d="M31.1709 63.1081C30.9607 63.3168 30.8105 63.7341 30.8105 64.0322C30.8105 64.9562 33.7532 69.8446 34.4438 70.0533C35.1344 70.2619 36.2154 69.4869 36.2154 68.8014C36.2154 68.5629 35.4647 67.1023 34.5339 65.5523C33.2127 63.3466 32.7323 62.7504 32.1918 62.7504C31.8315 62.7504 31.3811 62.8995 31.1709 63.1081Z" fill="white"/>
<path d="M24.2646 64.5987C24.0244 64.8372 23.9043 66.0891 23.9043 68.265C23.9043 71.7823 24.0845 72.2891 25.3156 72.2891C26.3365 72.2891 26.6067 71.4246 26.6067 68.0564C26.6067 64.8074 26.3965 64.241 25.2555 64.241C24.8952 64.241 24.4748 64.3901 24.2646 64.5987Z" fill="white"/>
<path d="M11.9237 72.5571C10.9329 73.5407 8.56074 78.1311 8.77092 78.6974C9.01114 79.2638 10.0621 79.7407 10.6326 79.5321C10.8128 79.4426 11.7436 78.0715 12.6444 76.4619C14.3559 73.5109 14.446 72.8552 13.365 72.2888C12.6444 71.9013 12.5843 71.9013 11.9237 72.5571Z" fill="white"/>
<path d="M36.8756 72.4669C35.9448 73.1226 36.0349 73.6293 37.5962 76.312C39.1576 78.9947 39.9083 79.7995 40.659 79.5312C42.0102 79.0245 41.9201 78.1601 40.1185 75.1495C38.407 72.2582 37.8365 71.7813 36.8756 72.4669Z" fill="white"/>
<path d="M24.4448 75.2988C23.9644 75.567 23.9043 76.0738 23.9043 79.1737C23.9043 82.691 23.9043 82.7507 24.655 83.0785C25.2855 83.3468 25.4957 83.317 26.0062 82.8699C26.5467 82.393 26.6067 81.9458 26.6067 79.1439C26.6067 76.4314 26.5166 75.8949 26.0662 75.4776C25.4357 74.9113 25.1654 74.8815 24.4448 75.2988Z" fill="white"/>
</svg>
