<svg width="102" height="41" viewBox="0 0 102 41" fill="none" xmlns="http://www.w3.org/2000/svg">
<path opacity="0.803" fill-rule="evenodd" clip-rule="evenodd" d="M47.9161 5.14008C47.5394 5.07673 47.2254 5.15568 46.9738 5.37647C46.7609 5.54407 46.6825 5.78046 46.7383 6.08564C46.5027 6.08564 46.2672 6.08564 46.0316 6.08564C46.0316 5.77053 46.0316 5.45519 46.0316 5.14008C45.1754 4.99494 44.3116 4.91598 43.4405 4.90369C43.0985 4.7141 42.706 4.59591 42.2627 4.54911C43.3887 4.14535 44.5664 3.9482 45.7961 3.95813C46.1112 -0.874611 46.5432 -0.953565 47.0916 3.72174C48.3104 3.97562 49.5275 4.25125 50.7428 4.54911C49.7617 4.71576 48.8194 4.91291 47.9161 5.14008Z" fill="white"/>
<path fill-rule="evenodd" clip-rule="evenodd" d="M46.0311 6.08628C45.9617 6.61461 46.0403 7.08739 46.2667 7.50462C46.229 7.90624 46.2681 8.3003 46.3845 8.68656C46.6945 7.93295 46.8123 7.14483 46.7378 6.32267C47.2089 6.32267 47.68 6.32267 48.1512 6.32267C51.7319 6.38248 55.2652 6.81601 58.7512 7.62281C64.3443 9.36571 69.6053 11.8086 74.5336 14.9509C75.3093 15.1461 76.0944 15.2643 76.8892 15.3055C76.9561 16.0801 76.8776 16.8285 76.6536 17.5512C75.465 17.7441 74.2872 17.9804 73.1203 18.2603C74.2954 18.4374 75.4732 18.5948 76.6536 18.7331C76.8494 19.8649 77.0456 21.0074 77.2425 22.1608C77.5153 20.989 77.7117 19.807 77.8314 18.6149C82.5152 18.4468 82.5152 18.1317 77.8314 17.6694C77.7428 16.9302 77.7428 16.221 77.8314 15.5419C82.6815 16.6021 87.5498 17.5869 92.436 18.4967C95.0375 19.2974 97.3537 20.5975 99.3849 22.3971C100.057 23.2727 100.606 24.2183 101.034 25.2338C101.152 27.9116 101.191 30.5909 101.152 33.271C99.4061 33.4954 97.6785 33.8105 95.9693 34.2166C94.3989 34.2166 92.8286 34.2166 91.2582 34.2166C91.3331 33.1453 91.2546 32.1208 91.0226 31.1435C90.169 27.1748 87.7349 24.8504 83.7203 24.1701C77.1372 24.2755 73.9965 27.6244 74.298 34.2166C59.2224 34.2166 44.1467 34.2166 29.071 34.2166C29.5838 29.216 27.4638 25.9458 22.711 24.4065C17.364 23.5448 13.87 25.7118 12.2287 30.9072C12.1111 32.0075 12.0718 33.1105 12.1109 34.2166C9.89591 34.0809 7.69738 33.8053 5.51527 33.3892C2.15683 32.6836 0.429421 30.5956 0.333008 27.1249C0.53587 25.2192 1.20327 23.4857 2.33525 21.9244C2.34566 19.639 2.34566 17.3538 2.33525 15.0691C5.68494 14.7717 9.02201 14.3779 12.3464 13.8871C12.582 17.3542 12.8176 17.3542 13.0531 13.8871C13.9278 12.7482 13.7708 12.6693 12.582 13.6507C12.0895 13.3281 11.5398 13.1704 10.9331 13.178C10.1036 12.9721 9.23993 12.7749 8.34196 12.587C9.57536 12.2468 10.8317 12.0499 12.1109 11.996C12.2083 10.7209 12.4046 9.46027 12.6998 8.21378C12.9397 9.26903 13.136 10.3328 13.2887 11.405C13.3321 11.7303 13.4891 11.9272 13.7598 11.996C14.1819 12.1873 14.6531 12.3054 15.1731 12.3506C14.9781 12.5669 14.7425 12.7243 14.4665 12.8234C15.1867 12.9316 15.8935 12.8527 16.5865 12.587C16.2725 12.5083 15.9582 12.4293 15.6442 12.3506C19.5726 10.5113 23.5771 8.85653 27.6577 7.38642C33.7313 6.24821 39.8558 5.81467 46.0311 6.08628Z" fill="white"/>
<path fill-rule="evenodd" clip-rule="evenodd" d="M46.9735 5.37695C46.9735 5.61334 46.9735 5.84973 46.9735 6.08612C47.4246 6.01899 47.817 6.0977 48.1513 6.32251C47.6802 6.32251 47.2091 6.32251 46.738 6.32251C46.3243 6.57119 46.1672 6.96525 46.2668 7.50446C46.0405 7.08723 45.9618 6.61445 46.0313 6.08612C46.2668 6.08612 46.5024 6.08612 46.738 6.08612C46.6821 5.78094 46.7606 5.54455 46.9735 5.37695Z" fill="#47164C"/>
<path fill-rule="evenodd" clip-rule="evenodd" d="M46.7374 6.32227C46.8119 7.14443 46.6941 7.93255 46.3841 8.68616C46.2677 8.2999 46.2286 7.90584 46.2663 7.50421C46.1667 6.96501 46.3238 6.57095 46.7374 6.32227Z" fill="#47164C"/>
<path fill-rule="evenodd" clip-rule="evenodd" d="M39.9064 7.97656C41.3982 7.97656 42.8902 7.97656 44.382 7.97656C44.6456 10.6506 44.8811 13.3298 45.0887 16.0138C40.1434 15.7559 35.1967 15.5195 30.2485 15.3046C30.1463 13.3537 30.1463 11.4234 30.2485 9.51309C31.3755 9.0136 32.5532 8.6985 33.7819 8.56754C35.8682 8.46943 37.9098 8.27252 39.9064 7.97656Z" fill="#47164C"/>
<path fill-rule="evenodd" clip-rule="evenodd" d="M47.4443 7.97656C54.7841 8.10752 61.6152 10.0379 67.9378 13.7681C67.9703 15.0926 67.4992 16.1958 66.5245 17.0776C60.6351 16.813 54.7461 16.4584 48.8577 16.0138C48.4617 13.3216 47.9906 10.6426 47.4443 7.97656Z" fill="#47164C"/>
<path fill-rule="evenodd" clip-rule="evenodd" d="M28.6004 10.3398C28.7813 10.5202 28.8991 10.7566 28.9537 11.049C29.0272 12.3962 29.145 13.7358 29.3071 15.0676C28.1884 14.996 27.089 14.7989 26.0093 14.4767C25.3612 14.3547 24.8117 14.0788 24.3604 13.6493C25.7108 12.4501 27.1241 11.3471 28.6004 10.3398Z" fill="#47164C"/>
<path fill-rule="evenodd" clip-rule="evenodd" d="M13.0531 13.8865C12.9727 13.6884 12.8156 13.6094 12.582 13.6501C13.7708 12.6686 13.9278 12.7476 13.0531 13.8865Z" fill="#47164C"/>
<path fill-rule="evenodd" clip-rule="evenodd" d="M90.788 20.0328C93.1603 19.8007 95.3587 20.3127 97.3836 21.5694C99.1022 22.9227 98.8667 23.5926 96.6769 23.5787C94.4212 23.5101 92.4583 22.7222 90.788 21.2148C90.4782 20.8131 90.4782 20.4193 90.788 20.0328Z" fill="#47164C"/>
<path fill-rule="evenodd" clip-rule="evenodd" d="M19.1778 26.6523C25.1946 26.6616 27.9822 29.6559 27.5401 35.6351C26.0099 39.7339 23.0654 41.4279 18.7067 40.7175C14.8843 39.2332 13.1961 36.436 13.6422 32.3257C14.1277 30.5216 15.1092 29.0638 16.5867 27.9525C17.4721 27.5083 18.3357 27.0748 19.1778 26.6523Z" fill="white"/>
<path fill-rule="evenodd" clip-rule="evenodd" d="M82.0716 26.6523C87.8397 26.7275 90.5486 29.6431 90.1983 35.3987C88.7925 39.6722 85.848 41.4451 81.3649 40.7175C77.5425 39.2332 75.8543 36.436 76.3004 32.3257C77.1128 29.2644 79.0364 27.3733 82.0716 26.6523Z" fill="white"/>
<path fill-rule="evenodd" clip-rule="evenodd" d="M19.4133 28.5433C23.5834 28.3568 25.7428 30.3267 25.8912 34.4531C25.477 36.9782 24.0244 38.5147 21.5333 39.0627C17.1327 38.9799 15.1304 36.7342 15.5266 32.3256C16.3365 30.5274 17.632 29.2667 19.4133 28.5433Z" fill="#47164C"/>
<path fill-rule="evenodd" clip-rule="evenodd" d="M82.0711 28.5433C86.6298 28.4293 88.7107 30.6355 88.3133 35.1622C86.6418 39.0047 83.9329 39.9895 80.1866 38.117C78.0824 36.3793 77.4935 34.2123 78.4199 31.6163C79.3252 30.1937 80.5423 29.1695 82.0711 28.5433Z" fill="#47164C"/>
<path fill-rule="evenodd" clip-rule="evenodd" d="M19.4129 29.252C19.7269 29.252 20.0412 29.252 20.3552 29.252C20.7212 32.9139 20.093 33.1897 18.4707 30.0793C18.7501 29.7455 19.0641 29.4697 19.4129 29.252Z" fill="white"/>
<path fill-rule="evenodd" clip-rule="evenodd" d="M21.0617 29.252C21.7361 29.3534 22.3641 29.5898 22.9461 29.9611C22.5125 30.8317 21.9629 31.6196 21.2972 32.325C21.0635 31.3126 20.9849 30.2883 21.0617 29.252Z" fill="white"/>
<path fill-rule="evenodd" clip-rule="evenodd" d="M82.0713 29.252C82.3853 29.252 82.6996 29.252 83.0136 29.252C83.1151 30.3233 82.9973 31.3475 82.6602 32.325C82.0261 31.5705 81.4372 30.7826 80.8936 29.9611C81.281 29.6784 81.6735 29.442 82.0713 29.252Z" fill="white"/>
<path fill-rule="evenodd" clip-rule="evenodd" d="M83.721 29.252C84.4079 29.3449 85.0361 29.5812 85.6055 29.9611C83.7613 33.2353 83.133 32.999 83.721 29.252Z" fill="white"/>
<path fill-rule="evenodd" clip-rule="evenodd" d="M79.9518 30.4336C80.3925 30.5185 80.7459 30.7548 81.0118 31.1428C81.3651 31.655 81.7185 32.167 82.0718 32.6793C81.9481 32.8429 81.791 32.9611 81.6007 33.0339C80.8405 32.7008 80.0554 32.4644 79.2451 32.3247C79.2621 31.603 79.4976 30.9728 79.9518 30.4336Z" fill="white"/>
<path fill-rule="evenodd" clip-rule="evenodd" d="M86.0764 30.4336C86.5768 30.5591 86.9301 30.8745 87.1364 31.3792C87.2519 31.6848 87.2912 32.0001 87.2542 32.3247C86.4147 32.3691 85.6296 32.6055 84.8986 33.0339C84.8202 32.9157 84.7415 32.7975 84.6631 32.6793C85.0902 31.8976 85.5613 31.1489 86.0764 30.4336Z" fill="white"/>
<path fill-rule="evenodd" clip-rule="evenodd" d="M17.5291 30.4336C18.3743 31.0156 19.0026 31.8035 19.4136 32.7975C19.2958 32.8762 19.178 32.9552 19.0603 33.0339C18.2521 32.724 17.4276 32.4876 16.5869 32.3247C16.6519 31.5638 16.9659 30.9336 17.5291 30.4336Z" fill="white"/>
<path fill-rule="evenodd" clip-rule="evenodd" d="M23.4172 30.4336C24.0932 30.6766 24.5643 31.1494 24.8305 31.8519C21.7763 33.792 21.3052 33.3192 23.4172 30.4336Z" fill="white"/>
<path fill-rule="evenodd" clip-rule="evenodd" d="M20.355 32.5625C20.7619 32.6436 20.8798 32.88 20.7088 33.2717C20.4637 33.0958 20.3458 32.8594 20.355 32.5625Z" fill="white"/>
<path fill-rule="evenodd" clip-rule="evenodd" d="M83.0134 32.5625C83.4475 32.5954 83.5261 32.753 83.2497 33.0353C83.0611 32.9272 82.9824 32.7696 83.0134 32.5625Z" fill="white"/>
<path fill-rule="evenodd" clip-rule="evenodd" d="M16.1154 32.7969C17.1038 32.9699 18.046 33.285 18.9421 33.7424C18.1895 34.2459 17.365 34.64 16.4687 34.9244C16.1408 34.2677 16.0231 33.5585 16.1154 32.7969Z" fill="white"/>
<path fill-rule="evenodd" clip-rule="evenodd" d="M78.7734 32.7969C82.4849 33.4666 82.4849 34.1757 78.7734 34.9244C78.7734 34.2152 78.7734 33.506 78.7734 32.7969Z" fill="white"/>
<path fill-rule="evenodd" clip-rule="evenodd" d="M24.3603 32.7969C24.5958 32.7969 24.8314 32.7969 25.0669 32.7969C25.1416 33.5231 25.0632 34.2322 24.8314 34.9244C23.9148 34.5816 23.0513 34.1876 22.2402 33.7424C22.9947 33.481 23.7014 33.1659 24.3603 32.7969Z" fill="white"/>
<path fill-rule="evenodd" clip-rule="evenodd" d="M86.7829 32.7969C87.0969 32.7969 87.4111 32.7969 87.7251 32.7969C87.7251 33.506 87.7251 34.2152 87.7251 34.9244C86.6901 34.7107 85.7479 34.3169 84.8984 33.7424C85.5222 33.3789 86.1504 33.0635 86.7829 32.7969Z" fill="white"/>
<path fill-rule="evenodd" clip-rule="evenodd" d="M19.4131 33.2713C19.6899 33.2195 19.9254 33.2982 20.1198 33.5077C19.7542 33.8145 19.5186 33.7358 19.4131 33.2713Z" fill="white"/>
<path fill-rule="evenodd" clip-rule="evenodd" d="M21.2976 33.2695C21.7316 33.3024 21.8103 33.4601 21.5339 33.7423C21.3453 33.6343 21.2666 33.4766 21.2976 33.2695Z" fill="white"/>
<path fill-rule="evenodd" clip-rule="evenodd" d="M82.0713 33.2713C82.3481 33.2195 82.5836 33.2982 82.778 33.5077C82.4124 33.8145 82.1768 33.7358 82.0713 33.2713Z" fill="white"/>
<path fill-rule="evenodd" clip-rule="evenodd" d="M83.7207 33.2713C83.9975 33.2195 84.233 33.2982 84.4274 33.5077C84.0618 33.8145 83.8262 33.7358 83.7207 33.2713Z" fill="white"/>
<path fill-rule="evenodd" clip-rule="evenodd" d="M19.8845 34.2168C20.3186 34.2497 20.3972 34.4073 20.1208 34.6896C19.9322 34.5815 19.8535 34.4239 19.8845 34.2168Z" fill="white"/>
<path fill-rule="evenodd" clip-rule="evenodd" d="M82.5427 34.2168C82.9768 34.2497 83.0554 34.4073 82.779 34.6896C82.5904 34.5815 82.5117 34.4239 82.5427 34.2168Z" fill="white"/>
<path fill-rule="evenodd" clip-rule="evenodd" d="M83.4854 34.2166C83.7621 34.1648 83.9977 34.2435 84.192 34.453C83.8264 34.7598 83.5909 34.6811 83.4854 34.2166Z" fill="white"/>
<path fill-rule="evenodd" clip-rule="evenodd" d="M91.0225 31.1426C91.2545 32.1198 91.3329 33.1443 91.258 34.2156C92.8285 34.2156 94.3987 34.2156 95.9692 34.2156C94.3643 34.4499 92.7154 34.5289 91.0225 34.452C91.0225 33.3488 91.0225 32.2458 91.0225 31.1426Z" fill="#47164C"/>
<path fill-rule="evenodd" clip-rule="evenodd" d="M20.8262 34.2166C21.103 34.1648 21.3385 34.2435 21.5328 34.453C21.1673 34.7598 20.9317 34.6811 20.8262 34.2166Z" fill="white"/>
<path fill-rule="evenodd" clip-rule="evenodd" d="M18.7069 34.6892C18.9837 34.6375 19.2193 34.7162 19.4136 34.9256C18.882 35.7558 18.2931 36.5439 17.6469 37.2895C17.1063 36.9051 16.753 36.3929 16.5869 35.753C17.2248 35.2388 17.9315 34.8843 18.7069 34.6892Z" fill="white"/>
<path fill-rule="evenodd" clip-rule="evenodd" d="M22.0039 34.6895C22.9219 35.0228 23.8641 35.2592 24.8306 35.3986C24.7161 36.1851 24.2841 36.7368 23.535 37.0533C22.7249 36.4496 22.2145 35.6615 22.0039 34.6895Z" fill="white"/>
<path fill-rule="evenodd" clip-rule="evenodd" d="M81.1295 34.6884C81.4777 34.6265 81.7917 34.7052 82.0718 34.9248C81.5281 35.7463 80.9392 36.5341 80.3051 37.2887C78.7667 35.8763 79.0416 35.0094 81.1295 34.6884Z" fill="white"/>
<path fill-rule="evenodd" clip-rule="evenodd" d="M84.6631 34.6895C85.5134 34.9738 86.3772 35.2102 87.2542 35.3986C87.3327 36.2265 86.9793 36.7782 86.1942 37.0533C85.3895 36.4643 84.8793 35.6764 84.6631 34.6895Z" fill="white"/>
<path fill-rule="evenodd" clip-rule="evenodd" d="M19.884 35.3984C20.337 36.2327 20.4939 37.1782 20.3552 38.2351C19.8777 38.2734 19.4066 38.2339 18.9418 38.1169C18.7232 38.0252 18.5661 37.8675 18.4707 37.6441C18.8547 36.8328 19.3258 36.0844 19.884 35.3984Z" fill="white"/>
<path fill-rule="evenodd" clip-rule="evenodd" d="M21.0615 35.3984C21.8334 35.9391 22.4617 36.6482 22.946 37.5259C22.4664 38.1131 21.8384 38.3495 21.0615 38.2351C21.0615 37.2896 21.0615 36.344 21.0615 35.3984Z" fill="white"/>
<path fill-rule="evenodd" clip-rule="evenodd" d="M82.3069 35.3984C82.5425 35.3984 82.778 35.3984 83.0136 35.3984C83.0136 36.344 83.0136 37.2896 83.0136 38.2351C82.2143 38.3386 81.5077 38.1417 80.8936 37.6441C81.5168 36.9818 81.988 36.2334 82.3069 35.3984Z" fill="white"/>
<path fill-rule="evenodd" clip-rule="evenodd" d="M83.4854 35.3984C84.4071 35.8507 85.1138 36.5598 85.6054 37.5259C85.0283 38.0855 84.3216 38.3219 83.4854 38.2351C83.4854 37.2896 83.4854 36.344 83.4854 35.3984Z" fill="white"/>
</svg>
