<svg width="83" height="63" viewBox="0 0 83 63" fill="none" xmlns="http://www.w3.org/2000/svg">
<path d="M10.5532 0.162621C9.59904 0.3139 8.76865 1.03351 8.42931 2.00253C8.34148 2.26012 8.33748 2.31327 8.32551 3.93239L8.31353 5.60057H4.32127H0.333008V11.059V16.5174H4.32527H8.31752V31.5024V46.4875H4.32527H0.333008V51.9459V57.4043H4.32527H8.31752V58.9661C8.31752 60.6834 8.33349 60.8306 8.55706 61.309C8.88442 62.0081 9.47528 62.5233 10.2338 62.7686C10.5292 62.8627 10.5572 62.8627 12.3297 62.8627H14.1263L14.4456 62.7523C14.6213 62.6909 14.8808 62.5724 15.0205 62.4865C15.3359 62.2984 15.7551 61.8732 15.9348 61.5625C16.1024 61.2763 16.2621 60.8183 16.2861 60.5403C16.298 60.4217 16.314 60.2868 16.326 60.2336L16.342 60.1437H38.9341H61.5263L61.5543 60.4258C61.6381 61.3049 62.197 62.139 62.9675 62.5519C63.5304 62.8504 63.5584 62.8545 65.3469 62.8708C67.0636 62.8913 67.387 62.8668 67.8261 62.6991C68.4409 62.462 68.9879 61.9509 69.2713 61.358C69.5388 60.7938 69.5588 60.6425 69.5588 58.9212V57.4043H74.2097H78.8607V54.6853V51.9663H79.0364C79.4675 51.9663 80.2021 51.7741 80.6572 51.537C81.1962 51.259 81.8349 50.6947 82.1623 50.2041C82.3619 49.9056 82.6015 49.3945 82.7212 48.9979L82.833 48.634V36.9608V25.2876L82.7252 24.936C82.5735 24.4331 82.4458 24.1591 82.1903 23.7625C81.6074 22.8671 80.7051 22.2497 79.6632 22.0289C79.3158 21.9553 79.1402 21.9512 77.3876 21.9635C75.5751 21.9799 75.4713 21.984 75.1719 22.0698C74.4613 22.2743 73.7945 22.6831 73.2875 23.2351C72.8244 23.7298 72.4971 24.3227 72.3094 25.0014L72.2176 25.3285L72.2056 31.8173L72.1936 38.3101H70.8762H69.5588V27.4137V16.5174H73.551H77.5433V11.059V5.60057H73.555H69.5627L69.5508 3.95284C69.5348 2.36234 69.5308 2.301 69.443 2.04342C69.1635 1.22977 68.5767 0.59602 67.8421 0.309811C67.387 0.138088 67.0716 0.113556 65.3469 0.133999C63.5584 0.150352 63.5304 0.154442 62.9675 0.452915C62.197 0.865875 61.6381 1.69997 61.5543 2.57903L61.5263 2.86115H38.9341H16.342L16.326 2.76711C16.314 2.71805 16.298 2.58312 16.2861 2.46455C16.2621 2.18652 16.1024 1.72859 15.9348 1.44238C15.7551 1.13164 15.3359 0.706413 15.0205 0.518333C14.8808 0.432472 14.6213 0.3139 14.4456 0.25666L14.1263 0.146263L12.4495 0.138088C11.5273 0.133999 10.673 0.146263 10.5532 0.162621ZM13.6272 31.5024V60.1028H12.3098H10.9923V31.5024V2.90204H12.3098H13.6272V31.5024ZM66.844 31.5024V60.1028H65.5465H64.2491V31.5024V2.90204H65.5465H66.844V31.5024ZM61.5343 6.97029V8.29911H58.8795H56.2246V9.68927V11.0794H58.8795H61.5343V12.4287V13.778H38.9381H16.342V12.4287V11.0794H34.9658H53.5897V9.68927V8.29911H34.9658H16.342V6.97029V5.64146H38.9381H61.5343V6.97029ZM8.31752 11.059V13.778H5.66267H3.00782V11.059V8.34H5.66267H8.31752V11.059ZM74.8285 11.059V13.778H72.1936H69.5588V11.059V8.34H72.1936H74.8285V11.059ZM61.5343 17.8666V19.2159H42.9104H24.2866V20.6061V21.9962H42.9104H61.5343V23.325V24.6539H38.9381H16.342V23.325V21.9962H18.9968H21.6517V20.6061V19.2159H18.9968H16.342V17.8666V16.5174H38.9381H61.5343V17.8666ZM79.3118 24.7929C79.5753 24.8951 79.9107 25.2222 80.0464 25.5043L80.1582 25.7374L80.1702 36.8586C80.1782 46.8636 80.1742 48.0003 80.1143 48.1965C80.0065 48.5891 79.7749 48.8712 79.4077 49.0715C79.244 49.1656 79.216 49.1656 77.5992 49.1778C76.0062 49.1901 75.9504 49.186 75.7308 49.1042C75.4194 48.9816 75.112 48.6708 74.9842 48.3478L74.8884 48.1025V36.9404V25.7783L75.0002 25.5329C75.1838 25.1282 75.5232 24.8419 75.9344 24.7397C76.0182 24.7193 76.7688 24.7029 77.6032 24.7111C78.9605 24.7152 79.1402 24.7275 79.3118 24.7929ZM61.5343 28.7834V30.1327H38.9381H16.342V28.7834V27.4342H38.9381H61.5343V28.7834ZM61.5343 34.2214V35.5707H50.895H40.2556V36.9608V38.351H50.895H61.5343V39.6798V41.0086H38.9381H16.342V39.6798V38.351H26.9813H37.6207V36.9608V35.5707H26.9813H16.342V34.2214V32.8721H38.9381H61.5343V34.2214ZM72.1936 43.7685V46.4875H70.8762H69.5588V43.7685V41.0495H70.8762H72.1936V43.7685ZM61.5343 45.1382V46.4875H52.8911H44.2478V47.8572V49.2269H52.8911H61.5343V50.5762V51.9254H38.9381H16.342V50.5762V49.2269H28.9775H41.613V47.8572V46.4875H28.9775H16.342V45.1382V43.7889H38.9381H61.5343V45.1382ZM8.31752 51.9459V54.6648H5.66267H3.00782V51.9459V49.2269H5.66267H8.31752V51.9459ZM72.549 49.5295C73.1238 50.8705 74.4333 51.8314 75.8506 51.95L76.1859 51.9786V53.3197V54.6648H72.8723H69.5588V51.9459V49.2269H70.988H72.4172L72.549 49.5295ZM61.5343 56.0346V57.3634H38.9381H16.342V56.0346V54.7057H38.9381H61.5343V56.0346Z" fill="white"/>
</svg>
