<svg width="83" height="81" viewBox="0 0 83 81" fill="none" xmlns="http://www.w3.org/2000/svg">
<path opacity="0.963" fill-rule="evenodd" clip-rule="evenodd" d="M29.0846 15.3247C37.3636 15.2491 45.635 15.3275 53.899 15.5599C54.8249 15.9915 55.6036 16.5926 56.2354 17.3631C57.2989 19.8148 58.3463 22.2714 59.3775 24.7327C59.7775 24.5137 60.207 24.3829 60.6666 24.3407C62.2243 24.2361 63.7818 24.2361 65.3394 24.3407C66.9972 24.9794 67.6148 26.1554 67.1925 27.8687C66.7734 28.8963 65.9946 29.4451 64.856 29.5151C63.8892 29.5674 62.9224 29.6197 61.9556 29.6719C63.5067 31.1049 65.118 32.4639 66.7896 33.7488C68.0642 35.1179 68.6012 36.7382 68.401 38.6096C68.3798 38.9628 68.2993 39.3025 68.1593 39.6288C64.3813 33.9114 59.037 31.69 52.1265 32.9648C49.8768 33.5625 47.8894 34.6079 46.1646 36.1008C40.7398 36.153 35.3151 36.2054 29.8902 36.2576C29.3599 36.6232 29.2794 37.0674 29.6485 37.5904C30.4811 38.7926 31.3135 39.9946 32.1461 41.1968C32.3338 41.3668 32.5486 41.4974 32.7906 41.5888C35.9072 41.615 39.0224 41.6934 42.1363 41.824C41.6892 42.9892 41.4207 44.1914 41.3306 45.4304C37.3455 45.3565 33.371 45.4349 29.4068 45.6656C28.5933 47.412 27.8414 49.1891 27.151 50.9968C23.982 51.1014 20.8131 51.1014 17.6441 50.9968C16.0324 50.5782 14.9313 49.6112 14.3409 48.096C14.0768 44.0813 14.0231 40.0567 14.1798 36.0224C14.4171 35.3514 14.7393 34.7242 15.1466 34.1408C16.8921 32.6512 18.6378 31.1615 20.3834 29.6719C19.4166 29.6197 18.4498 29.5674 17.483 29.5151C15.4012 28.9933 14.6761 27.7127 15.3077 25.6735C15.6807 24.9966 16.2447 24.5524 16.9996 24.3407C18.5573 24.2361 20.1148 24.2361 21.6724 24.3407C22.132 24.3829 22.5616 24.5137 22.9615 24.7327C23.9928 22.2714 25.0401 19.8148 26.1036 17.3631C26.8591 16.3383 27.8529 15.6588 29.0846 15.3247ZM29.4068 17.3631C28.9242 17.6137 28.4676 17.9273 28.0372 18.3039C26.452 21.9914 24.8675 25.6762 23.2838 29.3583C35.2076 29.4629 47.1314 29.4629 59.0553 29.3583C57.5129 25.8593 56.0358 22.3313 54.6241 18.7743C54.3287 18.2777 53.9259 17.8857 53.4156 17.5983C45.4223 17.3653 37.4193 17.2869 29.4068 17.3631ZM17.483 36.1792C17.2389 36.4932 17.1316 36.8592 17.1607 37.2768C17.5142 39.842 19.0183 41.2794 21.6724 41.5888C23.8746 41.6934 26.0767 41.6934 28.2789 41.5888C29.067 41.3208 29.255 40.8244 28.8429 40.0992C27.9603 38.7714 27.0203 37.4908 26.023 36.2576C23.1768 36.1792 20.3302 36.153 17.483 36.1792Z" fill="white"/>
<path opacity="0.977" fill-rule="evenodd" clip-rule="evenodd" d="M53.899 34.2976C60.3172 33.8773 64.8557 36.4907 67.5147 42.1376C69.2688 47.5144 68.0603 52.1401 63.8892 56.0144C58.7372 59.6814 53.4734 59.8382 48.0982 56.4848C43.3016 52.5292 41.932 47.6422 43.9893 41.824C45.9661 37.6376 49.2693 35.1288 53.899 34.2976ZM59.6998 42.9216C57.8812 44.6387 56.0551 46.3635 54.2212 48.096C53.3859 47.3092 52.5266 46.5514 51.6431 45.8224C50.6678 45.6744 50.3186 46.0664 50.5958 46.9984C51.7314 48.1823 52.9399 49.2799 54.2212 50.2912C56.4699 48.3384 58.6452 46.3 60.7471 44.176C61.0244 43.2695 60.6754 42.8513 59.6998 42.9216Z" fill="white"/>
<path opacity="0.984" fill-rule="evenodd" clip-rule="evenodd" d="M30.3735 47.3125C34.0259 47.3125 37.6782 47.3125 41.3306 47.3125C41.3715 48.5969 41.5863 49.8513 41.9751 51.0757C37.6769 51.1279 33.38 51.0757 29.0845 50.9189C29.5626 49.7285 29.9921 48.5263 30.3735 47.3125Z" fill="white"/>
<path opacity="0.968" fill-rule="evenodd" clip-rule="evenodd" d="M15.0657 51.7031C16.2457 52.4255 17.5347 52.8175 18.9329 52.8791C21.5642 52.9575 24.196 52.9837 26.8284 52.9575C26.9876 54.4583 26.4505 55.6343 25.2171 56.4855C22.4886 56.7402 19.7493 56.7924 16.9993 56.6423C16.0594 56.3549 15.4417 55.7538 15.1463 54.8391C15.0658 53.7952 15.0389 52.7498 15.0657 51.7031Z" fill="white"/>
<path opacity="0.949" fill-rule="evenodd" clip-rule="evenodd" d="M43.4252 54.2109C44.6751 55.7667 46.1253 57.1517 47.7757 58.3661C45.2513 60.8227 42.727 63.2792 40.2025 65.7358C38.0751 66.6981 36.5443 66.1493 35.6102 64.0894C35.4528 63.2687 35.5603 62.4847 35.9325 61.7374C38.4043 59.2014 40.9018 56.6926 43.4252 54.2109Z" fill="white"/>
</svg>
