<svg width="74" height="62" viewBox="0 0 74 62" fill="none" xmlns="http://www.w3.org/2000/svg">
<path d="M73.8262 9.41486V41.3449C73.9181 43.6047 73.1183 45.8094 71.6014 47.4778C70.0844 49.1461 67.9734 50.1427 65.7292 50.25H51.3364C51.4989 47.9846 52.313 45.8158 53.6794 44.0084L54.7473 42.6927C56.4072 40.4056 57.4575 37.7287 57.7979 34.917C58.1383 32.1054 57.7575 29.2528 56.6919 26.6314L54.572 21.3686H59.4812L53.1056 10.1369L46.73 21.3686H51.1292L53.7432 27.8508C54.5875 29.9407 54.8943 32.2113 54.6352 34.4523C54.3761 36.6932 53.5594 38.8322 52.2608 40.671L51.2089 41.9867C49.3942 44.3729 48.3286 47.2502 48.1486 50.25H35.525C35.6875 47.9846 36.5016 45.8158 37.868 44.0084L38.9359 42.6927C40.5958 40.4056 41.6461 37.7287 41.9865 34.917C42.3269 32.1054 41.9461 29.2528 40.8804 26.6314L38.7606 21.3686H43.5422L37.1667 10.1369L30.7911 21.3686H35.3178L37.9317 27.8508C38.7746 29.9401 39.0821 32.2093 38.8259 34.4495C38.5696 36.6898 37.7579 38.8292 36.4654 40.671L35.3974 41.9867C33.5828 44.3729 32.5172 47.2502 32.3372 50.25H19.7295C19.8939 47.9877 20.7017 45.8209 22.0566 44.0084L23.1245 42.6927C24.7839 40.4054 25.8339 37.7285 26.1743 34.9169C26.5147 32.1054 26.1342 29.2529 25.069 26.6314L22.9491 21.3686H27.6033L21.2277 10.1369L14.8522 21.3686H19.5063L22.1203 27.8508C22.9671 29.9394 23.2767 32.2092 23.0204 34.4502C22.7641 36.6912 21.9501 38.8308 20.6539 40.671L19.586 41.9867C17.7714 44.3729 16.7058 47.2502 16.5258 50.25H8.60411C6.35989 50.1427 4.24893 49.1461 2.73196 47.4778C1.215 45.8094 0.415199 43.6047 0.507132 41.3449V9.41486C0.415199 7.15503 1.215 4.95033 2.73196 3.28196C4.24893 1.61359 6.35989 0.617026 8.60411 0.509766H65.7292C67.9734 0.617026 70.0844 1.61359 71.6014 3.28196C73.1183 4.95033 73.9181 7.15503 73.8262 9.41486ZM37.5333 58.9465C35.8731 56.3737 35.1624 53.2961 35.525 50.25H32.3372C31.9748 53.965 32.8921 57.6925 34.9352 60.8077C35.0835 61.0172 35.2797 61.1878 35.5071 61.3051C35.7346 61.4223 35.9867 61.4829 36.2422 61.4816C36.572 61.4799 36.8938 61.3793 37.1667 61.1928C37.5104 60.9432 37.7419 60.5668 37.8106 60.1458C37.8793 59.7248 37.7796 59.2936 37.5333 58.9465ZM21.7378 58.9465C20.0704 56.3768 19.3591 53.2965 19.7295 50.25H16.5258C16.1634 53.965 17.0807 57.6925 19.1238 60.8077C19.2721 61.0172 19.4682 61.1878 19.6957 61.3051C19.9231 61.4223 20.1752 61.4829 20.4308 61.4816C20.7606 61.4799 21.0824 61.3793 21.3552 61.1928C21.7007 60.9451 21.9349 60.5699 22.0065 60.149C22.0782 59.7282 21.9816 59.2959 21.7378 58.9465ZM53.3447 58.9465C51.6845 56.3737 50.9738 53.2961 51.3364 50.25H48.1486C47.7862 53.965 48.7035 57.6925 50.7466 60.8077C50.8949 61.0172 51.0911 61.1878 51.3185 61.3051C51.546 61.4223 51.7981 61.4829 52.0536 61.4816C52.3834 61.4799 52.7052 61.3793 52.9781 61.1928C53.3218 60.9432 53.5533 60.5668 53.622 60.1458C53.6907 59.7248 53.591 59.2936 53.3447 58.9465Z" fill="white"/>
</svg>
