<svg width="83" height="56" viewBox="0 0 83 56" fill="none" xmlns="http://www.w3.org/2000/svg">
<path d="M23.3376 0.692974C22.9508 0.849674 22.2545 2.15549 22.2545 2.73005C22.2545 2.9651 22.5898 3.51355 23.0024 3.93141L23.7503 4.68879H27.6445H31.5387V7.30043V9.91207H26.4066C20.3977 9.91207 20.6555 9.8076 18.9534 12.9155L17.9477 14.7436L16.1682 14.9003C13.3571 15.1353 11.6293 16.2845 10.3914 18.7916C9.90137 19.758 9.77242 20.5414 9.66926 23.0225L9.54031 26.1042H7.01295H4.4598V20.2542C4.4598 14.7436 4.43401 14.378 3.91822 13.7251C3.17033 12.7588 1.62297 12.7588 0.875074 13.7251C0.333496 14.4041 0.333496 14.6653 0.333496 27.9846V41.539L0.978231 42.1658C1.80349 43.0277 2.9898 43.0277 3.81507 42.1658C4.4598 41.539 4.4598 41.539 4.4598 35.8979V30.2829H7.01295H9.5661L9.66926 36.2113C9.74663 42.0875 9.77242 42.192 10.4429 43.4978C10.8298 44.2551 11.6293 45.2737 12.2482 45.796C13.8471 47.2063 15.2656 47.5197 19.6755 47.5197H23.4408L27.4897 51.6983L31.5645 55.877H47.8892H64.2139L64.7812 55.2502C65.3486 54.6495 65.3744 54.3622 65.4259 51.2543L65.4517 47.9114L66.9475 47.8331L68.4175 47.7547V50.2097C68.4175 52.4296 68.4691 52.7169 69.0107 53.2131C69.578 53.7615 69.8359 53.7876 74.2717 53.7876C79.6101 53.7876 79.3522 53.8921 80.4096 51.176C82.3954 46.0572 83.3238 37.3082 82.5759 30.5963C82.0085 25.3991 80.4354 19.7057 79.2233 18.4521L78.527 17.747H74.0912C69.7586 17.747 69.6812 17.747 69.0623 18.3999C68.4691 18.9745 68.4175 19.2095 68.4175 21.6645V24.3022L66.9475 24.2239L65.4517 24.1455L65.3744 21.5078C65.2712 18.0082 65.1938 17.9298 61.5318 17.747L58.7981 17.6164L57.3281 14.2474C56.5286 12.3931 55.6002 10.6694 55.2907 10.3822C54.7491 9.9643 54.156 9.91207 48.9207 9.91207H43.1439V7.30043V4.68879H46.1097C50.0555 4.68879 50.8807 4.27092 50.8807 2.36443C50.8807 1.94656 50.6228 1.39812 50.2876 1.08472L49.6944 0.510159L36.6708 0.536274C29.5271 0.536274 23.5182 0.614624 23.3376 0.692974ZM39.0176 7.30043V9.91207H37.3413H35.665V7.30043V4.68879H37.3413H39.0176V7.30043ZM54.2849 17.6164C55.1102 19.4707 56.0386 21.2205 56.3223 21.4555C56.7607 21.8212 57.3539 21.9256 59.0044 21.9256H61.1449L61.2481 24.5634C61.3254 27.0706 61.3512 27.2272 62.0475 27.8279C62.7439 28.4286 62.8986 28.4547 66.9475 28.4547C72.3633 28.4286 72.5438 28.298 72.5438 24.2761V21.8995L74.5296 21.9779L76.5154 22.0562L76.9796 23.6232C79.2233 31.0664 79.2491 40.7556 77.057 48.2771L76.6443 49.609H74.607H72.5438V47.363C72.5438 45.2476 72.518 45.0909 71.7959 44.3596L71.048 43.6022H66.896C62.8986 43.6022 62.7439 43.6284 62.0475 44.229C61.3254 44.8558 61.3254 44.9081 61.2481 48.2771L61.1449 51.6983H47.1928H33.215L29.0887 47.5197L24.9624 43.3411H20.6298C17.2256 43.3411 16.0908 43.2627 15.4203 42.9493C13.8729 42.192 13.8729 42.192 13.8729 30.8835V20.5676L14.724 19.8102C15.4719 19.1312 15.7298 19.0528 17.3545 19.0528C20.1655 19.0528 20.3719 18.9222 22.3576 15.3182L23.054 14.0907L37.9087 14.1429L52.7891 14.2213L54.2849 17.6164Z" fill="white"/>
<path d="M36.1805 17.8002C35.7163 18.0613 34.7105 19.785 32.3894 24.4076C28.9079 31.3285 28.6757 32.1642 29.8878 33.1305C30.5068 33.6267 30.9194 33.6789 33.6273 33.6789C35.9226 33.6789 36.6963 33.7573 36.6963 33.9923C36.6963 34.1751 36.2836 37.1785 35.7678 40.652C35.252 44.1255 34.891 47.2856 34.9942 47.6512C35.0973 48.0691 35.5099 48.4869 36.0773 48.7481C36.9026 49.166 37.0573 49.166 37.6762 48.8003C38.0631 48.5914 42.241 43.7338 46.9604 38.0143C55.7288 27.3849 55.9094 27.1498 55.3678 25.7134C55.0325 24.8516 53.8462 24.5382 51.0094 24.5382C49.5136 24.5382 48.3015 24.486 48.3015 24.4337C48.3015 24.3554 48.7657 23.4413 49.3331 22.3966C50.4678 20.2812 50.6225 19.1582 49.8746 18.2441C49.3846 17.6173 49.3589 17.6173 43.092 17.539C38.4499 17.4868 36.6705 17.5651 36.1805 17.8002ZM44.8973 21.8482C44.8457 21.9788 44.3299 23.0234 43.711 24.1987C42.4989 26.6275 42.4215 27.0976 43.1178 27.9594C43.5562 28.534 43.8657 28.5862 46.3673 28.7168L49.1267 28.8474L44.6652 34.2796C42.2152 37.2569 40.1778 39.6596 40.152 39.6074C40.1005 39.5812 40.3583 37.727 40.7194 35.5071C41.5962 29.7354 41.4673 29.5003 37.2378 29.5003C35.7936 29.5003 34.6331 29.4481 34.6331 29.3697C34.6331 29.2914 35.4842 27.5416 36.4899 25.4523L38.3726 21.6654H41.6736C43.5047 21.6654 44.9489 21.7437 44.8973 21.8482Z" fill="white"/>
</svg>
