<svg width="74" height="74" viewBox="0 0 74 74" fill="none" xmlns="http://www.w3.org/2000/svg">
<path d="M41.1291 0.319668C40.2556 0.495815 39.6121 1.02426 39.3362 1.79012C39.1064 2.4411 38.4628 3.07676 37.62 3.49799C36.5091 4.04174 35.8962 3.93452 35.2373 3.09208C35.0457 2.85466 34.8005 2.41047 34.6856 2.11944C34.3945 1.38421 33.9961 0.993622 33.3218 0.786842C31.8048 0.319668 29.8971 1.03192 29.2152 2.31856C29.0466 2.6249 29.0313 2.73978 29.0466 3.57457C29.062 4.0877 29.0313 4.60848 28.9853 4.76165C28.7325 5.55049 28.0583 6.55376 27.545 6.91372C27.0163 7.28133 26.0203 7.05923 25.2235 6.40059C24.6412 5.91044 24.373 5.81854 23.6758 5.84917C22.925 5.87981 22.2354 6.17083 21.6685 6.69162C20.7567 7.52641 20.297 8.84369 20.5652 9.82399C20.6112 9.97716 20.7874 10.2605 20.9559 10.4596C21.4003 10.9575 21.5689 11.4629 21.6148 12.382C21.6608 13.301 21.5535 13.9826 21.3084 14.243C21.2164 14.3502 20.9866 14.5034 20.795 14.5953C20.4886 14.7408 20.3124 14.7561 19.1861 14.7561C17.9526 14.7561 17.9143 14.7638 17.5695 14.9629C16.5735 15.545 16.0065 16.778 16.0601 18.2025C16.1061 19.3896 16.5428 20.0559 17.5082 20.4235C18.1594 20.6762 18.7187 21.2506 19.1248 22.0777C19.6764 23.1882 19.6841 23.6707 19.1784 24.2451C18.8183 24.651 18.4352 24.8961 17.7687 25.1412C17.1251 25.3709 16.7114 25.8151 16.5122 26.4814C15.9529 28.2735 16.9719 30.4562 18.5272 30.8085C18.8796 30.8851 19.0252 30.8775 19.6534 30.7243C20.7184 30.4792 21.4693 30.6018 21.8907 31.0996C22.1282 31.3829 22.2278 31.6969 22.335 32.5317C22.4576 33.4278 22.335 34.0481 21.906 34.768C21.4999 35.4573 21.4233 35.8785 21.5918 36.5525C21.7681 37.2341 22.0515 37.7013 22.6032 38.2297C23.2391 38.8424 23.9133 39.1641 24.6718 39.21C25.3614 39.256 25.7828 39.1181 26.2731 38.6892C26.7711 38.2604 27.0393 38.1914 28.2652 38.1914C29.2535 38.1914 29.3684 38.2067 29.7209 38.3829C30.0197 38.5361 30.1423 38.6509 30.2878 38.9496C30.487 39.3402 30.5177 39.7538 30.4411 41.2166C30.4181 41.722 30.4411 41.8369 30.6173 42.1816C31.1306 43.1542 32.2799 43.7439 33.6666 43.7363C34.4098 43.7363 34.8542 43.6061 35.3905 43.2231C35.674 43.024 35.7966 42.8555 36.0341 42.3424C36.2639 41.8522 36.4248 41.6225 36.8002 41.2778C37.3366 40.7724 38.3785 40.221 38.8919 40.1673C39.5891 40.0908 40.2173 40.6345 40.7613 41.7833C40.9375 42.1662 41.198 42.5875 41.3436 42.7253C42.5541 43.8894 45.2817 43.3457 46.2164 41.768C46.4156 41.4234 46.4233 41.3697 46.4233 40.3358V39.2636L46.6991 38.6892C47.0132 38.0306 47.4959 37.3643 47.856 37.0809C48.0629 36.9201 48.1855 36.8895 48.5685 36.8971C49.1432 36.8971 49.6029 37.0963 50.3307 37.6553C50.6602 37.9081 51.0049 38.0995 51.2348 38.1531C52.7058 38.5284 54.5216 37.1039 54.8894 35.2965C55.035 34.5766 54.8894 34.0481 54.3837 33.4508C53.993 32.9989 53.8551 32.5088 53.8551 31.5667C53.8551 30.1269 54.1386 29.5296 54.9507 29.2998C55.2955 29.2002 55.5636 29.1849 56.3988 29.2309C57.4024 29.2845 57.4254 29.2845 57.8391 29.0777C59.2642 28.3884 59.9384 26.0602 59.1493 24.5438C58.9271 24.1073 58.5287 23.7856 57.9617 23.5635C57.5327 23.4027 57.3411 23.2725 57.0193 22.9202C56.2992 22.1467 55.7475 20.883 55.8931 20.3469C56.0233 19.895 56.6363 19.3589 57.5327 18.9301C58.1073 18.6544 58.3908 18.4705 58.5976 18.2331C59.8158 16.8086 58.7892 13.6992 56.9657 13.2627C56.6822 13.1938 56.483 13.1938 56.1306 13.2627C55.7858 13.3316 55.5713 13.3316 55.2648 13.2704C54.2995 13.0636 52.8361 12.1292 52.6675 11.6084C52.4683 11.0264 52.7441 10.2069 53.4184 9.37213C53.8934 8.78242 53.993 8.49905 53.9547 7.83275C53.8474 5.85683 51.2425 4.07238 49.7025 4.91483C49.5416 4.99907 49.2658 5.19053 49.0819 5.33605C48.898 5.48156 48.5532 5.65771 48.3157 5.73429C47.7794 5.88747 46.4769 5.91044 46.0402 5.76493C45.1591 5.4739 44.845 4.57785 45.0365 2.96188C45.0901 2.48705 45.0825 2.37217 44.9293 2.02753C44.4083 0.809818 42.6537 0.0209808 41.1291 0.319668ZM39.0298 9.31852C40.4625 9.4334 42.1327 9.93887 43.6268 10.7047C47.1511 12.5198 49.6029 15.8666 50.3001 19.8338C50.5223 21.0821 50.5223 22.9202 50.3001 24.1456C49.8097 26.9333 48.5149 29.3304 46.4616 31.2834C41.8952 35.6181 34.8772 35.9475 29.8741 32.0646C29.1003 31.4595 27.9357 30.2495 27.3611 29.4377C25.6142 26.9946 24.7561 23.7167 25.0932 20.7069C25.7751 14.5187 30.6632 9.73208 36.7619 9.28788C37.597 9.22662 37.8575 9.22662 39.0298 9.31852Z" fill="white"/>
<path d="M59.2484 30.1042C59.0492 30.2574 58.827 30.4182 58.7504 30.4641C58.6202 30.5407 58.7428 30.8317 60.4973 34.37C61.5316 36.4685 62.3744 38.1993 62.3667 38.2146C62.3361 38.2376 58.4823 38.0921 56.858 38.0002L55.4866 37.9159L54.9732 38.3984C53.3413 39.9302 51.0964 40.2978 49.7556 39.2639C49.5641 39.1107 49.2576 38.8886 49.0661 38.7584L48.7213 38.5286L48.5451 38.7431C48.4532 38.858 48.2846 39.1337 48.1773 39.3558C47.9858 39.7387 47.9858 39.7693 48.0777 40.3284C48.2693 41.4695 47.9015 42.4728 46.9208 43.4455C46.4535 43.9126 46.193 44.0964 45.6184 44.3875C44.6606 44.8546 44.0784 45.0001 43.1283 45.0001C42.2319 45.0001 41.55 44.824 40.8298 44.3951C40.1786 44.0122 39.7725 43.522 39.3358 42.6183L38.9604 41.8371L38.6769 41.952C38.3245 42.0975 37.8648 42.3886 37.7575 42.5264C37.7115 42.5877 37.6119 42.8021 37.5353 43.0166C37.1063 44.1807 36.0489 45.0231 34.6469 45.3065C33.873 45.4673 33.4057 45.4597 32.5322 45.2835C30.9616 44.9542 29.6898 44.0581 29.0922 42.8481C28.7627 42.1818 28.6861 41.4695 28.8393 40.5582C28.9159 40.114 28.9159 39.9608 28.847 39.8919C28.7934 39.8383 28.4869 39.7923 28.1651 39.777C27.5752 39.7464 27.5675 39.754 27.238 40.0221C26.5332 40.6118 25.7517 40.9105 24.8859 40.9105C24.3879 40.9105 23.4149 40.6654 22.8249 40.382C21.8289 39.9148 20.9095 39.0188 20.4422 38.0461L20.22 37.6019L19.5304 37.6479C18.1513 37.7321 14.5657 37.7858 13.6386 37.7321L12.6886 37.6785L12.9337 37.0965C13.3628 36.1085 14.4507 33.9718 15.2782 32.5243C15.7685 31.6665 16.0367 31.1228 15.9984 31.0692C15.9601 31.0232 15.7762 30.7552 15.5923 30.4718C15.3165 30.0582 15.2322 29.974 15.1556 30.0506C15.0254 30.1884 13.7459 32.4324 12.972 33.8952C11.7845 36.1315 11.524 36.2387 10.6123 34.8755C9.89206 33.8033 9.35574 33.4816 8.26012 33.4816C6.95764 33.4816 5.30272 34.056 4.77407 34.6993C4.45994 35.0823 4.10751 35.8022 4.05388 36.1928C4.01557 36.4455 4.03855 36.614 4.15348 36.8667C4.55954 37.7858 5.91566 38.184 8.97266 38.2836L10.5203 38.3295L9.01097 39.8306C6.88869 41.9367 5.07288 44.0122 4.49059 44.9772C4.18412 45.4826 4.07686 47.0756 3.93895 52.8962C3.90064 54.7495 3.81636 57.5602 3.77039 59.1379C3.62482 63.4497 3.64015 66.7046 3.81636 67.7462C4.04621 69.1324 4.37566 70.0208 4.86601 70.5875L5.10352 70.8556H3.15746C1.43359 70.8556 1.18842 70.8709 0.950905 70.9934C0.583145 71.1849 0.307326 71.7287 0.383942 72.1192C0.445235 72.4792 0.805333 72.8928 1.12712 72.9923C1.27269 73.0306 3.59418 73.0842 6.73545 73.1072C9.68519 73.1378 15.3778 73.1914 19.3772 73.2297C23.3842 73.268 30.2414 73.337 34.6239 73.3829C50.744 73.5361 58.3903 73.6127 65.6076 73.6969C72.7176 73.7658 72.9934 73.7658 73.2693 73.628C73.6447 73.4442 73.9205 72.9004 73.8439 72.5022C73.8209 72.349 73.706 72.1192 73.5987 71.989C73.2463 71.5755 73.0854 71.5448 71.0167 71.5448C69.9824 71.5448 69.1396 71.5219 69.1396 71.4989C69.1396 71.4683 69.2469 71.3227 69.3848 71.1772C69.7066 70.802 70.082 69.9672 70.2812 69.1707C70.8482 66.8654 70.9401 63.8786 70.6337 57.185C70.5494 55.4005 70.5264 53.9224 70.5647 52.1686C70.6643 47.1982 70.3272 45.4673 68.8255 43.2004C68.2892 42.3962 66.1822 40.2288 65.1403 39.417C64.8185 39.1643 64.5503 38.9345 64.5503 38.9116C64.5426 38.8809 65.485 38.8426 66.6343 38.8273C68.4577 38.7967 68.7949 38.7661 69.3235 38.6205C70.8022 38.2223 71.2619 37.4641 70.8099 36.1621C70.5724 35.4805 70.1127 35.0363 69.1933 34.5998C68.3198 34.1786 67.6686 34.0177 66.8718 34.0177C65.8528 34.0177 65.554 34.1479 64.7495 34.9521C63.1789 36.5068 62.8188 36.3536 61.5929 33.6271C61.3554 33.091 60.9493 32.2792 60.6888 31.8274C60.436 31.3678 60.0836 30.7322 59.915 30.4105L59.6009 29.8285L59.2484 30.1042ZM44.2393 49.4115C46.6603 49.4651 46.8289 49.4728 47.2656 49.6413C48.3229 50.0472 49.1351 50.7824 49.6024 51.7474C50.0851 52.7353 50.1541 53.6084 49.8629 54.9104C49.5641 56.2659 48.4378 57.4837 47.0817 57.9279C46.599 58.081 46.4382 58.0887 43.7796 58.0734C42.2396 58.0657 38.1253 58.0274 34.6239 57.9815C27.6671 57.8972 27.7131 57.9049 26.8167 57.4377C26.5562 57.2999 26.1424 56.9782 25.8819 56.7255C24.9779 55.8294 24.5795 54.7649 24.6561 53.4706C24.6791 53.0723 24.748 52.5668 24.8093 52.3601C25.1771 50.9815 26.3263 49.8097 27.7284 49.3962C28.1574 49.266 28.6171 49.266 34.9303 49.3043C38.6386 49.3273 42.8295 49.3732 44.2393 49.4115ZM13.8225 51.2113C16.2742 51.4563 18.657 51.8623 19.9901 52.2528C20.7716 52.4826 21.6374 52.8579 21.6374 52.9651C21.6374 53.0187 21.5301 53.2255 21.3999 53.4399C20.7869 54.4049 19.9671 55.1172 19.0324 55.4848C16.1976 56.5953 11.7538 56.9552 9.57027 56.2506C7.51694 55.592 6.53625 54.1981 6.64351 52.0997C6.67416 51.6631 6.72013 51.2725 6.7661 51.2266C6.91933 51.0734 7.80043 51.0275 10.1832 51.0581C11.6389 51.0734 13.1176 51.1347 13.8225 51.2113ZM67.0403 51.6402C67.5077 51.6861 67.9214 51.7627 67.9751 51.8163C68.1053 51.9465 68.113 53.4399 67.9827 53.9684C67.8218 54.65 67.523 55.1708 67.025 55.6762C65.4544 57.2462 62.0603 57.5756 57.877 56.557C55.8237 56.0592 54.9119 55.6303 54.1075 54.7802C53.6554 54.313 53.0502 53.4093 53.0502 53.2178C53.0502 53.1412 54.276 52.7047 55.0192 52.5132C56.4979 52.1456 59.0875 51.7857 61.3631 51.6402C62.8418 51.5483 66.0826 51.5406 67.0403 51.6402ZM38.1099 66.0307C48.4225 66.1532 55.6092 66.3447 59.6622 66.6127L60.4053 66.6663V68.0142C60.4053 69.9365 60.5509 70.6641 61.0489 71.1926C61.1639 71.3074 61.2481 71.4223 61.2328 71.43C61.2098 71.4606 13.0333 70.9934 12.995 70.9628C12.9797 70.9551 13.064 70.8556 13.1712 70.7484C13.6922 70.2276 13.8914 69.3392 13.8991 67.5241C13.8991 66.8884 13.9297 66.337 13.9604 66.2834C14.1213 66.023 26.5715 65.8928 38.1099 66.0307Z" fill="white"/>
</svg>
