<svg width="83" height="67" viewBox="0 0 83 67" fill="none" xmlns="http://www.w3.org/2000/svg">
<path d="M42.2896 0.779496L42.3438 1.53169L48.5235 1.61229L54.6761 1.66602V0.860088V0.0541611H48.4693H42.2354L42.2896 0.779496Z" fill="white"/>
<path d="M43.0764 6.85088C43.1577 11.0954 43.1848 11.2835 43.8895 12.3312C44.3774 13.0565 45.0821 13.6475 45.9766 14.0505C47.1962 14.6415 47.3318 14.7758 47.3589 15.5549C47.3589 16.4145 47.4131 16.4414 48.443 16.4414C49.473 16.4414 49.5272 16.3877 49.5272 15.6355C49.5272 14.9907 49.6898 14.749 50.259 14.534C52.0207 13.8624 53.7012 11.9551 53.8638 10.397C53.8909 10.1014 53.918 8.19409 53.8909 6.15241L53.8638 2.47201H48.4159H42.9951L43.0764 6.85088Z" fill="white"/>
<path d="M54.5135 14.5598C52.4536 15.7149 50.7461 16.7895 50.7461 16.897C50.7461 17.0044 51.6676 18.7237 52.7789 20.6579C54.2696 23.2906 54.9201 24.1772 55.2182 24.0697C55.4351 23.9622 55.8145 23.8548 56.0314 23.8011C56.3295 23.7205 57.5492 25.601 60.3409 30.4097C62.455 34.1169 64.4878 37.3138 64.7859 37.5287C65.1112 37.7436 65.6804 37.9316 66.0327 37.9316C66.7374 37.9316 70.0712 36.1049 71.1554 35.1646C72.3751 34.0632 72.1311 33.4185 66.7103 24.1503C63.9457 19.3953 61.3708 14.9896 61.0185 14.3717C60.3138 13.1628 59.4465 12.4106 58.7418 12.4106C58.4978 12.4106 56.6006 13.3777 54.5135 14.5598Z" fill="white"/>
<path d="M66.1958 13.4864C65.2743 13.97 64.949 13.9968 64.1088 13.7551C63.0788 13.4595 61.7236 13.7551 61.7236 14.2655C61.7236 14.6416 63.6209 17.7847 63.8377 17.7847C64.4069 17.7578 65.0845 16.8713 65.22 15.9848C65.3556 15.152 65.5724 14.8565 66.3855 14.4267C68.2286 13.4327 68.4454 13.6476 72.7549 21.0084C77.4439 29.0677 77.7421 29.3094 80.5609 27.7782C82.9731 26.4887 83.0274 26.435 82.675 26.0857C82.4311 25.844 82.0245 25.9514 80.859 26.623C80.0188 27.0797 78.9889 27.4558 78.5281 27.4558C77.5524 27.4558 77.5252 27.3752 72.8092 19.2891C71.1016 16.3609 69.4754 13.8088 69.1772 13.5939C68.1473 12.9491 67.3071 12.9223 66.1958 13.4864Z" fill="white"/>
<path d="M48.2531 16.9512L47.3857 17.1124L49.4456 20.6047C55.8422 31.4847 55.8151 31.4579 55.6524 32.4519C55.4898 33.2578 55.544 33.3652 56.0048 33.3652C56.8179 33.3652 57.2787 31.5116 56.8992 29.7117C56.574 28.0998 50.1232 16.8706 49.4999 16.8169C49.283 16.79 48.7409 16.8437 48.2531 16.9512Z" fill="white"/>
<path d="M46.3012 19.3693C45.8133 19.826 45.4609 20.417 45.4609 20.7931C45.4609 21.7065 48.1984 26.166 49.0387 26.6227C49.7163 26.9988 49.8518 26.9988 50.8546 26.5152L51.9388 25.9779L49.8247 22.3513C48.6592 20.3633 47.575 18.6977 47.4395 18.6709C47.2769 18.6171 46.789 18.9395 46.3012 19.3693Z" fill="white"/>
<path d="M41.7211 22.834C38.9565 24.4458 38.9023 24.4995 39.3901 25.1712C39.7696 25.6816 39.7967 25.6816 40.7453 25.1712C41.8295 24.5801 41.9921 24.6876 43.0492 26.595L43.6997 27.777L43.1305 28.2068C42.8052 28.4755 42.3445 28.771 42.1005 28.9321C41.694 29.1739 41.694 29.2545 42.0734 29.7918L42.48 30.3828L44.8651 29.0396C48.3615 27.0516 48.226 27.374 46.4914 24.3115C45.5156 22.5653 44.838 21.6519 44.4857 21.6251C44.2146 21.5713 42.9678 22.1355 41.7211 22.834Z" fill="white"/>
<path d="M16.6767 25.4401C13.3429 26.3535 10.497 29.4429 8.16605 34.7083L7.27162 36.7231L5.26593 36.7499C3.80232 36.7499 3.0434 36.8843 2.52843 37.2335C1.03771 38.1737 1.25454 39.4364 3.0434 40.3766C3.721 40.7258 4.26308 41.1288 4.26308 41.2631C4.26308 41.3706 3.88363 42.5795 3.42286 43.9495C2.96209 45.2928 2.39291 47.7911 2.17608 49.4836C1.79662 52.1163 1.634 52.6804 1.03771 53.3252L0.333008 54.0774V59.7188V65.3872L1.22744 66.1663L2.09477 66.9453H7.40714C12.6653 66.9453 12.6924 66.9453 13.37 66.2737C13.7224 65.9245 14.1018 65.2529 14.1831 64.7962L14.3729 63.9902H32.0447H49.7435L49.8791 64.7424C49.9604 65.1454 50.3669 65.817 50.7735 66.22L51.5053 66.9453H56.8177C64.1629 66.9184 63.8918 67.1871 63.8918 59.6382V54.346L63.1058 53.4595C62.4553 52.7341 62.2927 52.2237 62.1301 50.6925C61.8861 48.2478 61.1272 44.9435 60.2599 42.7138L59.6094 40.9408L60.2328 40.7796C61.344 40.4841 62.5637 39.2752 62.4824 38.523C62.3469 37.3141 61.1814 36.7499 58.8505 36.7499C56.8177 36.7231 56.7906 36.7231 56.4382 35.8903C56.2214 35.3799 55.8148 34.9769 55.4083 34.8694C54.2699 34.6008 53.8362 33.9561 53.8904 32.7203C53.9718 31.3234 52.1016 27.8579 51.424 28.1534C51.2072 28.234 50.5025 28.3952 49.852 28.4489C49.2286 28.5295 48.6323 28.6907 48.5781 28.825C48.4968 28.9325 48.7678 29.3623 49.1473 29.7921C50.3398 31.0547 51.424 32.774 52.5081 35.0575C54.0802 38.4424 54.1073 38.4961 52.9418 38.4155C52.1558 38.3618 51.8577 38.1737 51.424 37.4753C50.5838 36.0783 48.7407 35.6485 43.2928 35.6485C37.7636 35.6754 36.0831 36.0515 35.1887 37.529L34.6466 38.4692H32.0447H29.4427L28.9006 37.529C28.0062 36.0246 26.3257 35.6485 20.661 35.6754C15.2673 35.6754 13.4513 36.1052 12.6653 37.529C12.313 38.1469 12.0148 38.3349 11.3643 38.3618C10.768 38.3887 10.497 38.2543 10.497 37.9857C10.497 37.0186 13.5055 31.5114 14.8065 30.0876C17.0019 27.6967 16.9206 27.7236 25.4042 27.7236H32.7765L32.5867 26.9445C32.5054 26.4878 32.5596 25.8968 32.7222 25.6013C33.0204 25.0371 32.9933 25.0371 25.4855 25.064C20.2273 25.0909 17.5711 25.1983 16.6767 25.4401ZM12.1774 48.9732C13.8579 50.182 15.2673 51.176 15.2944 51.2029C15.2944 51.2029 15.3757 51.6327 15.4299 52.1431C15.5112 53.0028 15.4299 53.0834 14.4 53.4326C13.37 53.755 12.9092 53.7281 9.54836 53.1371C7.48846 52.761 5.78091 52.4118 5.69959 52.3312C5.64539 52.2775 5.34724 51.3641 5.0762 50.3432L4.58833 48.4359L5.99774 47.8717C6.75665 47.5762 7.62398 47.2001 7.92212 47.0658C8.84365 46.6628 9.00628 46.7434 12.1774 48.9732ZM57.3869 47.6031C58.4981 48.0598 59.4197 48.4627 59.4468 48.4896C59.5281 48.5702 58.5252 52.1969 58.3626 52.358C58.3084 52.4118 56.6279 52.761 54.6223 53.1102C51.3969 53.7013 50.8548 53.7281 49.7706 53.4326C48.5781 53.0834 48.3883 52.6804 48.822 51.4447C48.9575 51.1223 54.8662 46.7972 55.2185 46.7972C55.327 46.7972 56.3027 47.1733 57.3869 47.6031ZM44.8648 54.3729C45.2443 54.749 45.2985 58.295 44.919 58.886C44.7022 59.2353 42.9675 59.289 32.4241 59.3696C17.9235 59.4502 18.8992 59.6382 18.8992 56.6563C18.8992 55.5012 19.0347 54.5609 19.2245 54.3729C19.6852 53.9162 44.4041 53.9162 44.8648 54.3729ZM5.45566 58.1607C6.70244 59.3696 10.9849 62.1098 11.5812 62.1098C11.7438 62.1098 11.8522 62.2172 11.8522 62.3515C11.8522 62.7008 9.79229 62.4053 8.19316 61.8142C5.7267 60.9009 3.88363 58.8323 3.36865 56.3339L3.17892 55.528L3.63969 56.1996C3.88363 56.5757 4.69675 57.4622 5.45566 58.1607ZM60.7478 56.3877C60.5038 57.516 59.5823 59.2084 58.7963 60.0412C57.8747 61.0083 55.9232 62.0023 54.5138 62.2441C53.9447 62.3247 53.1857 62.459 52.8605 62.5396C52.5081 62.5933 52.2371 62.5396 52.2371 62.3784C52.2371 62.2441 52.3455 62.1098 52.5081 62.1098C52.9689 62.1098 56.899 59.692 58.2271 58.5905C58.9589 57.9995 59.7991 57.0861 60.0973 56.5757C60.802 55.4743 60.9646 55.4206 60.7478 56.3877Z" fill="white"/>
<path d="M34.3755 27.1599L34.6466 27.9121L36.9233 27.3748C38.1701 27.0525 39.1458 26.7301 39.0645 26.5958C38.9832 26.4883 37.8448 26.3809 36.5167 26.3809H34.1045L34.3755 27.1599Z" fill="white"/>
<path d="M36.8147 27.9645C34.9175 28.448 34.6735 28.6898 35.2427 29.442C35.5951 29.9256 35.7035 29.8987 37.5466 28.9047C40.3654 27.4003 40.1214 27.1048 36.8147 27.9645Z" fill="white"/>
<path d="M37.8177 29.363C36.7877 29.954 35.9746 30.5182 35.9746 30.6256C36.0017 30.8943 36.6793 31.7539 36.869 31.7539C36.9504 31.7539 37.6822 31.0823 38.4682 30.2495C40.7178 27.8855 40.5823 27.7243 37.8177 29.363Z" fill="white"/>
<path d="M38.8476 30.652C37.4382 32.0759 37.3027 32.2908 37.6008 32.8012C37.7635 33.1236 38.0616 33.3385 38.2242 33.2847C38.5766 33.1773 40.7178 29.3626 40.5281 29.2014C40.4738 29.1208 39.7149 29.7924 38.8476 30.652Z" fill="white"/>
</svg>
