<svg width="83" height="56" viewBox="0 0 83 56" fill="none" xmlns="http://www.w3.org/2000/svg">
<path d="M48.2223 0.591318C48.1966 0.644056 48.188 4.8783 48.1966 9.99405L48.2223 19.2988H64.4973H80.7723V9.9187V0.538578L64.5145 0.515976C51.5546 0.500906 48.2481 0.515976 48.2223 0.591318ZM65.2016 1.35228C65.7684 1.90228 65.3218 2.68583 64.4458 2.68583C63.69 2.68583 63.3035 1.97762 63.7501 1.39748C64.0851 0.960495 64.7807 0.937893 65.2016 1.35228ZM77.7578 3.33378C77.8265 3.48446 77.8265 16.3529 77.7578 16.5036C77.7063 16.6166 76.4609 16.6242 64.4458 16.6242H51.1853V9.9187V3.21323H64.4458C76.4609 3.21323 77.7063 3.22077 77.7578 3.33378Z" fill="white"/>
<path d="M66.8158 4.43387C66.8158 4.47907 66.7643 4.57702 66.6956 4.63729C66.541 4.78798 66.1373 5.39825 66.0686 5.564C66.0428 5.63934 65.9913 5.69962 65.9484 5.69962C65.9054 5.69962 65.8711 5.74482 65.8711 5.8051C65.8711 5.86537 65.8195 5.96332 65.768 6.01606C65.7079 6.0688 65.5962 6.21195 65.5275 6.34003C65.4588 6.46058 65.373 6.59619 65.33 6.6414C65.1325 6.86742 64.8405 7.29688 64.8405 7.35715C64.8405 7.40236 64.8147 7.43249 64.7718 7.43249C64.7374 7.43249 64.6601 7.54551 64.5914 7.67359C64.5227 7.8092 64.4454 7.93729 64.4196 7.95989C64.308 8.03523 63.8957 8.63797 63.8957 8.71331C63.8957 8.75098 63.8614 8.78865 63.8099 8.78865C63.7669 8.78865 63.724 8.81879 63.724 8.864C63.724 8.90167 63.5866 9.12016 63.4234 9.34619C63.2602 9.57222 63.1228 9.79824 63.1228 9.84345C63.1228 9.88112 63.0884 9.91879 63.0369 9.91879C62.994 9.91879 62.951 9.97153 62.951 10.0318C62.951 10.0921 62.9167 10.1448 62.8651 10.1448C62.8222 10.1448 62.7793 10.19 62.7793 10.2503C62.7793 10.3106 62.7277 10.4085 62.6676 10.4613C62.6075 10.514 62.4958 10.6722 62.4271 10.8003C62.367 10.9359 62.2811 11.0489 62.2468 11.0489C62.2038 11.0489 62.1781 11.0866 62.1781 11.1243C62.1781 11.2147 61.7315 11.8325 61.6456 11.8626C61.6027 11.8777 61.5769 11.953 61.5769 12.0359C61.5769 12.2017 61.5254 12.2167 61.3622 12.0811C61.3021 12.0359 61.1818 11.938 61.0959 11.8702C61.0015 11.8023 60.7009 11.5085 60.4175 11.2297C59.4384 10.2503 59.5586 10.3181 58.8286 10.3859C58.4765 10.416 57.7035 10.4763 57.1109 10.5215C56.5183 10.5592 55.6337 10.6345 55.1356 10.6722C54.6375 10.7174 53.7357 10.7777 53.1173 10.8078C52.5076 10.838 51.9493 10.8907 51.8978 10.9208C51.8377 10.9585 51.7861 11.064 51.7861 11.1619C51.7861 11.4934 52.061 11.5688 53.6326 11.6517C54.4399 11.6969 55.3331 11.7647 55.6166 11.8023C55.9086 11.8476 56.5355 11.8777 57.0079 11.8777H57.8753L58.4335 12.3825C59.6703 13.5051 60.0825 13.8969 60.3316 14.1681C60.4776 14.3263 60.8812 14.7256 61.2419 15.0571L61.8947 15.6523L62.0407 15.464C62.118 15.3585 62.1781 15.238 62.1781 15.1928C62.1781 15.1551 62.2124 15.1174 62.2468 15.1174C62.2897 15.1174 62.367 14.9969 62.4357 14.8537C62.5044 14.7106 62.5731 14.59 62.6075 14.59C62.6333 14.59 62.7707 14.4017 62.9081 14.1756C63.0541 13.9496 63.1915 13.7613 63.2344 13.7613C63.2688 13.7613 63.2946 13.7236 63.2946 13.6859C63.2946 13.6407 63.432 13.4147 63.5952 13.1886C63.7583 12.9626 63.8957 12.7592 63.8957 12.7441C63.8957 12.6989 64.3423 12.0811 64.4196 12.0284C64.4454 12.0058 64.5227 11.8777 64.5914 11.7421C64.6601 11.614 64.7374 11.501 64.7718 11.501C64.8147 11.501 64.8405 11.4633 64.8405 11.4106C64.8405 11.3654 64.9349 11.2147 65.0552 11.0791C65.1754 10.9434 65.2699 10.8003 65.2699 10.7551C65.2699 10.7099 65.2957 10.6722 65.3386 10.6722C65.373 10.6722 65.4502 10.5592 65.519 10.4236C65.5877 10.2955 65.665 10.1674 65.6907 10.1448C65.8024 10.0695 66.2146 9.46674 66.2146 9.39139C66.2146 9.35372 66.2576 9.31605 66.3005 9.31605C66.352 9.31605 66.3864 9.27838 66.3864 9.24071C66.3864 9.1955 66.4894 9.02222 66.6183 8.85646L66.8502 8.54756L67.0047 8.72838C67.082 8.82633 67.1593 8.96194 67.1593 9.02975C67.1593 9.10509 67.2023 9.16537 67.2452 9.16537C67.2967 9.16537 67.3311 9.23317 67.3311 9.30852C67.3311 9.39139 67.3655 9.4818 67.417 9.50441C67.4599 9.52701 67.563 9.67769 67.6403 9.82838C67.7176 9.97906 67.9581 10.4311 68.1728 10.8229C68.3961 11.2147 68.5764 11.5462 68.5764 11.5537C68.585 11.5688 69.3236 11.5387 70.2168 11.4934C72.8191 11.3578 74.3306 11.2825 75.6017 11.2297L76.7783 11.1845V10.7777C76.7783 10.5065 76.744 10.3708 76.6753 10.3708C76.6151 10.3708 76.1943 10.3332 75.7477 10.288C74.614 10.1825 72.8878 10.0695 71.694 10.0243C71.1358 10.0017 70.6806 9.94893 70.6806 9.91126C70.6806 9.87358 70.6205 9.84345 70.5517 9.84345C70.483 9.84345 70.4229 9.79071 70.4229 9.73043C70.4229 9.67016 70.3886 9.61742 70.337 9.61742C70.2941 9.61742 70.2512 9.54961 70.2512 9.46674C70.2512 9.38386 70.2168 9.31605 70.1653 9.31605C70.1223 9.31605 70.0794 9.24824 70.0794 9.16537C70.0794 9.08249 70.045 9.01468 69.9935 9.01468C69.9506 9.01468 69.9076 8.96948 69.9076 8.9092C69.9076 8.84893 69.8561 8.75098 69.796 8.69824C69.7358 8.6455 69.5813 8.41194 69.4524 8.18592C69.3236 7.95989 69.1003 7.59071 68.9629 7.37222C68.8169 7.15373 68.7052 6.9277 68.7052 6.86742C68.7052 6.81468 68.6795 6.75441 68.6451 6.73934C68.5592 6.70921 68.293 6.33249 68.1642 6.05373C68.1126 5.94071 68.0353 5.8503 68.001 5.8503C67.9666 5.8503 67.9323 5.78249 67.9323 5.69962C67.9323 5.61674 67.8979 5.54893 67.8464 5.54893C67.8035 5.54893 67.7605 5.48113 67.7605 5.39825C67.7605 5.31537 67.7262 5.24756 67.6832 5.24756C67.6403 5.24756 67.5802 5.16469 67.5544 5.05921C67.52 4.95373 67.4599 4.87085 67.417 4.87085C67.3655 4.87085 67.3311 4.80304 67.3311 4.72017C67.3311 4.63729 67.2967 4.56948 67.2452 4.56948C67.2023 4.56948 67.1593 4.51674 67.1593 4.45647C67.1593 4.3962 67.082 4.34346 66.9876 4.34346C66.8931 4.34346 66.8158 4.38113 66.8158 4.43387Z" fill="white"/>
<path d="M35.0816 14.2352C34.5577 14.3482 34.0166 14.5743 33.6387 14.838C33.1664 15.1695 31.1911 16.9023 30.8733 17.264C30.7359 17.4222 30.5641 17.5955 30.5126 17.6482C30.4525 17.701 30.4009 17.7763 30.4009 17.8215C30.4009 17.8667 30.3666 17.9044 30.315 17.9044C30.2721 17.9044 30.2292 17.9571 30.2292 18.0174C30.2292 18.0777 30.1948 18.1304 30.1433 18.1304C30.1003 18.1304 30.0574 18.1756 30.0574 18.2359C30.0574 18.2962 30.023 18.3565 29.9887 18.3715C29.9457 18.3791 29.5936 18.801 29.19 19.2982C28.7949 19.7955 28.4428 20.2099 28.4084 20.2249C28.3655 20.24 28.3397 20.2928 28.3397 20.338C28.3397 20.3907 28.2452 20.5188 28.125 20.6318C28.0048 20.7448 27.9103 20.8729 27.9103 20.9181C27.9103 20.9558 27.8759 20.9934 27.8416 20.9934C27.7987 20.9934 27.7128 21.0838 27.6441 21.1969C27.5754 21.3174 27.4379 21.4907 27.3349 21.5962C27.2232 21.7017 27.1373 21.8222 27.1373 21.8749C27.1373 21.9201 27.103 21.9729 27.0686 21.988C27.0257 21.9955 26.6736 22.4174 26.2785 22.9147C25.8834 23.4119 25.5313 23.8263 25.4884 23.8414C25.454 23.8564 25.4197 23.9017 25.4197 23.9469C25.4197 24.0373 24.8185 24.7832 24.7154 24.8208C24.6725 24.8359 24.6467 24.8962 24.6467 24.9564C24.6467 25.0167 24.6124 25.0619 24.578 25.0619C24.5437 25.0619 24.4406 25.1749 24.3461 25.303C24.2602 25.4386 24.1658 25.5667 24.1314 25.5893C24.1056 25.6119 23.6762 26.1318 23.1867 26.7571C22.6972 27.3749 22.2591 27.8948 22.2248 27.9099C22.1904 27.9249 22.1561 27.9701 22.1561 28.0078C22.1561 28.053 22.1131 28.1208 22.0702 28.1736C21.7009 28.5578 21.5549 28.7236 21.4518 28.8969C21.3917 29.0023 21.323 29.1078 21.2887 29.1304C21.2629 29.153 21.0568 29.4016 20.8249 29.6804C20.6016 29.9667 20.3697 30.2153 20.3096 30.2304C20.2495 30.253 20.0348 30.2153 19.8286 30.1475C19.6225 30.0797 19.2618 29.9742 19.0213 29.914C18.7894 29.8537 18.5146 29.7708 18.4201 29.7332C18.2484 29.6729 17.4582 29.4167 16.4276 29.1003C16.127 29.0023 15.8608 28.9119 15.8264 28.8818C15.8007 28.8516 15.7062 28.829 15.6203 28.829C15.543 28.829 15.3627 28.7838 15.2253 28.7236C15.0964 28.6633 14.7529 28.5352 14.4695 28.4523C14.1861 28.3619 13.6106 28.166 13.1812 28.0229C12.7604 27.8797 12.331 27.729 12.2365 27.6989C11.9273 27.601 11.6439 27.4955 11.309 27.3674C11.1286 27.2996 10.9482 27.2469 10.8967 27.2469C10.8538 27.2469 10.6477 27.179 10.4587 27.0962C10.2612 27.0133 10.0293 26.9455 9.94341 26.9455C9.85752 26.9455 9.78882 26.9153 9.78882 26.8852C9.78882 26.8475 9.55693 26.7571 9.27351 26.6818C8.98151 26.6064 8.73244 26.516 8.70668 26.4784C8.68091 26.4482 8.58644 26.4181 8.49197 26.4181C8.40609 26.4181 8.26008 26.388 8.1742 26.3503C7.92514 26.2297 7.44419 26.064 7.08348 25.966C6.89453 25.9133 6.67123 25.8455 6.59394 25.8078C6.50805 25.7701 6.35346 25.74 6.24181 25.74C6.13017 25.74 6.00993 25.7099 5.96699 25.6722C5.8811 25.6119 5.08238 25.4386 4.16343 25.288C3.88001 25.2427 3.45918 25.1749 3.23588 25.1297C3.00399 25.0921 2.67764 25.0619 2.50587 25.0619C2.3341 25.0619 2.05068 25.0318 1.8875 24.9941C1.72433 24.9564 1.30349 24.9037 0.968548 24.8736L0.341596 24.8284V25.8756V26.9304L0.753838 26.9756C0.977136 26.9982 1.40656 27.0359 1.71574 27.0585C3.06411 27.164 4.55849 27.4352 5.45168 27.7366C5.7351 27.827 6.35346 28.0304 6.82582 28.1886C7.29818 28.3393 7.88219 28.5352 8.11408 28.6181C8.35456 28.701 8.71527 28.814 8.92998 28.8818C9.14469 28.9421 9.47105 29.0551 9.65999 29.1229C9.84893 29.1982 10.4845 29.4167 11.0771 29.6126C11.6697 29.816 12.2709 30.0195 12.4083 30.0647C12.5543 30.1174 12.8892 30.2379 13.164 30.3284C13.4303 30.4112 13.8769 30.5619 14.1517 30.6448C14.418 30.7352 14.7615 30.8558 14.8989 30.901C15.0449 30.9537 15.3884 31.0742 15.6719 31.1647C15.9553 31.2551 16.2902 31.3756 16.419 31.4359C16.5393 31.4962 16.7025 31.5414 16.7798 31.5414C16.8571 31.5414 16.9172 31.5715 16.9172 31.6167C16.9172 31.6544 16.9687 31.6921 17.0288 31.6921C17.1748 31.6921 17.6386 32.0537 17.7674 32.2722C17.819 32.3626 17.8619 32.5736 17.8619 32.7393C17.8619 33.101 17.484 33.5379 17.1233 33.5982C16.9 33.6359 13.7051 33.5756 8.28585 33.4249C6.67982 33.3797 4.39531 33.3194 3.21012 33.2893C2.03351 33.2592 0.899841 33.2441 0.702308 33.2592L0.341596 33.2893V41.9085V50.5276H10.9311C16.7454 50.5276 21.5549 50.5578 21.5978 50.5879C21.6494 50.6181 21.8383 50.8064 22.0273 51.0174C22.4824 51.5222 23.4014 52.2982 23.8308 52.5468C24.0198 52.6598 24.1915 52.7653 24.2173 52.7955C24.2431 52.8181 24.3891 52.8859 24.5437 52.9461C24.6897 53.0064 24.8185 53.0667 24.8185 53.0893C24.8185 53.1119 25.016 53.1948 25.2479 53.2776C25.4884 53.3605 25.6773 53.4509 25.6773 53.4735C25.6773 53.5037 25.8061 53.5564 25.9607 53.5941C26.1067 53.6242 20.4212 53.6694 13.3101 53.692L0.384538 53.7297L0.358773 54.7996L0.333008 55.877H34.4375H68.5419L68.5162 54.7996L68.4904 53.7297L50.0254 53.692C38.8175 53.6694 31.6634 53.6242 31.818 53.5865C31.964 53.5489 32.0928 53.4961 32.1186 53.4735C32.1444 53.4509 32.3934 53.3304 32.6768 53.2023C32.9603 53.0818 33.2093 52.9612 33.2351 52.9386C33.2609 52.916 33.3897 52.8482 33.5357 52.7879C33.7762 52.6824 34.051 52.5016 34.3172 52.2831C34.3773 52.2304 34.4461 52.1852 34.4718 52.1852C34.5319 52.1852 35.3822 51.4468 35.3822 51.3941C35.3822 51.3715 35.4681 51.266 35.5797 51.1681C35.8975 50.8667 35.9834 50.7612 35.9834 50.6859C35.9834 50.5653 36.3784 50.5427 40.1487 50.4598C43.9877 50.377 44.2712 50.3544 45.2245 49.955C45.7398 49.7441 46.298 49.3071 46.4956 48.953C46.8391 48.3804 46.9336 47.8831 47.1397 45.8413C47.1826 45.442 47.2427 45.0804 47.2685 45.0352C47.3029 44.99 47.3286 44.6359 47.3372 44.2516C47.3372 43.5133 47.2427 43.2496 46.8047 42.7674C46.633 42.5866 46.633 42.5338 46.7274 41.6372C46.882 40.1605 46.9164 38.4955 46.8047 37.9831C46.5643 36.9057 46.0404 36.3859 44.5718 35.753C43.3093 35.203 43.1461 35.1427 42.21 34.8715C41.0162 34.5325 41.0677 34.54 38.5169 34.0277C38.328 33.99 37.7526 33.8694 37.2287 33.764C36.095 33.5304 35.7515 33.4626 35.1245 33.3496C34.5148 33.2366 33.7504 33.0256 33.7504 32.9729C33.7504 32.9427 34.1197 32.7845 34.6522 32.5962C34.7467 32.566 35.0387 32.453 35.2963 32.3551C35.554 32.2496 35.8975 32.1215 36.0521 32.0612C36.1981 32.001 36.3269 31.9331 36.3269 31.903C36.3269 31.8653 36.3784 31.8427 36.4472 31.8427C36.6017 31.8427 37.5293 31.029 37.5293 30.8934C37.5293 30.8332 37.5636 30.7879 37.598 30.7879C37.7526 30.7879 37.9158 30.0345 37.9158 29.3112C37.9158 28.6181 37.8041 28.0982 37.6066 27.7592C37.5636 27.6838 37.5293 27.5934 37.5293 27.5482C37.5293 27.503 37.3489 27.1338 37.1342 26.7345C36.7134 25.951 36.6704 25.8756 36.4643 25.3784C36.1981 24.7455 36.3441 23.8489 36.7649 23.5701C37.6495 22.9825 38.5771 22.8017 40.8444 22.8017C42.3903 22.8017 42.3903 22.8017 42.5793 22.99C42.7596 23.1708 42.794 23.1784 43.9534 23.1784C44.6061 23.1784 45.1644 23.1633 45.1815 23.1482C45.1987 23.1332 45.2073 22.6736 45.1901 22.1311L45.1644 21.1441H43.8847C42.6823 21.1441 42.605 21.1517 42.5535 21.2948C42.4762 21.4982 42.3903 21.5058 40.3635 21.5434C39.0494 21.5736 38.5084 21.6112 38.2164 21.7017C38.0016 21.7695 37.744 21.8222 37.6323 21.8222C37.5293 21.8222 37.3747 21.8523 37.2888 21.89C37.2115 21.9277 36.9109 22.0558 36.6361 22.1688C35.9662 22.44 35.0387 23.2386 35.0387 23.5475C35.0387 23.6304 34.9957 23.7058 34.9442 23.7208C34.8755 23.7434 34.8411 24.0523 34.8325 24.6099L34.8239 25.4763L35.3221 26.3804C35.8202 27.277 36.0091 27.6311 36.2668 28.166C36.4386 28.5201 36.5416 29.3112 36.4643 29.7558C36.387 30.2078 35.8717 30.7277 35.2448 30.9763C34.9871 31.0818 34.7638 31.1647 34.7381 31.1647C34.7209 31.1647 34.4117 31.2852 34.0596 31.4284C33.6989 31.5715 33.3897 31.6921 33.3639 31.6921C33.2437 31.6921 31.6291 32.4153 31.5518 32.5058C31.4745 32.5962 31.3199 32.5811 30.5212 32.4153C30.0059 32.3023 29.4476 32.1818 29.2844 32.1516C29.1213 32.114 28.7949 32.0386 28.5544 31.9859C28.3225 31.9407 28.0048 31.8879 27.8588 31.8804C27.7128 31.8653 27.5152 31.8201 27.4208 31.7825C27.3263 31.7373 27.0429 31.677 26.7852 31.6544C26.5276 31.6242 26.2098 31.5715 26.0638 31.5263C25.9264 31.4811 25.6516 31.4208 25.4626 31.3907C25.2737 31.353 24.8185 31.2551 24.4406 31.1722C24.0713 31.0818 23.6934 31.014 23.5989 31.014C23.367 31.014 23.3241 30.8256 23.4959 30.5695C23.5818 30.4414 23.6762 30.3359 23.702 30.3359C23.7278 30.3359 23.8222 30.2153 23.9081 30.0722C24.0026 29.929 24.1056 29.8085 24.1486 29.8085C24.1829 29.8085 24.2173 29.7633 24.2173 29.703C24.2173 29.6427 24.2431 29.5825 24.286 29.5674C24.3891 29.5297 24.9902 28.7838 24.9902 28.6934C24.9902 28.6482 25.0246 28.603 25.059 28.5879C25.162 28.5503 25.935 27.5784 25.935 27.4804C25.935 27.4352 25.9607 27.3975 26.0037 27.3975C26.038 27.3975 26.184 27.2469 26.3214 27.0585C26.4675 26.8777 26.6049 26.7195 26.6478 26.7195C26.6822 26.7195 26.7079 26.6743 26.7079 26.614C26.7079 26.5612 26.7938 26.4332 26.9055 26.3277C27.0085 26.2297 27.1459 26.0564 27.2146 25.9434C27.2833 25.8304 27.3692 25.74 27.4122 25.74C27.4465 25.74 27.4809 25.6873 27.4809 25.627C27.4809 25.5667 27.5152 25.514 27.5496 25.514C27.5839 25.514 27.687 25.401 27.7815 25.2654C27.8674 25.1373 28.0048 24.964 28.0821 24.8886C28.1594 24.8208 28.2796 24.6626 28.3483 24.5496C28.417 24.4366 28.5544 24.2633 28.6661 24.1578C28.7691 24.0523 28.855 23.9318 28.855 23.879C28.855 23.8338 28.8894 23.7811 28.9237 23.766C28.9581 23.751 29.2587 23.4119 29.5764 23.0051C29.8942 22.6058 30.2034 22.2291 30.2549 22.1763C30.315 22.1311 30.4095 21.9955 30.4696 21.89C30.5383 21.7845 30.7015 21.5811 30.8389 21.438C30.9764 21.2948 31.1138 21.1215 31.1395 21.0462C31.1653 20.9784 31.2254 20.9181 31.2684 20.9181C31.3113 20.9181 31.3457 20.8729 31.3457 20.8126C31.3457 20.7523 31.38 20.6921 31.4144 20.677C31.4487 20.6619 31.9812 20.0291 32.591 19.2606C33.2007 18.4921 33.7246 17.8517 33.7676 17.8441C33.8019 17.8291 33.8363 17.7839 33.8363 17.7386C33.8363 17.6482 34.4375 16.9023 34.5405 16.8647C34.5835 16.8496 34.6092 16.7893 34.6092 16.7291C34.6092 16.6688 34.6436 16.6236 34.6779 16.6236C34.7209 16.6236 34.8239 16.503 34.9184 16.3599C35.0043 16.2167 35.1074 16.0962 35.1417 16.0962C35.1847 16.0962 35.2104 16.051 35.2104 15.9982C35.2104 15.938 35.2877 15.8325 35.3822 15.7571C35.4767 15.6818 35.554 15.5914 35.554 15.5537C35.554 15.516 35.6141 15.4332 35.6828 15.3654C35.8631 15.2147 36.5244 14.3558 36.4815 14.3332C36.4386 14.303 35.5454 14.1373 35.4853 14.1448C35.4509 14.1524 35.2705 14.19 35.0816 14.2352ZM29.9286 41.1852C29.9543 41.2229 30.1089 41.2605 30.2721 41.2605C30.4353 41.2605 30.5899 41.2907 30.6156 41.3359C30.6414 41.3735 30.7788 41.4112 30.9248 41.4112C31.0622 41.4112 31.1739 41.4414 31.1739 41.4715C31.1739 41.5092 31.3371 41.592 31.5432 41.6749C31.7407 41.7503 31.9211 41.8331 31.9468 41.8557C31.9726 41.8783 32.1444 41.9989 32.3333 42.127C32.8314 42.4434 33.6044 43.1441 33.7504 43.4078C33.8191 43.5283 33.905 43.6489 33.9308 43.6715C33.9565 43.6941 34.051 43.8448 34.1369 44.0105C34.6006 44.9448 34.6522 45.1934 34.6522 46.3989C34.6436 47.1674 34.6092 47.5441 34.5405 47.6044C34.4804 47.6571 34.4375 47.7927 34.4375 47.9057C34.4375 48.0187 34.4031 48.1167 34.3516 48.1167C34.3086 48.1167 34.2657 48.177 34.2657 48.2523C34.2657 48.5461 32.84 50.3016 32.5996 50.3016C32.548 50.3016 32.4536 50.3619 32.1787 50.5729C32.1186 50.6105 31.9468 50.7009 31.8008 50.7612C31.6462 50.8139 31.5174 50.8893 31.5174 50.9194C31.5174 50.9571 31.4487 50.9797 31.3628 50.9797C31.2769 50.9797 31.1739 51.0098 31.1224 51.0475C30.5899 51.4694 28.0477 51.5824 27.0515 51.2283C26.5963 51.0626 25.9779 50.7989 25.935 50.7537C25.9092 50.7235 25.8491 50.6859 25.7976 50.6708C25.6344 50.6181 25.059 50.2037 24.7154 49.8872C24.1572 49.3749 24.0455 49.2544 24.0455 49.1715C24.0455 49.1338 24.0112 49.0961 23.9596 49.0961C23.9167 49.0961 23.8738 49.0283 23.8738 48.953C23.8738 48.8701 23.848 48.7948 23.8136 48.7797C23.7106 48.742 23.3241 47.9811 23.221 47.627C23.118 47.2427 23.0836 45.2386 23.1781 45.1557C23.2296 45.1105 23.2726 45.005 23.2726 44.9146C23.2726 44.6057 23.7793 43.6489 24.1228 43.3023C24.2259 43.2044 24.3032 43.0989 24.3032 43.0688C24.3032 42.9708 25.351 42.0893 25.4712 42.0893C25.5399 42.0893 25.5914 42.0592 25.5914 42.029C25.5914 41.9688 26.7079 41.4489 27.0944 41.3283C27.7557 41.1249 29.8083 41.0194 29.9286 41.1852Z" fill="white"/>
<path d="M46.1521 20.798C46.1263 20.8583 46.1177 21.4384 46.1349 22.0863L46.1607 23.2692L46.4012 23.45L46.6416 23.6309H64.4969H82.3521L82.5926 23.45L82.8331 23.2692V21.9959V20.7302L64.514 20.7076C48.8145 20.6925 46.195 20.7076 46.1521 20.798Z" fill="white"/>
</svg>
