<svg width="53" height="84" viewBox="0 0 53 84" fill="none" xmlns="http://www.w3.org/2000/svg">
<path d="M15.6161 1.4461C13.3171 2.60625 12.873 3.30235 13.9441 4.23048C14.3883 4.64297 14.5973 4.66875 15.2504 4.43672L16.008 4.15313V7.60782V11.0625H13.3955H10.783V9.36095C10.783 7.27266 10.1299 5.95782 8.69301 5.1586C7.25613 4.35938 3.75538 4.38516 2.31851 5.21016C0.411383 6.2672 0.333008 6.6797 0.333008 14.2336C0.333008 20.5758 0.359133 20.9625 0.881633 21.8906C1.74376 23.3859 2.99776 23.9531 5.53188 23.9531C9.32001 23.9531 10.783 22.6125 10.783 19.1836V17.5078H13.3955H16.008V18.3586C16.008 19.7508 16.6089 20.0859 19.0908 20.0859H21.233V25.2422V30.3984H19.6916C17.2359 30.3984 17.3143 30.1664 17.3143 37.4883C17.3143 44.8102 17.2359 44.5781 19.6916 44.5781H21.233V51.668V58.7578H17.1053C12.4811 58.7578 12.0893 58.8867 12.0893 60.5109C12.0893 61.207 11.9848 61.3359 11.4361 61.3359C10.8091 61.3359 10.783 61.2586 10.783 59.7375C10.783 56.3086 9.26776 54.8906 5.55801 54.8906C2.97163 54.8906 1.76988 55.4063 0.907758 56.9016C0.359133 57.8813 0.333008 58.1648 0.333008 64.5586C0.333008 70.8492 0.359133 71.2359 0.881633 72.1641C1.74376 73.6594 2.99776 74.2266 5.45351 74.2266C9.18938 74.2266 10.783 72.8086 10.783 69.4828C10.783 67.8328 10.8091 67.7813 11.4361 67.7813C12.0109 67.7813 12.0893 67.8844 12.0893 68.632C12.0893 70.2047 12.5334 70.3594 17.1314 70.3594H21.233V71.0039V71.6484H17.7323C13.3433 71.6484 13.3955 71.5969 13.3955 74.768C13.3955 76.2117 13.291 77.0625 13.1081 77.0625C12.9775 77.0625 12.4289 77.3461 11.9325 77.6813C9.99926 78.9703 8.90201 81.6773 9.86863 82.7344C10.1299 83.018 10.5479 83.25 10.783 83.25C11.3316 83.25 12.0893 82.4508 12.0893 81.8578C12.0893 81.2648 12.8208 79.8984 13.1343 79.8984C13.291 79.8984 13.3955 80.182 13.3955 80.4914C13.3955 80.8266 13.6045 81.2906 13.8658 81.5227C14.3099 81.9094 15.5639 81.9609 26.5103 81.9609C37.953 81.9609 38.6845 81.9352 39.0764 81.4969C39.3376 81.2391 39.5205 80.775 39.5205 80.4656C39.5205 80.1563 39.625 79.8984 39.7295 79.8984C40.043 79.8984 40.8268 81.3422 40.8268 81.8836C40.8268 82.4766 41.6105 83.25 42.1853 83.25C42.3943 83.25 42.7861 83.018 43.0474 82.7344C44.014 81.6773 42.9168 78.9703 40.9835 77.6813C40.4871 77.3461 39.9385 77.0625 39.8079 77.0625C39.625 77.0625 39.5205 76.2117 39.5205 74.768C39.5205 73.0148 39.416 72.3703 39.1025 72.0609C38.7629 71.7 37.6656 71.6484 31.265 71.6484H23.8455V71.0039V70.3594H31.892C39.3899 70.3594 39.9908 70.3336 40.3826 69.8953C40.6439 69.6375 40.8268 69.0445 40.8268 68.6063C40.8268 67.9102 40.9313 67.7813 41.4799 67.7813C42.1069 67.7813 42.133 67.8328 42.133 69.4828C42.133 72.8086 43.6744 74.2266 47.358 74.2266C49.9183 74.2266 51.1723 73.6852 52.0344 72.1641C52.5569 71.2359 52.583 70.8492 52.583 64.5844C52.583 58.4484 52.5308 57.8813 52.0605 56.9531C51.2768 55.4578 49.9966 54.8906 47.358 54.8906C43.6483 54.8906 42.133 56.2828 42.133 59.6344C42.133 61.2844 42.1069 61.3359 41.4799 61.3359C40.9051 61.3359 40.8268 61.2328 40.8268 60.4594C40.8268 58.7836 40.6961 58.7578 33.8775 58.7578H27.7643V39.4219V20.0859H31.892C36.5161 20.0859 36.908 19.957 36.908 18.3328V17.5078H39.5205H42.133V19.2352C42.133 22.5867 43.6744 23.9531 47.5148 23.9531C49.9966 23.9531 51.3029 23.3602 52.0605 21.8906C52.5308 20.9625 52.583 20.3953 52.583 14.2852C52.583 8.175 52.5308 7.60782 52.0605 6.6797C51.2768 5.18438 49.9966 4.6172 47.358 4.6172C43.6221 4.6172 42.133 5.95782 42.133 9.38673V11.0625H39.5205H36.908V7.60782V4.15313L37.6656 4.43672C38.3188 4.66875 38.5278 4.64297 38.9719 4.23048C40.043 3.30235 39.5989 2.58047 37.2476 1.42032L35.8891 0.750008H26.4058L16.9224 0.775787L15.6161 1.4461ZM34.2955 3.97266V4.6172H26.458H18.6205V3.97266V3.32813H26.458H34.2955V3.97266ZM7.70026 7.6336C8.11826 8.02032 8.17051 8.56172 8.17051 14.2336C8.17051 21.5813 8.24888 21.375 5.61026 21.375C2.84101 21.375 2.94551 21.6328 2.94551 14.3367C2.94551 6.98907 2.86713 7.19532 5.50576 7.19532C6.73363 7.19532 7.36063 7.32423 7.70026 7.6336ZM21.233 12.3516V17.5078H19.9268H18.6205V12.3516V7.19532H19.9268H21.233V12.3516ZM34.2955 12.3516V17.5078H29.0705H23.8455V12.3516V7.19532H29.0705H34.2955V12.3516ZM49.5525 7.60782C49.9183 7.94298 49.9705 8.92266 49.9705 14.2078C49.9705 21.607 50.0489 21.375 47.4103 21.375C44.641 21.375 44.7455 21.6328 44.7455 14.3367C44.7455 6.96329 44.6671 7.19532 47.3841 7.19532C48.6381 7.19532 49.2651 7.32423 49.5525 7.60782ZM16.008 14.2852V14.9297H13.3955H10.783V14.2852V13.6406H13.3955H16.008V14.2852ZM42.133 14.2852V14.9297H39.5205H36.908V14.2852V13.6406H39.5205H42.133V14.2852ZM25.1518 25.2422V30.3984H24.4986H23.8455V25.2422V20.0859H24.4986H25.1518V25.2422ZM25.1518 37.4883V42H22.5393H19.9268V37.4883V32.9766H22.5393H25.1518V37.4883ZM25.1518 51.668V58.7578H24.4986H23.8455V51.668V44.5781H24.4986H25.1518V51.668ZM7.75251 57.8813C8.11826 58.2164 8.17051 59.1961 8.17051 64.4813C8.17051 71.8805 8.24888 71.6484 5.61026 71.6484C2.84101 71.6484 2.94551 71.9063 2.94551 64.6102C2.94551 57.2367 2.86713 57.4688 5.58413 57.4688C6.83813 57.4688 7.46513 57.5977 7.75251 57.8813ZM49.5525 57.8813C49.9183 58.2164 49.9705 59.1961 49.9705 64.4813C49.9705 71.8805 50.0489 71.6484 47.4103 71.6484C44.641 71.6484 44.7455 71.9063 44.7455 64.6102C44.7455 57.2367 44.6671 57.4688 47.3841 57.4688C48.6381 57.4688 49.2651 57.5977 49.5525 57.8813ZM22.5393 64.5586V67.7813H18.6205H14.7018V64.5586V61.3359H18.6205H22.5393V64.5586ZM27.7643 64.5586V67.7813H26.458H25.1518V64.5586V61.3359H26.458H27.7643V64.5586ZM38.2143 64.5586V67.7813H34.2955H30.3768V64.5586V61.3359H34.2955H38.2143V64.5586ZM12.0893 64.5586C12.0893 65.0742 11.9586 65.2031 11.4361 65.2031C10.9136 65.2031 10.783 65.0742 10.783 64.5586C10.783 64.043 10.9136 63.9141 11.4361 63.9141C11.9586 63.9141 12.0893 64.043 12.0893 64.5586ZM42.133 64.5586C42.133 65.0742 42.0024 65.2031 41.4799 65.2031C40.9574 65.2031 40.8268 65.0742 40.8268 64.5586C40.8268 64.043 40.9574 63.9141 41.4799 63.9141C42.0024 63.9141 42.133 64.043 42.133 64.5586ZM17.3143 76.8047V79.3828H16.6611H16.008V76.8047V74.2266H16.6611H17.3143V76.8047ZM21.233 76.8047V79.3828H20.5799H19.9268V76.8047V74.2266H20.5799H21.233V76.8047ZM25.1518 76.8047V79.3828H24.4986H23.8455V76.8047V74.2266H24.4986H25.1518V76.8047ZM29.0705 76.8047V79.3828H28.4174H27.7643V76.8047V74.2266H28.4174H29.0705V76.8047ZM32.9893 76.8047V79.3828H32.3361H31.683V76.8047V74.2266H32.3361H32.9893V76.8047ZM36.908 76.8047V79.3828H36.2549H35.6018V76.8047V74.2266H36.2549H36.908V76.8047Z" fill="white"/>
</svg>
