<svg width="56" height="56" viewBox="0 0 56 56" fill="none" xmlns="http://www.w3.org/2000/svg">
<path d="M48.9801 0.769746C48.0986 1.15873 47.0335 2.19603 46.6662 3.06662C46.2806 3.91868 46.1887 5.67838 46.4826 6.45635C46.7396 7.10466 45.9316 8.58651 45.4542 8.36424C45.2705 8.29014 44.8482 8.21605 44.4992 8.21605C43.8932 8.19753 43.8381 8.2531 43.0669 9.67938C42.6261 10.4944 42.2221 11.1983 42.1854 11.2353C42.1487 11.2724 41.7447 11.1983 41.2856 11.0686C40.5326 10.8649 40.4041 10.8649 40.0919 11.1612C39.6144 11.6058 39.6328 12.1059 40.147 12.4393C40.4959 12.6616 43.6545 13.5878 50.4308 15.403C52.5243 15.9772 53.0018 15.8846 52.9099 14.9029C52.8548 14.4213 52.7447 14.2731 52.1203 14.0508C51.7163 13.9027 51.3674 13.7545 51.3306 13.7359C51.2939 13.7174 51.4041 13.4396 51.5694 13.1062C51.9366 12.3838 51.7897 11.8836 51.0919 11.5317C50.7981 11.365 50.5593 11.1983 50.5593 11.1242C50.5593 11.0686 50.7614 10.6611 51.0001 10.2536C51.3674 9.64233 51.6061 9.43858 52.2672 9.27187C53.4425 8.95698 54.6729 7.67888 55.0401 6.4193C55.4074 5.2153 55.4074 4.69665 55.0769 3.62231C54.4892 1.65886 52.9099 0.510422 50.8164 0.510422C50.1186 0.528945 49.2922 0.640083 48.9801 0.769746ZM52.1754 2.54797C53.0018 3.06662 53.4976 3.95573 53.4976 4.95598C53.4976 6.38226 52.3039 7.73445 51.0735 7.73445C50.541 7.73445 49.9717 8.36424 49.3657 9.58676C49.1821 9.9387 49.0168 10.2721 48.9801 10.3092C48.9433 10.3462 48.5577 10.161 48.1169 9.88313L47.2906 9.40153L47.9333 8.19753L48.576 6.99352L48.2455 6.15998C47.4742 4.12243 48.7413 2.19603 50.8348 2.1775C51.2572 2.1775 51.8265 2.34421 52.1754 2.54797ZM48.0435 11.8836C48.925 12.3652 49.6412 12.8283 49.6412 12.9209C49.6412 13.2914 49.2371 13.2543 47.4191 12.7357C46.3724 12.4579 45.1604 12.1244 44.7196 11.9948L43.9483 11.791L44.2422 11.1983C44.7931 10.1239 44.8482 10.0869 45.6745 10.5685C46.0785 10.8093 47.1437 11.402 48.0435 11.8836Z" fill="white"/>
<path d="M50.0079 4.58455L49.6406 5.32548L50.2283 5.69594C50.5588 5.8997 50.9261 6.06641 51.0363 6.06641C51.1832 6.06641 51.8443 4.95502 51.8443 4.69569C51.8443 4.6216 50.5772 3.84363 50.467 3.84363C50.4119 3.84363 50.2099 4.17704 50.0079 4.58455Z" fill="white"/>
<path d="M38.4757 14.6808C38.0534 14.9957 37.9616 15.4217 38.237 15.8477C38.3105 15.9774 40.1469 16.5516 42.3138 17.1073C44.4808 17.663 47.1435 18.3669 48.2637 18.6633C50.0818 19.1449 50.3205 19.1819 50.6878 18.9226C51.202 18.6077 51.2387 17.8297 50.7796 17.5704C50.596 17.4778 47.9332 16.7554 44.8664 15.9774C41.7996 15.1809 39.1919 14.5141 39.0818 14.477C38.9899 14.44 38.7145 14.5326 38.4757 14.6808Z" fill="white"/>
<path d="M3.52882 17.2736C2.37189 17.6441 1.08642 18.8296 0.664047 19.9224C0.35186 20.7374 0.333496 21.7377 0.333496 36.6303C0.333496 51.7267 0.35186 52.5046 0.682411 53.1159C1.15987 54.0235 2.04134 54.9312 2.90445 55.3942C3.60228 55.7832 3.8961 55.8017 9.93784 55.8573C17.265 55.9314 17.7241 55.8573 19.0464 54.5236C20.3135 53.2641 20.442 52.6158 20.442 47.8924V43.8543H21.9662C23.9862 43.8543 24.1148 43.7247 24.1148 41.6501V40.1126L28.7609 40.2238C31.2951 40.2794 33.7191 40.3349 34.1231 40.3349C34.5272 40.3349 37.8143 40.2794 41.432 40.2238L47.9879 40.1312V41.576C47.9879 43.8914 47.9328 43.8543 51.6423 43.8543C54.3969 43.8543 54.7642 43.8173 55.0213 43.5209C55.2968 43.206 55.3335 42.4466 55.3335 36.3895V29.5915L54.8928 29.3137C54.5071 29.0543 53.9562 29.0173 51.4954 29.0728C49.4019 29.1099 48.4837 29.2025 48.3185 29.3692C48.1716 29.5174 48.0614 30.2213 48.0063 31.166L47.9512 32.7404H45.013C43.3969 32.7404 42.1115 32.6849 42.1482 32.5922C42.1849 32.5182 42.4971 31.9069 42.8277 31.2401C43.5255 29.8693 43.5071 29.5545 42.644 29.0728C41.2484 28.2949 41.2667 28.3875 42.1849 26.6463C42.644 25.7943 43.0664 25.0533 43.1031 25.0163C43.1398 24.9607 43.9846 25.1459 44.9762 25.4238C46.7575 25.9054 46.7575 25.9054 47.1248 25.5535C47.639 25.0163 47.4186 24.3124 46.6657 24.0531C44.9395 23.4974 35.7943 21.0709 35.4453 21.0709C34.9128 21.0709 34.5822 21.4043 34.5822 21.9229C34.5822 22.4601 34.821 22.6268 36.235 23.0158C36.8961 23.1825 37.4837 23.3677 37.5572 23.4233C37.649 23.4603 37.447 23.9975 37.1348 24.6088L36.5655 25.7016L35.7392 25.2386C34.7659 24.7014 34.1966 24.6458 33.811 25.0904C33.664 25.2756 33.1315 26.1832 32.6357 27.1279C31.6256 29.0543 31.6256 29.2025 32.856 29.9064C33.2417 30.1472 33.6457 30.3509 33.7559 30.388C34.1782 30.5362 33.4988 31.3697 32.8009 31.592C32.4153 31.7031 31.8093 32.018 31.4604 32.2774C30.8544 32.7404 30.7809 32.7404 27.4754 32.7404H24.1148V31.1845C24.1148 29.2025 23.9495 29.0358 21.8744 29.0358H20.442V25.0904C20.442 20.4966 20.2767 19.6816 19.1933 18.5332C17.7976 17.0884 17.8343 17.0884 10.7091 17.0513C5.62231 17.0143 4.20829 17.0699 3.52882 17.2736ZM7.58725 36.4451V54.042H6.66906H5.75086V36.4451V18.8481H6.66906H7.58725V36.4451ZM11.26 36.4451V54.042H10.3418H9.42365V36.4451V18.8481H10.3418H11.26V36.4451ZM14.9328 36.4451V54.042H14.0146H13.0964V36.4451V18.8481H14.0146H14.9328V36.4451ZM3.82264 53.8198C3.65737 53.9865 2.79426 53.2826 2.44535 52.6899C2.09643 52.1156 2.07807 51.634 2.07807 36.5747C2.07807 19.3667 2.02298 20.1447 3.25336 19.3852L3.82264 19.0333L3.87774 36.3895C3.8961 45.9289 3.87774 53.7642 3.82264 53.8198ZM17.5221 19.4223C18.6607 20.2373 18.6056 19.3852 18.6056 36.4451C18.6056 53.4123 18.6607 52.6158 17.5772 53.4678C17.3018 53.6901 17.008 53.8568 16.9345 53.8568C16.8427 53.8568 16.7692 46.1141 16.7692 36.4451C16.7692 26.8686 16.8243 19.0333 16.8794 19.0333C16.9345 19.0333 17.2283 19.2 17.5221 19.4223ZM40.3302 24.5162L41.1933 24.8125L40.5138 26.0906C40.1282 26.7945 39.7609 27.3687 39.6874 27.3687C39.4303 27.3687 38.255 26.5907 38.255 26.424C38.255 26.0906 39.265 24.2198 39.4303 24.2198C39.4671 24.2198 39.8711 24.3494 40.3302 24.5162ZM38.1448 28.5912L41.3769 30.3695L40.9178 31.1289C40.6607 31.555 40.3485 31.8884 40.22 31.8513C39.8343 31.7402 34.2333 28.6468 34.1231 28.4801C34.0313 28.3134 34.6924 26.813 34.8577 26.813C34.8944 26.813 36.3819 27.6095 38.1448 28.5912ZM22.2784 36.4451V42.002H21.3602H20.442V36.4451V30.8881H21.3602H22.2784V36.4451ZM53.4971 36.4451V42.002H51.6607H49.8243V36.4451V30.8881H51.6607H53.4971V36.4451ZM36.4003 31.8513C36.7676 32.0736 37.0797 32.2588 37.1165 32.2774C37.1348 32.2959 36.9696 32.6478 36.7492 33.0553C36.3635 33.7777 36.3452 33.8148 36.6574 34.778C37.043 35.982 37.043 36.1672 36.6206 37.1119C35.9595 38.5752 34.013 39.1494 32.6357 38.2974C32.0113 37.8899 31.2767 36.6303 31.2767 35.9264C31.2767 34.7224 32.4153 33.4073 33.6273 33.185C34.4353 33.0368 34.8393 32.7219 35.1332 31.981C35.4086 31.3327 35.5372 31.3141 36.4003 31.8513ZM29.6607 35.593C29.6056 36.2228 29.6791 36.9267 29.8627 37.4453L30.1565 38.2974H27.1265H24.1148V36.4451V34.5927H26.9245H29.7525L29.6607 35.593ZM44.3151 36.4451V38.2974H41.1933C39.4854 38.2974 38.0714 38.2603 38.0714 38.2233C38.0714 38.1862 38.1999 37.8343 38.3652 37.4453C38.5672 36.9637 38.6407 36.3895 38.5856 35.6671L38.5121 34.5927H41.4136H44.3151V36.4451ZM47.9879 36.4451V38.2974H47.0697H46.1515V36.4451V34.5927H47.0697H47.9879V36.4451Z" fill="white"/>
<path d="M36.5472 18.0702C35.7025 18.9963 36.1799 19.2557 41.6524 20.719C44.3886 21.4414 47.0147 22.1453 47.5289 22.2935C48.3185 22.5157 48.5022 22.4972 48.8511 22.2564C49.2918 21.9786 49.3836 21.534 49.1082 21.108C48.9796 20.8857 37.796 17.7368 37.1349 17.7368C36.9696 17.7368 36.7125 17.885 36.5472 18.0702Z" fill="white"/>
</svg>
