<svg width="102" height="56" viewBox="0 0 102 56" fill="none" xmlns="http://www.w3.org/2000/svg">
<path d="M101.166 0.509766H0.333008V39.1297H12.1494V49.7247H6.24121V55.8766H18.0576V39.1297H23.9658V49.7247H54.4088C55.6283 53.3047 58.9119 55.8766 62.763 55.8766C65.0312 55.8766 67.102 54.9837 68.6712 53.5194C70.2404 54.9839 72.3113 55.8766 74.5794 55.8766C76.8476 55.8766 78.9184 54.9837 80.4876 53.5194C82.0569 54.9839 84.1277 55.8766 86.3958 55.8766C91.2825 55.8766 95.2581 51.737 95.2581 46.6488C95.2581 43.5494 93.7815 40.8041 91.524 39.1297H101.166V0.509766ZM53.9007 43.5728H29.874V39.1297H53.9007V43.5728ZM62.763 49.7247C61.1341 49.7247 59.8089 48.3448 59.8089 46.6488C59.8089 44.9527 61.1341 43.5728 62.763 43.5728C64.3919 43.5728 65.7171 44.9527 65.7171 46.6488C65.7171 48.3448 64.3919 49.7247 62.763 49.7247ZM74.5794 49.7247C72.9505 49.7247 71.6253 48.3448 71.6253 46.6488C71.6253 44.9527 72.9505 43.5728 74.5794 43.5728C76.2083 43.5728 77.5335 44.9527 77.5335 46.6488C77.5335 48.3448 76.2083 49.7247 74.5794 49.7247ZM86.3958 49.7247C84.7669 49.7247 83.4417 48.3448 83.4417 46.6488C83.4417 44.9527 84.7669 43.5728 86.3958 43.5728C88.0247 43.5728 89.3499 44.9527 89.3499 46.6488C89.3499 48.3448 88.0247 49.7247 86.3958 49.7247ZM95.2581 32.9779H6.24121V6.66163H95.2581V32.9779Z" fill="white"/>
</svg>
