<svg width="83" height="56" viewBox="0 0 83 56" fill="none" xmlns="http://www.w3.org/2000/svg">
<path d="M54.9033 0.919004C53.9329 1.52638 53.7236 2.2905 53.7236 5.26861C53.7236 8.22713 53.9519 8.97166 55.0174 9.59863C55.7785 10.0493 57.0152 10.0689 57.643 9.63782C58.6895 8.93247 58.8607 8.3251 58.8607 5.22943C58.8607 2.76073 58.8036 2.3101 58.4802 1.7615C57.7762 0.546741 56.1209 0.154884 54.9033 0.919004Z" fill="white"/>
<path d="M62.8368 0.840569C61.7714 1.54591 61.6191 2.1141 61.6191 5.22936C61.6191 7.5805 61.6762 8.18788 61.9616 8.69729C62.3802 9.52019 63.1793 9.93164 64.3018 9.93164C65.0819 9.93164 65.2722 9.83368 65.9191 9.16752L66.6611 8.4034V5.24895V2.09451L66.0332 1.36958C65.4815 0.762197 65.2531 0.644641 64.3589 0.585862C63.6169 0.527083 63.1983 0.605454 62.8368 0.840569Z" fill="white"/>
<path d="M70.8471 0.781791C70.5997 0.918941 70.1811 1.33039 69.9338 1.70265C69.5152 2.36881 69.4962 2.50596 69.5533 5.48407L69.6104 8.59933L70.3143 9.26548C70.9041 9.81408 71.1705 9.93164 71.8935 9.93164C72.9399 9.93164 73.701 9.55938 74.1957 8.81485C74.7094 8.01154 74.8426 3.42682 74.3669 2.17288C73.8532 0.762197 72.1789 0.0960417 70.8471 0.781791Z" fill="white"/>
<path d="M50.489 5.11193C49.1191 5.42542 48.339 5.85646 47.3497 6.89487C46.2842 7.97248 45.7895 8.97171 45.5422 10.5391C45.2758 12.3025 45.2758 48.8431 45.5612 50.4106C45.9608 52.6637 47.2545 54.3487 49.3284 55.3675L50.3939 55.877H64.1878H77.9818L79.0663 55.3479C80.3791 54.721 81.6539 53.4474 82.2817 52.1543L82.7384 51.1747L82.7955 30.6022L82.8335 10.0297L82.1676 8.61905C81.1021 6.38546 79.3327 5.1903 76.7261 4.89641L75.6036 4.77885V6.38546V7.97248H76.5168C77.6394 7.97248 78.5526 8.44271 79.2946 9.40276L79.8844 10.1669L79.9415 29.9752C79.9796 43.4747 79.9415 50.0383 79.7893 50.5085C79.542 51.4098 78.3433 52.5462 77.373 52.8205C76.3836 53.1144 52.0111 53.1144 51.0027 52.8205C50.1655 52.5854 49.0811 51.6645 48.6244 50.8024C48.32 50.2538 48.301 48.6276 48.2439 31.092C48.2059 17.6513 48.2629 11.6951 48.4151 10.9506C48.7766 9.12846 50.0894 7.97248 51.8208 7.97248H52.7721V6.40506V4.83763L52.1633 4.85722C51.8208 4.85722 51.0598 4.97478 50.489 5.11193Z" fill="white"/>
<path d="M59.812 6.28798C59.812 7.56152 59.8501 7.73785 60.1735 7.83582C60.3828 7.89459 60.5731 7.89459 60.6111 7.875C60.6492 7.83582 60.6492 7.15007 60.6111 6.32717C60.554 5.01445 60.497 4.83811 60.1735 4.83811C59.8501 4.83811 59.812 4.99485 59.812 6.28798Z" fill="white"/>
<path d="M67.7455 4.95598C67.6694 5.03435 67.6123 5.7005 67.6123 6.44503C67.6123 7.73816 67.6313 7.77734 68.088 7.77734C68.5826 7.77734 68.5826 7.75775 68.5256 6.36666C68.4875 5.26946 68.3924 4.93638 68.1831 4.8776C68.0119 4.85801 67.8216 4.8776 67.7455 4.95598Z" fill="white"/>
<path d="M52.772 20.3159V24.8223H57.148H61.524V20.3159V15.8096H57.148H52.772V20.3159ZM60.4966 17.0635C60.7059 17.3574 60.763 18.2195 60.763 20.747V24.0386H57.148H53.533V20.4531C53.533 18.4742 53.5901 16.7892 53.6662 16.7108C53.7423 16.6325 55.2454 16.5933 57.0148 16.6325C59.9258 16.6912 60.2493 16.7304 60.4966 17.0635Z" fill="white"/>
<path d="M58.2139 19.9428L56.9391 21.9217L55.8927 20.9028C55.0175 20.0407 54.8082 19.9232 54.5608 20.1387C54.3135 20.3542 54.4657 20.5697 55.6453 21.8041L57.0342 23.2344L58.5183 20.942C59.3364 19.6881 59.9833 18.5321 59.9643 18.3754C59.8311 17.7092 59.4125 18.0815 58.2139 19.9428Z" fill="white"/>
<path d="M64.188 16.8872V17.9648H70.1812H76.1745V16.8872V15.8096H70.1812H64.188V16.8872Z" fill="white"/>
<path d="M39.644 16.5153C39.3777 16.5545 38.5215 16.6916 37.7414 16.8092C34.9826 17.2206 32.9659 18.0827 24.7656 22.3148L16.7936 26.4097L15.1383 24.8031C10.9335 20.7473 6.74777 18.2199 3.60845 17.8476C2.65714 17.7301 2.56201 17.7496 2.25759 18.2395C1.9722 18.6901 1.95317 18.7881 2.20051 19.1799C2.4098 19.513 2.80935 19.6893 3.77968 19.8853C6.57653 20.4339 10.0774 22.6283 13.5211 26.0374C14.187 26.684 14.7197 27.2326 14.7197 27.2522C14.7197 27.2914 14.3582 27.4481 13.9206 27.6244C13.426 27.8008 12.5698 27.8987 11.7707 27.8791C11.0477 27.8595 10.2866 27.9379 10.1154 28.0359C9.88709 28.173 9.63975 28.1534 9.29728 27.9575C8.93578 27.7616 8.76455 27.742 8.59331 27.9183C8.30792 28.2122 7.48979 28.2318 7.48979 27.9575C7.48979 27.644 6.78582 27.7224 6.65264 28.0555C6.59556 28.2122 6.38627 28.3494 6.17698 28.3494C5.98672 28.3494 5.77743 28.2122 5.70133 28.0555C5.54912 27.644 5.07347 27.6832 4.82612 28.1534C4.71197 28.3886 4.42658 28.5453 4.14118 28.5453C3.83676 28.5453 3.39916 28.8 2.99961 29.2115C2.44785 29.7796 2.35272 30.0148 2.35272 30.7985C2.35272 31.6018 2.25759 31.8369 1.53459 32.6598C1.07797 33.1692 0.621338 33.9333 0.507181 34.3448C0.41205 34.7758 0.316919 36.6567 0.335945 38.5376C0.373997 42.3386 0.507181 42.9656 1.64875 44.1804C2.58103 45.1796 3.58942 45.6498 5.11152 45.7478L6.44335 45.8262L6.67167 44.3959C6.97608 42.3582 7.54687 40.9671 8.68844 39.3997C12.3795 34.3644 19.5334 33.8745 23.8713 38.3221C25.6598 40.1638 26.8965 42.8677 26.8965 44.9445V45.787H35.1729H43.4493V37.6756V29.5641L33.7079 29.4662C23.2435 29.3682 22.6917 29.329 22.2731 28.4081C21.8546 27.4677 22.3112 27.0954 26.7062 24.8031C32.7566 21.6682 35.4012 20.3947 36.8852 19.944C38.4454 19.4738 41.4896 18.9448 42.6502 18.9448H43.4493V17.6713V16.3977L41.794 16.4173C40.8617 16.4369 39.9104 16.4761 39.644 16.5153ZM8.0035 31.4254C8.34597 32.3463 6.27212 34.717 4.17923 35.7946C1.42044 37.2249 0.887704 35.8338 3.26598 33.4239C5.14957 31.543 7.642 30.4654 8.0035 31.4254Z" fill="white"/>
<path d="M64.188 21.0018V21.6875H70.1812H76.1745V21.0018V20.316H70.1812H64.188V21.0018Z" fill="white"/>
<path d="M64.188 23.9412V24.627H70.1812H76.1745V23.9412V23.2555H70.1812H64.188V23.9412Z" fill="white"/>
<path d="M52.2012 28.0552V29.1328H58.1944H64.1877V28.0552V26.9776H58.1944H52.2012V28.0552Z" fill="white"/>
<path d="M66.2808 31.4839V35.9902H70.6568H75.0138L75.0709 31.4839L75.1279 26.9775H70.7139H66.2808V31.4839ZM73.8912 28.1531C74.2337 28.5058 74.2718 28.7997 74.2718 31.8757V35.2065H70.7519C68.8112 35.2065 67.2321 35.1477 67.2321 35.0498C67.2321 34.9714 67.213 33.306 67.175 31.3271L67.1369 27.7612H70.3333C73.2634 27.7612 73.5488 27.8004 73.8912 28.1531Z" fill="white"/>
<path d="M52.2012 32.1697V32.8555H58.2134H64.2067L64.1496 32.2089L64.0925 31.5819L58.1564 31.5232L52.2012 31.484V32.1697Z" fill="white"/>
<path d="M52.2012 35.1092V35.7949H58.1944H64.1877V35.1092V34.4234H58.1944H52.2012V35.1092Z" fill="white"/>
<path d="M52.772 42.4565V46.9629H57.148H61.524V42.4565V37.9502H57.148H52.772V42.4565ZM60.3254 39.1649C60.7439 39.5764 60.763 39.6939 60.763 42.8876V46.1792L57.2051 46.14L53.6282 46.0812L53.5711 42.6721C53.533 40.8107 53.552 39.1454 53.6091 39.0082C53.6852 38.7927 54.3702 38.7339 56.8055 38.7339C59.6975 38.7339 59.9068 38.7535 60.3254 39.1649Z" fill="white"/>
<path d="M15.0434 38.3416C8.63153 40.007 7.35677 48.9021 13.0456 52.3309C18.3349 55.5245 24.994 50.8614 24.0237 44.6505C23.6242 42.0642 21.7596 39.5955 19.5145 38.7138C18.2968 38.2436 16.1659 38.0673 15.0434 38.3416ZM18.5822 41.8291C19.4384 42.1818 20.5419 43.4553 20.8083 44.3958C21.303 46.2767 20.618 48.3535 19.153 49.3919C18.2017 50.0777 16.5464 50.2932 15.3668 49.9013C13.4261 49.2352 12.1704 46.9624 12.608 44.9052C13.2359 42.0446 15.8234 40.7123 18.5822 41.8291Z" fill="white"/>
<path d="M63.4648 39.1644L63.5219 40.2028L69.4771 40.2616L75.4132 40.3008V39.2232V38.1456H69.401H63.4077L63.4648 39.1644Z" fill="white"/>
<path d="M63.4268 43.2403V43.8281H69.42H75.4133V43.2403V42.6526H69.42H63.4268V43.2403Z" fill="white"/>
<path d="M63.5029 45.5705C63.4648 45.6096 63.4268 45.9035 63.4268 46.217V46.7656H69.42H75.4133V46.1778V45.6096L69.4961 45.5509C66.2426 45.5117 63.5409 45.5313 63.5029 45.5705Z" fill="white"/>
</svg>
