<svg width="63" height="84" viewBox="0 0 63 84" fill="none" xmlns="http://www.w3.org/2000/svg">
<path d="M38.5955 0.86611C38.5033 0.897114 38.3957 0.98237 38.3419 1.04438C38.2497 1.15289 38.2112 1.14514 37.9806 1.00562C37.6732 0.827356 37.604 0.850609 37.4042 1.25365C37.2043 1.65668 37.2043 1.66443 37.5195 1.81945C37.8346 1.97446 37.8577 1.8737 37.2274 2.98206C37.0198 3.35409 36.82 3.67962 36.7816 3.69512C36.7508 3.71838 36.4511 3.57886 36.1282 3.3851C35.4595 2.98206 35.1905 2.90455 34.9599 3.02856C34.7447 3.14482 33.9453 4.57871 33.9453 4.84223C33.9453 5.13676 34.076 5.23752 35.3442 5.97384C35.9668 6.33037 36.4664 6.64815 36.4511 6.6714C35.6209 8.04328 34.2374 10.5545 34.1759 10.787C34.0375 11.2986 34.199 11.8876 34.5756 12.2364C34.6678 12.3217 35.3058 12.7247 35.9822 13.12C36.6586 13.5075 38.7493 14.7322 40.6324 15.825C42.5156 16.9179 46.351 19.1501 49.1566 20.7855C52.4232 22.6844 54.3756 23.7772 54.5754 23.816C54.9597 23.8935 55.4209 23.7772 55.7437 23.537C56.0281 23.32 56.1511 23.1184 57.3579 21.0025C57.8652 20.1189 58.311 19.3903 58.3494 19.3903C58.3955 19.3903 58.9259 19.6926 59.5408 20.0491C60.7475 20.7622 61.0166 20.8397 61.2856 20.5297C61.5854 20.1964 62.1541 19.1036 62.1541 18.871C62.1541 18.5843 62.0312 18.468 61.2472 18.003L60.6399 17.6464L61.1088 16.8171C61.3701 16.3598 61.6084 15.9645 61.6315 15.9413C61.6545 15.9103 61.7852 15.949 61.9159 16.011C62.2464 16.1893 62.2771 16.1738 62.5077 15.7863C62.7076 15.4452 62.7076 15.4297 62.5692 15.3212C62.4847 15.2592 62.3617 15.1894 62.2848 15.1584C62.1772 15.1274 62.1618 15.0654 62.2003 14.8562C62.2694 14.4841 62.1388 14.3136 61.4777 13.9261C60.8244 13.5385 60.54 13.4998 60.3017 13.7401C60.1403 13.9028 60.1326 13.9028 59.8867 13.7633C59.5869 13.6005 59.51 13.6471 59.2718 14.0888C59.1257 14.3679 59.1257 14.3756 59.2641 14.4609C59.7406 14.7477 59.7406 14.7012 59.2026 15.6312C58.9259 16.0963 58.6722 16.4761 58.6338 16.4683C58.5877 16.4606 57.819 16.0188 56.9121 15.4917C56.0128 14.9647 54.2065 13.9106 52.9075 13.1588C51.1704 12.1434 50.5478 11.7481 50.5785 11.6629C50.6016 11.6009 50.886 11.1048 51.2011 10.5545C51.5163 10.0042 51.793 9.47716 51.816 9.36865C51.8852 9.11288 51.6777 8.72534 51.3933 8.57808C51.0781 8.41531 51.0551 8.33781 51.2396 8.03553C51.4855 7.63249 51.4087 7.43872 50.8475 7.10544C50.1942 6.72566 50.0021 6.74116 49.7407 7.19845C49.6562 7.33796 49.5639 7.45423 49.5332 7.45423C49.5024 7.45423 49.341 7.38447 49.1719 7.29146C48.7722 7.08219 48.4571 7.1442 48.2188 7.47748C48.1189 7.61699 47.8038 8.14404 47.5117 8.65559C47.2196 9.16713 46.9736 9.60118 46.9583 9.62443C46.9429 9.63993 46.7507 9.55467 46.5278 9.43066C46.1743 9.23689 40.5325 5.95834 39.2335 5.19876L38.7185 4.89649L39.2258 4.00515L39.7331 3.12157L40.0406 3.27658C40.3788 3.45485 40.3634 3.4626 40.6401 2.93555L40.7938 2.64878L40.5171 2.47826C40.2788 2.33875 40.2481 2.28449 40.2865 2.12173C40.3711 1.77295 40.1943 1.52492 39.6101 1.19164C38.9645 0.827356 38.8031 0.773102 38.5955 0.86611Z" fill="white"/>
<path d="M29.5644 11.9581C29.3722 11.9969 28.9341 12.1674 28.5959 12.3379C27.5967 12.834 27.3046 13.1982 25.629 16.1358C24.845 17.5231 24.1378 18.8253 24.0687 19.0423C23.8919 19.5383 23.8304 20.6312 23.9457 21.1737C24.0687 21.7628 24.3607 22.3674 24.7758 22.9022L25.1294 23.3594L24.9449 23.6772C24.4991 24.4833 24.3531 24.7003 24.2531 24.6693C23.9764 24.5841 22.6236 24.5763 22.2624 24.6538C21.5476 24.8088 20.8865 25.1809 20.3408 25.7389C19.918 26.173 19.6183 26.6302 18.4269 28.7152C16.9588 31.2807 16.7052 31.8232 16.6206 32.6061C16.4823 33.8229 17.0741 35.3343 17.9811 36.0861C18.3577 36.3962 18.5345 36.4969 30.7558 43.6121C42.2853 50.3242 41.8164 50.0529 42.316 50.2467C42.8464 50.456 43.884 50.5257 44.4989 50.394C45.1984 50.2545 45.9901 49.8049 46.5127 49.2779C46.8894 48.8903 47.2429 48.34 48.3959 46.3248C49.1953 44.9297 49.8947 43.6043 50.0023 43.3021C50.3252 42.341 50.2329 41.0699 49.7717 40.1475C49.6949 39.9925 49.472 39.667 49.2798 39.4267L48.9339 39.0004L49.2875 38.3804C49.4797 38.0393 49.6641 37.7448 49.6949 37.7215C49.7333 37.706 50.0485 37.7293 50.402 37.7758C51.9239 37.9773 53.4766 37.2565 54.2913 35.9621C54.6526 35.3886 56.8355 31.5907 57.0661 31.1257C57.8193 29.6298 57.4888 27.6999 56.2821 26.4907C55.8824 26.0877 55.3136 25.7312 52.5465 24.119C49.7641 22.5069 42.047 18.0192 38.5574 15.9808C31.8703 12.0821 31.878 12.0821 31.1862 11.9504C30.702 11.8574 30.0563 11.8651 29.5644 11.9581Z" fill="white"/>
<path d="M18.4041 38.1248C18.1504 38.4194 17.4971 39.6207 17.4971 39.799C17.4971 39.9075 17.5586 40.0625 17.6354 40.1478C17.7046 40.233 19.9106 41.5507 22.5316 43.0698C25.1527 44.5967 27.9351 46.2166 28.7191 46.6739C29.5031 47.1312 31.3017 48.1775 32.716 48.9991C34.1303 49.8207 36.0903 50.9601 37.0588 51.5259C38.0349 52.0994 38.9035 52.5645 39.0034 52.5645C39.3262 52.5645 39.4646 52.4172 39.895 51.6499C40.3562 50.8283 40.4023 50.65 40.1948 50.4098C40.1179 50.3245 38.0349 49.0766 35.5599 47.635C33.0849 46.2011 29.1419 43.9069 26.7975 42.5428C22.8391 40.2408 21.1711 39.272 19.6031 38.3574C18.9344 37.9698 18.5962 37.9001 18.4041 38.1248Z" fill="white"/>
<path d="M19.8716 43.3029C19.7564 43.3649 19.5873 43.5432 19.495 43.7059C19.349 43.9462 17.4043 47.3565 12.977 55.084C12.6619 55.6343 11.8932 56.9597 11.2783 58.0293C10.3022 59.7267 10.1638 60.0134 10.1638 60.3157C10.1561 60.525 10.2099 60.742 10.2945 60.866C10.3713 60.9823 10.9401 61.3698 11.5627 61.7341C13.638 62.9432 21.1245 67.2991 22.8693 68.3067C25.3213 69.7328 25.1906 69.7716 26.5664 67.3611C27.0891 66.4465 27.8193 65.1754 28.1806 64.5399C28.5495 63.8966 29.9023 61.5481 31.1782 59.3081C32.4542 57.0682 33.807 54.7119 34.1759 54.0764C34.5448 53.4331 34.9061 52.8053 34.9753 52.6658C35.1444 52.317 35.129 51.9372 34.9292 51.6349C34.7524 51.3869 34.7216 51.3636 25.99 46.2869C24.4296 45.3801 22.5926 44.3105 21.9085 43.9074C20.5942 43.1401 20.3175 43.0549 19.8716 43.3029ZM21.7241 45.2018C22.2006 45.5351 25.744 47.7363 27.0276 48.5114C28.8646 49.612 29.8024 50.1313 31.6394 51.0536C32.4618 51.4644 33.1536 51.8209 33.169 51.8364C33.2459 51.9139 32.8846 52.1 32.5695 52.1465C31.7701 52.2705 30.8785 51.9682 26.4127 50.046C23.7302 48.8912 23.3151 48.7361 22.877 48.7051C21.9623 48.6509 20.7171 49.2322 19.8409 50.1158C19.2952 50.6738 18.9032 51.2629 17.3352 53.8981C15.0754 57.696 14.3298 58.7191 13.0846 59.7112C12.7387 59.9902 12.1161 60.3622 12.1161 60.2925C12.1161 60.277 12.3467 59.8507 12.6234 59.3391C12.9001 58.8353 13.4766 57.7192 13.8994 56.8666C15.0831 54.4872 16.2821 52.41 19.4796 47.2015L20.9862 44.7445L21.2629 44.9073C21.4089 45.0003 21.6164 45.132 21.7241 45.2018Z" fill="white"/>
<path d="M4.78357 61.5316C4.37619 62.1827 1.17868 67.7942 0.901975 68.3678C0.486914 69.1893 0.333187 69.9101 0.333187 71.0108C0.325501 72.3671 0.563777 73.1965 1.26323 74.3048C1.63218 74.8861 2.37006 75.6612 2.73901 75.855C2.96191 75.9712 2.9696 75.979 2.8543 76.2037C2.63909 76.6223 2.70058 76.8936 3.10795 77.2811C4.04568 78.1879 7.5199 80.7767 8.65748 81.4122C9.95647 82.1408 14.1763 83.877 14.6451 83.877C14.9987 83.877 15.2216 83.7452 15.4291 83.3887C15.5367 83.2104 17.0356 80.5984 18.7573 77.5834L21.8933 72.1036L22.3084 72.3361C22.7773 72.6074 22.9771 72.5841 23.1462 72.2509C23.3461 71.8633 23.2922 71.7316 22.8772 71.468C22.6697 71.3363 22.4929 71.189 22.4929 71.1425C22.4929 71.0883 22.6005 70.8712 22.7235 70.662C22.8464 70.4449 22.954 70.1737 22.954 70.0574C22.954 69.5846 22.808 69.4684 20.6712 68.2282C19.5413 67.5694 17.8657 66.5928 16.9587 66.0658C16.0517 65.5387 14.8219 64.8257 14.2301 64.4769C13.6382 64.1359 12.7466 63.6166 12.2547 63.322C11.7551 63.0275 11.2555 62.7717 11.1325 62.7485C10.7866 62.6787 10.4561 62.8957 10.1871 63.3763C10.0564 63.6088 9.92572 63.8181 9.89498 63.8336C9.84117 63.8723 9.6567 63.7638 6.98186 62.2059C6.08256 61.6789 5.26012 61.2448 5.1602 61.2448C5.02185 61.2448 4.91424 61.3301 4.78357 61.5316ZM6.83582 63.8336C7.16633 63.9731 7.3508 64.2676 7.3508 64.6629C7.3508 65.1047 6.96649 65.5077 6.53605 65.5077C5.8366 65.5077 5.42154 64.8877 5.70593 64.2909C5.79817 64.1126 5.95189 63.9421 6.12099 63.8646C6.44382 63.6941 6.51299 63.6941 6.83582 63.8336ZM12.0933 66.4146C15.4368 68.5073 17.197 69.5381 19.1954 70.5767C20.5021 71.2588 20.7096 71.3905 20.6097 71.4758C20.5252 71.5456 20.3253 71.5611 19.9333 71.5378C19.2416 71.4913 18.519 71.2123 15.1524 69.6854L12.6928 68.5693H12.0779C11.5322 68.5693 11.4015 68.6003 10.8788 68.8483C9.85655 69.3443 9.67976 69.5536 8.15787 72.0959C6.87425 74.2351 6.24397 75.1574 5.62138 75.7774C5.12946 76.2657 4.32239 76.816 4.23016 76.723C4.2071 76.7075 4.29933 76.506 4.42231 76.289C4.55298 76.072 5.03722 75.1341 5.4984 74.2041C5.95958 73.2817 6.78202 71.7703 7.32774 70.8557C8.47301 68.9258 10.5791 65.5077 10.6252 65.5077C10.6406 65.5077 11.3016 65.9108 12.0933 66.4146ZM5.39079 67.1586C5.8366 67.802 4.97573 68.5538 4.39157 68.0422C3.99957 67.7089 4.19172 66.9649 4.69133 66.8874C4.92961 66.8486 5.26012 66.9726 5.39079 67.1586ZM3.72286 69.6621C3.96113 69.8249 4.14561 70.2667 4.08412 70.5535C4.02262 70.8325 3.65368 71.2123 3.40003 71.2588C3.1387 71.313 2.65446 71.127 2.49305 70.9177C2.31626 70.6852 2.31626 70.1349 2.48536 69.8714C2.74669 69.4761 3.29242 69.3831 3.72286 69.6621Z" fill="white"/>
</svg>
