<svg width="83" height="63" viewBox="0 0 83 63" fill="none" xmlns="http://www.w3.org/2000/svg">
<path d="M69.814 6.23437C64.4772 11.5453 64.039 11.9062 63.1624 11.9062C62.5179 11.9062 61.9765 11.7 61.3835 11.1844C59.2179 9.32812 57.3358 8.45156 54.4483 8.01328C51.3804 7.54922 47.6679 8.5289 45.0897 10.4883L44.239 11.1328L43.6202 10.4625C42.7952 9.56015 41.7124 9.04453 41.1452 9.25078C40.8874 9.32812 40.2687 9.79218 39.753 10.282L38.8507 11.1586L37.5874 10.4367C36.5304 9.86953 35.989 9.74062 34.4937 9.74062C31.2452 9.71484 31.4257 9.56015 18.6124 22.425C10.9812 30.082 6.95928 34.2844 6.6499 34.9805C6.36631 35.5734 6.1085 36.7852 6.05693 37.8164C5.97959 39.3891 6.05693 39.8016 6.70146 41.0648L7.44912 42.5344L6.46943 43.5914C5.23193 44.8805 5.23193 45.5508 6.41787 46.943L7.37178 48.0258L3.83975 51.5836C1.00381 54.4711 0.333496 55.2703 0.333496 55.8633C0.333496 56.9203 5.85068 62.4375 6.90771 62.4375C7.50068 62.4375 8.2999 61.7672 11.1874 58.9312L14.7452 55.3992L15.828 56.3531C17.2202 57.5391 17.8647 57.5391 19.2054 56.3016L20.2624 55.2961L21.4226 55.9406C22.196 56.3789 23.0983 56.6109 24.3101 56.7141C27.6101 56.9461 27.5327 56.9977 40.4749 44.0555C48.1062 36.3984 52.0507 32.2734 52.4374 31.5C53.3655 29.7469 53.314 26.9109 52.3343 25.2094L51.6124 23.9203L52.489 23.018C53.9585 21.4711 53.9327 20.8781 52.3343 19.1766L51.5351 18.3516L52.1796 18.3C53.3913 18.2227 53.8038 18.3773 54.8351 19.2281C57.439 21.3422 59.8882 22.2187 63.1366 22.2187C65.7663 22.2187 68.0093 21.5742 70.0976 20.182C70.9226 19.6406 74.1452 16.65 77.239 13.5305C81.9054 8.8125 82.8335 7.75547 82.8335 7.13671C82.8335 6.07969 77.3421 0.562496 76.2593 0.562496C75.6405 0.562496 74.5577 1.5164 69.814 6.23437ZM73.8874 11.9836C71.2062 14.6648 68.5765 17.1141 68.0093 17.4492C66.6171 18.2742 65.0702 18.6352 63.0851 18.6352C60.8163 18.6352 58.9601 18.0422 57.439 16.8047C54.7319 14.6133 52.5405 14.2008 50.1687 15.4383L49.1374 15.9797L47.8999 14.7422L46.6882 13.5047L47.8483 12.8344C49.8335 11.6742 51.2257 11.3133 53.3913 11.4422C55.6858 11.5711 57.1812 12.1641 58.8569 13.582C59.5015 14.1234 60.378 14.7164 60.8421 14.8969C62.0538 15.4125 64.4515 15.3352 65.689 14.768C66.3335 14.4586 68.5507 12.4219 71.4897 9.48281L76.2593 4.6875L77.471 5.89922L78.7085 7.13671L73.8874 11.9836ZM36.1694 13.582C36.5304 13.7625 37.0976 14.2266 37.4327 14.5875C38.3351 15.5414 39.289 15.4641 40.578 14.3039L41.6093 13.35L45.5022 17.2687L49.421 21.1617L48.4671 22.193C47.2812 23.5336 47.2296 24.4102 48.2866 25.4414C48.6991 25.8539 49.2405 26.6789 49.4726 27.2977C50.2718 29.3859 50.2976 29.3859 37.7937 41.8641C27.9194 51.7125 26.3726 53.1305 25.5476 53.2852C24.1812 53.543 23.5366 53.3109 22.0929 52.125C21.3968 51.5578 20.5718 51.0937 20.2366 51.0937C19.9015 51.0937 19.1796 51.532 18.5608 52.125L17.478 53.1305L13.5593 49.2375L9.64053 45.3187L10.646 44.2102C11.239 43.5914 11.6772 42.8437 11.6772 42.5344C11.6772 42.1992 11.2132 41.3742 10.646 40.6781C9.46006 39.2344 9.22803 38.5898 9.48584 37.2234C9.64053 36.3984 11.0585 34.8516 20.9069 24.9773C29.8015 16.0828 32.4054 13.6078 33.2046 13.3242C34.2616 12.9633 35.0608 13.0406 36.1694 13.582ZM11.1616 51.7383L12.296 52.8984L9.61475 55.6055L6.9335 58.3125L5.696 57.1008L4.4585 55.8891L7.08818 53.2336C8.55771 51.7641 9.79521 50.5781 9.87256 50.5781C9.9499 50.5781 10.5429 51.0937 11.1616 51.7383Z" fill="white"/>
<path d="M33.8492 17.2438C33.3078 17.4243 22.8148 27.8399 22.2476 28.768C21.371 30.1344 22.6601 31.836 24.1039 31.2688C24.439 31.1399 27.2492 28.4844 30.3429 25.3649C35.2929 20.3891 35.989 19.5899 35.989 18.868C35.989 17.7078 34.9062 16.8828 33.8492 17.2438Z" fill="white"/>
</svg>
