<svg width="56" height="75" viewBox="0 0 56 75" fill="none" xmlns="http://www.w3.org/2000/svg">
<path d="M13.6902 0.598366C8.97587 1.5936 4.34015 5.23408 2.19253 9.60789C1.14491 11.7817 0.359198 14.6365 0.333008 16.3388C0.333008 17.2031 0.333008 17.2031 1.61634 17.2031H2.87348L3.05682 15.6317C3.81634 8.95313 9.13301 3.66265 15.864 2.90313L17.3568 2.71979V1.46265V0.179317L16.3878 0.205507C15.8378 0.205507 14.633 0.388842 13.6902 0.598366Z" fill="white"/>
<path d="M38.3096 1.48884C38.3096 2.79836 38.3096 2.79836 39.1739 2.79836C39.6453 2.79836 40.7453 2.9817 41.5834 3.19122C47.581 4.73646 51.9286 9.66027 52.6096 15.6841L52.7929 17.2031H54.05C55.3334 17.2031 55.3334 17.2031 55.3334 16.3388C55.3072 14.6365 54.5215 11.7817 53.4739 9.60789C51.9286 6.49122 49.0215 3.58408 45.9048 2.03884C43.731 0.991222 40.8762 0.205507 39.1739 0.179317C38.3096 0.179317 38.3096 0.179317 38.3096 1.48884Z" fill="white"/>
<path d="M14.6067 5.78407C9.83998 6.93646 6.30427 10.8912 5.70189 15.7103L5.51855 17.2031H6.82808H8.11141L8.29475 15.946C8.50427 14.3222 9.47332 12.2793 10.6781 10.9436C11.8305 9.66027 14.3186 8.37693 16.0733 8.14122L17.3567 7.95788V6.70074C17.3567 5.46979 17.3305 5.41741 16.6495 5.4436C16.2305 5.4436 15.3138 5.60074 14.6067 5.78407Z" fill="white"/>
<path d="M38.3096 6.70074V7.95788L39.5929 8.14122C41.3477 8.37693 43.8358 9.66027 44.9881 10.9436C46.1929 12.2793 47.1619 14.3222 47.3715 15.946L47.5548 17.2031H48.8381H50.1477L49.9643 15.7103C49.4929 11.965 46.9262 8.29836 43.6524 6.72693C42.2905 6.04598 40.0381 5.41741 39.0429 5.41741C38.3358 5.41741 38.3096 5.46979 38.3096 6.70074Z" fill="white"/>
<path d="M23.1188 14.7932C20.0021 15.6051 18.2997 16.967 17.1211 19.5599C16.4402 21.0266 16.414 23.1218 16.964 31.6075C17.3568 37.7099 17.3568 37.8147 16.6759 46.3266L15.9688 54.8908L16.5973 56.148C16.9902 56.8813 17.7235 57.7194 18.3783 58.1908L19.5045 58.9766H27.833H36.1616L37.2878 58.1908C37.9426 57.7194 38.6759 56.8813 39.0688 56.148L39.6973 54.8908L38.9902 46.3266C38.3092 37.8147 38.3092 37.7099 38.7021 31.4766C39.2783 21.9694 39.2521 21.0266 38.283 19.0885C37.1045 16.679 35.4021 15.4742 32.233 14.7147C29.9807 14.1909 25.2926 14.217 23.1188 14.7932ZM22.2021 19.0361C22.8307 19.717 22.5688 20.6075 21.4164 21.629C20.3426 22.5718 19.714 22.6504 19.0592 21.917C18.4307 21.2361 18.6926 20.3456 19.8449 19.3242C20.9188 18.3813 21.5473 18.3028 22.2021 19.0361ZM35.9783 19.5337C37.0783 20.6075 37.2616 21.367 36.5807 22.0218C35.9259 22.7028 35.1402 22.4932 34.0664 21.3932C32.9664 20.2147 32.8616 19.717 33.5164 18.9837C34.1711 18.2504 34.8783 18.4075 35.9783 19.5337ZM31.4997 25.3218C34.3021 25.767 36.6854 26.5789 36.8688 27.129C36.9473 27.417 36.7116 29.4337 36.3449 31.6337C35.7688 35.1694 35.6902 36.4004 35.6902 42.1099C35.6902 47.9504 35.7426 48.867 36.3449 51.7742C37.1307 55.5718 37.1045 55.5456 36.5807 56.0694C36.2402 56.4361 35.0616 56.4885 27.833 56.4885C20.6045 56.4885 19.4259 56.4361 19.0854 56.0694C18.5616 55.5456 18.5354 55.5718 19.3211 51.7742C19.9235 48.867 19.9759 47.9504 19.9759 42.1099C19.9759 36.348 19.8973 35.2218 19.2949 31.5289C18.6402 27.6789 18.614 27.3909 19.033 26.9194C20.264 25.5575 27.2045 24.667 31.4997 25.3218Z" fill="white"/>
<path d="M23.5375 28.0718C22.5423 28.2813 21.678 28.517 21.5994 28.5694C21.5208 28.648 21.678 29.9575 21.9399 31.4766L22.4113 34.2266H27.8589H33.2803L33.5684 32.5766C33.7256 31.6861 33.9351 30.4028 34.0137 29.748L34.1708 28.5432L32.9137 28.2028C30.9756 27.7051 25.6851 27.6266 23.5375 28.0718Z" fill="white"/>
<path d="M22.5947 42.0842V47.3223H27.8328H33.0709V42.0842V36.8461H27.8328H22.5947V42.0842Z" fill="white"/>
<path d="M22.0713 51.4334C21.9141 52.2715 21.7046 53.162 21.6522 53.3977C21.5213 53.843 21.9403 53.8691 27.8332 53.8691C33.726 53.8691 34.1451 53.843 34.0141 53.3977C33.9618 53.162 33.7522 52.2715 33.5951 51.4334L33.307 49.9406H27.8332H22.3594L22.0713 51.4334Z" fill="white"/>
<path d="M0.333008 58.6366C0.359198 60.3651 1.14491 63.2199 2.19253 65.3937C3.73777 68.5104 6.64491 71.4175 9.76158 72.9627C11.9354 74.0104 14.7902 74.7961 16.5187 74.8223C17.3568 74.8223 17.3568 74.8223 17.3568 73.5389V72.2818L15.864 72.0985C9.13301 71.3389 3.81634 66.0485 3.05682 59.3699L2.87348 57.7985H1.61634C0.333008 57.7985 0.333008 57.7985 0.333008 58.6366Z" fill="white"/>
<path d="M5.57129 58.505C5.57129 58.924 5.75462 59.8669 5.93796 60.6002C7.22129 65.4454 11.1499 68.9288 15.9165 69.4788L17.357 69.6621V68.3526V67.0431L16.126 66.8597C14.4761 66.6502 12.4332 65.6812 11.0975 64.4764C9.81415 63.324 8.53081 60.8359 8.2951 59.0812L8.11177 57.7978H6.85462C5.62367 57.7978 5.57129 57.824 5.57129 58.505Z" fill="white"/>
<path d="M47.3715 59.0812C47.1358 60.8359 45.8524 63.324 44.5691 64.4764C43.2334 65.6812 41.1905 66.6502 39.5667 66.8597L38.3096 67.0431V68.3526V69.6621L39.75 69.4788C44.5167 68.9288 48.4453 65.4454 49.7286 60.6002C49.912 59.8669 50.0953 58.924 50.0953 58.505C50.0953 57.824 50.0429 57.7978 48.812 57.7978H47.5548L47.3715 59.0812Z" fill="white"/>
<path d="M52.6096 59.2913C51.9286 65.3413 47.581 70.2651 41.5834 71.8104C40.7453 72.0199 39.6453 72.2032 39.1739 72.2032C38.3096 72.2032 38.3096 72.2032 38.3096 73.5127C38.3096 74.8223 38.3096 74.8223 39.1739 74.8223C40.8762 74.7961 43.731 74.0104 45.9048 72.9627C49.0215 71.4175 51.9286 68.5104 53.4739 65.3937C54.5215 63.2199 55.3072 60.3651 55.3334 58.6366C55.3334 57.7985 55.3334 57.7985 54.05 57.7985H52.7929L52.6096 59.2913Z" fill="white"/>
</svg>
