<svg width="74" height="74" viewBox="0 0 74 74" fill="none" xmlns="http://www.w3.org/2000/svg">
<path d="M30.1711 2.735C30.1711 4.05902 30.1335 5.13699 30.0708 5.13699C30.0207 5.13699 28.9425 4.16448 27.6637 2.96934C26.3849 1.77421 25.2942 0.801695 25.219 0.801695C25.1438 0.801695 24.3539 1.493 23.4638 2.32491L21.834 3.84812L26.0088 7.74988L30.1711 11.6399V15.8346V20.0293L30.6475 19.9356C31.2493 19.8184 33.857 19.8184 34.4713 19.9356L34.9352 20.0293V15.8112V11.5931L39.0849 7.71473L43.2221 3.84812L41.5923 2.32491C40.7022 1.48128 39.9124 0.801695 39.8622 0.801695C39.7995 0.801695 38.6712 1.80936 37.3423 3.03964L34.9352 5.26587V2.8053V0.333015H32.5531H30.1711V2.735Z" fill="white"/>
<path d="M15.127 7.91372C15.127 9.70642 15.0769 11.1125 15.0267 11.0539C14.9766 10.9836 14.1366 10.1985 13.1462 9.29633L11.3534 7.66766L9.73612 9.17916C8.83345 10.0111 8.10631 10.7492 8.10631 10.8078C8.10631 10.8781 8.89614 11.6514 9.86149 12.5302C10.8268 13.4207 11.6167 14.1706 11.6167 14.2057C11.6167 14.2409 11.1152 14.2761 10.5134 14.2761C9.8991 14.2761 8.36958 14.3112 7.12842 14.3581L4.84668 14.4284V16.5843V18.7285H10.7015H16.5563L19.7031 21.6578C22.5364 24.2941 23.1507 24.8096 23.1507 24.4933C23.1507 24.2824 24.7931 22.5951 25.5328 22.0561L26.2975 21.4937L23.1006 18.5059L19.8911 15.5063V10.0814V4.66811H17.5091H15.127V7.91372Z" fill="white"/>
<path d="M45.2156 10.0803V15.5053L42.1817 18.3291C40.5017 19.8757 39.06 21.2232 38.9722 21.3286C38.8468 21.4809 38.9597 21.6098 39.7495 22.2191C40.251 22.6058 40.9781 23.2971 41.3417 23.754C41.7178 24.1993 42.0438 24.5742 42.0814 24.5742C42.119 24.5742 42.9464 23.8595 43.9243 22.969L45.692 21.3638L45.7547 16.2669C45.8174 10.5724 45.8676 10.1154 46.6699 8.55708C47.021 7.85406 47.3469 7.44396 48.1368 6.71751C48.7009 6.19024 49.3529 5.69813 49.5785 5.61611C49.917 5.48722 49.9797 5.39349 49.9797 5.06541V4.66703H47.5977H45.2156V10.0803Z" fill="white"/>
<path d="M55.8473 6.07401C54.4683 6.30835 52.7382 7.1051 51.6474 8.00731C50.8701 8.65175 49.8546 10.0226 49.4785 10.96C48.8517 12.4949 48.8642 12.2957 48.8517 29.5783V45.7595L48.2248 46.1344C47.8738 46.3453 47.109 46.9546 46.5073 47.4702C42.7211 50.8212 40.8405 55.6252 41.4674 60.3237C42.182 65.7135 45.8052 70.2715 51.0958 72.3922C56.5619 74.6067 62.6675 73.9037 67.4065 70.5175C70.1395 68.5608 72.1455 65.819 73.0607 62.8077C73.1986 62.3039 73.3866 61.7415 73.4493 61.554C73.512 61.3548 73.5998 60.2534 73.6374 59.0817C73.7001 57.207 73.675 56.8321 73.4368 55.7189C73.0983 54.1723 72.7347 53.1881 72.0201 51.8055C70.8792 49.6495 69.0238 47.6108 66.905 46.193L65.8393 45.49L65.7767 29.0276L65.7014 12.5769L65.4256 11.7333C64.3098 8.33539 61.3636 6.15603 57.6903 6.01542C57.0007 5.99199 56.1733 6.01542 55.8473 6.07401ZM58.267 11.8739C59.8843 12.0731 60.9123 13.4323 61.138 15.6468C61.2006 16.3147 61.2633 23.8604 61.2633 33.4684V50.1416L61.6645 50.2705C65.2501 51.4422 67.4316 54.266 67.6196 57.9803C67.7074 59.7847 67.4692 60.933 66.6543 62.4914C65.3003 65.1043 62.9433 66.8735 59.8843 67.6C58.3798 67.9632 55.8724 67.8812 54.4557 67.4359C48.2875 65.4909 45.5043 58.9411 48.6887 53.8559C49.5161 52.5319 51.4343 51.0321 52.9011 50.5752C53.1268 50.5049 53.3775 50.3994 53.4653 50.3291C53.5781 50.2471 53.6157 46.6031 53.6157 32.8356C53.6157 20.5679 53.6534 15.2836 53.7537 14.85C54.0796 13.4206 54.9447 12.3075 55.9727 12.0028C56.6121 11.8153 57.2013 11.7216 57.5022 11.7685C57.6025 11.7802 57.9536 11.8271 58.267 11.8739Z" fill="white"/>
<path d="M56.6367 13.1045C56.0349 13.2451 55.5209 13.7841 55.2075 14.5809C54.9442 15.2605 54.9442 15.4597 54.8941 24.142L54.8564 33.0234H57.3639H59.8838V24.6692C59.8713 20.0879 59.8211 15.9635 59.771 15.53C59.6331 14.5574 59.1441 13.5849 58.6552 13.3154C58.2289 13.0694 57.2134 12.9639 56.6367 13.1045Z" fill="white"/>
<path d="M62.4416 56.0357C61.7897 56.3052 61.6392 56.6216 61.6392 57.7581C61.6392 59.5508 61.0124 61.2146 59.7462 62.7495C59.4077 63.1596 59.1318 63.6049 59.1318 63.7455C59.1318 64.6477 60.8494 65.3156 61.9527 64.8235C62.8428 64.4368 64.2219 62.4215 64.7484 60.7342C65.2875 59.0118 65.3753 57.2426 64.9365 56.5981C64.5353 56.0006 63.244 55.7076 62.4416 56.0357Z" fill="white"/>
<path d="M2.40162 22.0086L0.784341 23.5318L1.39865 24.1294C1.74969 24.4574 2.84041 25.4768 3.83084 26.4142C5.08454 27.5859 5.56095 28.1014 5.39797 28.1014C5.2726 28.1131 4.10665 28.1014 2.82788 28.1014C0.784341 28.0897 0.483452 28.1131 0.40823 28.2772C0.370619 28.3826 0.333008 29.3903 0.333008 30.5151V32.5539H2.9031C4.68336 32.5539 5.47319 32.589 5.47319 32.6828C5.47319 32.7531 4.43261 33.7842 3.15384 34.9793C1.87506 36.1744 0.834489 37.1821 0.834489 37.229C0.834489 37.3344 4.01889 40.2871 4.13173 40.2871C4.18187 40.2871 6.07497 38.5647 8.33163 36.4439L12.4312 32.6125L16.9195 32.5773L21.4203 32.5422L21.32 32.0501C21.2448 31.6165 21.2322 29.5426 21.3075 28.5115L21.3325 28.16L16.9696 28.1366C14.5625 28.1249 12.5065 28.078 12.3936 28.0428C12.2683 28.0077 10.3877 26.297 8.18119 24.2348C5.98721 22.1726 4.14426 20.4854 4.10665 20.4854C4.06904 20.4854 3.29175 21.165 2.40162 22.0086Z" fill="white"/>
<path d="M31.2119 22.4072C29.9708 22.6298 29.1057 22.911 28.2532 23.3679C27.3004 23.8835 27.2502 23.9186 26.2598 24.8677C24.6175 26.4378 23.8151 28.4883 23.9405 30.7965C24.1285 34.1124 26.1344 36.7019 29.4818 37.9556C30.3594 38.2837 30.6729 38.3423 32.0143 38.3891C33.757 38.4477 34.6847 38.3188 35.8506 37.8502C37.7688 37.0886 39.1353 35.9286 40.1258 34.253C41.9562 31.148 41.3419 27.1408 38.6339 24.6451C36.7533 22.8993 33.6943 21.9736 31.2119 22.4072Z" fill="white"/>
<path d="M44.3625 28.1962L43.6855 28.2314L43.7733 28.8055C43.8861 29.5789 43.8861 31.0552 43.7733 31.9574C43.6855 32.637 43.6981 32.6956 43.8987 32.637C44.0115 32.5901 44.4754 32.555 44.9142 32.555H45.7165V30.3873C45.7165 29.1922 45.6789 28.2197 45.6288 28.208C45.5661 28.208 45.4157 28.1962 45.2777 28.1728C45.1398 28.1611 44.7261 28.1728 44.3625 28.1962Z" fill="white"/>
<path d="M19.7031 39.1158L16.5688 42.0451H10.714H4.84668V44.1893V46.3452L6.3762 46.4155C7.20364 46.4624 8.73316 46.4975 9.76119 46.4975C10.7767 46.4975 11.6167 46.5444 11.6167 46.603C11.6167 46.6499 10.8268 47.3998 9.86149 48.2668C8.89614 49.1339 8.10631 49.8838 8.10631 49.9541C8.10631 50.0244 8.83345 50.7625 9.73612 51.5944L11.3659 53.1177L12.0805 52.4498C12.4817 52.0866 13.3217 51.3249 13.936 50.7625L15.0644 49.7432L15.102 52.9067L15.127 56.0703L16.4685 56.1406C17.1957 56.1875 18.2738 56.2227 18.8505 56.2227H19.8911V50.7508V45.2673L23.1006 42.2677L26.2975 39.2799L25.3447 38.5417C24.8182 38.1316 24.0785 37.4403 23.6898 36.9951C23.3137 36.5498 22.9627 36.1866 22.9125 36.1866C22.8749 36.1866 21.4206 37.4989 19.7031 39.1158Z" fill="white"/>
<path d="M41.4171 36.9484C41.0786 37.3702 40.364 38.0615 39.8249 38.4834C39.2608 38.9169 38.8721 39.3153 38.9097 39.3973C38.9599 39.4676 40.2763 40.7096 41.8434 42.1508L44.6893 44.7754L45.2033 44.377L45.7173 43.9786V41.7055V39.4324L43.9371 37.8038C42.9592 36.9133 42.1192 36.1868 42.0816 36.1868C42.044 36.1868 41.7431 36.5266 41.4171 36.9484Z" fill="white"/>
<path d="M30.1711 44.9398V49.1345L26.0088 53.0245L21.834 56.9263L23.5265 58.5081L25.219 60.0899L27.601 57.8637C28.9174 56.6451 30.0332 55.6374 30.0833 55.6374C30.1335 55.6374 30.1711 56.7154 30.1711 58.0394V60.4414H32.5531H34.9352L34.9603 58.0043L34.9979 55.5789L36.6904 57.1372L38.3829 58.6956L38.4706 56.9029C38.5208 55.9186 38.6587 54.7235 38.759 54.2431C38.8593 53.7744 38.947 53.294 38.947 53.1886C38.947 53.0714 38.0444 52.1341 36.9411 51.103L34.9352 49.2282V44.9867V40.7568L34.5967 40.8389C34.3961 40.8857 33.4809 40.9326 32.5531 40.9326C31.6254 40.9326 30.7102 40.8857 30.5221 40.8389L30.1711 40.7568V44.9398Z" fill="white"/>
</svg>
