<svg width="83" height="83" viewBox="0 0 83 83" fill="none" xmlns="http://www.w3.org/2000/svg">
<g clip-path="url(#clip0_856_11863)">
<path opacity="0.971" fill-rule="evenodd" clip-rule="evenodd" d="M35.3789 -0.0800781C37.7422 -0.0800781 40.1054 -0.0800781 42.4688 -0.0800781C58.2296 2.01292 69.1599 10.3918 75.2593 25.0566C76.1549 27.4039 76.7726 29.8209 77.1123 32.3076C76.7573 34.7164 75.3608 35.7638 72.9229 35.4497C71.9011 35.1798 71.176 34.5622 70.7476 33.5967C70.0713 29.6866 68.7284 26.0342 66.7192 22.6396C65.9986 25.1884 64.3604 26.1283 61.8047 25.4595C60.3999 24.6643 59.7823 23.4558 59.9517 21.834C60.5865 20.1445 61.2849 18.4795 62.0464 16.8389C62.1539 16.6777 62.1539 16.5166 62.0464 16.3555C57.9929 12.0059 53.0784 9.13234 47.3027 7.73486C48.4202 9.75022 48.0979 11.469 46.3359 12.8911C44.5828 13.6667 43.1057 13.3176 41.9048 11.8438C41.179 10.0954 40.4539 8.34981 39.7295 6.60693C33.7249 6.28298 28.1389 7.67947 22.9717 10.7964C25.5214 11.519 26.4613 13.1572 25.7915 15.7109C24.9963 17.1157 23.7878 17.7333 22.166 17.564C20.3961 16.9022 18.6506 16.1771 16.9292 15.3887C13.4826 18.4098 10.9045 22.0621 9.19482 26.3457C8.651 27.5996 8.27503 28.8887 8.06689 30.2129C10.0822 29.0954 11.801 29.4177 13.2231 31.1797C13.8814 32.6686 13.6934 34.0382 12.6592 35.2886C10.802 36.2306 8.89528 37.063 6.93896 37.7861C6.6197 43.809 8.01617 49.3949 11.1284 54.5439C11.9555 51.8343 13.7011 50.9481 16.3652 51.8853C17.5539 52.7325 18.0642 53.8873 17.896 55.3496C17.2186 57.1396 16.4935 58.9121 15.7207 60.667C19.7618 65.1101 24.7031 68.0374 30.5449 69.4487C29.5556 67.7085 29.7167 66.0972 31.0283 64.6147C33.4276 63.302 35.227 63.866 36.4263 66.3066C37.254 68.5216 38.1135 70.7236 39.0044 72.9131C39.3768 75.4472 38.3027 76.8974 35.7817 77.2637C20.8823 75.5146 10.14 67.9413 3.55518 54.5439C1.8202 50.5569 0.719124 46.4212 0.251953 42.1367C0.251953 39.7734 0.251953 37.4102 0.251953 35.0469C1.86872 21.6277 8.47516 11.5032 20.0713 4.67334C24.8858 2.09231 29.9884 0.507841 35.3789 -0.0800781Z" fill="white"/>
<path opacity="0.97" fill-rule="evenodd" clip-rule="evenodd" d="M36.5071 19.2553C46.4161 18.6876 53.3179 22.9308 57.2127 31.9848C59.7281 40.2659 57.8751 47.3827 51.6536 53.3349C45.1247 58.4185 38.0348 59.3315 30.3841 56.0742C22.5862 51.7558 19.0145 45.1226 19.6687 36.1743C20.9011 28.4976 25.1174 23.2069 32.3177 20.3027C33.7098 19.8472 35.1064 19.4981 36.5071 19.2553ZM36.9905 25.8618C43.8116 25.389 48.5112 28.2894 51.0896 34.5629C52.6359 40.2791 51.1589 45.0325 46.6585 48.8232C40.9971 52.4738 35.5186 52.2054 30.2229 48.0175C26.2389 43.9236 25.1916 39.1702 27.0808 33.7573C29.0307 29.4162 32.3339 26.7844 36.9905 25.8618Z" fill="white"/>
<path opacity="0.971" fill-rule="evenodd" clip-rule="evenodd" d="M82.7527 44.3914C82.7527 45.0896 82.7527 45.788 82.7527 46.4862C81.7023 48.511 80.0909 49.1286 77.9187 48.3392C77.373 47.8473 76.7822 47.4175 76.1462 47.0501C73.7109 46.5306 72.2607 47.4974 71.7957 49.9505C71.9122 51.5311 72.7178 52.5515 74.2127 53.012C75.502 53.2447 76.5763 52.8688 77.4353 51.8841C79.72 50.6803 81.4925 51.1906 82.7527 53.4149C82.7527 54.1131 82.7527 54.8114 82.7527 55.5096C81.6293 57.3406 80.0179 58.6027 77.9187 59.2962C76.9429 59.5618 75.9493 59.696 74.9378 59.6991C73.4737 59.6207 72.0503 59.379 70.6677 58.974C67.4451 62.1966 64.2224 65.4193 60.9998 68.6419C62.9529 73.8462 61.6638 78.0356 57.1326 81.2103C56.0818 81.7299 55.0076 82.1328 53.9099 82.4188C52.7283 82.4188 51.5466 82.4188 50.365 82.4188C48.2782 81.9254 46.4788 80.9048 44.967 79.3573C43.7594 77.0189 44.3233 75.2733 46.6589 74.1204C47.3035 74.013 47.948 74.013 48.5925 74.1204C49.4842 74.7004 50.3974 75.2374 51.3318 75.7318C53.6542 76.0685 54.9971 75.0748 55.3601 72.7508C54.9537 70.372 53.5574 69.3783 51.1707 69.7699C50.3113 70.3069 49.4519 70.8441 48.5925 71.3812C46.6386 71.7339 45.269 71.0088 44.4836 69.2059C44.2692 68.1184 44.4303 67.098 44.967 66.1444C47.4694 63.5774 50.5042 62.5837 54.0711 63.1634C54.8833 63.4174 55.689 63.6321 56.488 63.8079C59.6838 60.6122 62.8797 57.4163 66.0754 54.2205C64.3549 49.6893 65.2411 45.7416 68.7341 42.3773C72.7779 39.5488 76.8599 39.4951 80.9802 42.2161C81.7368 42.8352 82.3275 43.5603 82.7527 44.3914Z" fill="white"/>
</g>
<defs>
<clipPath id="clip0_856_11863">
<rect width="82.5" height="82.5" fill="white" transform="translate(0.333008)"/>
</clipPath>
</defs>
</svg>
