<svg width="83" height="50" viewBox="0 0 83 50" fill="none" xmlns="http://www.w3.org/2000/svg">
<path d="M74.583 0.046875H8.58301C4.04551 0.046875 0.333008 3.78413 0.333008 8.35189V41.572C0.333008 46.1397 4.04551 49.877 8.58301 49.877H74.583C79.1205 49.877 82.833 46.1397 82.833 41.572V8.35189C82.833 3.78413 79.1205 0.046875 74.583 0.046875ZM8.58301 30.1526C8.58301 29.5816 9.05094 29.1144 9.61426 29.1144H11.6768C12.2414 29.1144 12.708 29.5816 12.708 30.1526V32.2288C12.708 32.7998 12.2414 33.267 11.6768 33.267H9.61426C9.05094 33.267 8.58301 32.7998 8.58301 32.2288V30.1526ZM43.6455 41.572H10.6455C9.51113 41.572 8.58301 40.6377 8.58301 39.4957C8.58301 38.3538 9.51113 37.4195 10.5295 37.4195H43.5295C44.664 37.4195 45.592 38.3536 45.592 39.4957C45.708 40.6377 44.7799 41.572 43.6455 41.572ZM16.833 32.2288V30.1526C16.833 29.5816 17.2971 29.1144 17.8643 29.1144H19.9268C20.4939 29.1144 20.958 29.5816 20.958 30.1526V32.2288C20.958 32.7998 20.4939 33.267 19.9268 33.267H17.8643C17.2971 33.267 16.833 32.7998 16.833 32.2288ZM25.083 32.2288V30.1526C25.083 29.5816 25.5471 29.1144 26.1143 29.1144H28.1768C28.7439 29.1144 29.208 29.5816 29.208 30.1526V32.2288C29.208 32.7998 28.7439 33.267 28.1768 33.267H26.1143C25.5471 33.267 25.083 32.7998 25.083 32.2288ZM33.333 32.2288V30.1526C33.333 29.5816 33.7971 29.1144 34.3643 29.1144H36.4268C36.9939 29.1144 37.458 29.5816 37.458 30.1526V32.2288C37.458 32.7998 36.9939 33.267 36.4268 33.267H34.3643C33.7971 33.267 33.333 32.7998 33.333 32.2288ZM45.708 32.2288C45.708 32.7998 45.2439 33.267 44.6768 33.267H42.6143C42.0471 33.267 41.583 32.7998 41.583 32.2288V30.1526C41.583 29.5816 42.0471 29.1144 42.6143 29.1144H44.6768C45.2439 29.1144 45.708 29.5816 45.708 30.1526V32.2288ZM45.708 22.5872C45.708 23.9108 44.7283 24.9619 43.5037 24.9619H10.7834C9.5627 24.9619 8.58301 23.9108 8.58301 22.5872V10.7266C8.58301 9.403 9.5627 8.35189 10.7834 8.35189H43.5127C44.7283 8.35189 45.708 9.403 45.708 10.7266V22.5872ZM72.5205 41.572H51.8955C50.761 41.572 49.833 40.6375 49.833 39.4957C49.833 38.3536 50.761 37.4195 51.8955 37.4195H72.5205C73.655 37.4195 74.583 38.3536 74.583 39.4957C74.583 40.6377 73.6549 41.572 72.5205 41.572Z" fill="white"/>
</svg>
