<svg width="74" height="72" viewBox="0 0 74 72" fill="none" xmlns="http://www.w3.org/2000/svg">
<path d="M32.8363 0.580498C29.7065 0.884003 26.261 1.63552 23.7199 2.57492C21.6956 3.31199 17.9485 5.20524 16.2544 6.34697C8.78903 11.333 3.4771 18.8916 1.32361 27.5774C0.534 30.728 0.333008 32.5201 0.333008 36.1765C0.333008 39.833 0.534 41.6251 1.32361 44.7757C2.88848 51.0624 6.1187 56.8289 10.6554 61.3814C13.5267 64.2718 16.3406 66.2952 19.9871 68.1161C23.6481 69.9371 26.7204 70.9199 30.611 71.5269C33.0229 71.9027 38.3923 71.9027 40.7324 71.5413C48.6716 70.2984 55.2756 66.9744 60.688 61.4825C63.2148 58.9245 65.038 56.5398 66.4881 53.924L67.0336 52.9412L67.5504 53.1725C68.7995 53.7216 69.2589 53.7072 69.747 53.1436C70.0629 52.7678 71.3406 49.6895 71.8718 48.0274C73.2213 43.7496 73.652 40.9314 73.6663 36.3211C73.6663 31.5084 73.1782 28.2856 71.8 24.0511C69.144 15.9867 63.789 8.97729 56.6107 4.20803C54.7587 2.97958 54.3137 3.03739 53.1795 4.6705L52.9498 5.00291L52.1889 4.56934C48.8869 2.69054 43.3883 1.02853 39.0814 0.623856C37.617 0.49379 34.0135 0.464882 32.8363 0.580498ZM39.2967 3.23972C40.1294 3.32644 41.522 3.54323 42.4121 3.7311C44.02 4.06351 46.475 4.77167 46.475 4.88729C46.475 4.91619 45.6567 5.52319 44.6661 6.2169C42.6562 7.61877 42.1393 8.15351 41.7948 9.20853C41.5076 10.0468 41.5794 11.3186 41.9527 12.0556C42.0963 12.3302 42.8428 13.2118 43.6324 14.0067L45.0537 15.4808L44.5799 16.3191C44.178 17.0561 44.1062 17.3018 44.1062 18.1112C44.1205 18.7904 44.2067 19.2095 44.422 19.6286C44.8096 20.3513 52.1171 27.6786 52.7919 28.0254C53.0647 28.1555 53.7394 28.3 54.2993 28.3434C55.4622 28.4156 55.8068 28.6469 55.8068 29.3117C55.8068 29.7019 55.6776 29.9042 55.0172 30.4679C53.5384 31.7397 53.5528 31.6819 52.9211 37.8819C52.6196 40.8735 52.3756 43.6195 52.3612 43.9808C52.3612 44.7612 52.7345 45.6139 53.3662 46.351L53.8399 46.8857L53.5672 47.4927C53.1939 48.3165 53.2226 49.6172 53.6246 50.5421C54.084 51.5827 57.9028 55.3981 58.9796 55.8895C59.8266 56.2942 61.1761 56.3953 61.7217 56.1063C62.2385 55.8317 62.138 56.0629 61.2479 57.1468C54.3711 65.5003 44.6517 69.7926 33.7982 69.2434C19.0253 68.5064 6.34841 57.3925 3.41967 42.6078C2.6157 38.5467 2.6157 33.8064 3.41967 29.7453C5.57315 18.8338 13.0816 9.67101 23.3179 5.46539C28.357 3.3987 33.712 2.66164 39.2967 3.23972ZM50.6097 6.70828C50.9399 6.95397 51.2127 7.1852 51.2127 7.22856C51.2127 7.35863 46.7334 13.3419 46.6473 13.3419C46.5899 13.3419 46.0156 12.8072 45.3696 12.1568C44.3502 11.1307 44.178 10.8995 44.178 10.4803C44.178 10.2202 44.2354 9.87334 44.3215 9.72881C44.4364 9.49758 45.8003 8.50037 48.5424 6.63602C49.2889 6.13019 49.8632 6.14464 50.6097 6.70828ZM56.8979 8.19687C50.0929 17.2729 50.1216 17.2151 50.7246 19.2818C50.9112 19.9177 51.1696 20.279 52.1315 21.2618C54.0122 23.2273 54.6726 23.4296 57.7018 23.0105C60.2573 22.6636 61.736 23.0827 63.1143 24.5424C64.2341 25.742 64.4925 26.4068 64.4925 28.1555C64.4925 29.4418 64.4494 29.6875 64.0905 30.4245C63.5593 31.5084 62.54 32.4189 60.6737 33.4884C58.7212 34.6012 58.2474 34.9915 57.7593 35.8875C57.4147 36.5234 57.3429 36.8558 57.2855 38.1132C57.1563 40.3966 57.587 41.6395 58.7642 42.5645C59.0514 42.7668 61.5638 43.8652 64.3633 44.9925C67.1628 46.1197 69.4455 47.1169 69.4455 47.2181C69.4455 47.4638 68.3401 50.3543 68.1965 50.4843C68.0816 50.6144 55.6201 44.9491 55.1751 44.5733C54.8449 44.2987 54.8736 43.764 55.4479 38.0553L55.9503 33.0693L56.8692 32.2022C58.0751 31.0604 58.3048 30.5835 58.3048 29.3117C58.3048 27.245 57.0271 25.9443 54.8592 25.7998L53.8256 25.742L50.2077 22.0855C46.9057 18.7615 46.5899 18.4002 46.6473 18.0244C46.676 17.7643 48.2983 15.4664 50.9255 11.94L55.1464 6.28916L56.1944 7.02623L57.2424 7.74885L56.8979 8.19687ZM60.5301 10.6538L61.7217 11.8678L58.6637 14.4258C56.9697 15.8421 55.5053 17.085 55.3904 17.1862C55.2182 17.3452 55.3043 17.5186 55.9647 18.2846C56.381 18.7904 56.74 19.224 56.7687 19.2529C56.783 19.2818 57.1419 19.0216 57.5583 18.6603C57.9746 18.3135 59.4677 17.0706 60.8603 15.8999L63.4014 13.7899L64.3202 15.0473C68.6846 20.9872 71.1683 28.4446 71.1683 35.6274V37.4772H66.7896H62.4108V38.7057V39.9341L66.6891 39.963L70.953 40.0064L70.9242 40.5122C70.8955 40.7868 70.752 41.8129 70.5653 42.7957C70.3069 44.2554 70.2208 44.5733 70.0341 44.5155C69.7183 44.4288 61.1474 40.9747 60.6019 40.7146C59.9845 40.4111 59.8266 39.9775 59.8266 38.4745C59.8266 36.8847 59.8123 36.8992 62.1237 35.5984C64.9232 34.0087 66.3876 32.2455 66.9188 29.8609C67.2059 28.5602 67.2059 27.9243 66.9188 26.5368C66.6173 25.0772 66.043 23.9643 65.0093 22.8515C63.0138 20.7126 60.6593 19.9755 57.3429 20.4813C56.4959 20.6114 55.6632 20.7126 55.5053 20.7126C55.3187 20.7126 54.7587 20.279 54.1414 19.672C52.5478 18.1256 52.4473 18.4291 56.1083 13.5153C57.7736 11.2752 59.1806 9.43977 59.238 9.43977C59.2954 9.43977 59.8697 9.98896 60.5301 10.6538ZM60.0707 49.7184L63.746 51.4093L62.7554 52.3198C61.4776 53.4904 60.7311 53.8806 60.1712 53.6638C59.7261 53.4904 56.8692 50.73 56.2231 49.8484C55.9934 49.5449 55.8068 49.1258 55.8068 48.9379C55.8068 48.5188 56.0508 48.0274 56.2518 48.0274C56.3236 48.0274 58.0464 48.7934 60.0707 49.7184Z" fill="white"/>
<path d="M32.836 14.7C27.8255 15.4226 23.6621 17.5904 20.1304 21.3047C18.8096 22.7065 17.2878 24.8455 16.4839 26.4497C15.5794 28.2707 14.7754 30.8287 14.4452 32.9243C14.2155 34.4129 14.2155 37.9393 14.4452 39.4279C15.1343 43.8214 17.1155 47.868 20.1304 51.0475C23.8344 54.9496 28.1845 57.103 33.5538 57.7245C34.9177 57.8835 38.2053 57.8401 38.3776 57.6811C38.4063 57.6378 38.3633 57.0741 38.2628 56.4238L38.0761 55.2531L35.5637 55.2098C32.8934 55.1664 31.6875 54.9785 29.6775 54.2848C26.9498 53.3454 24.6815 51.9436 22.6141 49.9347C17.3022 44.7608 15.4215 37.2167 17.7042 30.2506C19.3121 25.3513 22.93 21.1601 27.4523 18.9923C30.2662 17.6482 32.2043 17.2002 35.5637 17.1424L38.0761 17.099L38.2628 15.9284C38.3633 15.278 38.4063 14.7144 38.3633 14.6711C38.191 14.4976 34.1281 14.5265 32.836 14.7Z" fill="white"/>
<path d="M33.8408 19.7146C30.4096 20.076 26.6338 21.9259 24.0927 24.4839C19.0249 29.5856 17.8476 37.491 21.1783 43.9078C23.7051 48.7493 28.6868 52.1023 34.1567 52.6515C41.177 53.3452 48.0251 49.2985 50.8103 42.795C53.3514 36.8551 52.3177 30.1781 48.0826 25.2499C45.4553 22.1715 41.4785 20.1338 37.3582 19.7146C35.6354 19.5412 35.5923 19.5412 33.8408 19.7146ZM38.4062 22.4461C42.7563 23.3277 46.2593 26.0592 48.2118 30.0336C49.3172 32.3171 49.5469 33.3432 49.5469 36.1758C49.5469 38.1847 49.4895 38.7483 49.2311 39.7166C48.4845 42.4337 46.6038 45.353 44.5365 47.0006C41.6939 49.2696 38.6359 50.3102 35.2047 50.1368C32.4339 50.0067 30.2517 49.313 28.1126 47.8822C25.069 45.83 22.9442 42.7372 22.1259 39.1385C21.7526 37.5632 21.7526 34.7884 22.1259 33.2131C23.0447 29.1665 25.8442 25.4956 29.3903 23.6746C32.1037 22.2872 35.4488 21.8247 38.4062 22.4461Z" fill="white"/>
<path d="M34.415 25.9884V27.2168H35.7071H36.9992V25.9884V24.7599H35.7071H34.415V25.9884Z" fill="white"/>
<path d="M34.1706 30.0335C31.0121 30.8862 28.9879 33.9934 29.5047 37.144C30.122 40.8582 33.7255 43.2429 37.3003 42.3179C40.0711 41.5953 42.0236 39.0517 42.0236 36.1757C42.0236 32.0568 38.0756 28.9784 34.1706 30.0335ZM37.3577 32.765C38.6785 33.3864 39.4825 34.6871 39.4825 36.1757C39.4825 38.3291 37.8602 39.9333 35.7067 39.9333C34.6013 39.9333 33.826 39.6153 33.0938 38.8927C32.3042 38.0834 32.0458 37.4186 32.0458 36.1757C32.0458 34.9328 32.3042 34.268 33.0938 33.4587C34.1849 32.3747 35.9364 32.0857 37.3577 32.765Z" fill="white"/>
<path d="M24.3662 33.6466V34.875H25.5865H26.8068V33.6466V32.4181H25.5865H24.3662V33.6466Z" fill="white"/>
<path d="M44.6089 33.6466V34.875H45.901H47.1931V33.6466V32.4181H45.901H44.6089V33.6466Z" fill="white"/>
<path d="M28.1271 45.0946L28.1701 46.3664L29.4335 46.4098L30.6825 46.4531V45.138V43.8373H29.3904H28.084L28.1271 45.0946Z" fill="white"/>
<path d="M40.7608 45.0946L40.8039 46.3664L42.0673 46.4098L43.3163 46.4531V45.138V43.8373H42.0242H40.7178L40.7608 45.0946Z" fill="white"/>
<path d="M49.4034 49.487C48.6713 50.253 46.8767 51.7126 46.0153 52.2474C45.6277 52.4931 45.3262 52.7243 45.3262 52.7966C45.3262 52.8688 45.5846 53.3747 45.9148 53.9383C46.3886 54.7765 46.5465 54.9355 46.7331 54.8343C47.9678 54.1695 51.7866 50.9467 51.7866 50.5854C51.7866 50.4264 50.5376 49.2558 50.1213 48.9956C50.0351 48.9523 49.7193 49.169 49.4034 49.487Z" fill="white"/>
</svg>
