<svg width="74" height="74" viewBox="0 0 74 74" fill="none" xmlns="http://www.w3.org/2000/svg">
<path d="M34.6095 0.385201C28.4834 1.0684 24.7661 2.10806 20.2162 4.4547C10.0458 9.65298 2.81941 19.396 0.797221 30.654C0.232196 33.8621 0.17272 39.5653 0.678268 42.8328C2.49229 54.3284 10.135 64.6359 20.7812 69.9233C25.9854 72.5372 30.8922 73.666 36.9885 73.666C43.1443 73.666 48.2295 72.4481 53.7013 69.7153C63.6933 64.6953 70.9792 54.8928 73.1798 43.5754C73.834 40.1891 73.834 33.8621 73.1501 30.4461C71.0089 19.2772 63.8718 9.65298 53.969 4.54382C50.668 2.85066 46.9508 1.54367 43.6796 0.949585C41.1221 0.504013 36.3045 0.20697 34.6095 0.385201ZM29.6432 8.52421C30.0893 9.02918 30.4461 9.74209 30.4461 10.158V10.9006H37.1372H43.8283V10.1283C43.8283 9.68268 44.1851 8.99948 44.6907 8.49451C45.9694 7.24692 47.2184 7.33604 50.5194 8.94007C62.7417 14.881 69.8194 28.04 67.9162 41.3179C67.3809 45.2092 66.0427 46.3974 63.1581 45.5656C62.4443 45.3577 62.2659 45.625 59.2326 50.9124L56.0506 56.4672L56.7941 57.3286C57.7457 58.4573 57.7457 59.8832 56.7346 61.0713C55.0396 63.1209 49.3596 66.032 44.7204 67.2796C42.2224 67.9331 41.3303 68.0519 36.9885 68.0519C32.6467 68.0519 31.7546 67.9628 29.2269 67.2796C25.807 66.3587 22.5358 64.9032 19.6809 63.0021C16.5584 60.9228 16.0231 59.0514 17.9859 57.2098C18.4914 56.7345 18.8483 56.2592 18.7888 56.1107C18.759 55.9919 17.1829 53.5264 15.3094 50.6154C12.0382 45.5656 11.8895 45.3874 11.2948 45.8033C10.9677 46.0409 10.135 46.2488 9.45101 46.2488C6.74484 46.2488 5.88244 43.9913 5.94192 36.7434C5.97165 32.7927 6.09061 31.7234 6.74484 29.2876C9.27258 19.8119 15.696 12.3264 24.7661 8.31628C27.4128 7.15781 28.4239 7.18751 29.6432 8.52421Z" fill="white"/>
<path d="M32.1112 14.0788C32.022 15.2076 31.7246 19.3068 31.457 23.2278L30.9812 30.3568L29.7024 31.6935C28.4237 33.0302 27.71 34.2184 27.0557 36.0304C26.7881 36.8027 25.658 37.7532 21.2271 40.9019C18.1938 43.0703 15.3092 45.1496 14.7739 45.5358L13.8223 46.2487L16.2311 49.9915C17.5693 52.0411 18.8183 53.7936 18.9967 53.853C19.1751 53.9421 22.0597 52.6648 25.3904 51.0608L31.457 48.1201L33.1223 48.8924C34.4308 49.5162 35.204 49.635 37.1667 49.6647C39.2484 49.6647 39.7836 49.5459 41.33 48.7736L43.0846 47.8527L49.4485 50.7935C52.9874 52.3678 55.9909 53.6451 56.1693 53.556C56.4965 53.4372 60.7788 46.1596 60.7788 45.7437C60.749 45.6249 57.8644 43.5753 54.3553 41.1989C49.8946 38.2285 47.8427 36.6839 47.6345 36.1492C46.8911 34.159 46.0881 32.852 44.7202 31.4856L43.2035 30.0004L42.3411 21.1188C41.8356 16.2472 41.449 12.2074 41.449 12.148C41.449 12.1183 39.397 12.0886 36.8693 12.0886H32.3194L32.1112 14.0788Z" fill="white"/>
</svg>
