<svg width="83" height="65" viewBox="0 0 83 65" fill="none" xmlns="http://www.w3.org/2000/svg">
<path fill-rule="evenodd" clip-rule="evenodd" d="M15.2891 0.28125C13.547 0.28125 12.118 1.71904 12.118 3.46973C12.118 5.06376 13.3069 6.38422 14.834 6.61019V24.8749H6.89122C4.78082 24.8746 3.04907 26.6155 3.04907 28.7361V39.4742C1.31965 39.5379 0.333008 40.9602 0.333008 42.186V54.9437C0.333008 56.5135 1.69288 57.6731 3.04907 57.6731H5.83418C6.32673 61.7226 9.7716 64.8758 13.931 64.8758C18.0905 64.8758 21.5291 61.7226 22.0208 57.6731H41.1943C41.686 61.7226 45.1247 64.8758 49.2841 64.8758C53.7501 64.8758 57.3903 61.2427 57.4376 56.7656C57.4448 55.2537 57.4414 53.7237 57.4414 52.2052H60.1592V60.4239C60.1592 61.9681 61.3914 63.1409 62.8823 63.1409L81.9213 63.1271C82.819 63.1306 83.175 61.9624 82.4295 61.46L75.8323 56.9191C75.68 56.8165 75.5004 56.7642 75.3171 56.7663H66.5102V25.0303C66.5102 24.2711 66.1598 23.4633 65.6798 22.9788C65.1998 22.4943 64.553 22.1461 63.7995 22.1461H62.9301C61.4005 22.1461 60.1592 23.4458 60.1592 25.0303V31.258H57.4414V4.83511C57.4414 4.07592 57.0951 3.42312 56.6127 2.93835C56.1303 2.45355 55.4807 2.10561 54.7253 2.10561H53.8152C53.0598 2.10561 52.4102 2.45355 51.9278 2.93835C51.4454 3.42312 51.0991 4.07592 51.0991 4.83511V39.4553H50.853L40.5163 6.55566C41.8986 6.21134 42.9403 4.95916 42.9403 3.47036C42.9403 1.71967 41.5042 0.281775 39.7621 0.281775L15.2891 0.28125ZM53.815 3.92703H54.7251C54.8762 3.92703 55.1296 4.03064 55.3271 4.22965C55.5245 4.42798 55.6281 4.68285 55.6281 4.83469V51.5364C54.8935 50.6233 53.9662 49.8774 52.912 49.3479V4.83469C52.912 4.68285 53.0155 4.42812 53.213 4.22965C53.4105 4.03098 53.6639 3.92703 53.815 3.92703ZM16.6471 6.65653H38.6429L46.9469 33.0723H46.1272L40.5853 25.1169C40.6357 25.0859 40.7102 25.0453 40.7588 25.0174C41.8824 24.3654 42.2728 22.8917 41.6281 21.7613V21.7544C40.9784 20.6235 39.515 20.235 38.3897 20.8879C37.046 21.6675 34.9352 22.8857 33.5915 23.6654C32.4662 24.3182 32.0724 25.7961 32.7221 26.9269C33.3721 28.0585 34.8419 28.4536 35.9676 27.8005C36.1177 27.7134 36.3354 27.586 36.5023 27.4893L39.314 34.1848V39.4569C38.3324 39.4571 37.3754 39.4567 36.3925 39.4569L34.7494 32.8574C34.6498 32.4518 34.2887 32.1668 33.873 32.1652H32.9629V31.2578C32.9629 30.1146 32.4924 29.1276 31.7519 28.507C31.0113 27.8865 30.0565 27.612 29.0942 27.612H22.9911V22.1459C22.9911 21.0831 22.716 20.1187 22.0491 19.4485C21.3822 18.7778 20.4225 18.4996 19.3649 18.4996H16.6471V6.65653ZM39.0112 26.0333L43.9122 33.0723H40.8172L38.0817 26.5725C38.415 26.3786 38.6823 26.2245 39.0112 26.0333ZM6.89122 26.697H14.834V39.46C11.524 39.4606 8.10663 39.4617 4.86391 39.4618V28.7361C4.86391 27.6002 5.76114 26.6968 6.89122 26.697ZM7.57997 28.5208C6.34382 28.4933 6.34382 30.3706 7.57997 30.3428H12.118C13.3541 30.3703 13.3541 28.4929 12.118 28.5208H7.57997ZM7.49321 32.1648C6.31187 32.2478 6.39615 34.0177 7.57997 33.9869H12.118C13.3008 33.9627 13.3008 32.1905 12.118 32.1648H7.57997C7.55105 32.1634 7.52213 32.1634 7.49321 32.1648ZM57.4411 33.0723H60.159V35.8106H57.4411V33.0723ZM16.6471 33.9869H33.163L34.5228 39.4565C28.5057 39.4576 22.598 39.459 16.6471 39.4599V33.9869ZM41.127 34.8961H47.5206L48.953 39.4547C46.3498 39.4548 43.7531 39.456 41.127 39.4565V34.8961ZM7.49321 35.8106C6.31291 35.8943 6.3971 37.6625 7.57997 37.6326H12.118C13.3541 37.6602 13.3541 35.7827 12.118 35.8106H7.57997C7.55105 35.8092 7.52213 35.8092 7.49321 35.8106ZM57.4411 37.6326H60.159V45.83H57.4411V37.6326ZM57.4411 47.652H60.159V50.3832H57.4411V47.652ZM13.931 50.3032C17.4464 50.3032 20.275 53.1457 20.275 56.6784C20.275 60.2111 17.4464 63.059 13.931 63.059C10.4156 63.059 7.57997 60.2111 7.57997 56.6784C7.57997 53.1457 10.4156 50.3032 13.931 50.3032ZM49.2841 50.3032C52.7995 50.3032 55.6281 53.1457 55.6281 56.6784C55.6281 60.2111 52.7995 63.059 49.2841 63.059C45.7687 63.059 42.9401 60.2111 42.9401 56.6784C42.9401 53.1457 45.7687 50.3032 49.2841 50.3032ZM13.931 52.8173C11.8208 52.8173 10.0906 54.5577 10.0906 56.6784C10.0906 58.7991 11.8208 60.5378 13.931 60.5378C16.0413 60.5378 17.7661 58.7991 17.7661 56.6784C17.7661 54.5577 16.0413 52.8173 13.931 52.8173ZM49.2841 52.8173C47.1738 52.8173 45.4437 54.5577 45.4437 56.6784C45.4437 58.7991 47.1738 60.5378 49.2841 60.5378C51.3943 60.5378 53.1262 58.7991 53.1262 56.6784C53.1262 54.5577 51.3943 52.8173 49.2841 52.8173Z" fill="white"/>
</svg>
