<svg width="19" height="23" viewBox="0 0 19 23" fill="none" xmlns="http://www.w3.org/2000/svg">
<path d="M17.0207 9.34286C17.0106 15.3427 9.00039 21.3546 9.00039 21.3546C9.00039 21.3546 1.01024 15.3668 1.02029 9.36699C1.02384 7.24531 1.87013 5.20926 3.37297 3.70674C4.87581 2.20423 6.91211 1.35832 9.03389 1.35512C11.1557 1.35192 13.1892 2.19169 14.687 3.68968C16.1848 5.18767 17.0242 7.22118 17.0207 9.34286Z" stroke="white" stroke-width="2" stroke-linecap="round" stroke-linejoin="round"/>
<path d="M9.01547 12.3548C10.6724 12.3524 12.0178 11.0072 12.0206 9.3504C12.0233 7.69359 10.6824 6.3525 9.02552 6.355C7.36862 6.3575 6.02319 7.70263 6.02042 9.35945C6.01764 11.0163 7.35857 12.3573 9.01547 12.3548Z" stroke="white" stroke-width="2" stroke-linecap="round" stroke-linejoin="round"/>
</svg>
